<svg
    xmlns="http://www.w3.org/2000/svg"
    viewBox="0 0 24 24"
    id="vector">
    <g
        id="group"
        transform="translate(2.5 2.5) scale(0.8 0.8)">
        <path
            id="path"
            d="M 12 20 L 2 20 L 2 18 L 7.75 18 L 7.75 18 C 7.02 15.19 4.81 12.99 2 12.26 C 2.64 12.1 3.31 12 4 12 C 8.42 12 12 15.58 12 20 Z M 22 12.26 C 21.36 12.1 20.69 12 20 12 C 17.07 12 14.52 13.58 13.12 15.93 C 13.41 16.59 13.65 17.28 13.79 18 C 13.92 18.65 13.99 19.32 13.99 20 L 15.99 20 L 21.99 20 L 21.99 18 L 16.24 18 C 16.98 15.19 19.19 12.99 22 12.26 Z M 15.64 11.02 C 16.42 8.93 17.87 7.18 19.73 6.02 C 15.44 6.16 12 9.67 12 14 C 12 14.01 12 14.02 12 14.02 C 12.95 12.75 14.2 11.72 15.64 11.02 Z M 11.42 8.85 C 10.58 6.66 8.88 4.89 6.7 4 C 8.14 5.86 9 8.18 9 10.71 C 9 10.92 8.97 11.12 8.96 11.32 C 9.39 11.56 9.79 11.84 10.18 12.14 C 10.39 10.96 10.83 9.85 11.42 8.85 Z"
            fill="#000000"/>
    </g>
</svg>
