<!-- Generator: Adobe Illustrator 19.1.0, SVG Export PlugIn . SVG Version: 6.00 Build 0)  --><svg version="1.1" id="Layer_2" xmlns="http://www.w3.org/2000/svg" xmlns:xlink="http://www.w3.org/1999/xlink" x="0px" y="0px" viewBox="0 0 64 64" style="enable-background:new 0 0 64 64;" xml:space="preserve">
<style type="text/css">
	.st0{fill:#000;}
</style>
<g>
	<path class="st0" d="M49.7,10C46.5,3.9,40,0,33,0c-8.6,0-16.2,5.9-18.3,14.1C14.1,14,13.6,14,13,14C5.8,14,0,19.8,0,27
		s5.8,13,13,13l36,0c8.3,0,15-6.7,15-15C64,17,57.7,10.4,49.7,10z M49,36l-36,0c-5,0-9-4-9-9s4-9,9-9c0.9,0,1.8,0.1,2.6,0.4l2.2,0.7
		l0.3-2.3C19.3,9.5,25.6,4,33,4c5.9,0,11.3,3.5,13.7,8.9l0.6,1.2l1.6-0.1c0.1,0,0.1,0,0.2,0c6.1,0,11,4.9,11,11
		C60,31.1,55.1,36,49,36z" style="fill: #000;"></path>
	<path class="st0" d="M13.2,44.4c-0.9-0.7-2.1-0.5-2.8,0.3l-6.4,8c-0.7,0.9-0.6,2.1,0.3,2.8C4.7,55.9,5.2,56,5.6,56
		c0.6,0,1.2-0.3,1.6-0.8l6.4-8C14.2,46.4,14.1,45.1,13.2,44.4z" style="fill: #000;"></path>
	<path class="st0" d="M9.9,63.6c0.4,0.3,0.8,0.4,1.2,0.4c0.6,0,1.2-0.3,1.6-0.8l12.8-16c0.7-0.9,0.6-2.1-0.3-2.8
		c-0.9-0.7-2.1-0.6-2.8,0.3l-12.8,16C8.9,61.6,9.1,62.9,9.9,63.6z" style="fill: #000;"></path>
	<path class="st0" d="M37.2,44.4c-0.9-0.7-2.1-0.5-2.8,0.3l-6.4,8c-0.7,0.9-0.6,2.1,0.3,2.8c0.4,0.3,0.8,0.4,1.2,0.4
		c0.6,0,1.2-0.3,1.6-0.8l6.4-8C38.3,46.4,38.1,45.1,37.2,44.4z" style="fill: #000;"></path>
	<path class="st0" d="M33.9,63.6c0.4,0.3,0.8,0.4,1.2,0.4c0.6,0,1.2-0.3,1.6-0.8l12.8-16c0.7-0.9,0.6-2.1-0.3-2.8
		c-0.9-0.7-2.1-0.6-2.8,0.3l-12.8,16C32.9,61.6,33.1,62.9,33.9,63.6z" style="fill: #000;"></path>
</g>
</svg>