<!-- Generator: Adobe Illustrator 19.1.0, SVG Export PlugIn . SVG Version: 6.00 Build 0)  --><svg version="1.1" id="Layer_2" xmlns="http://www.w3.org/2000/svg" xmlns:xlink="http://www.w3.org/1999/xlink" x="0px" y="0px" viewBox="0 0 64 64" style="enable-background:new 0 0 64 64;" xml:space="preserve">
<style type="text/css">
	.st0{fill:#000;}
</style>
<g>
	<path class="st0" d="M24.2,61.5c0.4,0.3,0.8,0.4,1.2,0.4c0.6,0,1.2-0.3,1.6-0.8L39.1,46h-8l7.4-9.2c0.7-0.9,0.6-2.1-0.3-2.8
		c-0.9-0.7-2.1-0.6-2.8,0.3L22.8,50h8l-7,8.7C23.2,59.6,23.3,60.9,24.2,61.5z" style="fill: #000;"></path>
	<path class="st0" d="M46.8,38L43,38c-1.1,0-2,0.9-2,2s0.9,2,2,2h0l3.8,0C53.5,42,59,36.6,59,30.1c0-6.5-5.3-11.7-12-11.9
		c-2.7-5-8-8.2-13.9-8.2c-1.6,0-3.2,0.3-4.6,0.7C27.1,5.7,22.5,2,17,2c-0.2,0-0.5,0-0.7,0.1c-0.1,0-0.1,0-0.2,0l-2.9,0.2l1.2,2.6
		c0.3,0.7,0.5,1.4,0.5,2.1c0,2.8-2.2,5-5,5c-0.7,0-1.4-0.1-2-0.4l-2.6-1.1l-0.2,2.8l0,0.1C5,13.6,5,13.8,5,14
		c0,4.8,2.8,8.9,6.8,10.8C10.1,26.7,9,29.1,9,31.8C9,37.4,13.7,42,19.5,42H25c1.1,0,2-0.9,2-2s-0.9-2-2-2h-5.5
		c-3.6,0-6.5-2.8-6.5-6.2c0-3.4,2.9-6.2,6.4-6.2l2,0.1l0.2-1.8c0.7-5.6,5.7-9.8,11.5-9.8c4.8,0,9,2.8,10.8,7l0.6,1.4l1.5-0.1
		c0.3,0,0.5,0,0.8,0c4.5,0,8.2,3.5,8.2,7.9C55,34.5,51.3,38,46.8,38z M18,21.7c-0.5,0.1-1,0.2-1.5,0.3c-3.6-0.2-6.4-2.7-7.2-6
		c0.2,0,0.4,0,0.7,0c5,0,9-4,9-9c0-0.2,0-0.5,0-0.7c3,0.7,5.3,3.1,6,6.1C21.4,14.4,18.9,17.7,18,21.7z" style="fill: #000;"></path>
</g>
</svg>