<!-- Generator: Adobe Illustrator 19.1.0, SVG Export PlugIn . SVG Version: 6.00 Build 0)  --><svg version="1.1" id="Layer_2" xmlns="http://www.w3.org/2000/svg" xmlns:xlink="http://www.w3.org/1999/xlink" x="0px" y="0px" viewBox="0 0 64 64" style="enable-background:new 0 0 64 64;" xml:space="preserve">
<style type="text/css">
	.st0{fill:#000;}
</style>
<g>
	<path class="st0" d="M49.7,10C46.5,3.9,40,0,33,0c-8.6,0-16.2,5.9-18.3,14.1C14.1,14,13.6,14,13,14C5.8,14,0,19.8,0,27
		s5.8,13,13,13l36,0c8.3,0,15-6.7,15-15C64,17,57.7,10.4,49.7,10z M49.1,36L13,36c-5,0-9-4-9-9s4-9,9-9c0.9,0,1.8,0.1,2.6,0.4
		l2.2,0.7l0.3-2.3C19.3,9.5,25.6,4,33,4c5.9,0,11.3,3.5,13.7,8.9l0.6,1.2l1.6-0.1c0.1,0,0.1,0,0.2,0c6.1,0,11,4.9,11,11
		C60,31.1,55.1,36,49.1,36z" style="fill: #000;"></path>
	<path class="st0" d="M48,62V46c0-1.1-0.9-2-2-2s-2,0.9-2,2v16c0,1.1,0.9,2,2,2S48,63.1,48,62z" style="fill: #000;"></path>
	<path class="st0" d="M38,56V46c0-1.1-0.9-2-2-2s-2,0.9-2,2v10c0,1.1,0.9,2,2,2S38,57.1,38,56z" style="fill: #000;"></path>
	<path class="st0" d="M28,62V46c0-1.1-0.9-2-2-2s-2,0.9-2,2v16c0,1.1,0.9,2,2,2S28,63.1,28,62z" style="fill: #000;"></path>
	<path class="st0" d="M16,58c1.1,0,2-0.9,2-2V46c0-1.1-0.9-2-2-2s-2,0.9-2,2v10C14,57.1,14.9,58,16,58z" style="fill: #000;"></path>
</g>
</svg>