<!-- Generator: Adobe Illustrator 19.1.0, SVG Export PlugIn . SVG Version: 6.00 Build 0)  --><svg version="1.1" id="Layer_2" xmlns="http://www.w3.org/2000/svg" xmlns:xlink="http://www.w3.org/1999/xlink" x="0px" y="0px" viewBox="0 0 64 64" style="enable-background:new 0 0 64 64;" xml:space="preserve">
<style type="text/css">
	.st0{fill:#000;}
</style>
<g>
	<path class="st0" d="M22,4v6c0,1.1,0.9,2,2,2s2-0.9,2-2V4c0-1.1-0.9-2-2-2S22,2.9,22,4z" style="fill: #000;"></path>
	<path class="st0" d="M2,28h6c1.1,0,2-0.9,2-2s-0.9-2-2-2H2c-1.1,0-2,0.9-2,2S0.9,28,2,28z" style="fill: #000;"></path>
	<path class="st0" d="M11.3,16.1c0.4,0.4,0.9,0.6,1.4,0.6s1-0.2,1.4-0.6c0.8-0.8,0.8-2,0-2.8L9.9,9C9.1,8.3,7.8,8.3,7,9
		c-0.8,0.8-0.8,2,0,2.8L11.3,16.1z" style="fill: #000;"></path>
	<path class="st0" d="M38.2,9l-4.3,4.3c-0.8,0.8-0.8,2,0,2.8c0.4,0.4,0.9,0.6,1.4,0.6s1-0.2,1.4-0.6l4.3-4.3c0.8-0.8,0.8-2,0-2.8
		S38.9,8.3,38.2,9z" style="fill: #000;"></path>
	<path class="st0" d="M7,43c0.4,0.4,0.9,0.6,1.4,0.6s1-0.2,1.4-0.6l4.3-4.3c0.8-0.8,0.8-2,0-2.8c-0.8-0.8-2-0.8-2.8,0L7,40.2
		C6.2,40.9,6.2,42.2,7,43z" style="fill: #000;"></path>
	<path class="st0" d="M53.3,26.1C50.8,21.1,45.7,18,40,18c-2.2,0-4.2,0.5-6.1,1.3C31.7,16,28,14,24,14c-6.6,0-12,5.4-12,12
		c0,3.9,1.9,7.5,5,9.7c-0.3,0.6-0.5,1.2-0.7,1.8c-0.3,1.1,0.4,2.2,1.4,2.4c0.2,0,0.3,0.1,0.5,0.1c0.9,0,1.7-0.6,1.9-1.5
		c0.7-2.6,3.1-4.5,5.8-4.5c0.2,0,0.4,0,0.6,0.1l2.3,0.3l0.1-2.1C29.5,26.5,34.3,22,40,22c4.5,0,8.4,2.7,10.2,6.8l0.5,1.2l1.3,0
		c4.4,0,8,3.6,8,8c0,1.1,0.9,2,2,2s2-0.9,2-2C64,31.8,59.3,26.7,53.3,26.1z M25.3,30c-2.3,0.2-4.3,1.1-6,2.5C17.3,31,16,28.6,16,26
		c0-4.4,3.6-8,8-8c2.6,0,5,1.3,6.5,3.4C27.9,23.6,26,26.6,25.3,30z" style="fill: #000;"></path>
	<path class="st0" d="M63.9,44c0-1.1-0.9-2-2-2H18c-1.1,0-2,0.9-2,2s0.9,2,2,2h43.9C63,46,63.9,45.1,63.9,44z" style="fill: #000;"></path>
	<path class="st0" d="M59.9,52c0-1.1-0.9-2-2-2H22c-1.1,0-2,0.9-2,2s0.9,2,2,2h35.9C59,54,59.9,53.1,59.9,52z" style="fill: #000;"></path>
	<path class="st0" d="M30,58c-1.1,0-2,0.9-2,2s0.9,2,2,2h23.9c1.1,0,2-0.9,2-2s-0.9-2-2-2H30z" style="fill: #000;"></path>
	<path class="st0" d="M20.1,58c-1.1,0-2,0.9-2,2s0.9,2,2,2H24c1.1,0,2-0.9,2-2s-0.9-2-2-2H20.1z" style="fill: #000;"></path>
</g>
</svg>