<!-- Generator: Adobe Illustrator 19.1.0, SVG Export PlugIn . SVG Version: 6.00 Build 0)  --><svg version="1.1" id="Layer_2" xmlns="http://www.w3.org/2000/svg" xmlns:xlink="http://www.w3.org/1999/xlink" x="0px" y="0px" viewBox="0 0 64 64" style="enable-background:new 0 0 64 64;" xml:space="preserve">
<style type="text/css">
	.st0{fill:#000;}
</style>
<g>
	<path class="st0" d="M59,28.1c0-6.5-5.3-11.7-12-11.9c-2.7-5-8-8.2-13.9-8.2c-1.6,0-3.2,0.3-4.6,0.7C27.1,3.7,22.5,0,17,0
		c-0.2,0-0.5,0-0.7,0.1c-0.1,0-0.1,0-0.2,0l-2.9,0.2l1.2,2.6c0.3,0.7,0.5,1.4,0.5,2.1c0,2.8-2.2,5-5,5c-0.7,0-1.4-0.1-2-0.4L5.3,8.4
		l-0.2,2.8l0,0.1C5,11.6,5,11.8,5,12c0,4.8,2.8,8.9,6.8,10.8C10.1,24.7,9,27.1,9,29.8C9,35.4,13.7,40,19.5,40l27.3,0
		C53.5,40,59,34.6,59,28.1z M9.2,13.9c0.2,0,0.4,0,0.7,0c5,0,9-4,9-9c0-0.3,0-0.5,0-0.8c3,0.7,5.3,3.1,6,6.1
		c-3.4,2.1-5.9,5.4-6.9,9.3c-0.5,0.1-1,0.2-1.5,0.3C12.9,19.8,10,17.3,9.2,13.9z M19.5,36c-3.6,0-6.5-2.8-6.5-6.2
		c0-3.4,2.9-6.2,6.4-6.2l2,0.1l0.2-1.8c0.7-5.6,5.7-9.8,11.5-9.8c4.8,0,9,2.8,10.8,7l0.6,1.4l1.5-0.1c0.3,0,0.5,0,0.8,0
		c4.5,0,8.2,3.5,8.2,7.9c0,4.3-3.7,7.9-8.2,7.9L19.5,36z" style="fill: #000;"></path>
	<path class="st0" d="M21,62c0-0.5-0.2-1-0.6-1.4c-0.8-0.7-2.1-0.7-2.8,0C17.2,60.9,17,61.5,17,62c0,0.5,0.2,1,0.6,1.4
		C18,63.8,18.5,64,19,64c0.5,0,1-0.2,1.4-0.6C20.8,63,21,62.5,21,62z" style="fill: #000;"></path>
	<path class="st0" d="M15,56c0.5,0,1-0.2,1.4-0.6C16.8,55,17,54.5,17,54c0-0.5-0.2-1-0.6-1.4c-0.8-0.7-2.1-0.7-2.8,0
		C13.2,52.9,13,53.5,13,54c0,0.5,0.2,1,0.6,1.4C14,55.8,14.5,56,15,56z" style="fill: #000;"></path>
	<path class="st0" d="M20.4,44.6c-0.8-0.7-2.1-0.7-2.8,0C17.2,44.9,17,45.5,17,46c0,0.5,0.2,1,0.6,1.4C18,47.8,18.5,48,19,48
		c0.5,0,1-0.2,1.4-0.6C20.8,47,21,46.5,21,46C21,45.5,20.8,44.9,20.4,44.6z" style="fill: #000;"></path>
	<path class="st0" d="M29,50c0-0.5-0.2-1-0.6-1.4c-0.8-0.7-2.1-0.7-2.8,0C25.2,48.9,25,49.5,25,50c0,0.5,0.2,1,0.6,1.4
		C26,51.8,26.5,52,27,52c0.5,0,1-0.2,1.4-0.6C28.8,51,29,50.5,29,50z" style="fill: #000;"></path>
	<path class="st0" d="M29,60c0.5,0,1-0.2,1.4-0.6C30.8,59,31,58.5,31,58c0-0.5-0.2-1-0.6-1.4c-0.8-0.7-2.1-0.7-2.8,0
		C27.2,56.9,27,57.5,27,58c0,0.5,0.2,1,0.6,1.4C28,59.8,28.5,60,29,60z" style="fill: #000;"></path>
	<path class="st0" d="M39,54c0-0.5-0.2-1-0.6-1.4c-0.8-0.7-2.1-0.7-2.8,0C35.2,52.9,35,53.5,35,54c0,0.5,0.2,1,0.6,1.4
		C36,55.8,36.5,56,37,56c0.5,0,1-0.2,1.4-0.6C38.8,55,39,54.5,39,54z" style="fill: #000;"></path>
	<path class="st0" d="M40.4,44.6c-0.8-0.7-2.1-0.7-2.8,0C37.2,44.9,37,45.5,37,46c0,0.5,0.2,1,0.6,1.4C38,47.8,38.5,48,39,48
		c0.5,0,1-0.2,1.4-0.6C40.8,47,41,46.5,41,46C41,45.5,40.8,44.9,40.4,44.6z" style="fill: #000;"></path>
	<path class="st0" d="M50.4,49.4C50.8,49,51,48.5,51,48c0-0.5-0.2-1-0.6-1.4c-0.8-0.7-2.1-0.7-2.8,0C47.2,47,47,47.5,47,48
		c0,0.5,0.2,1,0.6,1.4C48,49.8,48.5,50,49,50C49.5,50,50,49.8,50.4,49.4z" style="fill: #000;"></path>
	<path class="st0" d="M45.6,56.6C45.2,56.9,45,57.5,45,58c0,0.5,0.2,1,0.6,1.4C46,59.8,46.5,60,47,60c0.5,0,1-0.2,1.4-0.6
		C48.8,59,49,58.5,49,58c0-0.5-0.2-1-0.6-1.4C47.7,55.8,46.3,55.8,45.6,56.6z" style="fill: #000;"></path>
	<path class="st0" d="M39,64c0.5,0,1-0.2,1.4-0.6C40.8,63,41,62.5,41,62c0-0.5-0.2-1-0.6-1.4c-0.8-0.7-2.1-0.7-2.8,0
		C37.2,60.9,37,61.5,37,62c0,0.5,0.2,1,0.6,1.4C38,63.8,38.5,64,39,64z" style="fill: #000;"></path>
</g>
</svg>