<!-- Generator: Adobe Illustrator 19.1.0, SVG Export PlugIn . SVG Version: 6.00 Build 0)  --><svg version="1.1" id="Layer_2" xmlns="http://www.w3.org/2000/svg" xmlns:xlink="http://www.w3.org/1999/xlink" x="0px" y="0px" viewBox="0 0 64 64" style="enable-background:new 0 0 64 64;" xml:space="preserve">
<style type="text/css">
	.st0{fill:#000;}
</style>
<g>
	<path class="st0" d="M11,22c0,3.9,1.9,7.5,5,9.7c-0.6,1.3-1,2.7-1,4.3c0,5.5,4.5,10,10,10h26c6.6,0,12-5.4,12-12
		c0-6.2-4.7-11.3-10.7-11.9C49.8,17.1,44.7,14,39,14c-2.2,0-4.2,0.5-6.1,1.3C30.7,12,27,10,23,10C16.4,10,11,15.4,11,22z M39,18
		c4.5,0,8.4,2.7,10.2,6.8l0.5,1.2l1.3,0c4.4,0,8,3.6,8,8c0,4.4-3.6,8-8,8H25c-3.3,0-6-2.7-6-6s2.7-6,6-6c0.2,0,0.4,0,0.6,0.1
		l2.3,0.3l0.1-2.1C28.5,22.5,33.3,18,39,18z M29.5,17.4c-2.6,2.1-4.5,5.2-5.2,8.6c-2.3,0.2-4.3,1.1-6,2.5C16.3,27,15,24.6,15,22
		c0-4.4,3.6-8,8-8C25.6,14,28,15.3,29.5,17.4z" style="fill: #000;"></path>
	<path class="st0" d="M25,6V2c0-1.1-0.9-2-2-2s-2,0.9-2,2v4c0,1.1,0.9,2,2,2S25,7.1,25,6z" style="fill: #000;"></path>
	<path class="st0" d="M1,22c0,1.1,0.9,2,2,2h4c1.1,0,2-0.9,2-2s-0.9-2-2-2H3C1.9,20,1,20.9,1,22z" style="fill: #000;"></path>
	<path class="st0" d="M8,9.9l2.3,2.3c0.4,0.4,0.9,0.6,1.4,0.6c0.5,0,1-0.2,1.4-0.6c0.8-0.8,0.8-2,0-2.8L10.9,7c-0.8-0.8-2-0.8-2.8,0
		C7.2,7.8,7.2,9.1,8,9.9z" style="fill: #000;"></path>
	<path class="st0" d="M32.9,12.1c0.4,0.4,0.9,0.6,1.4,0.6c0.5,0,1-0.2,1.4-0.6L38,9.9c0.8-0.8,0.8-2,0-2.8c-0.8-0.8-2-0.8-2.8,0
		l-2.3,2.3C32.1,10.1,32.1,11.3,32.9,12.1z" style="fill: #000;"></path>
	<path class="st0" d="M8,37c0.4,0.4,0.9,0.6,1.4,0.6s1-0.2,1.4-0.6l2.3-2.3c0.8-0.8,0.8-2,0-2.8c-0.8-0.8-2-0.8-2.8,0L8,34.2
		C7.2,34.9,7.2,36.2,8,37z" style="fill: #000;"></path>
	<path class="st0" d="M51,58c1.1,0,2-0.9,2-2v-6c0-1.1-0.9-2-2-2s-2,0.9-2,2v6C49,57.1,49.9,58,51,58z" style="fill: #000;"></path>
	<path class="st0" d="M43,48c-1.1,0-2,0.9-2,2v2c0,1.1,0.9,2,2,2s2-0.9,2-2v-2C45,48.9,44.1,48,43,48z" style="fill: #000;"></path>
	<path class="st0" d="M35,48c-1.1,0-2,0.9-2,2v6c0,1.1,0.9,2,2,2s2-0.9,2-2v-6C37,48.9,36.1,48,35,48z" style="fill: #000;"></path>
	<path class="st0" d="M27,54c1.1,0,2-0.9,2-2v-2c0-1.1-0.9-2-2-2s-2,0.9-2,2v2C25,53.1,25.9,54,27,54z" style="fill: #000;"></path>
	<path class="st0" d="M25.6,59.4c0.4,0.4,0.9,0.6,1.4,0.6c0.5,0,1-0.2,1.4-0.6C28.8,59,29,58.5,29,58c0-0.5-0.2-1-0.6-1.4
		c-0.8-0.7-2.1-0.7-2.8,0C25.2,56.9,25,57.5,25,58C25,58.5,25.2,59,25.6,59.4z" style="fill: #000;"></path>
	<path class="st0" d="M33.6,60.6C33.2,60.9,33,61.5,33,62c0,0.5,0.2,1,0.6,1.4c0.4,0.4,0.9,0.6,1.4,0.6c0.5,0,1-0.2,1.4-0.6
		C36.8,63,37,62.5,37,62c0-0.5-0.2-1-0.6-1.4C35.6,59.8,34.3,59.8,33.6,60.6z" style="fill: #000;"></path>
	<path class="st0" d="M41.6,56.6C41.2,56.9,41,57.5,41,58c0,0.5,0.2,1,0.6,1.4c0.4,0.4,0.9,0.6,1.4,0.6c0.5,0,1-0.2,1.4-0.6
		C44.8,59,45,58.5,45,58c0-0.5-0.2-1-0.6-1.4C43.6,55.8,42.3,55.8,41.6,56.6z" style="fill: #000;"></path>
	<path class="st0" d="M49.6,63.4c0.4,0.4,0.9,0.6,1.4,0.6c0.5,0,1-0.2,1.4-0.6C52.8,63,53,62.5,53,62c0-0.5-0.2-1-0.6-1.4
		c-0.8-0.7-2.1-0.7-2.8,0C49.2,60.9,49,61.5,49,62C49,62.5,49.2,63,49.6,63.4z" style="fill: #000;"></path>
</g>
</svg>