<!-- Generator: Adobe Illustrator 19.1.0, SVG Export PlugIn . SVG Version: 6.00 Build 0)  --><svg version="1.1" id="Layer_2" xmlns="http://www.w3.org/2000/svg" xmlns:xlink="http://www.w3.org/1999/xlink" x="0px" y="0px" viewBox="0 0 64 64" style="enable-background:new 0 0 64 64;" xml:space="preserve">
<style type="text/css">
	.st0{fill:#000;}
</style>
<g>
	<path class="st0" d="M32,38H8c-2.2,0-4-1.8-4-4s1.8-4,4-4h26c6.6,0,12-5.4,12-12S40.6,6,34,6c-1.1,0-2,0.9-2,2s0.9,2,2,2
		c4.4,0,8,3.6,8,8s-3.6,8-8,8H8c-4.4,0-8,3.6-8,8s3.6,8,8,8h24c3.3,0,6,2.7,6,6s-2.7,6-6,6c-1.1,0-2,0.9-2,2s0.9,2,2,2
		c5.5,0,10-4.5,10-10S37.5,38,32,38z" style="fill: #000;"></path>
	<path class="st0" d="M12,20c0,1.1,0.9,2,2,2h12c3.3,0,6-2.7,6-6s-2.7-6-6-6c-1.1,0-2,0.9-2,2s0.9,2,2,2c1.1,0,2,0.9,2,2s-0.9,2-2,2
		H14C12.9,18,12,18.9,12,20z" style="fill: #000;"></path>
	<path class="st0" d="M42,32c0,1.1,0.9,2,2,2h6c5.5,0,10-4.5,10-10c0-5.5-4.5-10-10-10c-1.1,0-2,0.9-2,2s0.9,2,2,2c3.3,0,6,2.7,6,6
		c0,3.3-2.7,6-6,6h-6C42.9,30,42,30.9,42,32z" style="fill: #000;"></path>
	<path class="st0" d="M56,38H44c-1.1,0-2,0.9-2,2s0.9,2,2,2h12c2.2,0,4,1.8,4,4c0,2.2-1.8,4-4,4c-1.1,0-2,0.9-2,2s0.9,2,2,2
		c4.4,0,8-3.6,8-8C64,41.6,60.4,38,56,38z" style="fill: #000;"></path>
</g>
</svg>