<!-- Generator: Adobe Illustrator 19.1.0, SVG Export PlugIn . SVG Version: 6.00 Build 0)  --><svg version="1.1" id="Layer_2" xmlns="http://www.w3.org/2000/svg" xmlns:xlink="http://www.w3.org/1999/xlink" x="0px" y="0px" viewBox="0 0 64 64" style="enable-background:new 0 0 64 64;" xml:space="preserve">
<style type="text/css">
	.st0{fill:#000;}
</style>
<g>
	<path class="st0" d="M32,10c1.1,0,2-0.9,2-2V2c0-1.1-0.9-2-2-2s-2,0.9-2,2v6C30,9.1,30.9,10,32,10z" style="fill: #000;"></path>
	<path class="st0" d="M4,32h8c1.1,0,2-0.9,2-2s-0.9-2-2-2H4c-1.1,0-2,0.9-2,2S2.9,32,4,32z" style="fill: #000;"></path>
	<path class="st0" d="M18,16c0.5,0,1-0.2,1.4-0.6c0.8-0.8,0.8-2,0-2.8l-6-6c-0.8-0.8-2-0.8-2.8,0c-0.8,0.8-0.8,2,0,2.8l6,6
		C17,15.8,17.5,16,18,16z" style="fill: #000;"></path>
	<path class="st0" d="M46,16c0.5,0,1-0.2,1.4-0.6l5.9-5.9c0.8-0.8,0.8-2,0-2.8s-2-0.8-2.8,0l-5.9,5.9c-0.8,0.8-0.8,2,0,2.8
		C45,15.8,45.5,16,46,16z" style="fill: #000;"></path>
	<path class="st0" d="M50,44h6c3.3,0,6-2.7,6-6c0-3.3-2.7-6-6-6c-1.1,0-2,0.9-2,2s0.9,2,2,2c1.1,0,2,0.9,2,2s-0.9,2-2,2h-6
		c-1.1,0-2,0.9-2,2S48.9,44,50,44z" style="fill: #000;"></path>
	<path class="st0" d="M58,48H46c-1.1,0-2,0.9-2,2s0.9,2,2,2h12c1.1,0,2,0.9,2,2c0,1.1-0.9,2-2,2c-1.1,0-2,0.9-2,2s0.9,2,2,2
		c3.3,0,6-2.7,6-6C64,50.7,61.3,48,58,48z" style="fill: #000;"></path>
	<path class="st0" d="M34,48H2c-1.1,0-2,0.9-2,2s0.9,2,2,2h32c2.2,0,4,1.8,4,4c0,2.2-1.8,4-4,4c-1.1,0-2,0.9-2,2s0.9,2,2,2
		c4.4,0,8-3.6,8-8C42,51.6,38.4,48,34,48z" style="fill: #000;"></path>
	<path class="st0" d="M38,28c-1.1,0-2,0.9-2,2s0.9,2,2,2c2.2,0,4,1.8,4,4c0,2.2-1.8,4-4,4h-6c0,0,0,0,0,0c-6.1,0-11-4.9-11-11
		c0-6.1,4.9-11,11-11c4.2,0,8.1,2.5,9.9,6.3c0.5,1,1.7,1.4,2.7,0.9c1-0.5,1.4-1.7,0.9-2.7C43,17.4,37.7,14,32,14
		c-8.3,0-15,6.7-15,15c0,4.3,1.9,8.3,4.8,11H2c-1.1,0-2,0.9-2,2s0.9,2,2,2h36c4.4,0,8-3.6,8-8C46,31.6,42.4,28,38,28z" style="fill: #000;"></path>
</g>
</svg>