<!-- Generator: Adobe Illustrator 19.1.0, SVG Export PlugIn . SVG Version: 6.00 Build 0)  --><svg version="1.1" id="Layer_2" xmlns="http://www.w3.org/2000/svg" xmlns:xlink="http://www.w3.org/1999/xlink" x="0px" y="0px" viewBox="0 0 64 64" style="enable-background:new 0 0 64 64;" xml:space="preserve">
<style type="text/css">
	.st0{fill:#000;}
</style>
<path class="st0" d="M34,4.1V2c0-1.1-0.9-2-2-2s-2,0.9-2,2v2.1C13.3,5.1,0,19,0,36c0,0.7,0.4,1.3,0.9,1.7c0,0,0,0,0,0c0,0,0,0,0.1,0
	c0.1,0.1,0.2,0.1,0.4,0.2c0.1,0,0.1,0,0.2,0.1c0.1,0,0.2,0,0.3,0c0.1,0,0.1,0,0.2,0c0.3,0,0.5-0.1,0.7-0.2c0,0,0,0,0,0
	c0.1,0,0.2-0.1,0.3-0.2c0,0,0,0,0,0c0.2-0.1,0.4-0.3,0.5-0.5C5,35.2,7.2,34,9.5,34c2.3,0,4.5,1.2,5.8,3.1c0.2,0.2,0.4,0.4,0.6,0.6
	c0,0,0,0,0,0c0.9,0.6,2.2,0.4,2.8-0.5c1.3-2,3.5-3.1,5.8-3.1c2.2,0,4.2,1,5.5,2.7V58c0,3.3,2.7,6,6,6s6-2.7,6-6c0-1.1-0.9-2-2-2
	s-2,0.9-2,2c0,1.1-0.9,2-2,2s-2-0.9-2-2V36.7c1.3-1.7,3.3-2.7,5.5-2.7c2.3,0,4.5,1.2,5.8,3.1c0.2,0.2,0.4,0.4,0.6,0.6c0,0,0,0,0,0
	c0,0,0.1,0,0.1,0.1c0.1,0,0.2,0.1,0.3,0.1c0.2,0.1,0.5,0.2,0.7,0.2c0.6,0,1.3-0.3,1.7-0.9c1.3-2,3.5-3.1,5.8-3.1
	c2.3,0,4.5,1.2,5.8,3.1c0.1,0.1,0.2,0.3,0.3,0.4C61,37.8,61.5,38,62,38c1.1,0,2-0.9,2-2C64,19,50.7,5.1,34,4.1z M54.5,30
	c-2.8,0-5.5,1.1-7.5,3c-2-1.9-4.7-3-7.5-3c-2.8,0-5.5,1.1-7.5,3c-2-1.9-4.7-3-7.5-3c-2.8,0-5.5,1.1-7.5,3c-2-1.9-4.7-3-7.5-3
	c-1.8,0-3.5,0.4-5.1,1.3C6.7,18.1,18.2,8,32,8c13.8,0,25.3,10.1,27.6,23.3C58,30.4,56.3,30,54.5,30z" style="fill: #000;"></path>
</svg>