<!-- Generator: Adobe Illustrator 19.1.0, SVG Export PlugIn . SVG Version: 6.00 Build 0)  --><svg version="1.1" id="Layer_3" xmlns="http://www.w3.org/2000/svg" xmlns:xlink="http://www.w3.org/1999/xlink" x="0px" y="0px" viewBox="0 0 64 64" style="enable-background:new 0 0 64 64;" xml:space="preserve">
<g class="st0">
	<path fill="#000" d="M24,51c-0.1-0.8-0.2-1.7-0.5-2.5C21.4,41.4,14,32,14,32s-7.4,9.4-9.5,16.6C4.3,49.4,4.1,50.2,4,51
		c0,0.3,0,0.5,0,0.8C4,57.4,8.5,62,14,62c5.5,0,10-4.6,10-10.2C24,51.5,24,51.3,24,51z"></path>
	<path fill="#000" d="M60,51c-0.1-0.8-0.2-1.7-0.5-2.5C57.4,41.4,50,32,50,32s-7.4,9.4-9.5,16.6c-0.3,0.8-0.4,1.6-0.5,2.5
		c0,0.3,0,0.5,0,0.8C40,57.4,44.5,62,50,62c5.5,0,10-4.6,10-10.2C60,51.5,60,51.3,60,51z"></path>
	<path fill="#000" d="M42,21c-0.1-0.9-0.2-1.7-0.5-2.5C39.4,11.4,32,2,32,2s-7.4,9.4-9.5,16.6c-0.3,0.8-0.4,1.6-0.5,2.5
		c0,0.3,0,0.5,0,0.8C22,27.4,26.5,32,32,32c5.5,0,10-4.6,10-10.2C42,21.5,42,21.3,42,21z"></path>
</g>
</svg>