<!-- Generator: Adobe Illustrator 19.1.0, SVG Export PlugIn . SVG Version: 6.00 Build 0)  --><svg version="1.1" id="Layer_2" xmlns="http://www.w3.org/2000/svg" xmlns:xlink="http://www.w3.org/1999/xlink" x="0px" y="0px" viewBox="0 0 64 64" style="enable-background:new 0 0 64 64;" xml:space="preserve">
<style type="text/css">
	.st0{fill:#000;}
</style>
<g>
	<path class="st0" d="M47,17.2c-2.7-5-8-8.2-13.9-8.2c-1.6,0-3.2,0.3-4.6,0.7C27.1,4.7,22.5,1,17,1c-0.2,0-0.5,0-0.7,0.1
		c-0.1,0-0.1,0-0.2,0l-2.9,0.2l1.2,2.6c0.3,0.7,0.5,1.4,0.5,2.1c0,2.8-2.2,5-5,5c-0.7,0-1.4-0.1-2-0.4L5.3,9.4l-0.2,2.8l0,0.1
		C5,12.6,5,12.8,5,13c0,4.8,2.8,8.9,6.8,10.8C10.1,25.7,9,28.1,9,30.8C9,36.4,13.7,41,19.5,41l27.3,0C53.5,41,59,35.6,59,29.1
		C59,22.7,53.7,17.4,47,17.2z M9.2,14.9c0.2,0,0.4,0,0.7,0c5,0,9-4,9-9c0-0.3,0-0.5,0-0.8c3,0.7,5.3,3.1,6,6.1
		c-3.4,2.1-5.9,5.4-6.9,9.3c-0.5,0.1-1,0.2-1.5,0.3C12.9,20.7,10,18.3,9.2,14.9z M46.8,37l-27.3,0c-3.6,0-6.5-2.8-6.5-6.2
		c0-3.4,2.9-6.2,6.4-6.2l2,0.1l0.2-1.8c0.7-5.6,5.7-9.8,11.5-9.8c4.8,0,9,2.8,10.8,7l0.6,1.4l1.5-0.1c0.3,0,0.5,0,0.8,0
		c4.5,0,8.2,3.5,8.2,7.9C55,33.4,51.3,37,46.8,37z" style="fill: #000;"></path>
	<path class="st0" d="M23,49c0-1.1-0.9-2-2-2c0-1.1-0.9-2-2-2c-1.1,0-2,0.9-2,2h0c-1.1,0-2,0.9-2,2c0,1.1,0.9,2,2,2h0
		c0,1.1,0.9,2,2,2c1.1,0,2-0.9,2-2v0C22.1,51,23,50.1,23,49z" style="fill: #000;"></path>
	<path class="st0" d="M37,49c0-1.1-0.9-2-2-2v0c0-1.1-0.9-2-2-2c0,0,0,0,0,0c-1.1,0-2,0.9-2,2h0c-1.1,0-2,0.9-2,2s0.9,2,2,2h0
		c0,1.1,0.9,2,2,2h0c1.1,0,2-0.9,2-2C36.1,51,37,50.1,37,49z" style="fill: #000;"></path>
	<path class="st0" d="M28.4,57L28.4,57L28.4,57c0-1.1-0.9-2-2-2c0,0,0,0,0,0c-1.1,0-2,0.9-2,2h0c-1.1,0-2,0.9-2,2s0.9,2,2,2h0
		c0,1.1,0.9,2,2,2h0c1.1,0,2-0.9,2-2h0c1.1,0,2-0.9,2-2S29.5,57,28.4,57z" style="fill: #000;"></path>
	<path class="st0" d="M41.6,57L41.6,57c0-1.1-0.9-2-2-2c-1.1,0-2,0.9-2,2h0c-1.1,0-2,0.9-2,2s0.9,2,2,2h0c0,1.1,0.9,2,2,2
		c1.1,0,2-0.9,2-2h0c1.1,0,2-0.9,2-2C43.6,57.9,42.7,57,41.6,57z" style="fill: #000;"></path>
	<path class="st0" d="M49,47c0-1.1-0.9-2-2-2c-1.1,0-2,0.9-2,2h0c-1.1,0-2,0.9-2,2s0.9,2,2,2h0c0,1.1,0.9,2,2,2c1.1,0,2-0.9,2-2v0
		c1.1,0,2-0.9,2-2C51,47.9,50.1,47,49,47z" style="fill: #000;"></path>
</g>
</svg>