<!-- Generator: Adobe Illustrator 19.1.0, SVG Export PlugIn . SVG Version: 6.00 Build 0)  --><svg version="1.1" id="Layer_2" xmlns="http://www.w3.org/2000/svg" xmlns:xlink="http://www.w3.org/1999/xlink" x="0px" y="0px" viewBox="0 0 64 64" style="enable-background:new 0 0 64 64;" xml:space="preserve">
<style type="text/css">
	.st0{fill:#000;}
</style>
<g>
	<path class="st0" d="M43.8,36c-0.9-0.7-2.1-0.6-2.8,0.3L28.4,52h8l-7,8.7c-0.7,0.9-0.6,2.1,0.3,2.8c0.4,0.3,0.8,0.4,1.2,0.4
		c0.6,0,1.2-0.3,1.6-0.8L44.7,48h-8l7.4-9.2C44.8,37.9,44.7,36.7,43.8,36z" style="fill: #000;"></path>
	<path class="st0" d="M21,2v4c0,1.1,0.9,2,2,2s2-0.9,2-2V2c0-1.1-0.9-2-2-2S21,0.9,21,2z" style="fill: #000;"></path>
	<path class="st0" d="M3,20c-1.1,0-2,0.9-2,2s0.9,2,2,2h4c1.1,0,2-0.9,2-2s-0.9-2-2-2H3z" style="fill: #000;"></path>
	<path class="st0" d="M8,9.9l2.3,2.3c0.4,0.4,0.9,0.6,1.4,0.6s1-0.2,1.4-0.6c0.8-0.8,0.8-2,0-2.8l-2.3-2.3c-0.8-0.8-2-0.8-2.8,0
		C7.2,7.8,7.2,9.1,8,9.9z" style="fill: #000;"></path>
	<path class="st0" d="M32.9,12.1c0.4,0.4,0.9,0.6,1.4,0.6s1-0.2,1.4-0.6L38,9.9c0.8-0.8,0.8-2,0-2.8c-0.8-0.8-2-0.8-2.8,0l-2.3,2.3
		C32.1,10.1,32.1,11.4,32.9,12.1z" style="fill: #000;"></path>
	<path class="st0" d="M8,37c0.4,0.4,0.9,0.6,1.4,0.6s1-0.2,1.4-0.6l2.3-2.3c0.8-0.8,0.8-2,0-2.8c-0.8-0.8-2-0.8-2.8,0L8,34.2
		C7.2,35,7.2,36.2,8,37z" style="fill: #000;"></path>
	<path class="st0" d="M63,34c0-6.2-4.7-11.3-10.7-11.9C49.8,17.1,44.7,14,39,14c-2.2,0-4.2,0.5-6.1,1.3C30.7,12.1,27,10,23,10
		c-6.6,0-12,5.4-12,12c0,3.9,1.9,7.5,5,9.7c-0.6,1.3-1,2.7-1,4.3c0,5.5,4.5,10,10,10h4c1.1,0,2-0.9,2-2s-0.9-2-2-2h-4
		c-3.3,0-6-2.7-6-6s2.7-6,6-6c0.2,0,0.4,0,0.6,0.1l2.3,0.3l0.1-2.1C28.5,22.5,33.3,18,39,18c4.5,0,8.4,2.7,10.2,6.8l0.5,1.2l1.3,0
		c4.4,0,8,3.6,8,8c0,4.4-3.6,8-8,8h-4c-1.1,0-2,0.9-2,2s0.9,2,2,2h4C57.6,46,63,40.6,63,34z M24.3,26c-2.3,0.2-4.3,1.1-6,2.5
		C16.3,27.1,15,24.6,15,22c0-4.4,3.6-8,8-8c2.6,0,5,1.3,6.5,3.4C26.9,19.6,25,22.6,24.3,26z" style="fill: #000;"></path>
</g>
</svg>