<!-- Generator: Adobe Illustrator 19.1.0, SVG Export PlugIn . SVG Version: 6.00 Build 0)  --><svg version="1.1" id="Layer_2" xmlns="http://www.w3.org/2000/svg" xmlns:xlink="http://www.w3.org/1999/xlink" x="0px" y="0px" viewBox="0 0 64 64" style="enable-background:new 0 0 64 64;" xml:space="preserve">
<style type="text/css">
	.st0{fill:#000;}
</style>
<g>
	<path class="st0" d="M54.3,32.1c0-11.4-8.6-20.9-19.9-22l-3.7-0.4l1.8,3.3c1.2,2.1,1.8,4.6,1.8,7c0,8.1-6.6,14.8-14.8,14.8
		c-2.2,0-4.3-0.5-6.3-1.4l-3.4-1.6l0.6,3.7C12,46.4,21.2,54.3,32.1,54.3C44.3,54.3,54.3,44.3,54.3,32.1z M32.1,50.3
		c-7.8,0-14.5-4.9-17-11.9c1.4,0.3,2.8,0.5,4.3,0.5c10.4,0,18.8-8.4,18.8-18.8c0-1.8-0.3-3.6-0.8-5.3C44.9,17,50.3,24,50.3,32.1
		C50.3,42.1,42.1,50.3,32.1,50.3z" style="fill: #000;"></path>
</g>
</svg>