<!-- Generator: Adobe Illustrator 19.1.0, SVG Export PlugIn . SVG Version: 6.00 Build 0)  --><svg version="1.1" id="Layer_2" xmlns="http://www.w3.org/2000/svg" xmlns:xlink="http://www.w3.org/1999/xlink" x="0px" y="0px" viewBox="0 0 64 64" style="enable-background:new 0 0 64 64;" xml:space="preserve">
<style type="text/css">
	.st0{fill:#000;}
</style>
<g>
	<path class="st0" d="M49.7,12.1C46.5,5.9,40,2,33,2C24.4,2,16.8,8,14.7,16.1C14.1,16.1,13.6,16,13,16C5.8,16,0,21.9,0,29
		s5.8,13,13,13h9c1.1,0,2-0.9,2-2s-0.9-2-2-2h-9c-5,0-9-4-9-9s4-9,9-9c0.9,0,1.8,0.1,2.6,0.4l2.2,0.7l0.3-2.3C19.3,11.5,25.6,6,33,6
		c5.9,0,11.3,3.5,13.7,8.9l0.6,1.2l1.6-0.1c0.1,0,0.1,0,0.2,0c6.1,0,11,4.9,11,11c0,6.1-4.9,11-10.9,11L42,38c-1.1,0-2,0.9-2,2
		s0.9,2,2,2l7,0c8.3,0,15-6.7,15-15C64,19,57.7,12.5,49.7,12.1z" style="fill: #000;"></path>
	<path class="st0" d="M8.4,57.6C8.8,57.9,9.2,58,9.6,58c0.6,0,1.2-0.3,1.6-0.8l6.4-8c0.7-0.9,0.5-2.1-0.3-2.8
		c-0.9-0.7-2.1-0.5-2.8,0.3l-6.4,8C7.4,55.7,7.5,56.9,8.4,57.6z" style="fill: #000;"></path>
	<path class="st0" d="M37.2,34c-0.9-0.7-2.1-0.6-2.8,0.3L21.8,50l8,0l-7,8.7c-0.7,0.9-0.6,2.1,0.3,2.8c0.4,0.3,0.8,0.4,1.2,0.4
		c0.6,0,1.2-0.3,1.6-0.7L38.2,46l-8,0l7.4-9.2C38.3,35.9,38.1,34.7,37.2,34z" style="fill: #000;"></path>
	<path class="st0" d="M41.6,58c0.6,0,1.2-0.3,1.6-0.8l6.4-7.9c0.7-0.9,0.6-2.1-0.3-2.8c-0.9-0.7-2.1-0.6-2.8,0.3l-6.4,7.9
		c-0.7,0.9-0.6,2.1,0.3,2.8C40.8,57.8,41.2,58,41.6,58z" style="fill: #000;"></path>
</g>
</svg>