<!-- Generator: Adobe Illustrator 19.1.0, SVG Export PlugIn . SVG Version: 6.00 Build 0)  --><svg version="1.1" id="Layer_2" xmlns="http://www.w3.org/2000/svg" xmlns:xlink="http://www.w3.org/1999/xlink" x="0px" y="0px" viewBox="0 0 64 64" style="enable-background:new 0 0 64 64;" xml:space="preserve">
<style type="text/css">
	.st0{fill:#000;}
</style>
<g>
	<path class="st0" d="M48,38h8c3.3,0,6-2.7,6-6s-2.7-6-6-6c-1.1,0-2,0.9-2,2s0.9,2,2,2c1.1,0,2,0.9,2,2s-0.9,2-2,2h-8
		c-1.1,0-2,0.9-2,2S46.9,38,48,38z" style="fill: #000;"></path>
	<path class="st0" d="M58,42H44c-1.1,0-2,0.9-2,2s0.9,2,2,2h14c1.1,0,2,0.9,2,2s-0.9,2-2,2c-1.1,0-2,0.9-2,2s0.9,2,2,2
		c3.3,0,6-2.7,6-6S61.3,42,58,42z" style="fill: #000;"></path>
	<path class="st0" d="M34,42l-21,0c-5,0-9-4-9-9c0-5,4-9,9-9c0.9,0,1.8,0.1,2.6,0.4l2.2,0.7l0.3-2.3C19.3,15.5,25.6,10,33,10
		c5.9,0,11.3,3.5,13.7,8.9l0.6,1.2l1.6-0.1c0.1,0,0.1,0,0.2,0c2.1,0,4.2,0.6,5.9,1.7c0.9,0.6,2.2,0.3,2.8-0.6
		c0.6-0.9,0.3-2.2-0.6-2.8c-2.2-1.4-4.7-2.2-7.3-2.3C46.5,9.9,40,6,33,6c-8.6,0-16.2,5.9-18.3,14.1C14.1,20,13.6,20,13,20
		C5.8,20,0,25.8,0,33s5.8,13,13,13l21,0c2.2,0,4,1.8,4,4c0,2.2-1.8,4-4,4c-1.1,0-2,0.9-2,2s0.9,2,2,2c4.4,0,8-3.6,8-8
		C42,45.6,38.4,42,34,42z" style="fill: #000;"></path>
	<path class="st0" d="M38,34H24c-1.1,0-2,0.9-2,2s0.9,2,2,2h14c4.4,0,8-3.6,8-8c0-4.4-3.6-8-8-8c-1.1,0-2,0.9-2,2s0.9,2,2,2
		c2.2,0,4,1.8,4,4C42,32.2,40.2,34,38,34z" style="fill: #000;"></path>
	<path class="st0" d="M16.6,34.6C16.2,34.9,16,35.5,16,36c0,0.5,0.2,1,0.6,1.4C17,37.8,17.5,38,18,38c0.5,0,1-0.2,1.4-0.6
		C19.8,37,20,36.5,20,36c0-0.5-0.2-1-0.6-1.4C18.7,33.8,17.3,33.8,16.6,34.6z" style="fill: #000;"></path>
</g>
</svg>