<!-- Generator: Adobe Illustrator 19.1.0, SVG Export PlugIn . SVG Version: 6.00 Build 0)  --><svg version="1.1" id="Layer_2" xmlns="http://www.w3.org/2000/svg" xmlns:xlink="http://www.w3.org/1999/xlink" x="0px" y="0px" viewBox="0 0 64 64" style="enable-background:new 0 0 64 64;" xml:space="preserve">
<g>
	<path fill="#000" d="M49.7,10C46.5,3.9,40,0,33,0c-8.6,0-16.2,5.9-18.3,14.1C14.1,14,13.6,14,13,14C5.8,14,0,19.8,0,27
		s5.8,13,13,13l36,0c8.3,0,15-6.7,15-15C64,17,57.7,10.4,49.7,10z M49.1,36L13,36c-5,0-9-4-9-9s4-9,9-9c0.9,0,1.8,0.1,2.6,0.4
		l2.2,0.7l0.3-2.3C19.3,9.5,25.6,4,33,4c5.9,0,11.3,3.5,13.7,8.9l0.6,1.2l1.6-0.1c0.1,0,0.1,0,0.2,0c6.1,0,11,4.9,11,11
		S55.1,36,49.1,36z"></path>
	<path fill="#000" d="M46,58c1.1,0,2-0.9,2-2V46c0-1.1-0.9-2-2-2s-2,0.9-2,2v10C44,57.1,44.9,58,46,58z"></path>
	<path fill="#000" d="M36,44c-1.1,0-2,0.9-2,2v4c0,1.1,0.9,2,2,2s2-0.9,2-2v-4C38,44.9,37.1,44,36,44z"></path>
	<path fill="#000" d="M26,58c1.1,0,2-0.9,2-2V46c0-1.1-0.9-2-2-2s-2,0.9-2,2v10C24,57.1,24.9,58,26,58z"></path>
	<path fill="#000" d="M16,44c-1.1,0-2,0.9-2,2v6c0,1.1,0.9,2,2,2s2-0.9,2-2v-6C18,44.9,17.1,44,16,44z"></path>
	<path fill="#000" d="M14.6,56.6C14.2,56.9,14,57.5,14,58c0,0.5,0.2,1,0.6,1.4C15,59.8,15.5,60,16,60c0.5,0,1-0.2,1.4-0.6
		C17.8,59,18,58.5,18,58c0-0.5-0.2-1-0.6-1.4C16.7,55.8,15.3,55.8,14.6,56.6z"></path>
	<path fill="#000" d="M24.6,63.4C25,63.8,25.5,64,26,64c0.5,0,1-0.2,1.4-0.6C27.8,63,28,62.5,28,62c0-0.5-0.2-1-0.6-1.4
		c-0.8-0.7-2.1-0.7-2.8,0C24.2,60.9,24,61.5,24,62C24,62.5,24.2,63,24.6,63.4z"></path>
	<path fill="#000" d="M34.6,54.6C34.2,55,34,55.5,34,56c0,0.5,0.2,1,0.6,1.4C35,57.8,35.5,58,36,58c0.5,0,1-0.2,1.4-0.6
		C37.8,57,38,56.5,38,56c0-0.5-0.2-1-0.6-1.4C36.7,53.8,35.3,53.8,34.6,54.6z"></path>
	<path fill="#000" d="M44.6,63.4C45,63.8,45.5,64,46,64c0.5,0,1-0.2,1.4-0.6C47.8,63,48,62.5,48,62c0-0.5-0.2-1-0.6-1.4
		c-0.8-0.7-2.1-0.7-2.8,0C44.2,60.9,44,61.5,44,62C44,62.5,44.2,63,44.6,63.4z"></path>
</g>
</svg>