<!-- Generator: Adobe Illustrator 19.1.0, SVG Export PlugIn . SVG Version: 6.00 Build 0)  --><svg version="1.1" id="Layer_2" xmlns="http://www.w3.org/2000/svg" xmlns:xlink="http://www.w3.org/1999/xlink" x="0px" y="0px" viewBox="0 0 64 64" style="enable-background:new 0 0 64 64;" xml:space="preserve">
<style type="text/css">
	.st0{fill:#000;}
</style>
<g>
	<path class="st0" d="M49.7,10C46.5,3.9,40,0,33,0c-8.6,0-16.2,5.9-18.3,14.1C14.1,14,13.6,14,13,14C5.8,14,0,19.8,0,27
		s5.8,13,13,13l36,0c8.3,0,15-6.7,15-15C64,17,57.7,10.4,49.7,10z M49,36l-36,0c-5,0-9-4-9-9s4-9,9-9c0.9,0,1.8,0.1,2.6,0.4l2.2,0.7
		l0.3-2.3C19.3,9.5,25.6,4,33,4c5.9,0,11.3,3.5,13.7,8.9l0.6,1.2l1.6-0.1c0.1,0,0.1,0,0.2,0c6.1,0,11,4.9,11,11
		C60,31.1,55.1,36,49,36z" style="fill: #000;"></path>
	<path class="st0" d="M44,44c-1.1,0-2,0.9-2,2v16c0,0,0,0,0,0v0c0,0,0,0.1,0,0.1c0,0.1,0,0.2,0,0.3c0,0.1,0,0.1,0,0.2
		c0,0.1,0,0.1,0.1,0.2c0,0.1,0.1,0.1,0.1,0.2c0,0.1,0.1,0.1,0.1,0.2c0,0.1,0.1,0.1,0.1,0.1c0,0.1,0.1,0.1,0.1,0.2
		c0,0,0.1,0.1,0.1,0.1c0,0,0.1,0.1,0.1,0.1c0.1,0,0.1,0.1,0.2,0.1c0,0,0.1,0,0.1,0.1c0,0,0,0,0,0c0.1,0,0.2,0.1,0.3,0.1
		c0,0,0,0,0.1,0c0.1,0,0.1,0,0.2,0c0.1,0,0.1,0,0.2,0c0,0,0,0,0,0c0.2,0,0.3,0,0.5-0.1c0,0,0.1,0,0.1,0c0.1,0,0.3-0.1,0.4-0.2
		c0,0,0,0,0.1,0c0.1-0.1,0.3-0.2,0.4-0.3c0,0,0.1-0.1,0.1-0.1c0.1-0.1,0.2-0.3,0.3-0.4c0,0,0,0,0,0c1.4-3.1,4.6-5,8-4.7
		c1.1,0.1,2.1-0.7,2.2-1.8c0.1-1.1-0.7-2.1-1.8-2.2c-3-0.2-5.8,0.6-8.1,2.3V46C46,44.9,45.1,44,44,44z" style="fill: #000;"></path>
	<path class="st0" d="M38,52v-6c0-1.1-0.9-2-2-2s-2,0.9-2,2v6c0,1.1,0.9,2,2,2S38,53.1,38,52z" style="fill: #000;"></path>
	<path class="st0" d="M30,56V46c0-1.1-0.9-2-2-2s-2,0.9-2,2v10c0,1.1,0.9,2,2,2S30,57.1,30,56z" style="fill: #000;"></path>
	<path class="st0" d="M20,44c-1.1,0-2,0.9-2,2v10.4c-2.3-1.7-5.2-2.6-8.1-2.3c-1.1,0.1-1.9,1.1-1.8,2.2c0.1,1.1,1.1,1.9,2.2,1.8
		c3.4-0.3,6.6,1.6,8,4.7c0,0,0,0,0,0c0.1,0.1,0.2,0.3,0.3,0.4c0,0,0.1,0.1,0.1,0.1c0.1,0.1,0.2,0.2,0.4,0.3c0,0,0,0,0.1,0
		c0.1,0.1,0.3,0.1,0.4,0.2c0,0,0.1,0,0.1,0c0.2,0,0.3,0.1,0.5,0.1c0,0,0,0,0,0c0.1,0,0.1,0,0.2,0c0.1,0,0.2,0,0.2,0c0,0,0,0,0.1,0
		c0.1,0,0.2-0.1,0.3-0.1c0,0,0,0,0,0c0,0,0.1,0,0.1-0.1c0.1,0,0.1-0.1,0.2-0.1c0.1,0,0.1-0.1,0.1-0.1c0,0,0.1-0.1,0.1-0.1
		c0,0,0.1-0.1,0.1-0.2c0,0,0.1-0.1,0.1-0.1c0-0.1,0.1-0.1,0.1-0.2c0-0.1,0.1-0.1,0.1-0.2c0-0.1,0-0.1,0.1-0.2c0-0.1,0-0.1,0.1-0.2
		c0-0.1,0-0.2,0-0.2c0,0,0-0.1,0-0.1v0c0,0,0,0,0,0V46C22,44.9,21.1,44,20,44z" style="fill: #000;"></path>
	<path class="st0" d="M26.6,63.4C27,63.8,27.5,64,28,64c0.5,0,1.1-0.2,1.4-0.6C29.8,63,30,62.5,30,62c0-0.5-0.2-1-0.6-1.4
		c-0.7-0.7-2.1-0.7-2.8,0C26.2,61,26,61.5,26,62C26,62.5,26.2,63,26.6,63.4z" style="fill: #000;"></path>
	<path class="st0" d="M34.6,59.4C35,59.8,35.5,60,36,60c0.5,0,1-0.2,1.4-0.6C37.8,59,38,58.5,38,58s-0.2-1-0.6-1.4
		c-0.7-0.7-2.1-0.7-2.8,0C34.2,57,34,57.5,34,58S34.2,59,34.6,59.4z" style="fill: #000;"></path>
	<path class="st0" d="M61.4,57.4C61.8,57,62,56.5,62,56s-0.2-1-0.6-1.4c-0.8-0.8-2.1-0.8-2.8,0C58.2,55,58,55.5,58,56s0.2,1,0.6,1.4
		C59,57.8,59.5,58,60,58C60.5,58,61,57.8,61.4,57.4z" style="fill: #000;"></path>
</g>
</svg>