<?xml version="1.0" encoding="UTF-8" standalone="no"?>
<!-- Generator: Adobe Illustrator 22.0.1, SVG Export Plug-In . SVG Version: 6.00 Build 0)  -->

<svg
   version="1.1"
   id="Layer_1"
   x="0px"
   y="0px"
   viewBox="0 0 30 30"
   style="enable-background:new 0 0 30 30;"
   xml:space="preserve"
   xmlns="http://www.w3.org/2000/svg"
   xmlns:svg="http://www.w3.org/2000/svg"><defs
   id="defs964" />
<path
   d="m 5.354981,20.965 c 0,-0.85 0.2,-1.64 0.59,-2.38 0.39,-0.74 0.94,-1.35 1.65,-1.84 v -9.92 c 0,-0.8 0.27,-1.48 0.82,-2.03 0.55,-0.55 1.23,-0.84 2.03,-0.84 0.81,0 1.49,0.28 2.04,0.83 0.55,0.56 0.83,1.23 0.83,2.03 v 9.92 c 0.71,0.49 1.25,1.11 1.64,1.84 0.39,0.73 0.58,1.53 0.58,2.38 0,0.92 -0.23,1.78 -0.68,2.56 -0.45,0.78 -1.07,1.4 -1.85,1.85 -0.78,0.45 -1.63,0.68 -2.56,0.68 -0.92,0 -1.77,-0.23 -2.55,-0.68 -0.78,-0.45 -1.4,-1.07 -1.86,-1.85 -0.46,-0.78 -0.68,-1.63 -0.68,-2.55 z m 1.76,0 c 0,0.93 0.33,1.73 0.98,2.39 0.65,0.66 1.44,0.99 2.36,0.99 0.93,0 1.73,-0.33 2.4,-1 0.67,-0.67 1.01,-1.46 1.01,-2.37 0,-0.62 -0.16,-1.2 -0.48,-1.73 -0.32,-0.53 -0.76,-0.94 -1.32,-1.23 l -0.28,-0.14 c -0.1,-0.04 -0.15,-0.14 -0.15,-0.29 V 6.825 c 0,-0.32 -0.11,-0.59 -0.34,-0.81 -0.23,-0.21 -0.51,-0.32 -0.85,-0.32 -0.32,0 -0.6,0.11 -0.83,0.32 -0.23,0.21 -0.34,0.48 -0.34,0.81 v 10.74 c 0,0.15 -0.05,0.25 -0.14,0.29 l -0.27,0.14 c -0.55,0.29 -0.98,0.7 -1.29,1.23 -0.31,0.53 -0.46,1.1 -0.46,1.74 z m 0.78,0 c 0,0.71 0.24,1.32 0.73,1.82 0.49,0.5 1.07,0.75 1.76,0.75 0.69,0 1.28,-0.25 1.79,-0.75 0.51,-0.5 0.76,-1.11 0.76,-1.81 0,-0.63 -0.22,-1.19 -0.65,-1.67 -0.43,-0.48 -0.96,-0.77 -1.58,-0.85 v -7.36 c 0,-0.06 -0.03,-0.13 -0.1,-0.19 -0.07,-0.07 -0.14,-0.1 -0.22,-0.1 -0.09,0 -0.16,0.03 -0.21,0.08 -0.05,0.06 -0.08,0.12 -0.08,0.21 v 7.34 c -0.61,0.09 -1.13,0.37 -1.56,0.85 -0.43,0.49 -0.64,1.04 -0.64,1.68 z"
   id="path959" />
<path
   id="path2"
   d="m 18.185019,13.17 c 0,-0.22 0.08,-0.4 0.25,-0.55 l 2.4,-2.45 c 0.16,-0.16 0.35,-0.23 0.58,-0.23 0.24,0 0.43,0.08 0.59,0.23 l 2.4,2.45 c 0.16,0.14 0.24,0.33 0.24,0.55 0,0.22 -0.08,0.41 -0.23,0.57 -0.15,0.16 -0.34,0.23 -0.56,0.23 -0.22,0 -0.42,-0.08 -0.57,-0.23 l -1.06,-1.05 v 6.59 c 0,0.22 -0.08,0.41 -0.24,0.56 -0.15,0.14 -0.34,0.22 -0.57,0.22 -0.23,0 -0.42,-0.07 -0.58,-0.22 -0.16,-0.15 -0.24,-0.34 -0.24,-0.56 v -6.59 l -1.06,1.05 c -0.16,0.16 -0.34,0.23 -0.55,0.23 -0.22,0 -0.42,-0.08 -0.57,-0.23 -0.15,-0.15 -0.23,-0.35 -0.23,-0.57 z" /></svg>
