<?xml version="1.0" encoding="UTF-8" standalone="no"?>
<svg viewBox="0 0 192 192" id="vector" version="1.1" width="192" height="192" xmlns="http://www.w3.org/2000/svg" xmlns:svg="http://www.w3.org/2000/svg">
  <defs id="defs1" />
  <g id="group" transform="matrix(6.4,0,0,6.4,19.2,19.2)">
    <path id="path" d="M 12,20 H 2 v -2 h 5.75 v 0 C 7.02,15.19 4.81,12.99 2,12.26 2.64,12.1 3.31,12 4,12 c 4.42,0 8,3.58 8,8 z M 22,12.26 C 21.36,12.1 20.69,12 20,12 c -2.93,0 -5.48,1.58 -6.88,3.93 0.29,0.66 0.53,1.35 0.67,2.07 0.13,0.65 0.2,1.32 0.2,2 h 2 6 v -2 h -5.75 c 0.74,-2.81 2.95,-5.01 5.76,-5.74 z m -6.36,-1.24 c 0.78,-2.09 2.23,-3.84 4.09,-5 C 15.44,6.16 12,9.67 12,14 c 0,0.01 0,0.02 0,0.02 0.95,-1.27 2.2,-2.3 3.64,-3 z M 11.42,8.85 C 10.58,6.66 8.88,4.89 6.7,4 8.14,5.86 9,8.18 9,10.71 c 0,0.21 -0.03,0.41 -0.04,0.61 0.43,0.24 0.83,0.52 1.22,0.82 0.21,-1.18 0.65,-2.29 1.24,-3.29 z" fill="#ffffff" />
  </g>
</svg>
