<?xml version="1.0" encoding="UTF-8" standalone="no"?>
<svg width="192" height="192" viewBox="0 0 192 192" version="1.1" id="svg1" xmlns="http://www.w3.org/2000/svg" xmlns:svg="http://www.w3.org/2000/svg">
  <defs id="defs1">
    <style id="style1">.bfb7e952-3124-4acb-9caf-44fcf00a6d7d{fill:none;}</style>
  </defs>
  <g id="add49148-2d6f-4d78-a8ce-3a1830fe9b1f" data-name="visibility" transform="matrix(6,0,0,6,24,24)">
    <rect class="bfb7e952-3124-4acb-9caf-44fcf00a6d7d" width="24" height="24" id="rect1" x="0" y="0" />
    <path d="M 12,6 A 11.987,11.987 0 0 0 1.618,12 11.982,11.982 0 0 0 22.382,12 11.987,11.987 0 0 0 12,6 Z m 0,10 A 9.972,9.972 0 0 1 4.014,12 9.972,9.972 0 0 1 19.986,12 9.972,9.972 0 0 1 12,16 Z" id="path1" style="fill:#ffffff" />
    <circle cx="12" cy="12" r="2" id="circle1" style="fill:#ffffff" />
  </g>
</svg>
