<?xml version="1.0" encoding="UTF-8" standalone="no"?>
<svg height="192" viewBox="0 -960 7680 7680" width="192" version="1.1" id="svg1" xmlns="http://www.w3.org/2000/svg" xmlns:svg="http://www.w3.org/2000/svg">
  <defs id="defs1" />
  <path d="m 800,5640 v -326.152 q 267.08,-49.232 396.616,-175.384 129.536,-126.16 515.384,-126.16 416.616,0 572.92,160 156.312,160 491.08,160 334.768,0 491.08,-160 156.304,-160 572.92,-160 406.768,0 576.92,160 170.16,160 495.08,160 334.768,0 491.08,-160 156.304,-160 572.92,-160 385.848,0 511.384,126.16 125.536,126.152 392.616,175.384 V 5640 q -304,-36.92 -456,-172.304 -152,-135.384 -448,-135.384 -326.768,0 -491.08,160 -164.304,160 -572.92,160 -408.616,0 -576.92,-160 -168.312,-160 -495.08,-160 -334.768,0 -491.08,160 -156.304,160 -572.92,160 -416.616,0 -572.92,-160 -156.312,-160 -491.08,-160 -296,0 -448,135.384 Q 1112,5603.08 800,5640 Z m 0,-1126.152 v -326.16 q 267.08,-49.232 395.688,-175.384 128.616,-126.152 514.464,-126.152 140.312,0 262.152,34.768 121.848,34.768 328,153.536 l -464,-1747.688 -489.232,612.928 -251.688,-196.928 2131.08,-2635.08 3164.92,1211.08 -115.072,298.464 L 5548.928,1332.92 6240,3925.536 q 167.384,20.92 315.384,123.08 148,102.152 324.616,139.072 v 320 q -302.152,-38.768 -456,-170.152 -153.848,-131.384 -448,-131.384 -334.768,0 -491.08,160 -156.304,160 -572.92,160 -406.768,0 -576.92,-160 -170.16,-160 -495.08,-160 -334.768,0 -491.08,160 -156.304,160 -572.92,160 -400.616,0 -569.848,-160 -169.232,-160 -494.152,-160 -280,0 -444.92,135.384 Q 1102.152,4476.92 800,4513.848 Z m 4187.08,-315.696 -491.08,-1856 -1240,328 L 3595.08,3912 q 57.84,-16 116.616,-20.928 58.768,-4.92 128.304,-4.92 419.08,0 618.152,176 199.08,176 528.928,136 z" id="path1" style="fill:#ffffff;stroke-width:8" />
</svg>
