<?xml version="1.0" encoding="UTF-8" standalone="no"?>
<svg height="192" viewBox="0 -960 7680 7680" width="192" version="1.1" id="svg1" xmlns="http://www.w3.org/2000/svg" xmlns:svg="http://www.w3.org/2000/svg">
  <defs id="defs1" />
  <path d="M 3680,5920 V 4370.464 l -1200,1184 L 2253.536,5328 3680,3901.536 V 3040 H 2818.464 L 1392,4466.464 1165.536,4240 l 1184,-1200 H 800 V 2720 H 2349.536 L 1165.536,1520 1392,1293.536 2818.464,2720 H 3680 V 1858.464 L 2253.536,432 2480,205.536 l 1200,1184 V -160 h 320 V 1389.536 L 5200,205.536 5426.464,432 4000,1858.464 V 2720 h 861.536 L 6288,1293.536 6514.464,1520 l -1184,1200 H 6880 v 320 H 5330.464 l 1184,1200 L 6288,4466.464 4861.536,3040 H 4000 v 861.536 L 5426.464,5328 5200,5554.464 4000,4370.464 V 5920 Z" id="path1" style="fill:#ffffff;stroke-width:8" />
</svg>
