<?xml version="1.0" encoding="UTF-8" standalone="no"?>
<svg height="192" viewBox="0 -960 7680 7680" width="192" version="1.1" id="svg1" xmlns="http://www.w3.org/2000/svg" xmlns:svg="http://www.w3.org/2000/svg">
  <defs id="defs1" />
  <path d="M 5734.152,5796.928 Q 5928,5251.696 5986.464,4679.384 6044.92,4107.08 5968,3536 5772.92,4249.232 5180.616,4684.616 4588.304,5120 3840,5120 q -592,0 -1056,-294.456 -464,-294.464 -783.384,-776.312 -319.384,-481.848 -484.312,-1107.384 -164.92,-625.536 -164.92,-1281.544 0,-430.152 61.848,-857.536 61.84,-427.384 192.92,-839.696 h 339.696 Q 1766.152,514.456 1700.616,1083.688 1635.08,1652.92 1712,2224 1907.08,1510.768 2499.384,1075.384 3091.696,640 3840,640 q 592,0 1056,294.456 464,294.464 783.384,776.312 319.384,481.848 484.312,1104.312 164.92,622.456 164.92,1284.616 0,430.152 -61.848,857.536 -61.84,427.384 -192.92,839.696 z M 3840,3840 q 398.768,0 679.384,-280.616 Q 4800,3278.768 4800,2880 4800,2481.232 4519.384,2200.616 4238.768,1920 3840,1920 3441.232,1920 3160.616,2200.616 2880,2481.232 2880,2880 q 0,398.768 280.616,679.384 Q 3441.232,3840 3840,3840 Z m 0,-320 q -264,0 -452,-188 -188,-188 -188,-452 0,-264 188,-452 188,-188 452,-188 264,0 452,188 188,188 188,452 0,264 -188,452 -188,188 -452,188 z" id="path1" style="fill:#ffffff;stroke-width:8" />
</svg>
