<?xml version="1.0" encoding="UTF-8" standalone="no"?>
<svg height="192" viewBox="0 -960 7680 7680" width="192" version="1.1" id="svg1" xmlns="http://www.w3.org/2000/svg" xmlns:svg="http://www.w3.org/2000/svg">
  <defs id="defs1" />
  <path d="m 5144.616,2480 v -960 h -960 v -320 h 960 V 240 h 320 v 960 h 960 v 320 h -960 v 960 z M 2533.56,5520 q -530.448,0 -904.312,-372.616 -373.864,-372.616 -373.864,-907.384 0,-347.08 174.152,-636 174.152,-288.92 465.848,-471.696 V 1040 Q 1895.384,769.232 2080,584.616 2264.616,400 2535.384,400 q 270.768,0 455.384,184.616 184.616,184.616 184.616,455.384 v 2092.304 q 291.696,182.776 462.768,471.696 171.08,288.92 177.232,636 -6.152,534.768 -378.768,907.384 Q 3064,5520 2533.56,5520 Z M 2215.384,2320 h 640 V 1040 q 0,-136 -92,-228 -92,-92 -228,-92 -136,0 -228,92 -92,92 -92,228 z" id="path1" style="fill:#ffffff;stroke-width:8" />
</svg>
