<!-- Generator: Adobe Illustrator 19.1.0, SVG Export PlugIn . SVG Version: 6.00 Build 0)  --><svg version="1.1" id="Layer_2" xmlns="http://www.w3.org/2000/svg" xmlns:xlink="http://www.w3.org/1999/xlink" x="0px" y="0px" viewBox="0 0 64 64" style="enable-background:new 0 0 64 64;" xml:space="preserve">
<style type="text/css">
	.st0{fill:#fff;}
</style>
<g>
	<path class="st0" d="M64,27c0-6.2-4.7-11.3-10.7-11.9C50.7,10.1,45.7,7,40,7c-7.3,0-13.5,5.2-14.7,12.2C18,20.3,12,25.8,10.4,33.1
		C4.6,33.9,0,38.9,0,45c0,6.6,5.4,12,12,12h32.1l2,0v-0.2C52.8,55.8,58,50,58,43c0-1.8-0.4-3.5-1-5.1C61.2,36,64,31.8,64,27z
		 M44.1,53L12,53c-4.4,0-8-3.6-8-8c0-4.4,3.5-7.9,7.9-8l2,0.1l0.2-1.8C15,28.3,21,23,28,23c5.7,0,10.8,3.5,13,8.8l0.6,1.4L43,33
		c0.3,0,0.6,0,1,0c5.5,0,10,4.5,10,10C54,48.5,49.5,53,44.1,53z M55,34.4c-2.5-3.3-6.5-5.4-10.9-5.4c-2.8-5.7-8.4-9.5-14.7-9.9
		C30.6,14.3,34.9,11,40,11c4.5,0,8.4,2.7,10.2,6.8l0.5,1.2l1.3,0c4.4,0,8,3.6,8,8C60,30.3,58,33.2,55,34.4z" style="fill: #fff;"></path>
</g>
</svg>