<!-- Generator: Adobe Illustrator 19.1.0, SVG Export PlugIn . SVG Version: 6.00 Build 0)  --><svg version="1.1" id="Layer_2" xmlns="http://www.w3.org/2000/svg" xmlns:xlink="http://www.w3.org/1999/xlink" x="0px" y="0px" viewBox="0 0 64 64" style="enable-background:new 0 0 64 64;" xml:space="preserve">
<style type="text/css">
	.st0{fill:#fff;}
</style>
<g>
	<path class="st0" d="M48,47h6c3.3,0,6-2.7,6-6c0-3.3-2.7-6-6-6c-1.1,0-2,0.9-2,2s0.9,2,2,2c1.1,0,2,0.9,2,2s-0.9,2-2,2h-6
		c-1.1,0-2,0.9-2,2S46.9,47,48,47z" style="fill: #fff;"></path>
	<path class="st0" d="M58,49H48c-1.1,0-2,0.9-2,2s0.9,2,2,2h10c1.1,0,2,0.9,2,2s-0.9,2-2,2c-1.1,0-2,0.9-2,2s0.9,2,2,2
		c3.3,0,6-2.7,6-6S61.3,49,58,49z" style="fill: #fff;"></path>
	<path class="st0" d="M37,49l-16.2,0c-3.7,0-6.8-3-6.8-6.8c0-3.7,3.1-6.8,6.8-6.8c0.7,0,1.3,0.1,2,0.3l2.2,0.7l0.3-2.3
		c0.8-5.6,5.8-9.9,11.5-9.9c4.6,0,8.7,2.7,10.6,6.9l0.6,1.2l1.7-0.1c1.6,0,3.2,0.5,4.5,1.3c0.9,0.6,2.2,0.3,2.8-0.6
		c0.6-0.9,0.3-2.2-0.6-2.8c-1.8-1.1-3.8-1.8-5.8-1.9c-2.7-4.9-8-8-13.6-8c-0.6,0-1.2,0-1.8,0.1c-1.9-4.4-6.2-7.3-11-7.3
		c-6.6,0-12,5.4-12,12c0,3,1.2,5.9,3.1,8c-3.1,1.9-5.1,5.3-5.1,9.2c0,6,4.8,10.8,10.8,10.8L37,53c1.7,0,3,1.3,3,3s-1.3,3-3,3
		c-1.1,0-2,0.9-2,2s0.9,2,2,2c3.9,0,7-3.1,7-7C44,52.1,40.9,49,37,49z M24,17c3,0,5.7,1.7,7.1,4.3c-4.4,1.8-7.9,5.5-9.3,10.1
		c-0.3,0-0.7,0-1,0c-0.5,0-1,0-1.4,0.1C17.3,30,16,27.6,16,25C16,20.6,19.6,17,24,17z" style="fill: #fff;"></path>
	<path class="st0" d="M40,33c-1.1,0-2,0.9-2,2s0.9,2,2,2c1.1,0,2,0.9,2,2s-0.9,2-2,2H29.3c-1.1,0-2,0.9-2,2s0.9,2,2,2H40
		c3.3,0,6-2.7,6-6S43.3,33,40,33z" style="fill: #fff;"></path>
	<path class="st0" d="M22,3v6c0,1.1,0.9,2,2,2s2-0.9,2-2V3c0-1.1-0.9-2-2-2S22,1.9,22,3z" style="fill: #fff;"></path>
	<path class="st0" d="M8,23H2c-1.1,0-2,0.9-2,2s0.9,2,2,2h6c1.1,0,2-0.9,2-2S9.1,23,8,23z" style="fill: #fff;"></path>
	<path class="st0" d="M7,8c-0.8,0.8-0.8,2,0,2.8l4.3,4.3c0.4,0.4,0.9,0.6,1.4,0.6s1-0.2,1.4-0.6c0.8-0.8,0.8-2,0-2.8L9.9,8
		C9.1,7.3,7.8,7.3,7,8z" style="fill: #fff;"></path>
	<path class="st0" d="M35.3,15.7c0.5,0,1-0.2,1.4-0.6l4.3-4.3c0.8-0.8,0.8-2,0-2.8c-0.8-0.8-2-0.8-2.8,0l-4.3,4.3
		c-0.8,0.8-0.8,2,0,2.8C34.3,15.5,34.8,15.7,35.3,15.7z" style="fill: #fff;"></path>
</g>
</svg>