<!-- Generator: Adobe Illustrator 19.1.0, SVG Export PlugIn . SVG Version: 6.00 Build 0)  --><svg version="1.1" id="Layer_2" xmlns="http://www.w3.org/2000/svg" xmlns:xlink="http://www.w3.org/1999/xlink" x="0px" y="0px" viewBox="0 0 64 64" style="enable-background:new 0 0 64 64;" xml:space="preserve">
<style type="text/css">
	.st0{fill:#fff;}
</style>
<g>
	<path class="st0" d="M48,43h6c3.3,0,6-2.7,6-6s-2.7-6-6-6c-1.1,0-2,0.9-2,2s0.9,2,2,2c1.1,0,2,0.9,2,2s-0.9,2-2,2h-6
		c-1.1,0-2,0.9-2,2S46.9,43,48,43z" style="fill: #fff;"></path>
	<path class="st0" d="M58,45H48c-1.1,0-2,0.9-2,2s0.9,2,2,2h10c1.1,0,2,0.9,2,2s-0.9,2-2,2c-1.1,0-2,0.9-2,2s0.9,2,2,2
		c3.3,0,6-2.7,6-6S61.3,45,58,45z" style="fill: #fff;"></path>
	<path class="st0" d="M37,45l-22.2,0C11.1,45,8,42,8,38.2c0-3.7,3.1-6.8,6.8-6.8c0.7,0,1.3,0.1,2,0.3l2.2,0.7l0.3-2.3
		c0.8-5.6,5.8-9.9,11.5-9.9c4.5,0,8.7,2.7,10.6,6.9l0.6,1.2l1.7-0.1c1.6,0,3.2,0.5,4.5,1.3c0.9,0.6,2.2,0.3,2.8-0.6
		c0.6-0.9,0.3-2.2-0.6-2.8c-1.8-1.1-3.8-1.8-5.8-1.9c-2.7-4.9-8-8-13.6-8c-1,0-2,0.1-3,0.3C26.6,9.9,20.9,5,14,5c-0.2,0-0.4,0-0.7,0
		l-3,0.2l1.1,2.6c0.4,0.8,0.5,1.7,0.5,2.6c0,3.6-3,6.6-6.6,6.6c-0.9,0-1.8-0.2-2.6-0.5l-2.6-1.1l-0.2,3c0,0.2,0,0.4,0,0.7
		c0,5,2.6,9.5,6.8,12C5,32.9,4,35.5,4,38.2C4,44.2,8.8,49,14.8,49L37,49c1.7,0,3,1.3,3,3s-1.3,3-3,3c-1.1,0-2,0.9-2,2s0.9,2,2,2
		c3.9,0,7-3.1,7-7C44,48.1,40.9,45,37,45z M4.2,21C4.6,21,5,21,5.4,21C11.3,21,16,16.3,16,10.4c0-0.4,0-0.8-0.1-1.3
		c4.2,0.8,7.5,4.2,8,8.6c-3.9,1.9-6.9,5.4-8.1,9.6c-0.3,0-0.7,0-1,0c-1.6,0-3.1,0.3-4.4,1C7.1,27.1,4.8,24.3,4.2,21z" style="fill: #fff;"></path>
	<path class="st0" d="M40,29c-1.1,0-2,0.9-2,2s0.9,2,2,2c1.1,0,2,0.9,2,2s-0.9,2-2,2H23.3c-1.1,0-2,0.9-2,2s0.9,2,2,2H40
		c3.3,0,6-2.7,6-6S43.3,29,40,29z" style="fill: #fff;"></path>
</g>
</svg>