<!-- Generator: Adobe Illustrator 19.1.0, SVG Export PlugIn . SVG Version: 6.00 Build 0)  --><svg version="1.1" id="Layer_2" xmlns="http://www.w3.org/2000/svg" xmlns:xlink="http://www.w3.org/1999/xlink" x="0px" y="0px" viewBox="0 0 64 64" style="enable-background:new 0 0 64 64;" xml:space="preserve">
<style type="text/css">
	.st0{fill:#fff;}
</style>
<g>
	<path class="st0" d="M49.7,22C46.5,15.9,40,12,33,12c-8.6,0-16.2,5.9-18.3,14.1C14.1,26,13.6,26,13,26C5.8,26,0,31.8,0,39
		s5.8,13,13,13l36,0c8.3,0,15-6.7,15-15C64,29,57.7,22.4,49.7,22z M49.1,48L13,48c-5,0-9-4-9-9s4-9,9-9c0.9,0,1.8,0.1,2.6,0.4
		l2.2,0.7l0.3-2.3C19.3,21.5,25.6,16,33,16c5.9,0,11.3,3.5,13.7,8.9l0.6,1.2l1.6-0.1c0.1,0,0.1,0,0.2,0c6.1,0,11,4.9,11,11
		C60,43.1,55.1,48,49.1,48z" style="fill: #fff;"></path>
</g>
</svg>