<!-- Generator: Adobe Illustrator 19.1.0, SVG Export PlugIn . SVG Version: 6.00 Build 0)  --><svg version="1.1" id="Layer_2" xmlns="http://www.w3.org/2000/svg" xmlns:xlink="http://www.w3.org/1999/xlink" x="0px" y="0px" viewBox="0 0 64 64" style="enable-background:new 0 0 64 64;" xml:space="preserve">
<style type="text/css">
	.st0{fill:#fff;}
</style>
<g>
	<path class="st0" d="M25,8c0-4.4-3.6-8-8-8S9,3.6,9,8s3.6,8,8,8S25,12.4,25,8z M17,12c-2.2,0-4-1.8-4-4s1.8-4,4-4s4,1.8,4,4
		S19.2,12,17,12z" style="fill: #fff;"></path>
	<path class="st0" d="M51.8,56.9C49,58.9,45.6,60,42,60c-9.4,0-17-7.6-17-17V33c0-9.4,7.6-17,17-17c3.5,0,6.9,1.1,9.8,3.1
		c0.9,0.6,2.2,0.4,2.8-0.5c0.6-0.9,0.4-2.2-0.5-2.8C50.6,13.3,46.4,12,42,12c-11.6,0-21,9.4-21,21V43c0,11.6,9.4,21,21,21
		c4.4,0,8.6-1.3,12.1-3.8c0.9-0.6,1.1-1.9,0.5-2.8C54,56.5,52.7,56.3,51.8,56.9z" style="fill: #fff;"></path>
</g>
</svg>