<!-- Generator: Adobe Illustrator 19.1.0, SVG Export PlugIn . SVG Version: 6.00 Build 0)  --><svg version="1.1" id="Layer_2" xmlns="http://www.w3.org/2000/svg" xmlns:xlink="http://www.w3.org/1999/xlink" x="0px" y="0px" viewBox="0 0 64 64" style="enable-background:new 0 0 64 64;" xml:space="preserve">
<style type="text/css">
	.st0{fill:#fff;}
</style>
<g>
	<path class="st0" d="M18.2,25.2c4.6,0,9.7-1.4,15-5.2c14.5-10.4,26.1,0.5,27.4,1.8c0.8,0.8,2,0.8,2.8,0c0.8-0.8,0.8-2,0-2.8
		c-1.5-1.5-15.4-14.5-32.6-2.2C16.3,27.2,4.7,16.3,3.4,15c-0.8-0.8-2-0.8-2.8,0c-0.8,0.8-0.8,2,0,2.8C4,21.3,10.4,25.2,18.2,25.2z" style="fill: #fff;"></path>
	<path class="st0" d="M30.8,30c-8.2,5.9-15.5,4.8-20.1,3c-1-0.4-2.2,0.1-2.6,1.1c-0.4,1,0.1,2.2,1.1,2.6c2.4,1,5.5,1.8,8.9,1.8
		c4.4,0,9.6-1.3,15-5.2c14.5-10.4,26.1,0.5,27.4,1.8c0.8,0.8,2,0.8,2.8,0c0.8-0.8,0.8-2,0-2.8C61.9,30.7,48.1,17.7,30.8,30z" style="fill: #fff;"></path>
	<path class="st0" d="M54.7,40.6c-5.6-2.2-14.2-3.5-23.9,3.4C16.3,54.4,4.7,43.5,3.4,42.2c-0.8-0.8-2-0.8-2.8,0
		c-0.8,0.8-0.8,2,0,2.8c3.4,3.5,9.8,7.4,17.6,7.4c4.6,0,9.7-1.4,15-5.2c8.2-5.9,15.5-4.9,20.1-3c1,0.4,2.2-0.1,2.6-1.1
		C56.3,42.1,55.8,41,54.7,40.6z" style="fill: #fff;"></path>
</g>
</svg>