<!-- Generator: Adobe Illustrator 19.1.0, SVG Export PlugIn . SVG Version: 6.00 Build 0)  --><svg version="1.1" id="Layer_2" xmlns="http://www.w3.org/2000/svg" xmlns:xlink="http://www.w3.org/1999/xlink" x="0px" y="0px" viewBox="0 0 64 64" style="enable-background:new 0 0 64 64;" xml:space="preserve">
<style type="text/css">
	.st0{fill:#fff;}
</style>
<g>
	<path class="st0" d="M45,58c1.1,0,2-0.9,2-2V46c0-1.1-0.9-2-2-2s-2,0.9-2,2v10C43,57.1,43.9,58,45,58z" style="fill: #fff;"></path>
	<path class="st0" d="M39,46c0-1.1-0.9-2-2-2s-2,0.9-2,2v4c0,1.1,0.9,2,2,2s2-0.9,2-2V46z" style="fill: #fff;"></path>
	<path class="st0" d="M31,46c0-1.1-0.9-2-2-2s-2,0.9-2,2v10c0,1.1,0.9,2,2,2s2-0.9,2-2V46z" style="fill: #fff;"></path>
	<path class="st0" d="M21,54c1.1,0,2-0.9,2-2v-6c0-1.1-0.9-2-2-2s-2,0.9-2,2v6C19,53.1,19.9,54,21,54z" style="fill: #fff;"></path>
	<path class="st0" d="M59,28.1c0-6.5-5.3-11.7-12-11.9c-2.7-5-8-8.2-13.9-8.2c-1.6,0-3.2,0.3-4.6,0.7C27.1,3.7,22.5,0,17,0
		c-0.2,0-0.5,0-0.7,0.1c-0.1,0-0.1,0-0.2,0l-2.9,0.2l1.2,2.6c0.3,0.7,0.5,1.4,0.5,2.1c0,2.8-2.2,5-5,5c-0.7,0-1.4-0.1-2-0.4L5.3,8.4
		l-0.2,2.8l0,0.1C5,11.6,5,11.8,5,12c0,4.8,2.8,8.9,6.8,10.8C10.1,24.7,9,27.1,9,29.8C9,35.4,13.7,40,19.5,40l27.3,0
		C53.5,40,59,34.6,59,28.1z M9.2,14c0.2,0,0.4,0,0.7,0c5,0,9-4,9-9c0-0.3,0-0.5,0-0.7c3,0.7,5.3,3.1,6,6.1c-3.4,2.1-5.9,5.4-6.9,9.3
		c-0.5,0.1-1,0.2-1.5,0.3C12.9,19.8,10,17.3,9.2,14z M46.8,36l-27.3,0c-3.6,0-6.5-2.8-6.5-6.2c0-3.4,2.9-6.2,6.4-6.2l2,0.1l0.2-1.8
		c0.7-5.6,5.7-9.8,11.5-9.8c4.8,0,9,2.8,10.8,7l0.6,1.4l1.5-0.1c0.3,0,0.5,0,0.8,0c4.5,0,8.2,3.5,8.2,7.9C55,32.5,51.3,36,46.8,36z" style="fill: #fff;"></path>
	<path class="st0" d="M27.6,60.6C27.2,60.9,27,61.5,27,62c0,0.5,0.2,1,0.6,1.4C28,63.8,28.5,64,29,64c0.5,0,1-0.2,1.4-0.6
		C30.8,63,31,62.5,31,62c0-0.5-0.2-1-0.6-1.4C29.7,59.8,28.3,59.8,27.6,60.6z" style="fill: #fff;"></path>
	<path class="st0" d="M35.6,54.6C35.2,54.9,35,55.5,35,56c0,0.5,0.2,1,0.6,1.4C36,57.8,36.5,58,37,58c0.5,0,1-0.2,1.4-0.6
		C38.8,57,39,56.5,39,56c0-0.5-0.2-1-0.6-1.4C37.7,53.8,36.3,53.8,35.6,54.6z" style="fill: #fff;"></path>
	<path class="st0" d="M45,64c0.5,0,1-0.2,1.4-0.6C46.8,63,47,62.5,47,62c0-0.5-0.2-1-0.6-1.4c-0.8-0.7-2.1-0.7-2.8,0
		C43.2,60.9,43,61.5,43,62c0,0.5,0.2,1,0.6,1.4C44,63.8,44.5,64,45,64z" style="fill: #fff;"></path>
	<path class="st0" d="M21,60c0.5,0,1-0.2,1.4-0.6C22.8,59,23,58.5,23,58c0-0.5-0.2-1-0.6-1.4c-0.8-0.7-2.1-0.7-2.8,0
		C19.2,56.9,19,57.4,19,58c0,0.5,0.2,1,0.6,1.4C20,59.7,20.5,60,21,60z" style="fill: #fff;"></path>
</g>
</svg>