<?xml version="1.0" encoding="UTF-8" standalone="no"?>
<!-- Generator: Adobe Illustrator 19.1.0, SVG Export Plug-In . SVG Version: 6.00 Build 0)  -->

<svg
   version="1.1"
   id="Layer_2"
   x="0px"
   y="0px"
   viewBox="0 0 96 96"
   xml:space="preserve"
   width="96"
   height="96"
   xmlns="http://www.w3.org/2000/svg"
   xmlns:svg="http://www.w3.org/2000/svg"><defs
   id="defs1551" />
<style
   type="text/css"
   id="style1532">
	.st0{fill:#202020;}
</style>
<g
   id="g1546"
   style="fill:#ffffff;fill-opacity:1"
   transform="translate(16,16)">
	<path
   class="st0"
   d="M 49.7,10 C 46.5,3.9 40,0 33,0 24.4,0 16.8,5.9 14.7,14.1 14.1,14 13.6,14 13,14 5.8,14 0,19.8 0,27 0,34.2 5.8,40 13,40 h 9 c 1.1,0 2,-0.9 2,-2 0,-1.1 -0.9,-2 -2,-2 h -9 c -5,0 -9,-4 -9,-9 0,-5 4,-9 9,-9 0.9,0 1.8,0.1 2.6,0.4 l 2.2,0.7 0.3,-2.3 C 19.3,9.5 25.6,4 33,4 c 5.9,0 11.3,3.5 13.7,8.9 l 0.6,1.2 1.6,-0.1 c 0.1,0 0.1,0 0.2,0 6.1,0 11,4.9 11,11 0,6.1 -4.9,11 -10.9,11 H 42 c -1.1,0 -2,0.9 -2,2 0,1.1 0.9,2 2,2 h 7 C 57.3,40 64,33.3 64,25 64,17 57.7,10.4 49.7,10 Z"
   id="path1534"
   style="fill:#ffffff;fill-opacity:1" />
	<path
   class="st0"
   d="M 7.2,56.9 C 6.3,56.2 5.1,56.3 4.4,57.2 L 1.6,60.7 C 0.9,61.6 1,62.8 1.9,63.5 2.3,63.9 2.7,64 3.2,64 3.8,64 4.4,63.7 4.8,63.2 L 7.6,59.7 C 8.2,58.9 8.1,57.6 7.2,56.9 Z"
   id="path1536"
   style="fill:#ffffff;fill-opacity:1" />
	<path
   class="st0"
   d="m 10.1,55.4 c 0.6,0 1.2,-0.3 1.6,-0.8 l 5.9,-7.4 c 0.7,-0.9 0.6,-2.1 -0.3,-2.8 -0.9,-0.7 -2.1,-0.6 -2.8,0.3 L 8.6,52.1 C 7.8,53 8,54.2 8.8,54.9 c 0.4,0.3 0.9,0.5 1.3,0.5 z"
   id="path1538"
   style="fill:#ffffff;fill-opacity:1" />
	<path
   class="st0"
   d="m 37.3,31.9 c -0.9,-0.7 -2.1,-0.6 -2.8,0.3 L 21.8,48 h 8 l -7,8.7 c -0.7,0.9 -0.6,2.1 0.3,2.8 0.4,0.3 0.8,0.4 1.2,0.4 0.6,0 1.2,-0.3 1.6,-0.8 L 38.2,44 h -8 l 7.4,-9.2 c 0.7,-0.9 0.5,-2.2 -0.3,-2.9 z"
   id="path1540"
   style="fill:#ffffff;fill-opacity:1" />
	<path
   class="st0"
   d="m 43.2,52 c -0.9,-0.7 -2.1,-0.6 -2.8,0.3 l -6.8,8.5 c -0.7,0.9 -0.6,2.1 0.3,2.8 0.4,0.3 0.8,0.4 1.2,0.4 0.6,0 1.2,-0.3 1.6,-0.8 l 6.8,-8.5 c 0.7,-0.8 0.6,-2 -0.3,-2.7 z"
   id="path1542"
   style="fill:#ffffff;fill-opacity:1" />
	<path
   class="st0"
   d="m 46.4,50 c 0.6,0 1.2,-0.3 1.6,-0.8 l 1.6,-2 c 0.7,-0.9 0.5,-2.1 -0.3,-2.8 -0.8,-0.7 -2.1,-0.6 -2.8,0.3 l -1.6,2 c -0.7,0.9 -0.5,2.1 0.3,2.8 0.3,0.4 0.8,0.5 1.2,0.5 z"
   id="path1544"
   style="fill:#ffffff;fill-opacity:1" />
</g>
</svg>
