<!-- Generator: Adobe Illustrator 19.1.0, SVG Export PlugIn . SVG Version: 6.00 Build 0)  --><svg version="1.1" id="Layer_2" xmlns="http://www.w3.org/2000/svg" xmlns:xlink="http://www.w3.org/1999/xlink" x="0px" y="0px" viewBox="0 0 64 64" style="enable-background:new 0 0 64 64;" xml:space="preserve">
<style type="text/css">
	.st0{fill:#fff;}
</style>
<g>
	<path class="st0" d="M21,2v4c0,1.1,0.9,2,2,2s2-0.9,2-2V2c0-1.1-0.9-2-2-2S21,0.9,21,2z" style="fill: #fff;"></path>
	<path class="st0" d="M3,20c-1.1,0-2,0.9-2,2s0.9,2,2,2h4c1.1,0,2-0.9,2-2s-0.9-2-2-2H3z" style="fill: #fff;"></path>
	<path class="st0" d="M13.1,12.1c0.8-0.8,0.8-2,0-2.8L10.9,7c-0.8-0.8-2-0.8-2.8,0c-0.8,0.8-0.8,2,0,2.8l2.3,2.3
		c0.4,0.4,0.9,0.6,1.4,0.6S12.7,12.5,13.1,12.1z" style="fill: #fff;"></path>
	<path class="st0" d="M35.2,7l-2.3,2.3c-0.8,0.8-0.8,2,0,2.8c0.4,0.4,0.9,0.6,1.4,0.6c0.5,0,1-0.2,1.4-0.6L38,9.9
		c0.8-0.8,0.8-2,0-2.8C37.2,6.3,35.9,6.3,35.2,7z" style="fill: #fff;"></path>
	<path class="st0" d="M10.3,31.9L8,34.2c-0.8,0.8-0.8,2,0,2.8c0.4,0.4,0.9,0.6,1.4,0.6s1-0.2,1.4-0.6l2.3-2.3c0.8-0.8,0.8-2,0-2.8
		S11.1,31.1,10.3,31.9z" style="fill: #fff;"></path>
	<path class="st0" d="M52.3,22.1C49.8,17.1,44.7,14,39,14c-2.2,0-4.2,0.5-6.1,1.3C30.7,12,27,10,23,10c-6.6,0-12,5.4-12,12
		c0,3.9,1.9,7.5,5,9.7c-0.6,1.3-1,2.7-1,4.3c0,5.5,4.5,10,10,10h26c6.6,0,12-5.4,12-12C63,27.8,58.3,22.7,52.3,22.1z M15,22
		c0-4.4,3.6-8,8-8c2.6,0,5,1.3,6.5,3.4c-2.6,2.1-4.5,5.2-5.2,8.6c-2.3,0.2-4.3,1.1-6,2.5C16.3,27,15,24.6,15,22z M51,42H25
		c-3.3,0-6-2.7-6-6s2.7-6,6-6c0.2,0,0.4,0,0.6,0.1l2.3,0.3l0.1-2.1C28.4,22.5,33.3,18,39,18c4.5,0,8.4,2.7,10.2,6.8l0.5,1.2l1.3,0
		c4.4,0,8,3.6,8,8C59,38.4,55.4,42,51,42z" style="fill: #fff;"></path>
	<path class="st0" d="M26.4,51.4C26.8,51,27,50.5,27,50c0-0.5-0.2-1-0.6-1.4c-0.8-0.7-2.1-0.7-2.8,0C23.2,48.9,23,49.5,23,50
		c0,0.5,0.2,1,0.6,1.4C24,51.8,24.5,52,25,52C25.5,52,26,51.8,26.4,51.4z" style="fill: #fff;"></path>
	<path class="st0" d="M21.6,56.6C21.2,56.9,21,57.5,21,58c0,0.5,0.2,1,0.6,1.4C22,59.8,22.5,60,23,60c0.5,0,1-0.2,1.4-0.6
		C24.8,59,25,58.5,25,58c0-0.5-0.2-1-0.6-1.4C23.7,55.8,22.3,55.8,21.6,56.6z" style="fill: #fff;"></path>
	<path class="st0" d="M29.6,63.4C30,63.8,30.5,64,31,64c0.5,0,1-0.2,1.4-0.6C32.8,63,33,62.5,33,62c0-0.5-0.2-1-0.6-1.4
		c-0.8-0.7-2.1-0.7-2.8,0C29.2,60.9,29,61.5,29,62C29,62.5,29.2,63,29.6,63.4z" style="fill: #fff;"></path>
	<path class="st0" d="M31,56c0.5,0,1-0.2,1.4-0.6C32.8,55,33,54.5,33,54c0-0.5-0.2-1-0.6-1.4c-0.8-0.7-2.1-0.7-2.8,0
		C29.2,52.9,29,53.5,29,54c0,0.5,0.2,1,0.6,1.4C30,55.8,30.5,56,31,56z" style="fill: #fff;"></path>
	<path class="st0" d="M42.4,51.4C42.8,51,43,50.5,43,50c0-0.5-0.2-1-0.6-1.4c-0.8-0.7-2.1-0.7-2.8,0C39.2,48.9,39,49.5,39,50
		c0,0.5,0.2,1,0.6,1.4C40,51.8,40.5,52,41,52C41.5,52,42,51.8,42.4,51.4z" style="fill: #fff;"></path>
	<path class="st0" d="M37.6,56.6C37.2,56.9,37,57.5,37,58c0,0.5,0.2,1,0.6,1.4C38,59.8,38.5,60,39,60c0.5,0,1-0.2,1.4-0.6
		C40.8,59,41,58.5,41,58c0-0.5-0.2-1-0.6-1.4C39.7,55.8,38.3,55.8,37.6,56.6z" style="fill: #fff;"></path>
	<path class="st0" d="M47.6,58.6C47.2,58.9,47,59.5,47,60c0,0.5,0.2,1,0.6,1.4C48,61.8,48.5,62,49,62c0.5,0,1-0.2,1.4-0.6
		C50.8,61,51,60.5,51,60c0-0.5-0.2-1-0.6-1.4C49.7,57.8,48.3,57.8,47.6,58.6z" style="fill: #fff;"></path>
	<path class="st0" d="M52.4,53.4C52.8,53,53,52.5,53,52c0-0.5-0.2-1-0.6-1.4c-0.8-0.7-2.1-0.7-2.8,0C49.2,50.9,49,51.5,49,52
		c0,0.5,0.2,1,0.6,1.4C50,53.8,50.5,54,51,54C51.5,54,52,53.8,52.4,53.4z" style="fill: #fff;"></path>
</g>
</svg>