<!-- Generator: Adobe Illustrator 19.1.0, SVG Export PlugIn . SVG Version: 6.00 Build 0)  --><svg version="1.1" id="Layer_2" xmlns="http://www.w3.org/2000/svg" xmlns:xlink="http://www.w3.org/1999/xlink" x="0px" y="0px" viewBox="0 0 64 64" style="enable-background:new 0 0 64 64;" xml:space="preserve">
<style type="text/css">
	.st0{fill:#fff;}
</style>
<g>
	<path class="st0" d="M2,25.6C2,32.4,7.5,38,14.3,38l33.6,0C55.7,38,62,31.6,62,23.7c0-7.6-5.9-13.8-13.3-14.2
		C45.5,3.7,39.5,0,32.9,0c-8.1,0-15.1,5.6-17.2,13.3c-0.5-0.1-1-0.1-1.4-0.1C7.5,13.2,2,18.8,2,25.6z M14.3,17.2
		c0.8,0,1.6,0.1,2.4,0.4l2.2,0.7l0.3-2.3c1-6.8,6.9-12,13.7-12c5.4,0,10.4,3.3,12.6,8.3l0.5,1.2l1.7-0.1c5.6,0,10.1,4.6,10.1,10.3
		C58,29.4,53.5,34,48,34l-33.7,0C9.7,34,6,30.2,6,25.6S9.7,17.2,14.3,17.2z" style="fill: #fff;"></path>
	<path class="st0" d="M17,42c-1.7,0-3,1.3-3,3c0,1.7,1.3,3,3,3s3-1.3,3-3C20,43.3,18.7,42,17,42z" style="fill: #fff;"></path>
	<path class="st0" d="M33,48c1.7,0,3-1.3,3-3c0-1.7-1.3-3-3-3s-3,1.3-3,3C30,46.7,31.3,48,33,48z" style="fill: #fff;"></path>
	<path class="st0" d="M28,53c0-1.7-1.3-3-3-3s-3,1.3-3,3c0,1.7,1.3,3,3,3S28,54.7,28,53z" style="fill: #fff;"></path>
	<path class="st0" d="M41,56c1.7,0,3-1.3,3-3c0-1.7-1.3-3-3-3s-3,1.3-3,3C38,54.7,39.3,56,41,56z" style="fill: #fff;"></path>
	<path class="st0" d="M49,42c-1.7,0-3,1.3-3,3c0,1.7,1.3,3,3,3s3-1.3,3-3C52,43.3,50.7,42,49,42z" style="fill: #fff;"></path>
	<path class="st0" d="M17,58c-1.7,0-3,1.3-3,3c0,1.7,1.3,3,3,3s3-1.3,3-3C20,59.3,18.7,58,17,58z" style="fill: #fff;"></path>
	<path class="st0" d="M33,64c1.7,0,3-1.3,3-3c0-1.7-1.3-3-3-3s-3,1.3-3,3C30,62.6,31.3,64,33,64z" style="fill: #fff;"></path>
	<path class="st0" d="M49,58c-1.7,0-3,1.3-3,3c0,1.7,1.3,3,3,3s3-1.3,3-3C52,59.3,50.7,58,49,58z" style="fill: #fff;"></path>
</g>
</svg>