<!-- Generator: Adobe Illustrator 19.1.0, SVG Export PlugIn . SVG Version: 6.00 Build 0)  --><svg version="1.1" id="Layer_2" xmlns="http://www.w3.org/2000/svg" xmlns:xlink="http://www.w3.org/1999/xlink" x="0px" y="0px" viewBox="0 0 64 64" style="enable-background:new 0 0 64 64;" xml:space="preserve">
<style type="text/css">
	.st0{fill:#fff;}
</style>
<g>
	<path class="st0" d="M32,58C17.7,58,6,46.3,6,32S17.7,6,32,6s26,11.7,26,26S46.3,58,32,58z M32,10c-12.1,0-22,9.9-22,22
		s9.9,22,22,22s22-9.9,22-22S44.1,10,32,10z" style="fill: #fff;"></path>
	<path class="st0" d="M32,40c-3.3,0-6-2.7-6-6c0-1.1,0.3-2.1,0.8-3l5.2-9l5.2,9c0.5,0.9,0.8,1.9,0.8,3C38,37.3,35.3,40,32,40z
		 M32,30l-1.7,3c-0.2,0.3-0.3,0.6-0.3,1c0,1.1,0.9,2,2,2s2-0.9,2-2c0-0.4-0.1-0.7-0.3-1l0,0L32,30z" style="fill: #fff;"></path>
</g>
</svg>