<!-- Generator: Adobe Illustrator 19.1.0, SVG Export PlugIn . SVG Version: 6.00 Build 0)  --><svg version="1.1" id="Layer_2" xmlns="http://www.w3.org/2000/svg" xmlns:xlink="http://www.w3.org/1999/xlink" x="0px" y="0px" viewBox="0 0 64 64" style="enable-background:new 0 0 64 64;" xml:space="preserve">
<style type="text/css">
	.st0{fill:#fff;}
</style>
<g>
	<path class="st0" d="M50,38.2h6c3.3,0,6-2.7,6-6s-2.7-6-6-6c-1.1,0-2,0.9-2,2s0.9,2,2,2c1.1,0,2,0.9,2,2s-0.9,2-2,2h-6
		c-1.1,0-2,0.9-2,2S48.9,38.2,50,38.2z" style="fill: #fff;"></path>
	<path class="st0" d="M58,42.2H46c-1.1,0-2,0.9-2,2s0.9,2,2,2h12c1.1,0,2,0.9,2,2s-0.9,2-2,2c-1.1,0-2,0.9-2,2s0.9,2,2,2
		c3.3,0,6-2.7,6-6S61.3,42.2,58,42.2z" style="fill: #fff;"></path>
	<path class="st0" d="M34,42.2H2c-1.1,0-2,0.9-2,2s0.9,2,2,2h32c2.2,0,4,1.8,4,4s-1.8,4-4,4c-1.1,0-2,0.9-2,2s0.9,2,2,2
		c4.4,0,8-3.6,8-8S38.4,42.2,34,42.2z" style="fill: #fff;"></path>
	<path class="st0" d="M38,22.2c-1.1,0-2,0.9-2,2s0.9,2,2,2c2.2,0,4,1.8,4,4c0,2.2-1.8,4-4,4h-8.1c-4.8,0-9-2.8-10.9-7
		c0.7,0.1,1.3,0.1,2,0.1c7.6,0,13.7-6.2,13.7-13.7c0-0.9-0.1-1.8-0.3-2.8c2.9,1.2,5.3,3.4,6.6,6.4c0.4,1,1.6,1.5,2.6,1
		c1-0.4,1.5-1.6,1-2.6c-2.3-5.3-7.4-9-13.1-9.6l-3.7-0.4l1.8,3.3c0.8,1.4,1.2,3,1.2,4.6c0,5.4-4.4,9.7-9.7,9.7
		c-1.4,0-2.8-0.3-4.1-0.9l-3.4-1.6l0.6,3.7c0.6,3.9,2.5,7.2,5.2,9.6H2c-1.1,0-2,0.9-2,2s0.9,2,2,2h36c4.4,0,8-3.6,8-8
		C46,25.8,42.4,22.2,38,22.2z" style="fill: #fff;"></path>
</g>
</svg>