<svg xmlns="http://www.w3.org/2000/svg" viewBox="0 0 500 500" id="vector"><g transform="translate(-60 -60) scale(1.25 1.25)">
    <path id="path" d="M 336.56 130.45 C 335.94 131.67 335.28 132.87 334.56 134.03 C 330.744 140.007 325.781 145.17 319.96 149.22 C 318.278 150.394 316.517 151.449 314.69 152.38 C 318.717 154.491 322.457 157.109 325.82 160.17 C 330.185 164.171 333.811 168.91 336.53 174.17 L 337.12 173.1 C 340.482 167.048 345.037 161.74 350.51 157.5 C 353.012 155.528 355.69 153.791 358.51 152.31 C 349.163 147.397 341.511 139.777 336.56 130.45 Z" fill="#ffffff" stroke="#ffffff"></path>
    <path id="path_1" d="M 228.5 88.87 C 226.151 94.514 224.209 100.319 222.69 106.24 C 228.06 102.841 233.687 99.865 239.52 97.34 Z" fill="#f4ec90" stroke="#f4ec90"></path>
    <path id="path_2" d="M 276 352.4 C 277.128 353.085 278.42 353.454 279.74 353.47 L 279.74 355.39 L 262.37 355.39 L 262.37 348.05 C 263.37 347.47 264.37 346.89 265.37 346.32 C 266.13 346.72 266.87 347.11 267.55 347.5 Z" fill="#ffffff" stroke="#ffffff"></path>
    <path id="path_3" d="M 247.37 353.85 L 247.37 355.39 L 222.53 355.39 L 222.53 349 L 223.27 348.57 L 227.35 346.22 L 230.77 344.22 L 234.85 341.87 L 234.95 341.81 L 239 344.2 L 242.32 346.12 L 246.5 348.54 L 247.34 349.02 Z" fill="#ffffff" stroke="#ffffff"></path>
    <path id="path_4" d="M 207.53 355.39 L 190 355.39 L 190 353.48 C 191.324 353.462 192.619 353.089 193.75 352.4 L 202.2 347.5 C 202.85 347.12 203.6 346.73 204.38 346.32 L 207.58 348.17 Z" fill="#ffffff" stroke="#ffffff"></path>
    <path id="path_5" d="M 304.41 246.1 C 305.803 248.95 306.986 251.898 307.95 254.92 C 308.298 256.171 308.964 257.31 309.882 258.228 C 310.8 259.146 311.939 259.812 313.19 260.16 C 320.07 261.634 326.524 264.658 332.06 269 C 337.008 272.856 341.083 277.719 344.013 283.266 C 346.943 288.813 348.664 294.919 349.06 301.18 C 349.222 303.849 349.138 306.527 348.81 309.18 C 348.321 313.099 347.295 316.931 345.76 320.57 C 342.308 328.587 336.607 335.434 329.347 340.28 C 322.088 345.126 313.578 347.767 304.85 347.88 C 300.07 347.95 297.66 351.66 297.61 355.38 L 279.74 355.38 L 279.74 353.46 C 286.32 353.46 290.65 343.55 283.57 339.46 L 280.43 337.64 L 283.43 335.92 L 285.3 334.84 C 292.05 330.94 288.42 321.73 282.3 320.89 C 281.785 320.825 281.265 320.825 280.75 320.89 C 279.668 321.003 278.621 321.343 277.68 321.89 L 272.91 324.64 C 272.91 323.45 272.91 322.25 272.91 321.05 C 272.91 320.81 272.91 320.59 272.91 320.37 C 272.28 312.47 261.13 311.7 258.5 318.09 C 258.116 319.042 257.928 320.063 257.95 321.09 Q 257.95 325.97 257.95 330.86 C 257.95 331.6 257.95 332.42 257.88 333.28 L 257.88 333.38 L 254 335.54 L 247.84 332 C 246.84 331.39 245.6 330.59 244.33 329.76 C 243.69 329.33 243.02 328.91 242.33 328.5 L 242.33 324.4 C 243.09 323.92 243.83 323.45 244.51 323.05 L 252.99 318.19 C 253.511 317.895 253.997 317.543 254.44 317.14 C 260.35 311.75 253.26 300.74 245.44 305.24 L 242.35 307 L 242.35 301.68 C 242.35 292.03 227.35 292.01 227.35 301.68 L 227.35 307 L 224.26 305.23 C 217.04 301.09 210.44 310.12 214.1 315.78 C 214.753 316.78 215.643 317.605 216.69 318.18 L 225.17 323.04 C 225.85 323.44 226.58 323.9 227.35 324.39 L 227.35 328.64 C 225.58 329.74 223.9 330.92 222.48 331.74 L 215.77 335.62 L 211.82 333.34 C 211.82 332.46 211.76 331.61 211.76 330.83 Q 211.76 325.94 211.76 321.06 C 211.76 311.4 196.76 311.39 196.76 321.06 C 196.76 322.26 196.76 323.46 196.76 324.65 L 192 321.88 C 183.63 317.04 176.06 330 184.43 334.83 L 189.27 337.63 L 186.13 339.45 C 179.06 343.55 183.39 353.45 189.95 353.45 L 189.95 355.36 L 171.43 355.36 C 171.43 351.64 168.99 347.92 164.19 347.86 C 139.69 347.59 117.83 331.27 111.36 307.46 C 108.285 295.778 109.128 283.403 113.759 272.245 C 118.39 261.088 126.557 251.752 137 245.68 C 143.294 242.061 150.259 239.761 157.47 238.92 C 162.829 238.297 168.25 238.435 173.57 239.33 C 176.228 239.77 178.854 240.388 181.43 241.18 C 184.77 242.18 188.06 240.45 189.9 237.74 C 195.429 229.672 202.649 222.904 211.057 217.906 C 219.465 212.909 228.861 209.801 238.59 208.8 C 244.751 208.171 250.971 208.454 257.05 209.64 C 257.15 209.64 257.24 209.64 257.34 209.7 C 267.457 211.737 276.969 216.081 285.133 222.394 C 293.296 228.708 299.894 236.821 304.41 246.1 Z" fill="#ffffff" stroke="#ffffff"></path>
    <path id="path_6" d="M 400 260.4 Q 395.77 254.88 391.53 249.4 L 391 247.9 C 392.69 247.29 394.38 246.63 396.05 245.9 C 402.86 243.06 406.72 251.83 404.52 256.9 C 395.58 277.404 381.569 295.3 363.81 308.9 C 364.387 302.728 363.958 296.504 362.54 290.47 C 370.286 283.288 377.057 275.122 382.68 266.18 C 388.584 264.67 394.372 262.738 400 260.4 Z" fill="#f4ec90" stroke="#f4ec90"></path>
    <path id="path_7" d="M 391.55 249.38 Q 395.8 254.89 400.02 260.38 C 394.383 262.726 388.585 264.664 382.67 266.18 C 386.062 260.819 389.031 255.202 391.55 249.38 Z" fill="#f4ec90" stroke="#f4ec90"></path>
    <path id="path_8" d="M 391 247.9 L 391.56 249.38 C 389.042 255.209 386.073 260.833 382.68 266.2 C 373.149 268.658 363.37 270.023 353.53 270.27 C 349.293 264.113 343.953 258.793 337.78 254.58 C 355.796 256.422 373.998 254.138 391 247.9 Z" fill="#f4ec90" stroke="#f4ec90"></path>
    <path id="path_9" d="M 362.53 290.49 C 360.82 283.247 357.767 276.388 353.53 270.27 C 363.37 270.023 373.149 268.658 382.68 266.2 C 377.054 275.143 370.279 283.309 362.53 290.49 Z" fill="#f4ec90" stroke="#f4ec90"></path>
    <path id="path_10" d="M 355.35 314.9 Q 359.68 312.08 363.8 308.9 C 363.74 309.44 363.7 309.99 363.64 310.53 C 361.813 324.88 354.848 338.094 344.043 347.713 C 333.237 357.331 319.305 362.718 304.84 362.87 C 299.97 362.94 297.56 359.16 297.6 355.37 L 304.84 355.37 C 316.603 355.369 328.021 351.359 337.201 344.004 C 346.38 336.649 352.784 326.38 355.35 314.9 Z" fill="#ffffff" stroke="#ffffff"></path>
    <path id="path_11" d="M 356 296.07 Q 359.36 293.4 362.5 290.49 C 363.918 296.524 364.347 302.748 363.77 308.92 Q 359.66 312.07 355.32 314.92 C 356.141 311.223 356.557 307.447 356.56 303.66 C 356.562 301.12 356.375 298.583 356 296.07 Z" fill="#ffffff" stroke="#ffffff"></path>
    <path id="path_12" d="M 362.53 290.49 Q 359.38 293.4 356.03 296.07 C 354.629 286.508 350.563 277.531 344.3 270.17 C 347.37 270.31 350.45 270.34 353.52 270.27 C 357.761 276.387 360.817 283.246 362.53 290.49 Z" fill="#ffffff" stroke="#ffffff"></path>
    <path id="path_13" d="M 356.59 303.64 C 356.587 307.427 356.171 311.203 355.35 314.9 Q 350.67 317.9 345.75 320.58 C 347.285 316.941 348.311 313.109 348.8 309.19 C 349.128 306.537 349.212 303.859 349.05 301.19 Q 352.63 298.75 356.05 296.04 C 356.419 298.556 356.599 301.097 356.59 303.64 Z" fill="#ffffff" stroke="#ffffff"></path>
    <path id="path_14" d="M 345.75 320.58 Q 350.67 317.94 355.35 314.9 C 352.788 326.383 346.386 336.657 337.206 344.016 C 328.026 351.375 316.606 355.388 304.84 355.39 L 297.6 355.39 C 297.65 351.67 300.06 347.96 304.84 347.89 C 313.568 347.777 322.078 345.136 329.337 340.29 C 336.597 335.444 342.298 328.597 345.75 320.58 Z" fill="#ffffff" stroke="#ffffff"></path>
    <path id="path_15" d="M 344.3 270.17 C 350.552 277.534 354.607 286.511 356 296.07 Q 352.61 298.77 349 301.22 C 348.604 294.959 346.883 288.853 343.953 283.306 C 341.023 277.759 336.948 272.896 332 269.04 Q 338.15 269.9 344.3 270.17 Z" fill="#ffffff" stroke="#ffffff"></path>
    <path id="path_16" d="M 337.77 254.58 C 343.943 258.793 349.283 264.113 353.52 270.27 C 350.45 270.34 347.37 270.27 344.3 270.17 C 336.801 261.325 326.542 255.251 315.18 252.93 C 314.84 251.82 314.47 250.73 314.07 249.65 C 321.781 252.099 329.722 253.751 337.77 254.58 Z" fill="#ffffff" stroke="#ffffff"></path>
    <path id="path_17" d="M 315.18 252.93 C 326.542 255.251 336.801 261.325 344.3 270.17 Q 338.15 269.88 332.06 269.04 C 326.528 264.683 320.073 261.646 313.19 260.16 C 311.939 259.812 310.8 259.146 309.882 258.228 C 308.964 257.31 308.298 256.171 307.95 254.92 C 306.986 251.898 305.803 248.95 304.41 246.1 C 307.58 247.43 310.81 248.61 314.07 249.65 C 314.47 250.73 314.84 251.82 315.18 252.93 Z" fill="#ffffff" stroke="#ffffff"></path>
    <path id="path_18" d="M 322.42 250.94 L 317.18 245.7 C 318.44 245.97 319.68 246.3 320.9 246.7 C 321.44 248.06 322 249.49 322.42 250.94 Z" fill="#ffffff" stroke="#ffffff"></path>
    <path id="path_19" d="M 320.9 246.65 C 326.909 248.38 332.604 251.057 337.77 254.58 C 329.722 253.751 321.781 252.099 314.07 249.65 C 309.304 236.496 300.89 224.966 289.817 216.414 C 278.744 207.862 265.462 202.637 251.53 201.35 Q 249.17 197.59 247.12 193.68 C 251.308 193.779 255.483 194.191 259.61 194.91 C 287.74 199.86 310.86 220.31 320.9 246.65 C 319.68 246.3 318.44 245.97 317.18 245.65 L 322.42 250.89 C 322 249.49 321.44 248.06 320.9 246.65 Z" fill="#ffffff" stroke="#ffffff"></path>
    <path id="path_20" d="M 314.07 249.65 C 310.81 248.65 307.58 247.43 304.41 246.1 C 299.889 236.815 293.284 228.698 285.111 222.385 C 276.938 216.071 267.416 211.73 257.29 209.7 C 255.24 206.98 253.29 204.2 251.53 201.35 C 265.462 202.637 278.744 207.862 289.817 216.414 C 300.89 224.966 309.304 236.496 314.07 249.65 Z" fill="#ffffff" stroke="#ffffff"></path>
    <path id="path_21" d="M 282.32 320.88 C 288.39 321.72 292.02 330.93 285.32 334.83 L 283.45 335.91 L 280.45 337.63 L 283.59 339.45 C 290.67 343.56 286.34 353.45 279.76 353.45 C 278.435 353.444 277.136 353.081 276 352.4 L 267.56 347.5 C 266.88 347.11 266.14 346.72 265.38 346.32 C 264.38 346.89 263.38 347.47 262.38 348.05 L 262.38 355.39 L 247.38 355.39 L 247.38 349 L 246.54 348.52 L 242.36 346.1 L 239 344.2 L 235 341.85 L 234.9 341.91 L 230.82 344.26 L 227.4 346.26 L 223.32 348.61 L 222.58 349.04 L 222.58 355.41 L 207.58 355.41 L 207.58 348.19 L 204.38 346.34 C 203.6 346.75 202.85 347.14 202.2 347.52 L 193.75 352.42 C 192.619 353.109 191.324 353.482 190 353.5 C 183.44 353.5 179.11 343.57 186.18 339.5 L 189.32 337.68 L 184.48 334.88 C 176.11 330.05 183.68 317.09 192.05 321.93 L 196.82 324.68 C 196.82 323.49 196.82 322.29 196.82 321.09 C 196.82 311.42 211.82 311.43 211.82 321.09 Q 211.82 325.97 211.82 330.86 C 211.82 331.64 211.82 332.49 211.88 333.37 L 215.83 335.65 L 222.54 331.77 C 223.96 330.95 225.64 329.77 227.41 328.67 L 227.41 324.42 C 226.64 323.93 225.91 323.47 225.23 323.07 L 216.75 318.21 C 215.703 317.635 214.813 316.81 214.16 315.81 C 210.5 310.15 217.1 301.12 224.32 305.26 L 227.41 307.03 L 227.41 301.71 C 227.41 292.04 242.41 292.06 242.41 301.71 L 242.41 307 L 245.5 305.23 C 253.34 300.73 260.43 311.74 254.5 317.13 C 254.057 317.533 253.571 317.885 253.05 318.18 L 244.53 323 C 243.85 323.4 243.11 323.87 242.35 324.35 L 242.35 328.45 C 243.02 328.86 243.69 329.28 244.35 329.71 C 245.62 330.54 246.81 331.34 247.86 331.95 L 254.05 335.52 L 257.89 333.31 L 257.89 333.21 C 257.89 332.35 257.96 331.53 257.96 330.79 Q 257.96 325.9 257.96 321.02 C 257.938 319.993 258.126 318.972 258.51 318.02 C 261.14 311.63 272.29 312.4 272.92 320.3 C 272.92 320.52 272.92 320.74 272.92 320.98 C 272.92 322.18 272.92 323.38 272.92 324.57 L 277.69 321.82 C 278.631 321.273 279.678 320.933 280.76 320.82 C 281.28 320.774 281.805 320.794 282.32 320.88 Z" fill="#2ea7e0"></path>
    <path id="path_22" d="M 285.07 375.61 C 293.44 380.44 285.88 393.4 277.5 388.61 L 272.93 385.96 C 272.93 387.16 272.93 388.36 272.93 389.56 C 272.93 399.23 257.93 399.21 257.93 389.56 C 257.93 386.3 257.93 383.05 257.93 379.79 C 257.93 379 257.93 378.15 257.87 377.27 L 255.6 375.97 L 247.41 380.7 C 245.94 381.55 244.19 382.79 242.34 383.92 L 242.34 386.23 C 243.11 386.71 243.84 387.18 244.52 387.57 L 253 392.43 C 261.38 397.24 253.81 410.2 245.43 405.43 L 242.34 403.66 L 242.34 409.21 C 242.34 418.87 227.34 418.86 227.34 409.21 L 227.34 403.66 L 224.25 405.43 C 215.86 410.24 208.31 397.28 216.68 392.43 L 225.16 387.57 C 225.84 387.18 226.58 386.71 227.34 386.23 L 227.34 383.83 C 225.4 382.64 223.57 381.33 222.04 380.45 L 214.18 375.91 L 211.82 377.27 C 211.82 378.17 211.75 379.02 211.75 379.79 C 211.75 383.05 211.75 386.3 211.75 389.56 C 211.75 399.23 196.75 399.21 196.75 389.56 C 196.75 388.36 196.75 387.16 196.75 385.96 L 192.18 388.61 C 183.8 393.45 176.25 380.48 184.61 375.61 L 189.25 372.93 L 186.11 371.11 C 179.04 367 183.37 357.11 189.94 357.11 C 191.26 357.124 192.552 357.494 193.68 358.18 L 202.13 363.09 C 202.8 363.48 203.54 363.87 204.3 364.27 L 207.51 362.42 L 207.51 355.42 L 222.51 355.42 L 222.51 363.42 L 227.33 366.21 L 229.17 367.27 L 234.83 370.54 L 234.93 370.54 L 240.59 367.28 L 242.33 366.28 L 247.33 363.38 L 247.33 355.38 L 262.33 355.38 L 262.33 362.5 L 265.33 364.23 C 266.11 363.82 266.86 363.43 267.52 363.05 L 275.96 358.14 C 277.088 357.454 278.38 357.084 279.7 357.07 C 286.27 357.07 290.6 366.99 283.53 371.07 L 280.39 372.89 Z" fill="#2ea7e0"></path>
    <path id="path_23" d="M 251.53 201.35 C 253.31 204.2 255.24 206.98 257.29 209.7 C 257.19 209.7 257.1 209.7 257 209.64 C 250.921 208.454 244.701 208.171 238.54 208.8 C 237.11 206.49 235.77 204.13 234.49 201.75 C 237.893 201.272 241.324 201.032 244.76 201.03 Q 248.18 201 251.53 201.35 Z" fill="#ffffff" stroke="#ffffff"></path>
    <path id="path_24" d="M 231.07 194.9 C 236.351 193.974 241.71 193.565 247.07 193.68 Q 249.13 197.58 251.48 201.35 Q 248.13 201.03 244.71 201.03 C 241.274 201.032 237.843 201.272 234.44 201.75 C 233.28 199.5 232.14 197.21 231.07 194.9 Z" fill="#ffffff" stroke="#ffffff"></path>
    <path id="path_25" d="M 247.12 193.68 C 241.76 193.565 236.401 193.974 231.12 194.9 C 218.178 167.206 215.216 135.868 222.74 106.24 C 228.111 102.842 233.738 99.866 239.57 97.34 L 241.04 97.89 C 235.312 113.396 232.894 129.931 233.941 146.429 C 234.988 162.926 239.478 179.022 247.12 193.68 Z" fill="#f4ec90" stroke="#f4ec90"></path>
    <path id="path_26" d="M 231.94 84.39 C 237.08 82.17 245.82 86.02 242.94 92.86 C 242.24 94.53 241.59 96.2 240.94 97.86 L 239.47 97.31 L 228.47 88.84 L 227.33 86.46 C 228.87 85.75 230.4 85.06 231.94 84.39 Z" fill="#f4ec90" stroke="#f4ec90"></path>
    <path id="path_27" d="M 183.38 234 C 189.141 225.327 196.674 217.972 205.484 212.422 C 214.293 206.872 224.18 203.252 234.49 201.8 C 235.77 204.18 237.11 206.54 238.54 208.85 C 228.811 209.851 219.415 212.959 211.007 217.956 C 202.599 222.954 195.379 229.722 189.85 237.79 C 188.01 240.5 184.72 242.26 181.38 241.23 C 178.804 240.438 176.178 239.82 173.52 239.38 Q 172.28 235.38 171.31 231.38 C 175.411 231.849 179.454 232.727 183.38 234 Z" fill="#ffffff" stroke="#ffffff"></path>
    <path id="path_28" d="M 227.36 86.49 L 228.5 88.87 C 226.148 94.513 224.206 100.318 222.69 106.24 C 197.879 121.759 179.772 146.035 171.97 174.24 C 167.622 190.396 166.864 207.31 169.75 223.79 C 164.621 223.425 159.468 223.613 154.38 224.35 C 150.187 196.587 155.017 168.197 168.156 143.383 C 181.295 118.569 202.061 98.617 227.38 86.48 Z" fill="#f4ec90" stroke="#f4ec90"></path>
    <path id="path_29" d="M 222.69 106.24 C 215.166 135.868 218.128 167.206 231.07 194.9 C 210.999 198.466 192.939 209.335 180.39 225.4 C 176.889 224.596 173.332 224.061 169.75 223.8 C 166.874 207.318 167.642 190.404 172 174.25 C 179.793 146.046 197.889 121.767 222.69 106.24 Z" fill="#f4ec90" stroke="#f4ec90"></path>
    <path id="path_30" d="M 185.37 226.72 L 176.9 230.17 C 178.01 228.53 179.18 226.94 180.39 225.4 C 182.06 225.78 183.72 226.21 185.37 226.72 Z" fill="#ffffff" stroke="#ffffff"></path>
    <path id="path_31" d="M 231.07 194.9 C 232.14 197.21 233.28 199.5 234.49 201.75 C 224.176 203.208 214.287 206.836 205.477 212.395 C 196.667 217.953 189.136 225.318 183.38 234 C 179.454 232.73 175.41 231.856 171.31 231.39 Q 170.41 227.64 169.75 223.85 C 173.332 224.111 176.889 224.646 180.39 225.45 C 179.18 226.99 178.01 228.58 176.9 230.22 L 185.37 226.77 C 183.72 226.26 182.06 225.83 180.37 225.45 C 192.916 209.362 210.984 198.475 231.07 194.9 Z" fill="#ffffff" stroke="#ffffff"></path>
    <path id="path_32" d="M 164.19 230.92 C 166.569 230.923 168.947 231.063 171.31 231.34 Q 172.31 235.34 173.52 239.34 C 168.2 238.445 162.779 238.307 157.42 238.93 Q 156.42 235.27 155.65 231.53 C 158.48 231.135 161.333 230.931 164.19 230.92 Z" fill="#ffffff" stroke="#ffffff"></path>
    <path id="path_33" d="M 169.75 223.8 Q 170.41 227.59 171.31 231.34 C 168.947 231.063 166.569 230.923 164.19 230.92 C 161.333 230.928 158.48 231.128 155.65 231.52 Q 154.92 227.96 154.38 224.36 C 159.468 223.623 164.621 223.435 169.75 223.8 Z" fill="#ffffff" stroke="#ffffff"></path>
    <path id="path_34" d="M 102 293.16 C 102.004 278.14 107.445 263.618 117.31 252.293 C 127.175 240.967 140.813 233.585 155.69 231.52 Q 156.47 235.25 157.46 238.92 C 150.252 239.762 143.291 242.062 137 245.68 C 126.56 251.761 118.399 261.105 113.777 272.268 C 109.156 283.431 108.324 295.809 111.41 307.49 C 117.88 331.3 139.74 347.62 164.24 347.89 C 169.04 347.95 171.45 351.67 171.48 355.39 L 164.24 355.39 C 153.316 355.392 142.582 352.517 133.121 347.056 C 123.66 341.595 115.801 333.738 110.339 324.278 C 104.876 314.818 102 304.084 102 293.16 Z" fill="#ffffff" stroke="#ffffff"></path>
    <path id="path_35" d="M 154.38 224.36 Q 154.92 227.96 155.65 231.52 C 140.042 233.685 125.825 241.698 115.892 253.93 C 105.959 266.161 101.032 281.721 102.116 297.44 C 103.2 313.16 110.215 327.896 121.733 338.648 C 133.25 349.401 148.433 355.388 164.19 355.39 L 171.43 355.39 C 171.43 359.17 169.06 362.95 164.19 362.89 C 146.631 362.778 129.726 356.142 116.78 344.28 C 93.49 322.86 88 287.14 103.11 259.49 C 108.359 250.07 115.721 241.995 124.617 235.9 C 133.512 229.805 143.701 225.854 154.38 224.36 Z" fill="#ffffff" stroke="#ffffff"></path>
</g></svg>