<svg xmlns="http://www.w3.org/2000/svg" viewBox="0 0 500 500" id="vector"><g transform="translate(-60 -60) scale(1.25 1.25)">
    <path id="path" d="M 325.57 304.75 C 338.395 304.754 350.774 299.991 360.288 291.392 C 369.802 282.792 375.788 270.956 377.076 258.196 C 378.363 245.436 374.863 232.643 367.259 222.316 C 359.655 211.989 348.477 204.848 335.91 202.29 C 330.387 184.442 318.279 169.344 302.056 160.077 C 285.833 150.81 266.678 148.049 248.498 152.357 C 230.318 156.665 214.439 167.728 204.1 183.29 C 190.326 178.82 175.415 179.293 161.953 184.629 C 148.49 189.965 137.303 199.835 130.332 212.528 C 123.361 225.221 121.034 239.957 123.754 254.181 C 126.474 268.404 134.074 281.242 145.237 290.467 C 156.399 299.692 170.439 304.738 184.92 304.73" fill="#ababab"></path>
    <path id="path_1" d="M 325.57 312.25 C 340.034 312.098 353.965 306.711 364.769 297.092 C 375.573 287.474 382.535 274.26 384.36 259.91 C 388.06 229.91 367.36 201.44 337.9 195.05 L 343.14 200.29 C 334.07 171.9 309.97 149.48 280.33 144.29 C 264.613 141.524 248.425 143.383 233.744 149.64 C 219.062 155.897 206.51 166.287 197.62 179.54 L 206.09 176.09 C 174.69 166.4 139.74 179.86 123.83 208.86 C 108.67 236.51 114.21 272.23 137.49 293.65 C 150.442 305.509 167.349 312.145 184.91 312.26 C 194.57 312.37 194.57 297.37 184.91 297.26 C 160.41 296.99 138.55 280.66 132.07 256.86 C 128.974 245.17 129.802 232.782 134.426 221.608 C 139.05 210.435 147.219 201.083 157.67 195 C 171.25 187.17 187.21 185.91 202.1 190.51 C 205.44 191.51 208.73 189.77 210.57 187.06 C 225.22 165.55 252 154 277.73 159 C 289.495 161.304 300.43 166.722 309.39 174.687 C 318.351 182.652 325.013 192.876 328.68 204.29 C 329.028 205.541 329.694 206.68 330.612 207.598 C 331.53 208.516 332.669 209.182 333.92 209.53 C 356.45 214.42 372.42 235.28 369.53 258.53 C 366.79 280.62 347.53 296.94 325.53 297.23 C 315.89 297.36 315.86 312.36 325.53 312.23 Z" fill="#ababab"></path>
    <path id="path_2" d="M 195.82 284 L 275.28 284 C 278.84 284 282.51 283.76 286.06 284 C 287.779 284.049 289.414 284.764 290.618 285.991 C 291.821 287.219 292.503 288.868 292.519 290.587 C 292.535 292.307 291.882 293.967 290.701 295.217 C 289.519 296.466 287.898 297.21 286.18 297.29 C 273.71 298.29 260.81 297.29 248.31 297.29 C 234.52 297.29 215.31 293.85 206.74 307.64 C 199.8 318.88 205 334.01 217.11 338.94 C 222.97 341.33 229.91 340.57 236.11 340.57 L 260.49 340.57 C 265.49 340.57 272.81 340.07 272.81 347.22 C 272.81 355.86 261.22 353.87 255.68 353.87 C 246.88 353.87 237.96 353.03 230.84 359.36 C 227.772 362.141 225.56 365.739 224.463 369.731 C 223.366 373.723 223.429 377.947 224.645 381.905 C 225.861 385.862 228.181 389.392 231.33 392.08 C 237.16 396.91 243.79 397.16 250.86 397.16 L 300.31 397.16 C 309.96 397.16 309.98 382.16 300.31 382.16 L 261.62 382.16 C 256.27 382.16 250.78 382.52 245.43 382.16 C 236.7 381.57 236.49 369.57 245.25 368.87 C 251.7 368.35 258.35 368.93 264.82 368.87 C 276.29 368.76 286.31 361.46 287.64 349.58 C 289.09 336.58 278.85 326.07 266.16 325.58 C 260.51 325.36 254.81 325.58 249.16 325.58 Q 238.02 325.58 226.88 325.58 C 224.51 325.58 222.34 325.43 220.53 323.58 C 219.609 322.649 218.983 321.467 218.729 320.182 C 218.476 318.897 218.606 317.566 219.104 316.354 C 219.602 315.143 220.446 314.105 221.53 313.37 C 224.76 311.2 230.78 312.24 234.41 312.24 L 281 312.24 C 287.9 312.24 294.4 311.85 300 307.16 C 303.205 304.427 305.549 300.822 306.746 296.783 C 307.944 292.745 307.944 288.445 306.746 284.407 C 305.549 280.368 303.205 276.763 300 274.03 C 294.85 269.76 288.84 268.95 282.47 268.95 L 195.82 268.95 C 186.17 268.95 186.15 283.95 195.82 283.95 Z" fill="#ffffff"></path>
</g></svg>