<svg xmlns="http://www.w3.org/2000/svg" viewBox="0 0 500 500" id="vector"><g transform="translate(-60 -60) scale(1.25 1.25)">
    <path id="path" d="M 341.66 189.62 L 341.66 189.62 C 342.337 189.803 342.935 190.203 343.362 190.76 C 343.788 191.317 344.02 191.999 344.02 192.7 C 344.02 193.401 343.788 194.083 343.362 194.64 C 342.935 195.197 342.337 195.597 341.66 195.78 L 341.66 195.78 C 334.164 197.797 327.328 201.749 321.838 207.238 C 316.349 212.728 312.397 219.564 310.38 227.06 L 310.38 227.06 C 310.197 227.737 309.797 228.335 309.24 228.762 C 308.683 229.188 308.001 229.42 307.3 229.42 C 306.599 229.42 305.917 229.188 305.36 228.762 C 304.803 228.335 304.403 227.737 304.22 227.06 L 304.22 227.06 C 302.203 219.564 298.251 212.728 292.762 207.238 C 287.272 201.749 280.436 197.797 272.94 195.78 L 272.94 195.78 C 272.263 195.597 271.665 195.197 271.238 194.64 C 270.812 194.083 270.58 193.401 270.58 192.7 C 270.58 191.999 270.812 191.317 271.238 190.76 C 271.665 190.203 272.263 189.803 272.94 189.62 L 272.94 189.62 C 280.436 187.603 287.272 183.651 292.762 178.162 C 298.251 172.672 302.203 165.836 304.22 158.34 L 304.22 158.34 C 304.403 157.663 304.803 157.065 305.36 156.638 C 305.917 156.212 306.599 155.98 307.3 155.98 C 308.001 155.98 308.683 156.212 309.24 156.638 C 309.797 157.065 310.197 157.663 310.38 158.34 L 310.38 158.34 C 312.397 165.836 316.349 172.672 321.838 178.162 C 327.328 183.651 334.164 187.603 341.66 189.62 Z" fill="#ffffff"></path>
    <path id="path_1" d="M 232.91 267.09 C 215.469 249.65 203.634 227.388 198.93 203.177 C 194.227 178.965 196.867 153.891 206.51 131.19 C 176.479 143.97 152.692 168.128 140.377 198.353 C 128.062 228.578 128.193 262.48 140.741 292.609 C 153.289 322.738 177.262 346.711 207.391 359.259 C 237.52 371.807 271.422 371.938 301.647 359.623 C 331.872 347.308 356.03 323.521 368.81 293.49 C 346.109 303.133 321.035 305.773 296.823 301.07 C 272.612 296.366 250.35 284.531 232.91 267.09 Z" fill="#f4ec90"></path>
    <path id="path_2" d="M 238.21 261.79 C 204.62 227.79 195.38 177.15 213.74 133.19 C 216.6 126.35 207.85 122.5 202.74 124.72 C 171.721 138.152 147.065 163.069 133.96 194.227 C 120.854 225.385 120.288 260.435 132.38 292 C 144.3 322.67 167.54 348.58 197.26 363 C 218.557 373.419 242.286 377.871 265.911 375.88 C 289.537 373.89 312.186 365.53 331.44 351.694 C 350.693 337.858 365.839 319.057 375.26 297.3 C 377.46 292.21 373.61 283.44 366.79 286.3 C 322.79 304.66 272.2 295.42 238.19 261.83 C 231.31 255.04 220.7 265.64 227.58 272.44 C 265.03 309.44 322.03 321.12 370.78 300.77 L 362.31 289.77 C 349.67 318.98 325.94 342.85 295.91 353.96 C 269.228 363.82 239.864 363.735 213.24 353.72 C 158.06 332.99 127.4 271.17 142.73 214.65 C 152.14 179.94 177.4 151.96 210.28 137.74 L 199.28 129.27 C 178.93 178.01 190.62 235.02 227.61 272.47 C 234.4 279.27 245 268.66 238.21 261.79 Z" fill="#f4ec90"></path>
</g></svg>