<svg xmlns="http://www.w3.org/2000/svg" viewBox="0 0 500 500" id="vector"><g transform="translate(-60 -60) scale(1.25 1.25)">
    <path id="path" d="M 369.54 290.92 C 392.07 295.8 408.04 316.66 405.15 339.92 C 402.4 362.01 383.15 378.33 361.15 378.62 C 356.37 378.68 353.95 382.4 353.91 386.12 L 227.78 386.12 C 227.78 382.4 225.34 378.67 220.54 378.62 C 196.04 378.35 174.18 362.02 167.7 338.22 C 164.448 326.039 165.508 313.099 170.7 301.61 C 172.867 296.754 175.719 292.235 179.17 288.19 C 183.178 283.48 187.964 279.492 193.32 276.4 C 206.9 268.57 222.86 267.32 237.75 271.91 C 241.09 272.91 244.38 271.17 246.22 268.46 C 260.86 246.93 287.64 235.33 313.37 240.36 C 318.119 241.292 322.753 242.737 327.19 244.67 C 328.06 245.05 328.92 245.44 329.76 245.85 C 330.6 246.26 331.7 246.85 332.65 247.34 C 347.719 255.58 359.061 269.301 364.32 285.65 C 364.662 286.904 365.323 288.048 366.237 288.971 C 367.152 289.895 368.29 290.566 369.54 290.92 Z M 326.54 382.42 C 330.15 381.42 333.24 377 331.78 373.2 L 324.37 354 C 322.92 350.22 319.37 347.61 315.15 348.76 C 311.53 349.76 308.45 354.18 309.91 357.98 L 317.28 377.18 C 318.73 381 322.33 383.57 326.51 382.42 Z M 288.54 382.42 C 292.15 381.42 295.24 377 293.78 373.2 L 286.41 354 C 284.96 350.22 281.41 347.61 277.19 348.76 C 273.57 349.76 270.49 354.18 271.95 357.98 L 279.32 377.18 C 280.77 381 284.37 383.57 288.55 382.42 Z M 250.54 382.42 C 254.15 381.42 257.23 377 255.77 373.2 Q 252.1 363.6 248.4 354 C 246.95 350.22 243.4 347.61 239.17 348.76 C 235.56 349.76 232.48 354.18 233.94 357.98 Q 237.61 367.58 241.31 377.18 C 242.81 381 246.41 383.57 250.59 382.42 Z" fill="#ffffff" stroke="#ffffff"></path>
    <path id="path_1" d="M 404.07 232.93 C 413.74 232.93 413.72 247.93 404.07 247.93 L 370.42 247.93 C 360.75 247.93 360.77 232.93 370.42 232.93 Z" fill="#f8b62d" stroke="#f8b62d"></path>
    <path id="path_2" d="M 342.21 244.32 C 356.188 253.71 366.539 267.608 371.53 283.69 C 384.097 286.248 395.275 293.389 402.879 303.716 C 410.483 314.043 413.983 326.836 412.696 339.596 C 411.408 352.356 405.422 364.192 395.908 372.792 C 386.394 381.391 374.015 386.154 361.19 386.15 L 354 386.15 C 354 382.43 356.46 378.71 361.24 378.65 C 383.24 378.36 402.45 362.04 405.24 339.95 C 408.13 316.66 392.16 295.8 369.63 290.95 C 368.379 290.602 367.24 289.936 366.322 289.018 C 365.404 288.1 364.738 286.961 364.39 285.71 C 360.243 272.773 352.249 261.402 341.48 253.12 Q 342 248.74 342.21 244.32 Z" fill="#ffffff" stroke="#ffffff"></path>
    <path id="path_3" d="M 379.05 154.7 C 387.43 149.86 394.98 162.83 386.62 167.7 L 357.48 184.53 C 349.09 189.37 341.55 176.4 349.91 171.58 Z" fill="#f8b62d" stroke="#f8b62d"></path>
    <path id="path_4" d="M 377.25 277.41 C 404.68 285.29 423.52 312.55 419.98 341.31 C 418.155 355.66 411.193 368.874 400.389 378.492 C 389.585 388.111 375.654 393.498 361.19 393.65 C 356.31 393.71 353.9 389.93 353.95 386.15 L 361.19 386.15 C 374.015 386.154 386.394 381.391 395.908 372.792 C 405.422 364.192 411.408 352.356 412.696 339.596 C 413.983 326.836 410.483 314.043 402.879 303.716 C 395.275 293.389 384.097 286.248 371.53 283.69 C 366.539 267.608 356.188 253.71 342.21 244.32 C 342.27 243.22 342.31 242.11 342.32 241 L 342.32 240.92 C 342.32 240.78 342.32 240.64 342.32 240.5 L 342.32 240.43 C 342.32 240.26 342.32 240.09 342.32 239.92 C 342.32 238.42 342.23 236.92 342.15 235.45 C 358.224 245.118 370.59 259.915 377.25 277.45 C 376.02 277.09 374.79 276.77 373.52 276.45 L 378.76 281.69 C 378.3 280.25 377.79 278.82 377.25 277.41 Z" fill="#ffffff" stroke="#ffffff"></path>
    <path id="path_5" d="M 377.25 277.41 C 377.79 278.82 378.25 280.25 378.76 281.69 L 373.52 276.45 C 374.79 276.73 376 277.05 377.25 277.41 Z" fill="#ffffff" stroke="#ffffff"></path>
    <path id="path_6" d="M 348.21 416.08 C 349.67 419.88 346.59 424.31 342.98 425.3 C 338.8 426.45 335.2 423.85 333.75 420.07 Q 330.06 410.47 326.38 400.86 C 324.92 397.06 328 392.63 331.61 391.64 C 335.79 390.49 339.39 393.1 340.84 396.88 Q 344.53 406.48 348.21 416.08 Z" fill="#2ea7e0"></path>
    <path id="path_7" d="M 342.32 240.92 C 342.32 240.78 342.32 240.64 342.32 240.5 C 342.33 240.64 342.33 240.78 342.32 240.92 Z" fill="#ffffff" stroke="#ffffff"></path>
    <path id="path_8" d="M 341.56 243.89 C 342.008 242.989 342.267 242.005 342.32 241 C 342.32 242.11 342.27 243.22 342.21 244.32 C 342 244.17 341.78 244 341.56 243.89 Z" fill="#ffffff" stroke="#ffffff"></path>
    <path id="path_9" d="M 341.56 243.89 C 339.93 247.12 335.96 248.28 332.63 247.37 C 331.63 246.85 330.72 246.37 329.74 245.88 C 328.958 245.208 328.336 244.37 327.919 243.427 C 327.502 242.484 327.301 241.46 327.33 240.43 C 327.32 239.212 327.608 238.01 328.17 236.93 C 332.864 238.777 337.352 241.11 341.56 243.89 Z" fill="#ffffff" stroke="#ffffff"></path>
    <path id="path_10" d="M 328.17 236.93 C 331.27 231.09 341.93 232.09 342.32 239.93 C 342.32 240.1 342.32 240.27 342.32 240.44 L 342.32 240.51 C 342.32 240.65 342.32 240.79 342.32 240.93 L 342.32 241 C 342.267 242.005 342.008 242.989 341.56 243.89 C 337.352 241.11 332.864 238.777 328.17 236.93 Z" fill="#ffffff" stroke="#ffffff"></path>
    <path id="path_11" d="M 332.63 247.37 C 335.96 248.28 339.93 247.12 341.56 243.89 C 341.78 244.03 342 244.17 342.21 244.32 Q 342 248.75 341.39 253.09 C 338.624 250.958 335.695 249.045 332.63 247.37 Z" fill="#ffffff" stroke="#ffffff"></path>
    <path id="path_12" d="M 331.75 373.2 C 333.21 377 330.12 381.43 326.51 382.42 C 322.33 383.57 318.73 380.96 317.28 377.18 L 309.91 358 C 308.45 354.2 311.53 349.77 315.15 348.78 C 319.33 347.63 322.92 350.24 324.37 354.02 Z" fill="#2ea7e0"></path>
    <path id="path_13" d="M 318.34 99.37 C 323.17 91 336.13 98.57 331.29 106.94 L 314.47 136.09 C 309.64 144.45 296.68 136.89 301.47 128.52 Z" fill="#f8b62d" stroke="#f8b62d"></path>
    <path id="path_14" d="M 327.2 236.54 C 327.045 233.767 326.748 231.003 326.31 228.26 C 331.84 230.061 337.153 232.473 342.15 235.45 C 342.23 236.93 342.3 238.45 342.32 239.92 C 341.93 232.09 331.27 231.09 328.17 236.92 Z" fill="#ffffff" stroke="#ffffff"></path>
    <path id="path_15" d="M 328.17 236.93 C 327.608 238.01 327.32 239.212 327.33 240.43 C 327.33 239.13 327.27 237.83 327.2 236.54 Z" fill="#ffffff" stroke="#ffffff"></path>
    <path id="path_16" d="M 327.33 240.43 C 327.301 241.46 327.502 242.484 327.919 243.427 C 328.336 244.37 328.958 245.208 329.74 245.88 C 328.9 245.47 328.04 245.08 327.17 244.7 C 327.26 243.28 327.32 241.86 327.33 240.43 Z" fill="#ffffff" stroke="#ffffff"></path>
    <path id="path_17" d="M 220.54 261.68 C 224.667 261.678 228.784 262.086 232.83 262.9 L 232.83 262.9 C 235.16 263.364 237.461 263.965 239.72 264.7 C 248.963 250.804 262.652 240.446 278.538 235.331 C 294.424 230.215 311.585 230.638 327.2 236.53 C 327.27 237.82 327.32 239.12 327.33 240.42 C 327.34 241.72 327.26 243.27 327.17 244.69 C 322.733 242.757 318.099 241.312 313.35 240.38 C 287.62 235.38 260.84 246.95 246.2 268.48 C 244.36 271.19 241.07 272.96 237.73 271.93 C 222.84 267.34 206.88 268.59 193.3 276.42 C 187.944 279.512 183.158 283.5 179.15 288.21 C 177.604 286.105 176.172 283.919 174.86 281.66 C 180.676 275.35 187.74 270.315 195.603 266.876 C 203.466 263.437 211.958 261.667 220.54 261.68 Z" fill="#ffffff" stroke="#ffffff"></path>
    <path id="path_18" d="M 301.11 231.79 C 288.956 231.784 276.987 234.787 266.276 240.531 C 255.564 246.275 246.44 254.583 239.72 264.71 C 237.461 263.975 235.16 263.374 232.83 262.91 L 232.83 262.91 L 233.25 260.91 L 241.72 257.47 C 240.07 256.96 238.41 256.53 236.72 256.14 C 245.913 244.332 258.156 235.253 272.125 229.885 C 286.093 224.516 301.265 223.059 316 225.67 C 319.51 226.29 322.972 227.155 326.36 228.26 C 326.798 231.003 327.095 233.767 327.25 236.54 C 318.898 233.383 310.039 231.773 301.11 231.79 Z" fill="#ffffff" stroke="#ffffff"></path>
    <path id="path_19" d="M 310.25 416.08 C 311.71 419.88 308.63 424.31 305.02 425.3 C 300.84 426.45 297.24 423.85 295.79 420.07 L 288.41 400.86 C 286.95 397.06 290.04 392.63 293.65 391.64 C 297.83 390.49 301.43 393.1 302.88 396.88 Q 306.57 406.48 310.25 416.08 Z" fill="#2ea7e0"></path>
    <path id="path_20" d="M 261.39 160.18 C 277.849 163.578 292.886 171.917 304.484 184.08 C 316.082 196.242 323.698 211.658 326.31 228.26 C 322.938 227.158 319.493 226.292 316 225.67 C 301.275 223.073 286.117 224.539 272.162 229.909 C 258.207 235.279 245.976 244.352 236.79 256.15 C 225.196 253.51 213.123 253.822 201.68 257.055 C 190.238 260.289 179.788 266.343 171.29 274.66 C 165.792 262.476 163.315 249.144 164.07 235.798 C 164.826 222.453 168.792 209.485 175.63 198 C 193.17 169.08 228.11 153.43 261.39 160.18 Z" fill="#f8b62d" stroke="#f8b62d"></path>
    <path id="path_21" d="M 293.79 373.2 C 295.25 377 292.16 381.43 288.55 382.42 C 284.37 383.57 280.77 380.96 279.32 377.18 L 272 358 C 270.54 354.2 273.62 349.77 277.24 348.78 C 281.42 347.63 285.01 350.24 286.46 354.02 Z" fill="#2ea7e0"></path>
    <path id="path_22" d="M 272.29 416.08 C 273.75 419.88 270.67 424.31 267.05 425.3 C 262.87 426.45 259.28 423.85 257.83 420.07 L 250.45 400.87 C 248.99 397.06 252.08 392.63 255.69 391.64 C 259.87 390.49 263.47 393.1 264.92 396.88 Z" fill="#2ea7e0"></path>
    <path id="path_23" d="M 255.82 373.2 C 257.28 377 254.2 381.43 250.59 382.42 C 246.41 383.57 242.81 380.96 241.36 377.18 Q 237.67 367.58 233.99 357.98 C 232.53 354.18 235.61 349.75 239.22 348.76 C 243.4 347.61 247 350.22 248.45 354 Q 252.14 363.6 255.82 373.2 Z" fill="#2ea7e0"></path>
    <path id="path_24" d="M 253.06 81.92 L 253.06 115.57 C 253.06 125.24 238.06 125.23 238.06 115.57 L 238.06 81.92 C 238.06 72.25 253.06 72.27 253.06 81.92 Z" fill="#f8b62d" stroke="#f8b62d"></path>
    <path id="path_25" d="M 241.72 257.48 L 233.25 260.92 C 234.36 259.28 235.53 257.69 236.74 256.15 C 238.41 256.54 240.07 257 241.72 257.48 Z" fill="#ffffff" stroke="#ffffff"></path>
    <path id="path_26" d="M 171.24 274.66 C 179.738 266.343 190.188 260.289 201.63 257.055 C 213.073 253.822 225.146 253.51 236.74 256.15 C 235.53 257.69 234.36 259.28 233.25 260.92 L 232.83 262.92 C 222.365 260.813 211.532 261.432 201.375 264.719 C 191.219 268.006 182.076 273.851 174.83 281.69 C 173.517 279.408 172.318 277.062 171.24 274.66 Z" fill="#ffffff" stroke="#ffffff"></path>
    <path id="path_27" d="M 189.61 128.52 C 194.45 136.9 181.48 144.44 176.61 136.09 L 159.78 106.94 C 155 98.56 168 91 172.78 99.37 Z" fill="#f8b62d" stroke="#f8b62d"></path>
    <path id="path_28" d="M 158.31 323.92 C 158.31 334.843 161.186 345.576 166.647 355.035 C 172.109 364.494 179.966 372.351 189.425 377.813 C 198.884 383.274 209.617 386.15 220.54 386.15 L 227.78 386.15 C 227.78 389.93 225.4 393.7 220.54 393.65 C 202.974 393.521 186.068 386.871 173.12 375 C 149.84 353.59 144.3 317.87 159.46 290.22 C 159.96 289.3 160.46 288.4 161.03 287.51 C 161.56 288.51 162.11 289.42 162.68 290.37 C 163.59 291.87 164.55 293.37 165.54 294.77 C 160.775 303.746 158.292 313.758 158.31 323.92 Z" fill="#ffffff" stroke="#ffffff"></path>
    <path id="path_29" d="M 174.86 281.67 C 176.172 283.929 177.604 286.115 179.15 288.22 C 175.699 292.265 172.847 296.784 170.68 301.64 Q 167.96 298.36 165.54 294.8 C 168.063 290.037 171.196 285.623 174.86 281.67 Z" fill="#ffffff" stroke="#ffffff"></path>
    <path id="path_30" d="M 342.15 235.45 C 337.153 232.473 331.84 230.061 326.31 228.26 C 323.698 211.658 316.082 196.242 304.484 184.08 C 292.886 171.917 277.849 163.578 261.39 160.18 C 228.11 153.43 193.17 169.08 175.63 198.03 C 168.789 209.507 164.817 222.468 164.052 235.807 C 163.288 249.147 165.754 262.476 171.24 274.66 C 167.316 278.522 163.878 282.847 161 287.54 C 141.73 253.04 146 209.37 171 178.79 C 196.37 147.79 240.58 135.54 278.27 149.36 C 296.127 155.954 311.682 167.609 323.025 182.896 C 334.368 198.183 341.015 216.448 342.15 235.45 Z" fill="#f8b62d" stroke="#f8b62d"></path>
    <path id="path_31" d="M 174.86 281.67 C 171.196 285.623 168.063 290.037 165.54 294.8 C 164.54 293.36 163.59 291.9 162.68 290.4 C 162.11 289.45 161.56 288.5 161.03 287.54 C 163.898 282.849 167.327 278.523 171.24 274.66 C 172.329 277.056 173.537 279.395 174.86 281.67 Z" fill="#ffffff" stroke="#ffffff"></path>
    <path id="path_32" d="M 220.54 378.65 C 225.34 378.7 227.75 382.43 227.78 386.15 L 220.54 386.15 C 206.175 386.147 192.245 381.171 181.129 372.072 C 170.013 362.972 162.383 350.3 159.542 336.218 C 156.701 322.137 158.821 307.497 165.54 294.8 Q 167.97 298.36 170.68 301.64 C 165.488 313.129 164.428 326.069 167.68 338.25 C 174.18 362.05 196 378.38 220.54 378.65 Z" fill="#ffffff" stroke="#ffffff"></path>
    <path id="path_33" d="M 141.22 171.53 C 149.59 176.36 142.02 189.31 133.65 184.48 L 104.5 167.65 C 96.14 162.82 103.7 149.86 112.07 154.65 Z" fill="#ffb62d"></path>
    <path id="path_34" d="M 133.65 296.38 C 142.03 291.54 149.58 304.51 141.22 309.33 L 112.07 326.16 C 103.69 331 96.15 318.03 104.5 313.16 Z" fill="#ffb62d"></path>
    <path id="path_35" d="M 120.71 232.93 C 130.37 232.93 130.36 247.93 120.71 247.93 L 87.05 247.93 C 77.38 247.93 77.4 232.93 87.05 232.93 Z" fill="#ffb62d"></path>
</g></svg>