<svg xmlns="http://www.w3.org/2000/svg" viewBox="0 0 500 500" id="vector"><g transform="translate(-60 -60) scale(1.25 1.25)">
    <path id="path" d="M 332.64 226.52 C 335.703 228.199 338.631 230.111 341.4 232.24 C 352.167 240.524 360.16 251.894 364.31 264.83 C 364.657 266.081 365.322 267.222 366.24 268.14 C 367.158 269.058 368.299 269.723 369.55 270.07 C 392.08 274.96 408.05 295.82 405.15 319.07 C 402.41 341.16 383.15 357.48 361.2 357.77 C 356.42 357.84 354 361.55 353.96 365.27 L 328.67 365.27 L 333.45 360.45 L 345.39 348.45 C 349.96 343.85 346.6 335.65 340.08 335.65 L 322.08 335.65 L 334.14 317.65 C 337.37 312.83 333.08 306.36 327.66 306.36 C 314.72 306.36 301.72 305.98 288.76 306.2 C 286.49 306.2 284.21 306.28 281.94 306.36 C 277.31 306.52 274.88 309.18 272.87 312.47 C 271.87 314.05 271.01 315.78 270.03 317.47 L 255.14 342.88 L 244.33 361.33 C 243.614 362.537 243.266 363.928 243.33 365.33 L 227.79 365.33 C 227.79 361.61 225.35 357.89 220.55 357.83 C 196.05 357.56 174.19 341.23 167.71 317.43 C 164.458 305.249 165.518 292.309 170.71 280.82 C 172.877 275.964 175.729 271.445 179.18 267.4 C 183.187 262.696 187.97 258.712 193.32 255.62 C 206.91 247.79 222.87 246.53 237.76 251.12 C 241.1 252.12 244.38 250.39 246.23 247.68 C 260.87 226.14 287.65 214.54 313.38 219.58 C 318.128 220.513 322.761 221.955 327.2 223.88 C 328.07 224.26 328.93 224.65 329.77 225.07 C 330.61 225.49 331.69 226 332.64 226.52 Z" fill="#ababab" stroke="#ababab"></path>
    <path id="path_1" d="M 236.75 235.31 C 245.936 223.501 258.173 214.42 272.136 209.047 C 286.1 203.675 301.268 202.213 316 204.82 C 319.509 205.445 322.97 206.31 326.36 207.41 C 326.799 210.156 327.096 212.923 327.25 215.7 C 312.709 210.206 296.796 209.448 281.799 213.535 C 266.801 217.622 253.473 226.348 243.73 238.46 L 241.73 236.63 C 240.08 236.12 238.41 235.69 236.75 235.31 Z" fill="#ababab" stroke="#ababab"></path>
    <path id="path_2" d="M 379.06 133.85 C 387.44 129 395 142 386.63 146.8 L 357.49 163.63 C 349.1 168.47 341.56 155.5 349.91 150.63 Z" fill="#f8b62d"></path>
    <path id="path_3" d="M 179.16 267.37 C 175.709 271.415 172.857 275.934 170.69 280.79 Q 167.97 277.5 165.55 273.95 C 168.073 269.189 171.202 264.776 174.86 260.82 C 176.179 263.076 177.614 265.263 179.16 267.37 Z" fill="#ababab" stroke="#ababab"></path>
    <path id="path_4" d="M 141.23 150.68 C 149.6 155.51 142.03 168.47 133.66 163.68 L 104.51 146.8 C 96.15 141.97 103.71 129.02 112.08 133.85 Z" fill="#f8b62d"></path>
    <path id="path_5" d="M 341.57 223 C 342.018 222.099 342.277 221.115 342.33 220.11 C 342.33 221.22 342.27 222.33 342.22 223.43 Z" fill="#ababab" stroke="#ababab"></path>
    <path id="path_6" d="M 404.08 212.08 C 413.75 212.08 413.73 227.08 404.08 227.08 L 370.43 227.08 C 360.76 227.08 360.78 212.08 370.43 212.08 Z" fill="#f8b62d"></path>
    <path id="path_7" d="M 120.72 212.08 C 130.38 212.08 130.37 227.08 120.72 227.08 L 87.06 227.08 C 77.39 227.08 77.41 212.08 87.06 212.08 Z" fill="#f8b62d"></path>
    <path id="path_8" d="M 341.4 232.24 C 341.81 229.35 342.08 226.42 342.22 223.47 C 356.191 232.867 366.539 246.763 371.54 262.84 C 384.107 265.398 395.285 272.539 402.889 282.866 C 410.493 293.193 413.993 305.986 412.706 318.746 C 411.418 331.506 405.432 343.342 395.918 351.942 C 386.404 360.541 374.025 365.304 361.2 365.3 L 354 365.3 C 354 361.58 356.46 357.87 361.24 357.8 C 383.24 357.51 402.45 341.19 405.19 319.1 C 408.09 295.82 392.12 274.96 369.59 270.1 C 368.339 269.753 367.198 269.088 366.28 268.17 C 365.362 267.252 364.697 266.111 364.35 264.86 C 360.195 251.908 352.187 240.526 341.4 232.24 Z" fill="#ababab" stroke="#ababab"></path>
    <path id="path_9" d="M 328.18 216.08 C 331.28 210.26 341.9 211.24 342.33 219.02 C 342.33 219.2 342.33 219.39 342.33 219.58 L 342.33 219.65 C 342.33 219.79 342.33 219.93 342.33 220.07 L 342.33 220.15 C 342.277 221.155 342.018 222.139 341.57 223.04 C 337.359 220.264 332.872 217.931 328.18 216.08 Z" fill="#ababab" stroke="#ababab"></path>
    <path id="path_10" d="M 327.21 215.7 L 328.21 216.08 C 327.649 217.161 327.361 218.362 327.37 219.58 C 327.33 218.28 327.28 217 327.21 215.7 Z" fill="#ababab" stroke="#ababab"></path>
    <path id="path_11" d="M 342.33 220.07 C 342.33 219.93 342.33 219.79 342.33 219.65 C 342.34 219.79 342.34 219.93 342.33 220.07 Z" fill="#ababab" stroke="#ababab"></path>
    <path id="path_12" d="M 189.62 107.67 C 194.46 116.05 181.49 123.6 176.62 115.24 L 159.84 86.09 C 155 77.71 168 70.17 172.79 78.52 Z" fill="#f8b62d"></path>
    <path id="path_13" d="M 342.33 219 C 341.9 211.22 331.28 210.24 328.18 216.06 L 327.18 215.68 C 327.026 212.903 326.729 210.136 326.29 207.39 C 331.821 209.195 337.133 211.61 342.13 214.59 C 342.24 216.07 342.3 217.55 342.33 219 Z" fill="#ababab" stroke="#ababab"></path>
    <path id="path_14" d="M 278.3 128.52 C 296.158 135.11 311.712 146.765 323.053 162.053 C 334.393 177.341 341.034 195.609 342.16 214.61 C 337.163 211.63 331.851 209.215 326.32 207.41 C 323.704 190.81 316.086 175.396 304.489 163.234 C 292.892 151.072 277.857 142.732 261.4 139.33 C 228.12 132.58 193.18 148.24 175.64 177.19 C 168.796 188.664 164.822 201.623 164.057 214.962 C 163.293 228.301 165.761 241.629 171.25 253.81 C 167.328 257.675 163.886 262 161 266.69 C 141.73 232.2 146 188.53 171 157.94 C 196.4 126.89 240.61 114.7 278.3 128.52 Z" fill="#f8b62d" stroke="#f8b62d"></path>
    <path id="path_15" d="M 412.95 313.55 C 412.947 301.623 408.823 290.056 401.279 280.818 C 393.735 271.58 383.226 265.227 371.54 262.84 C 366.539 246.763 356.191 232.867 342.22 223.47 C 342.27 222.37 342.32 221.26 342.33 220.15 L 342.33 220.07 C 342.33 219.93 342.33 219.79 342.33 219.65 L 342.33 219.58 C 342.33 219.39 342.33 219.2 342.33 219.02 C 342.33 217.55 342.24 216.07 342.16 214.61 C 358.237 224.274 370.604 239.072 377.26 256.61 C 376.03 256.26 374.79 255.93 373.53 255.61 L 378.77 260.85 C 378.31 259.4 377.77 257.97 377.26 256.56 C 404.69 264.44 423.53 291.71 419.99 320.46 C 418.165 334.81 411.203 348.024 400.399 357.642 C 389.595 367.261 375.664 372.648 361.2 372.8 C 356.32 372.87 353.91 369.09 353.96 365.3 L 361.2 365.3 C 374.92 365.3 388.091 359.844 397.793 350.143 C 407.494 340.441 412.95 327.27 412.95 313.55 Z" fill="#ababab" stroke="#ababab"></path>
    <path id="path_16" d="M 261.4 139.33 C 277.857 142.732 292.892 151.072 304.489 163.234 C 316.086 175.396 323.704 190.81 326.32 207.41 C 322.943 206.312 319.495 205.446 316 204.82 C 301.274 202.221 286.114 203.687 272.158 209.059 C 258.203 214.43 245.973 223.508 236.79 235.31 C 225.197 232.668 213.124 232.977 201.681 236.209 C 190.239 239.441 179.788 245.493 171.29 253.81 C 165.801 241.629 163.333 228.301 164.097 214.962 C 164.862 201.623 168.836 188.664 175.68 177.19 C 193.18 148.24 228.12 132.58 261.4 139.33 Z" fill="#f8b62d" stroke="#f8b62d"></path>
    <path id="path_17" d="M 377.26 256.56 C 377.8 257.97 378.26 259.4 378.77 260.85 L 373.53 255.61 C 374.79 255.88 376 256.21 377.26 256.56 Z" fill="#ababab" stroke="#ababab"></path>
    <path id="path_18" d="M 328.18 216.08 C 332.873 217.944 337.361 220.29 341.57 223.08 C 339.94 226.31 335.97 227.47 332.64 226.56 C 331.64 226.04 330.73 225.56 329.75 225.08 C 328.971 224.404 328.351 223.564 327.934 222.62 C 327.517 221.676 327.314 220.651 327.34 219.62 C 327.324 218.389 327.613 217.173 328.18 216.08 Z" fill="#ababab" stroke="#ababab"></path>
    <path id="path_19" d="M 332.64 226.52 C 335.97 227.43 339.94 226.27 341.57 223.04 L 342.22 223.47 C 342.08 226.42 341.81 229.35 341.4 232.24 C 338.631 230.111 335.703 228.199 332.64 226.52 Z" fill="#ababab" stroke="#ababab"></path>
    <path id="path_20" d="M 327.34 219.58 C 327.314 220.611 327.517 221.636 327.934 222.58 C 328.351 223.524 328.971 224.364 329.75 225.04 C 328.91 224.62 328.05 224.23 327.18 223.85 C 327.26 222.43 327.33 221 327.34 219.58 Z" fill="#ababab" stroke="#ababab"></path>
    <path id="path_21" d="M 236.75 235.31 C 238.41 235.69 240.08 236.12 241.75 236.63 L 233.28 240.08 C 234.37 238.44 235.54 236.85 236.75 235.31 Z" fill="#ababab" stroke="#ababab"></path>
    <path id="path_22" d="M 171.25 253.81 C 179.748 245.493 190.199 239.441 201.641 236.209 C 213.084 232.977 225.157 232.668 236.75 235.31 C 235.54 236.85 234.37 238.44 233.26 240.08 L 232.84 242.08 C 222.375 239.975 211.542 240.595 201.386 243.882 C 191.23 247.169 182.087 253.013 174.84 260.85 Q 172.88 257.4 171.25 253.81 Z" fill="#ababab" stroke="#ababab"></path>
    <path id="path_23" d="M 318.35 78.52 C 323.18 70.16 336.14 77.72 331.3 86.09 L 314.48 115.24 C 309.65 123.61 296.69 116.04 301.48 107.67 Z" fill="#f8b62d"></path>
    <path id="path_24" d="M 162.69 269.55 C 163.6 271.05 164.56 272.55 165.55 273.95 C 158.831 286.647 156.711 301.287 159.552 315.368 C 162.393 329.45 170.023 342.122 181.139 351.222 C 192.255 360.321 206.185 365.297 220.55 365.3 L 227.79 365.3 C 227.79 369.08 225.41 372.86 220.55 372.8 C 202.988 372.687 186.081 366.052 173.13 354.19 C 149.84 332.77 144.31 297.05 159.47 269.4 C 159.97 268.48 160.47 267.58 161.04 266.69 C 161.57 267.65 162.12 268.61 162.69 269.55 Z" fill="#ababab" stroke="#ababab"></path>
    <path id="path_25" d="M 165.55 273.95 Q 167.98 277.51 170.69 280.79 C 165.498 292.279 164.438 305.219 167.69 317.4 C 174.17 341.2 196.03 357.53 220.53 357.8 C 225.33 357.86 227.74 361.58 227.77 365.3 L 220.53 365.3 C 206.165 365.297 192.235 360.321 181.119 351.222 C 170.003 342.122 162.373 329.45 159.532 315.368 C 156.691 301.287 158.811 286.647 165.53 273.95 Z" fill="#ababab" stroke="#ababab"></path>
    <path id="path_26" d="M 193.3 255.59 C 187.95 258.682 183.167 262.666 179.16 267.37 C 177.614 265.263 176.179 263.076 174.86 260.82 C 182.107 252.983 191.25 247.139 201.406 243.852 C 211.562 240.565 222.395 239.945 232.86 242.05 L 232.86 242.05 C 235.19 242.514 237.491 243.115 239.75 243.85 Q 241.61 241.06 243.75 238.45 C 253.493 226.338 266.821 217.612 281.819 213.525 C 296.816 209.438 312.729 210.196 327.27 215.69 C 327.34 216.98 327.39 218.27 327.4 219.57 C 327.41 220.87 327.32 222.42 327.24 223.84 C 322.801 221.915 318.168 220.473 313.42 219.54 C 287.69 214.54 260.91 226.1 246.27 247.64 C 244.42 250.35 241.14 252.11 237.8 251.08 C 222.85 246.5 206.89 247.76 193.3 255.59 Z" fill="#ababab" stroke="#ababab"></path>
    <path id="path_27" d="M 253.07 61.07 L 253.07 94.73 C 253.07 104.4 238.07 104.38 238.07 94.73 L 238.07 61.07 C 238.07 51.41 253.07 51.42 253.07 61.07 Z" fill="#f8b62d"></path>
    <path id="path_28" d="M 133.66 275.54 C 142.04 270.69 149.59 283.66 141.23 288.54 L 112.08 305.36 C 103.7 310.2 96.16 297.24 104.51 292.41 Z" fill="#f8b62d"></path>
    <path id="path_29" d="M 171.25 253.81 Q 172.89 257.39 174.86 260.81 C 171.202 264.766 168.073 269.179 165.55 273.94 C 164.55 272.5 163.6 271.04 162.69 269.54 C 162.12 268.6 161.57 267.64 161.04 266.68 C 163.914 261.996 167.342 257.674 171.25 253.81 Z" fill="#ababab" stroke="#ababab"></path>
    <path id="path_30" d="M 241.73 236.63 L 243.73 238.46 Q 241.63 241.07 239.73 243.86 C 237.471 243.125 235.17 242.524 232.84 242.06 L 232.84 242.06 L 233.26 240.06 Z" fill="#ababab" stroke="#ababab"></path>
    <path id="path_31" d="M 307.54 365.3 L 272.06 401.07 L 287.92 368.88 C 288.466 367.765 288.756 366.542 288.77 365.3 Z" fill="#faee00" stroke="#faee00"></path>
    <path id="path_32" d="M 328.67 365.3 L 251.13 443.48 C 250.457 444.643 249.423 445.555 248.185 446.076 C 246.947 446.598 245.572 446.701 244.27 446.37 C 239.48 445.57 235.59 439.74 238.69 434.97 L 269.41 372.6 L 250.8 372.6 C 248.859 372.571 247.001 371.796 245.613 370.439 C 244.226 369.081 243.411 367.24 243.34 365.3 L 288.77 365.3 C 288.756 366.542 288.466 367.765 287.92 368.88 L 272.06 401.07 L 307.54 365.3 Z" fill="#faee00" stroke="#faee00"></path>
    <path id="path_33" d="M 322.08 350.64 Q 314.82 357.97 307.54 365.3 L 288.77 365.3 C 288.843 363.971 288.551 362.647 287.926 361.471 C 287.301 360.296 286.366 359.314 285.222 358.632 C 284.079 357.949 282.771 357.593 281.44 357.6 L 263.89 357.6 L 285.13 321.35 L 313.63 321.35 L 301.56 339.35 C 298.34 344.17 302.62 350.64 308.04 350.64 Z" fill="#faee00" stroke="#faee00"></path>
    <path id="path_34" d="M 340.08 335.64 C 346.6 335.64 349.96 343.84 345.39 348.44 L 333.45 360.44 L 328.67 365.26 L 307.54 365.26 Q 314.82 357.92 322.08 350.6 L 308 350.6 C 302.58 350.6 298.3 344.13 301.52 339.31 L 313.59 321.31 L 285.09 321.31 L 263.89 357.6 L 281.44 357.6 C 282.771 357.593 284.079 357.949 285.222 358.632 C 286.366 359.314 287.301 360.296 287.926 361.471 C 288.551 362.647 288.843 363.971 288.77 365.3 L 243.34 365.3 C 243.276 363.898 243.624 362.507 244.34 361.3 L 255.15 342.85 L 270 317.45 C 271 315.77 271.86 314.04 272.84 312.45 C 274.84 309.16 277.28 306.5 281.91 306.34 C 284.18 306.26 286.46 306.21 288.73 306.18 C 301.73 305.96 314.73 306.34 327.63 306.34 C 333.05 306.34 337.34 312.81 334.11 317.63 L 322.05 335.63 Z" fill="#faee00" stroke="#faee00"></path>
</g></svg>