<svg xmlns="http://www.w3.org/2000/svg" viewBox="0 0 500 500" id="vector"><g transform="translate(-60 -60) scale(1.25 1.25)">
    <path id="path" d="M 250 250 M 165.2 250 C 165.2 232.095 170.871 214.641 181.395 200.156 C 191.92 185.67 206.766 174.883 223.795 169.35 C 240.824 163.817 259.176 163.817 276.205 169.35 C 293.234 174.883 308.08 185.67 318.605 200.156 C 329.129 214.641 334.8 232.095 334.8 250 C 334.8 272.482 325.86 294.066 309.963 309.963 C 294.066 325.86 272.482 334.8 250 334.8 C 227.518 334.8 205.934 325.86 190.037 309.963 C 174.14 294.066 165.2 272.482 165.2 250" fill="#f8b62d"></path>
    <path id="path_1" d="M 327.3 250 C 327.04 281.93 307.03 311.69 276.69 322.59 C 261.567 328.005 245.137 328.636 229.643 324.396 C 214.15 320.157 200.33 311.25 190.07 298.89 C 169.55 274.06 167.19 237.75 183.69 210.23 C 200.19 182.71 233.45 167.68 265.09 174.15 C 282.556 177.792 298.26 187.306 309.574 201.102 C 320.889 214.897 327.146 232.159 327.3 250 C 327.38 259.65 342.38 259.67 342.3 250 C 342.135 231.051 336.211 212.594 325.318 197.088 C 314.425 181.583 299.07 169.751 281.3 163.17 C 245.22 149.88 202.78 161.65 178.63 191.51 C 154.48 221.37 150.84 264.16 170.73 297.34 C 190.73 330.73 230.3 347.96 268.41 340.45 C 311.16 332 342 293.16 342.3 250 C 342.38 240.35 327.38 240.34 327.3 250 Z" fill="#f8b62d"></path>
    <path id="path_2" d="M 257.5 131.39 L 257.5 99.39 C 257.5 89.74 242.5 89.72 242.5 99.39 L 242.5 131.39 C 242.5 141.04 257.5 141.06 257.5 131.39 Z" fill="#f8b62d"></path>
    <path id="path_3" d="M 190.69 147.28 L 174.71 119.59" fill="#f8b62d"></path>
    <path id="path_4" d="M 197.17 143.49 L 181.17 115.8 C 176.34 107.44 163.38 114.99 168.17 123.37 L 184.17 151.06 C 189 159.42 201.96 151.87 197.17 143.49 Z" fill="#f8b62d"></path>
    <path id="path_5" d="M 147.28 190.69 L 119.59 174.71" fill="#f8b62d"></path>
    <path id="path_6" d="M 151.06 184.22 L 123.37 168.22 C 114.99 163.38 107.43 176.34 115.8 181.22 L 143.49 197.22 C 151.87 202.06 159.43 189.1 151.06 184.22 Z" fill="#f8b62d"></path>
    <path id="path_7" d="M 131.39 250 L 99.42 250" fill="#f8b62d"></path>
    <path id="path_8" d="M 131.39 242.5 L 99.39 242.5 C 89.74 242.5 89.72 257.5 99.39 257.5 L 131.39 257.5 C 141.04 257.5 141.06 242.5 131.39 242.5 Z" fill="#f8b62d"></path>
    <path id="path_9" d="M 147.28 309.31 L 119.59 325.29" fill="#f8b62d"></path>
    <path id="path_10" d="M 143.49 302.83 L 115.8 318.83 C 107.44 323.66 114.99 336.62 123.37 331.83 L 151.06 315.83 C 159.42 311 151.87 298.04 143.49 302.83 Z" fill="#f8b62d"></path>
    <path id="path_11" d="M 190.69 352.72 L 174.71 380.41" fill="#f8b62d"></path>
    <path id="path_12" d="M 184.22 348.94 L 168.22 376.63 C 163.38 385.01 176.34 392.57 181.22 384.2 L 197.22 356.51 C 202.06 348.13 189.1 340.57 184.22 348.94 Z" fill="#f8b62d"></path>
    <path id="path_13" d="M 250 368.61 L 250 400.58" fill="#f8b62d"></path>
    <path id="path_14" d="M 242.5 368.61 L 242.5 400.61 C 242.5 410.26 257.5 410.28 257.5 400.61 L 257.5 368.61 C 257.5 358.96 242.5 358.94 242.5 368.61 Z" fill="#f8b62d"></path>
    <path id="path_15" d="M 309.31 352.72 L 325.29 380.41" fill="#f8b62d"></path>
    <path id="path_16" d="M 302.83 356.51 L 318.83 384.2 C 323.66 392.56 336.62 385.01 331.83 376.63 L 315.83 348.94 C 311 340.58 298.04 348.13 302.83 356.51 Z" fill="#f8b62d"></path>
    <path id="path_17" d="M 352.72 309.31 L 380.41 325.29" fill="#f8b62d"></path>
    <path id="path_18" d="M 348.94 315.78 L 376.63 331.78 C 385.01 336.62 392.57 323.66 384.2 318.78 L 356.51 302.78 C 348.13 297.94 340.57 310.9 348.94 315.78 Z" fill="#f8b62d"></path>
    <path id="path_19" d="M 368.61 250 L 400.58 250" fill="#f8b62d"></path>
    <path id="path_20" d="M 368.61 257.5 L 400.61 257.5 C 410.26 257.5 410.28 242.5 400.61 242.5 L 368.61 242.5 C 358.96 242.5 358.94 257.5 368.61 257.5 Z" fill="#f8b62d"></path>
    <path id="path_21" d="M 352.72 190.69 L 380.41 174.71" fill="#f8b62d"></path>
    <path id="path_22" d="M 356.51 197.17 L 384.2 181.17 C 392.56 176.34 385.01 163.38 376.63 168.17 L 348.94 184.17 C 340.58 189 348.13 201.96 356.51 197.17 Z" fill="#f8b62d"></path>
    <path id="path_23" d="M 309.31 147.28 L 325.29 119.59" fill="#f8b62d"></path>
    <path id="path_24" d="M 315.78 151.06 L 331.78 123.37 C 336.62 114.99 323.66 107.43 318.78 115.8 L 302.78 143.49 C 297.94 151.87 310.9 159.43 315.78 151.06 Z" fill="#f8b62d"></path>
</g></svg>