<svg xmlns="http://www.w3.org/2000/svg" viewBox="0 0 500 500" id="vector"><g transform="translate(-60 -60) scale(1.25 1.25)">
    <path id="path" d="M 189.85 250.46 C 195.382 242.395 202.603 235.628 211.01 230.631 C 219.417 225.634 228.812 222.525 238.54 221.52 C 244.701 220.902 250.92 221.185 257 222.36 C 257.1 222.36 257.19 222.41 257.29 222.42 C 267.416 224.454 276.937 228.798 285.11 235.113 C 293.282 241.428 299.888 249.545 304.41 258.83 C 305.803 261.68 306.986 264.628 307.95 267.65 C 308.298 268.901 308.964 270.04 309.882 270.958 C 310.8 271.876 311.939 272.542 313.19 272.89 C 320.073 274.376 326.528 277.413 332.06 281.77 C 337.007 285.625 341.081 290.486 344.011 296.031 C 346.941 301.577 348.662 307.681 349.06 313.94 C 349.222 316.609 349.138 319.287 348.81 321.94 C 348.32 325.858 347.293 329.691 345.76 333.33 C 342.308 341.347 336.607 348.194 329.347 353.04 C 322.088 357.886 313.578 360.527 304.85 360.64 C 300.07 360.7 297.66 364.42 297.61 368.14 L 286.87 368.14 C 286.87 364.39 284.46 360.64 279.62 360.64 L 190.36 360.64 C 185.53 360.64 183.11 364.39 183.11 368.14 L 171.43 368.14 C 171.43 364.42 168.99 360.69 164.19 360.64 C 139.69 360.37 117.83 344.04 111.36 320.24 C 108.273 308.55 109.11 296.164 113.742 284.996 C 118.373 273.828 126.547 264.485 137 258.41 C 143.292 254.787 150.258 252.486 157.47 251.65 C 162.829 251.022 168.25 251.16 173.57 252.06 C 176.228 252.5 178.854 253.118 181.43 253.91 C 184.72 254.94 188 253.17 189.85 250.46 Z M 286.49 347.33 C 294.49 347.33 295.88 336.93 290.49 333.45 C 289.295 332.695 287.904 332.305 286.49 332.33 L 175.1 332.33 C 165.45 332.33 165.43 347.33 175.1 347.33 L 286.49 347.33 Z" fill="#ababab" stroke="#ababab"></path>
    <path id="path_1" d="M 404.51 269.68 C 395.57 290.184 381.559 308.08 363.8 321.68 C 364.378 315.508 363.949 309.284 362.53 303.25 C 370.276 296.068 377.047 287.902 382.67 278.96 C 388.58 277.435 394.372 275.483 400 273.12 L 391.53 262.12 L 390.97 260.64 C 392.66 260.03 394.35 259.37 396.02 258.64 C 402.85 255.81 406.71 264.59 404.51 269.68 Z" fill="#f4ec90" stroke="#f4ec90"></path>
    <path id="path_2" d="M 391.55 262.11 L 400.02 273.11 C 394.385 275.464 388.586 277.406 382.67 278.92 C 386.062 273.556 389.031 267.936 391.55 262.11 Z" fill="#f4ec90" stroke="#f4ec90"></path>
    <path id="path_3" d="M 391 260.63 L 391.56 262.11 C 389.042 267.939 386.073 273.563 382.68 278.93 C 373.147 281.393 363.363 282.759 353.52 283 C 349.283 276.846 343.943 271.53 337.77 267.32 C 355.79 269.16 373.995 266.872 391 260.63 Z" fill="#f4ec90" stroke="#f4ec90"></path>
    <path id="path_4" d="M 382.67 278.93 C 377.047 287.872 370.276 296.038 362.53 303.22 C 360.818 295.974 357.766 289.113 353.53 282.99 C 363.366 282.751 373.143 281.388 382.67 278.93 Z" fill="#f4ec90" stroke="#f4ec90"></path>
    <path id="path_5" d="M 363.64 323.28 C 361.813 337.63 354.848 350.844 344.043 360.463 C 333.237 370.081 319.305 375.468 304.84 375.62 C 299.97 375.69 297.56 371.9 297.6 368.12 L 304.84 368.12 C 316.606 368.118 328.026 364.105 337.206 356.746 C 346.386 349.387 352.788 339.113 355.35 327.63 Q 359.68 324.81 363.8 321.63 C 363.74 322.19 363.7 322.74 363.64 323.28 Z" fill="#ababab" stroke="#ababab"></path>
    <path id="path_6" d="M 356 308.8 Q 359.36 306.13 362.5 303.22 C 363.919 309.254 364.348 315.478 363.77 321.65 Q 359.66 324.8 355.32 327.65 C 356.141 323.953 356.557 320.177 356.56 316.39 C 356.562 313.85 356.375 311.313 356 308.8 Z" fill="#ababab" stroke="#ababab"></path>
    <path id="path_7" d="M 356 308.8 C 356.374 311.306 356.561 313.836 356.56 316.37 C 356.557 320.157 356.141 323.933 355.32 327.63 Q 350.64 330.63 345.72 333.31 C 347.253 329.671 348.28 325.838 348.77 321.92 C 349.098 319.267 349.182 316.589 349.02 313.92 Q 352.64 311.51 356 308.8 Z" fill="#ababab" stroke="#ababab"></path>
    <path id="path_8" d="M 355.35 327.63 C 352.788 339.113 346.386 349.387 337.206 356.746 C 328.026 364.105 316.606 368.118 304.84 368.12 L 297.6 368.12 C 297.65 364.4 300.06 360.68 304.84 360.62 C 313.568 360.507 322.078 357.866 329.337 353.02 C 336.597 348.174 342.298 341.327 345.75 333.31 Q 350.67 330.67 355.35 327.63 Z" fill="#ababab" stroke="#ababab"></path>
    <path id="path_9" d="M 344.3 282.9 C 350.556 290.262 354.611 299.24 356 308.8 Q 352.61 311.5 349 313.94 C 348.602 307.681 346.881 301.577 343.951 296.031 C 341.021 290.486 336.947 285.625 332 281.77 Q 338.15 282.61 344.3 282.9 Z" fill="#ababab" stroke="#ababab"></path>
    <path id="path_10" d="M 314.07 262.37 C 321.779 264.827 329.721 266.483 337.77 267.31 C 343.944 271.523 349.284 276.843 353.52 283 C 350.45 283.08 347.37 283.05 344.3 282.91 C 336.804 274.061 326.544 267.987 315.18 265.67 C 314.84 264.55 314.47 263.46 314.07 262.37 Z" fill="#ababab" stroke="#ababab"></path>
    <path id="path_11" d="M 344.3 282.9 C 347.37 283.04 350.45 283.07 353.52 282.99 C 357.756 289.113 360.808 295.974 362.52 303.22 Q 359.37 306.13 356.02 308.8 C 354.626 299.238 350.563 290.259 344.3 282.9 Z" fill="#ababab" stroke="#ababab"></path>
    <path id="path_12" d="M 336.5 186.91 C 333.779 181.651 330.154 176.912 325.79 172.91 C 322.427 169.853 318.687 167.238 314.66 165.13 C 316.486 164.197 318.247 163.141 319.93 161.97 C 325.754 157.92 330.719 152.757 334.54 146.78 C 335.27 145.62 335.93 144.42 336.54 143.2 C 341.499 152.503 349.146 160.1 358.48 165 C 349.503 169.733 342.076 176.952 337.09 185.79 Z" fill="#ffffff" stroke="#ffffff"></path>
    <path id="path_13" d="M 344.3 282.9 Q 338.15 282.61 332.06 281.77 C 326.528 277.413 320.073 274.376 313.19 272.89 C 311.939 272.542 310.8 271.876 309.882 270.958 C 308.964 270.04 308.298 268.901 307.95 267.65 C 306.986 264.628 305.803 261.68 304.41 258.83 C 307.58 260.15 310.81 261.33 314.07 262.37 C 314.47 263.46 314.84 264.55 315.18 265.66 C 326.544 267.977 336.804 274.051 344.3 282.9 Z" fill="#ababab" stroke="#ababab"></path>
    <path id="path_14" d="M 322.42 263.66 L 317.18 258.43 C 318.44 258.7 319.68 259.03 320.9 259.38 C 321.44 260.79 322 262.22 322.42 263.66 Z" fill="#ababab" stroke="#ababab"></path>
    <path id="path_15" d="M 317.18 258.43 L 322.42 263.66 C 321.95 262.22 321.42 260.79 320.9 259.38 C 326.911 261.105 332.606 263.783 337.77 267.31 C 329.721 266.483 321.779 264.827 314.07 262.37 C 309.299 249.218 300.885 237.691 289.812 229.14 C 278.74 220.589 265.46 215.361 251.53 214.07 Q 249.17 210.32 247.12 206.41 C 251.308 206.509 255.483 206.921 259.61 207.64 C 287.74 212.59 310.86 233.04 320.9 259.38 C 319.68 259 318.44 258.7 317.18 258.43 Z" fill="#ababab" stroke="#ababab"></path>
    <path id="path_16" d="M 308.31 388.91 C 317.98 388.91 317.96 403.91 308.31 403.91 L 208.1 403.91 C 198.43 403.91 198.45 388.91 208.1 388.91 L 308.31 388.91 Z" fill="#ffffff" stroke="#ffffff"></path>
    <path id="path_17" d="M 251.53 214.07 C 265.46 215.361 278.74 220.589 289.812 229.14 C 300.885 237.691 309.299 249.218 314.07 262.37 C 310.81 261.37 307.58 260.15 304.41 258.83 C 299.888 249.545 293.282 241.428 285.11 235.113 C 276.937 228.798 267.416 224.454 257.29 222.42 C 255.24 219.71 253.31 216.93 251.53 214.07 Z" fill="#ababab" stroke="#ababab"></path>
    <path id="path_18" d="M 236.8 339.83 Q 231.55 337.83 226.48 335.38 Q 223.48 333.94 220.59 332.38 L 266.71 332.38 C 274.589 333.552 282.566 333.927 290.52 333.5 C 295.88 336.98 294.52 347.38 286.52 347.38 L 265.81 347.38 C 255.887 345.962 246.155 343.43 236.8 339.83 Z" fill="#ffffff" stroke="#ffffff"></path>
    <path id="path_19" d="M 286.87 368.12 L 183.11 368.12 C 183.11 364.37 185.53 360.62 190.36 360.62 L 279.62 360.62 C 284.46 360.62 286.87 364.37 286.87 368.12 Z" fill="#ffffff" stroke="#ffffff"></path>
    <path id="path_20" d="M 183.11 368.12 L 286.87 368.12 C 286.87 371.87 284.45 375.62 279.62 375.62 L 190.36 375.62 C 185.52 375.62 183.11 371.87 183.11 368.12 Z" fill="#ffffff" stroke="#ffffff"></path>
    <path id="path_21" d="M 290.52 333.45 C 282.566 333.877 274.589 333.502 266.71 332.33 L 286.49 332.33 C 287.914 332.299 289.316 332.689 290.52 333.45 Z" fill="#ffffff" stroke="#ffffff"></path>
    <path id="path_22" d="M 251.53 214.07 C 253.31 216.93 255.24 219.71 257.29 222.42 C 257.19 222.42 257.1 222.42 257 222.36 C 250.92 221.185 244.701 220.902 238.54 221.52 C 237.11 219.21 235.77 216.86 234.49 214.52 C 237.893 214.042 241.324 213.802 244.76 213.8 C 247 213.76 249.3 213.87 251.53 214.07 Z" fill="#ababab" stroke="#ababab"></path>
    <path id="path_23" d="M 231.07 207.63 C 236.351 206.704 241.71 206.295 247.07 206.41 Q 249.13 210.31 251.48 214.07 C 249.25 213.87 246.99 213.76 244.71 213.76 C 241.274 213.762 237.843 214.002 234.44 214.48 C 233.28 212.23 232.14 209.94 231.07 207.63 Z" fill="#ababab" stroke="#ababab"></path>
    <path id="path_24" d="M 247.12 206.41 C 241.76 206.295 236.401 206.704 231.12 207.63 C 218.169 179.951 215.189 148.624 222.69 119 C 228.059 115.598 233.686 112.622 239.52 110.1 L 240.99 110.65 C 235.274 126.155 232.866 142.687 233.922 159.179 C 234.978 175.67 239.474 191.76 247.12 206.41 Z" fill="#f4ec90" stroke="#f4ec90"></path>
    <path id="path_25" d="M 231.94 97.12 C 237.08 94.9 245.82 98.74 242.94 105.59 C 242.24 107.26 241.59 108.93 240.94 110.59 L 239.47 110.04 L 228.47 101.57 L 227.33 99.19 C 228.87 98.48 230.4 97.79 231.94 97.12 Z" fill="#f4ec90" stroke="#f4ec90"></path>
    <path id="path_26" d="M 239.52 110.07 C 233.686 112.592 228.059 115.568 222.69 118.97 C 224.206 113.048 226.148 107.243 228.5 101.6 Z" fill="#f4ec90" stroke="#f4ec90"></path>
    <path id="path_27" d="M 236.8 339.83 C 246.154 343.412 255.882 345.928 265.8 347.33 L 175.1 347.33 C 165.43 347.33 165.45 332.33 175.1 332.33 L 220.59 332.33 Q 223.5 333.94 226.48 335.33 Q 231.55 337.82 236.8 339.83 Z" fill="#ffffff" stroke="#ffffff"></path>
    <path id="path_28" d="M 234.49 214.48 C 235.77 216.86 237.11 219.21 238.54 221.48 C 228.812 222.485 219.417 225.594 211.01 230.591 C 202.603 235.588 195.382 242.355 189.85 250.42 C 188.01 253.13 184.72 254.9 181.38 253.87 C 178.804 253.078 176.178 252.46 173.52 252.02 C 172.69 249.38 171.95 246.72 171.31 244.02 C 175.41 244.494 179.453 245.372 183.38 246.64 C 189.143 237.973 196.679 230.625 205.488 225.082 C 214.297 219.539 224.183 215.925 234.49 214.48 Z" fill="#ababab" stroke="#ababab"></path>
    <path id="path_29" d="M 227.36 99.22 L 228.5 101.6 C 226.146 107.252 224.204 113.067 222.69 119 C 197.885 134.519 179.788 158.796 172 187 C 167.652 203.156 166.894 220.07 169.78 236.55 C 164.652 236.175 159.498 236.363 154.41 237.11 C 150.216 209.347 155.045 180.957 168.184 156.142 C 181.323 131.327 202.09 111.376 227.41 99.24 Z" fill="#f4ec90" stroke="#f4ec90"></path>
    <path id="path_30" d="M 172 187 C 179.795 158.792 197.904 134.513 222.72 119 C 215.196 148.628 218.158 179.966 231.1 207.66 C 211.031 211.227 192.973 222.091 180.42 238.15 C 176.92 237.345 173.363 236.813 169.78 236.56 C 166.892 220.077 167.65 203.159 172 187 Z" fill="#f4ec90" stroke="#f4ec90"></path>
    <path id="path_31" d="M 185.37 239.45 L 176.9 242.89 C 178.01 241.25 179.18 239.67 180.39 238.12 C 182.06 238.51 183.72 238.94 185.37 239.45 Z" fill="#ababab" stroke="#ababab"></path>
    <path id="path_32" d="M 183.38 246.68 C 179.453 245.412 175.41 244.534 171.31 244.06 Q 170.41 240.33 169.75 236.53 C 173.333 236.783 176.89 237.315 180.39 238.12 C 179.18 239.67 178.01 241.25 176.9 242.89 L 185.37 239.45 C 183.72 238.94 182.06 238.51 180.37 238.12 C 192.923 222.061 210.981 211.197 231.05 207.63 C 232.12 209.94 233.26 212.23 234.47 214.48 C 224.163 215.932 214.279 219.553 205.473 225.104 C 196.667 230.654 189.137 238.008 183.38 246.68 Z" fill="#ababab" stroke="#ababab"></path>
    <path id="path_33" d="M 164.19 243.65 C 166.569 243.655 168.946 243.792 171.31 244.06 C 171.95 246.76 172.69 249.42 173.52 252.06 C 168.2 251.16 162.779 251.022 157.42 251.65 C 156.76 249.2 156.17 246.74 155.65 244.25 C 158.48 243.858 161.333 243.658 164.19 243.65 Z" fill="#ababab" stroke="#ababab"></path>
    <path id="path_34" d="M 169.75 236.53 Q 170.41 240.32 171.31 244.06 C 168.946 243.792 166.569 243.655 164.19 243.65 C 161.333 243.658 158.48 243.858 155.65 244.25 Q 154.92 240.69 154.38 237.09 C 159.468 236.343 164.622 236.155 169.75 236.53 Z" fill="#ababab" stroke="#ababab"></path>
    <path id="path_35" d="M 102 305.89 C 102 290.869 107.439 276.345 117.305 265.018 C 127.171 253.692 140.811 246.311 155.69 244.25 C 156.21 246.74 156.8 249.2 157.46 251.65 C 150.251 252.487 143.289 254.788 137 258.41 C 126.56 264.491 118.399 273.835 113.777 284.998 C 109.156 296.161 108.324 308.539 111.41 320.22 C 117.88 344.02 139.74 360.35 164.24 360.62 C 169.04 360.67 171.45 364.4 171.48 368.12 L 164.24 368.12 C 153.316 368.122 142.582 365.247 133.121 359.786 C 123.66 354.325 115.801 346.468 110.339 337.008 C 104.876 327.548 102 316.814 102 305.89 Z" fill="#ababab" stroke="#ababab"></path>
    <path id="path_36" d="M 154.38 237.09 Q 154.92 240.69 155.65 244.25 C 140.042 246.415 125.825 254.428 115.892 266.66 C 105.959 278.891 101.032 294.451 102.116 310.17 C 103.2 325.89 110.215 340.626 121.733 351.378 C 133.25 362.131 148.433 368.118 164.19 368.12 L 171.43 368.12 C 171.43 371.9 169.06 375.67 164.19 375.62 C 146.631 375.5 129.728 368.862 116.78 357 C 93.49 335.59 88 299.87 103.11 272.22 C 108.359 262.8 115.721 254.725 124.617 248.63 C 133.512 242.535 143.701 238.584 154.38 237.09 Z" fill="#ababab" stroke="#ababab"></path>
</g></svg>