<svg xmlns="http://www.w3.org/2000/svg" viewBox="0 0 500 500" id="vector"><g transform="translate(-60 -60) scale(1.25 1.25)">
    <path id="path" d="M 215.44 304.35 L 239.26 304.35 L 244.69 299.15 C 246.115 297.779 248.017 297.012 249.995 297.012 C 251.973 297.012 253.875 297.779 255.3 299.15 L 260.73 304.35 L 284.55 304.35 C 284.55 300.6 286.97 296.85 291.79 296.85 L 335.87 296.85 C 342.555 290.271 348.455 282.939 353.45 275 C 331.31 280.597 308.097 280.397 286.057 274.417 C 264.017 268.438 243.885 256.879 227.61 240.86 C 211.594 224.587 200.037 204.458 194.058 182.422 C 188.079 160.386 187.876 137.177 193.47 115.04 C 168.655 130.554 150.546 154.832 142.75 183.04 C 131.62 224.1 144.75 267.94 173.92 296.81 L 208.2 296.81 C 213 296.85 215.44 300.6 215.44 304.35 Z" fill="#f4ec90" stroke="#f4ec90"></path>
    <path id="path_1" d="M 307.34 139.27 C 306.72 140.49 306.06 141.69 305.34 142.85 C 301.511 148.816 296.538 153.965 290.71 158 C 289.028 159.174 287.267 160.229 285.44 161.16 C 289.466 163.287 293.204 165.922 296.56 169 C 300.925 173.001 304.551 177.74 307.27 183 L 307.86 181.93 C 311.222 175.878 315.777 170.57 321.25 166.33 C 323.752 164.358 326.43 162.621 329.25 161.14 C 319.916 156.219 312.279 148.595 307.34 139.27 Z" fill="#ffffff" stroke="#ffffff"></path>
    <path id="path_2" d="M 199.28 97.69 C 196.931 103.334 194.989 109.139 193.47 115.06 C 198.84 111.661 204.467 108.685 210.3 106.16 Z" fill="#f4ec90" stroke="#f4ec90"></path>
    <path id="path_3" d="M 227.61 240.89 C 234.4 247.77 245.01 237.16 238.22 230.28 C 231.43 223.4 220.72 234.09 227.61 240.89 Z" fill="#f4ec90" stroke="#f4ec90"></path>
    <path id="path_4" d="M 142.75 183.08 C 150.546 154.872 168.655 130.594 193.47 115.08 C 194.989 109.159 196.931 103.354 199.28 97.71 L 210.28 106.18 C 204.447 108.705 198.82 111.681 193.45 115.08 C 187.856 137.217 188.059 160.426 194.038 182.462 C 200.017 204.498 211.574 224.627 227.59 240.9 C 220.71 234.1 231.32 223.5 238.2 230.29 C 204.61 196.29 195.37 145.65 213.73 101.69 C 216.59 94.85 207.84 91 202.73 93.22 C 171.708 106.656 147.051 131.579 133.948 162.744 C 120.846 193.909 120.288 228.964 132.39 260.53 C 137.511 273.681 144.676 285.942 153.62 296.86 L 173.93 296.86 C 144.75 268 131.61 224.14 142.75 183.08 Z" fill="#f4ec90" stroke="#f4ec90"></path>
    <path id="path_5" d="M 362.33 258.2 C 359.806 264.02 356.837 269.636 353.45 275 C 359.365 273.48 365.163 271.538 370.8 269.19 Z" fill="#f4ec90" stroke="#f4ec90"></path>
    <path id="path_6" d="M 227.61 240.89 C 243.888 256.904 264.022 268.457 286.061 274.431 C 308.101 280.405 331.313 280.601 353.45 275 C 356.838 269.63 359.807 264.007 362.33 258.18 L 370.8 269.18 C 365.163 271.532 359.365 273.477 353.45 275 C 348.459 282.927 342.567 290.249 335.89 296.82 L 356.23 296.82 C 364.012 287.407 370.428 276.944 375.29 265.74 C 377.49 260.65 373.64 251.88 366.82 254.74 C 322.82 273.1 272.23 263.86 238.22 230.27 C 245 237.16 234.4 247.77 227.61 240.89 Z" fill="#f4ec90" stroke="#f4ec90"></path>
    <path id="path_7" d="M 372.7 304.35 L 372.7 304.35 L 372.7 311.85 L 407.32 311.85 C 416.97 311.85 416.99 296.85 407.32 296.85 L 356.23 296.85 Q 353.03 300.73 349.54 304.35 Z" fill="#ffffff" stroke="#ffffff"></path>
    <path id="path_8" d="M 291.8 296.85 C 286.97 296.85 284.56 300.6 284.56 304.35 L 327.48 304.35 Q 331.86 300.8 335.89 296.85 L 291.8 296.85 Z" fill="#ffffff" stroke="#ffffff"></path>
    <path id="path_9" d="M 327.48 304.35 L 349.54 304.35 Q 353.02 300.73 356.23 296.85 L 335.89 296.85 Q 331.87 300.8 327.48 304.35 Z" fill="#ffffff" stroke="#ffffff"></path>
    <path id="path_10" d="M 349.54 304.35 Q 345.78 308.26 341.72 311.85 L 372.72 311.85 L 372.72 304.35 Z" fill="#ffffff" stroke="#ffffff"></path>
    <path id="path_11" d="M 284.56 304.35 C 284.56 308.1 286.97 311.85 291.8 311.85 L 317.08 311.85 C 320.681 309.546 324.149 307.042 327.47 304.35 L 284.56 304.35 Z" fill="#ffffff" stroke="#ffffff"></path>
    <path id="path_12" d="M 341.72 311.85 Q 345.78 308.26 349.54 304.35 L 327.48 304.35 C 324.159 307.042 320.691 309.546 317.09 311.85 Z" fill="#ffffff" stroke="#ffffff"></path>
    <path id="path_13" d="M 92.68 311.85 L 127.3 311.85 L 127.3 304.35 L 160.23 304.35 Q 156.78 300.73 153.61 296.85 L 92.68 296.85 C 83 296.85 83 311.85 92.68 311.85 Z" fill="#ffffff" stroke="#ffffff"></path>
    <path id="path_14" d="M 215.44 304.35 C 215.44 300.6 213.03 296.85 208.19 296.85 L 173.92 296.85 Q 177.92 300.79 182.28 304.35 L 215.44 304.35 Z" fill="#ffffff" stroke="#ffffff"></path>
    <path id="path_15" d="M 182.28 304.35 Q 177.91 300.8 173.92 296.85 L 153.61 296.85 Q 156.78 300.72 160.23 304.35 Z" fill="#ffffff" stroke="#ffffff"></path>
    <path id="path_16" d="M 160.23 304.35 L 127.3 304.35 L 127.3 311.85 L 168 311.85 Q 164 308.26 160.23 304.35 Z" fill="#ffffff" stroke="#ffffff"></path>
    <path id="path_17" d="M 193.73 311.85 L 208.2 311.85 C 213.03 311.85 215.44 308.1 215.45 304.35 L 182.28 304.35 C 185.601 307.046 189.073 309.55 192.68 311.85 Z" fill="#ffffff" stroke="#ffffff"></path>
    <path id="path_18" d="M 168 311.85 L 192.68 311.85 C 189.073 309.55 185.601 307.046 182.28 304.35 L 160.28 304.35 Q 164 308.26 168 311.85 Z" fill="#ffffff" stroke="#ffffff"></path>
    <path id="path_19" d="M 124.85 344.45 L 127.3 344.45 L 127.3 337 L 124.85 337 C 115.2 337 115.18 352 124.85 352 L 127.3 352 L 127.3 344.5 Z" fill="#ffffff" stroke="#ffffff"></path>
    <path id="path_20" d="M 375.15 344.45 L 372.7 344.45 L 372.7 352 L 375.15 352 C 384.8 352 384.82 337 375.15 337 L 372.7 337 L 372.7 344.5 Z" fill="#ffffff" stroke="#ffffff"></path>
    <path id="path_21" d="M 255.3 299.15 C 253.875 297.779 251.973 297.012 249.995 297.012 C 248.017 297.012 246.115 297.779 244.69 299.15 L 239.26 304.35 L 260.73 304.35 Z" fill="#ffffff" stroke="#ffffff"></path>
    <path id="path_22" d="M 227.07 326.39 L 250 304.45 L 274.67 328.06 Q 279.15 327.3 283.57 326.2 L 260.74 304.35 L 239.26 304.35 L 218.69 324 Q 222.85 325.37 227.07 326.39 Z" fill="#ffffff" stroke="#ffffff"></path>
    <path id="path_23" d="M 291.8 344.45 L 280.55 344.45 Q 283.43 347.07 286.36 349.61 C 291.36 353.97 302.24 351.95 308.36 351.95 L 372.7 351.95 L 372.7 344.45 Z" fill="#ffffff" stroke="#ffffff"></path>
    <path id="path_24" d="M 208.2 352 C 212.53 351.7 215.43 348 218.37 345.14 L 219.04 344.5 L 127.3 344.5 L 127.3 352 L 186.59 352 C 193.73 352 201.07 352.44 208.2 352 Z" fill="#ffffff" stroke="#ffffff"></path>
    <path id="path_25" d="M 208.2 337 L 205.2 337 L 202.9 339.2 Z" fill="#ffffff" stroke="#ffffff"></path>
    <path id="path_26" d="M 208.2 344.45 L 214.56 338.37 Q 210.56 337.09 206.65 335.56 L 205.19 337 L 208.19 337 L 202.89 339.2 L 205.19 337 L 127.3 337 L 127.3 344.5 Z" fill="#ffffff" stroke="#ffffff"></path>
    <path id="path_27" d="M 296.1 338.19 L 297.1 339.19 L 295.35 338.47 C 293.35 339.11 291.35 339.71 289.35 340.25 L 287.75 340.67 L 291.75 344.5 L 372.65 344.5 L 372.65 337 L 299.65 337 Q 297.89 337.6 296.1 338.19 Z" fill="#ffffff" stroke="#ffffff"></path>
    <path id="path_28" d="M 297.11 339.15 L 296.11 338.15 L 295.37 338.39 Z" fill="#ffffff" stroke="#ffffff"></path>
    <path id="path_29" d="M 294.81 337 L 283.57 326.2 Q 279.15 327.3 274.67 328.06 L 287.8 340.63 L 289.4 340.21 C 291.4 339.67 293.4 339.06 295.4 338.43 L 291.8 337 Z" fill="#ffffff" stroke="#ffffff"></path>
    <path id="path_30" d="M 218.69 324 L 206.69 335.53 Q 210.6 337.06 214.6 338.34 L 227.12 326.34 Q 222.85 325.37 218.69 324 Z" fill="#ffffff" stroke="#ffffff"></path>
    <path id="path_31" d="M 291.8 337 L 295.36 338.47 L 296.1 338.23 L 294.81 337 Z" fill="#ffffff" stroke="#ffffff"></path>
    <path id="path_32" d="M 296.1 338.19 Q 297.89 337.6 299.66 336.95 L 294.81 336.95 Z" fill="#ffffff" stroke="#ffffff"></path>
    <path id="path_33" d="M 244.7 309.76 Q 247.35 312.29 249.97 314.86 L 255.3 309.76 Z" fill="#ffffff" stroke="#ffffff"></path>
    <path id="path_34" d="M 214.55 338.37 L 208.19 344.45 L 219 344.45 L 222.87 340.75 Q 218.7 339.7 214.55 338.37 Z" fill="#ffffff" stroke="#ffffff"></path>
    <path id="path_35" d="M 280.55 344.45 L 291.8 344.45 L 287.8 340.62 Q 283.22 341.8 278.58 342.62 Z" fill="#ffffff" stroke="#ffffff"></path>
    <path id="path_36" d="M 227.07 326.39 Q 231.52 327.47 236.07 328.2 L 250 314.86 Q 247.37 312.29 244.73 309.76 L 255.3 309.76 L 249.97 314.86 C 254.87 319.65 259.74 324.5 264.64 329.32 Q 269.64 328.91 274.64 328.06 L 250 304.45 Z" fill="#ffffff" stroke="#ffffff"></path>
    <path id="path_37" d="M 231.53 332.51 L 236.03 328.2 Q 231.53 327.47 227.03 326.39 L 214.51 338.39 Q 218.65 339.72 222.87 340.77 Z" fill="#ffffff" stroke="#ffffff"></path>
    <path id="path_38" d="M 264.65 329.32 C 269.24 333.83 273.88 338.32 278.59 342.64 Q 283.22 341.8 287.81 340.64 L 274.68 328.07 Q 269.68 328.9 264.65 329.32 Z" fill="#ffffff" stroke="#ffffff"></path>
    <path id="path_39" d="M 281.43 377.06 L 153.5 377.06 C 143.85 377.06 143.83 392.06 153.5 392.06 L 346.5 392.06 C 356.15 392.06 356.17 377.06 346.5 377.06 Z M 153.51 384.56 L 153.51 384.56 Z" fill="#ffffff" stroke="#ffffff"></path>
</g></svg>