<svg xmlns="http://www.w3.org/2000/svg" viewBox="0 0 500 500" id="vector"><g transform="translate(-60 -60) scale(1.25 1.25)">
    <path id="path" d="M 394.67 337.33 C 395.16 351.85 386.25 365.57 372.39 370.4 C 366.33 372.51 360.26 372.31 353.98 372.31 L 263.5 372.31 C 258.91 372.31 254.31 372.36 249.71 372.31 C 239.44 372.324 229.517 368.558 221.842 361.733 C 214.168 354.909 209.268 345.493 208.082 335.292 C 206.896 325.092 209.506 314.803 215.41 306.4 C 225.94 291.07 245.41 285.4 262.87 290.76 C 266.22 291.76 269.49 290.02 271.34 287.31 C 282.61 270.83 303.16 261.89 322.91 265.76 C 331.929 267.525 340.315 271.666 347.2 277.753 C 354.085 283.84 359.223 291.655 362.08 300.39 C 362.266 301.739 362.881 302.993 363.833 303.967 C 364.785 304.941 366.025 305.584 367.37 305.8 C 382.38 309.12 394.14 321.59 394.67 337.33 Z" fill="#ffffff"></path>
    <path id="path_1" d="M 387.18 297.95 C 391.639 300.827 395.607 304.402 398.93 308.54 C 397.774 310.974 396.472 313.335 395.03 315.61 C 392.101 311.335 388.389 307.654 384.09 304.76 C 385.28 302.566 386.312 300.29 387.18 297.95 Z" fill="#ffffff" stroke="#ffffff"></path>
    <path id="path_2" d="M 348 227.82 C 370.46 232.65 388.56 251.28 390.46 274.63 C 391.108 282.547 390.002 290.51 387.22 297.95 C 383.464 295.52 379.389 293.625 375.11 292.32 C 366.76 271.32 348.2 254.91 325.55 251.04 C 313.774 248.995 301.662 250.142 290.48 254.363 C 279.298 258.583 269.448 265.724 261.96 275.04 C 253.068 273.137 243.85 273.365 235.063 275.706 C 226.276 278.047 218.167 282.435 211.4 288.51 C 205.36 294.053 200.589 300.836 197.413 308.394 C 194.237 315.951 192.732 324.107 193 332.3 C 186.77 332.3 180.55 332.36 174.33 332.3 C 157.276 332.25 140.911 325.481 128.804 313.47 C 116.697 301.459 109.799 285.148 109.614 268.095 C 109.429 251.042 115.971 234.585 127.814 222.314 C 139.657 210.043 155.871 202.92 172.92 202.5 C 180.291 202.399 187.629 203.493 194.65 205.74 C 197.98 206.74 201.28 205 203.12 202.29 C 220.41 176.79 252.04 163.11 282.47 169.01 C 296.36 171.711 309.276 178.086 319.868 187.47 C 330.459 196.853 338.345 208.907 342.7 222.37 C 342.873 223.73 343.483 224.998 344.439 225.981 C 345.395 226.964 346.645 227.61 348 227.82 Z" fill="#ababab"></path>
    <path id="path_3" d="M 387.18 297.95 C 386.312 300.29 385.28 302.566 384.09 304.76 C 381.779 303.2 379.316 301.877 376.74 300.81 C 377.131 299.42 377.082 297.942 376.6 296.58 Q 375.91 294.42 375.07 292.32 C 379.349 293.625 383.424 295.52 387.18 297.95 Z" fill="#ffffff" stroke="#ffffff"></path>
    <path id="path_4" d="M 376.6 296.58 C 377.082 297.942 377.131 299.42 376.74 300.81 C 374.362 299.827 371.893 299.077 369.37 298.57 C 368.643 296.227 367.768 293.932 366.75 291.7 C 368.21 291.098 369.824 290.972 371.36 291.34 C 372.62 291.62 373.85 291.94 375.07 292.34 Q 375.91 294.42 376.6 296.58 Z" fill="#ffffff" stroke="#ffffff"></path>
    <path id="path_5" d="M 369.37 298.57 C 371.893 299.077 374.362 299.827 376.74 300.81 C 374.95 306.76 364.59 308.15 362.14 300.57 L 362.08 300.39 C 361.828 298.633 362.146 296.841 362.986 295.277 C 363.826 293.713 365.146 292.46 366.75 291.7 C 367.768 293.932 368.643 296.227 369.37 298.57 Z" fill="#ffffff" stroke="#ffffff"></path>
    <path id="path_6" d="M 362.14 300.57 C 364.59 308.15 374.95 306.76 376.74 300.81 C 379.316 301.877 381.779 303.2 384.09 304.76 C 388.378 307.657 392.08 311.338 395 315.61 C 396.442 313.335 397.744 310.974 398.9 308.54 C 405.495 316.723 409.264 326.827 409.64 337.33 C 410.33 358.21 397 377.2 377.58 384.42 C 369.58 387.42 361.27 387.31 352.88 387.31 L 254.45 387.31 C 243.7 387.31 233.45 385.95 223.67 381.02 C 216.957 377.554 210.999 372.788 206.144 366.999 C 201.29 361.211 197.634 354.514 195.39 347.3 L 203.27 347.3 C 201.525 342.482 200.546 337.421 200.37 332.3 C 200.37 331.69 200.37 331.08 200.37 330.47 C 200.37 317.389 205.572 304.831 214.821 295.581 C 224.071 286.332 236.629 281.13 249.71 281.13 C 254.873 281.142 260.004 281.952 264.92 283.53 C 272.649 271.898 284.297 263.414 297.739 259.625 C 311.18 255.836 325.544 256.988 338.21 262.871 C 350.876 268.753 361.023 278.985 366.8 291.7 C 365.196 292.46 363.876 293.713 363.036 295.277 C 362.196 296.841 361.878 298.633 362.13 300.39 C 359.273 291.655 354.135 283.84 347.25 277.753 C 340.365 271.666 331.979 267.525 322.96 265.76 C 303.21 261.89 282.66 270.83 271.39 287.31 C 269.54 290.02 266.27 291.78 262.92 290.76 C 245.49 285.44 225.99 291.07 215.46 306.4 C 209.556 314.803 206.946 325.092 208.132 335.292 C 209.318 345.493 214.218 354.909 221.892 361.733 C 229.567 368.558 239.49 372.324 249.76 372.31 C 254.36 372.36 258.96 372.31 263.55 372.31 L 354 372.31 C 360.28 372.31 366.35 372.51 372.41 370.4 C 386.27 365.57 395.18 351.85 394.69 337.33 C 394.16 321.59 382.4 309.12 367.39 305.8 C 366.045 305.584 364.805 304.941 363.853 303.967 C 362.901 302.993 362.286 301.739 362.1 300.39 Z" fill="#ffffff" stroke="#ffffff"></path>
    <path id="path_7" d="M 357.18 218.6 C 360.12 227.83 345.64 231.75 342.72 222.6 C 342.72 222.53 342.67 222.46 342.65 222.39 C 341.99 217.71 345.82 212.06 351.95 213.39 C 353.2 213.66 354.45 213.97 355.69 214.31 C 356.22 215.71 356.72 217.14 357.18 218.6 Z" fill="#ababab" stroke="#ababab"></path>
    <path id="path_8" d="M 348 227.82 C 346.643 227.612 345.391 226.967 344.433 225.984 C 343.475 225.001 342.863 223.732 342.69 222.37 C 342.69 222.44 342.74 222.51 342.76 222.58 C 345.68 231.75 360.16 227.83 357.22 218.58 C 356.76 217.12 356.22 215.69 355.73 214.26 C 360.787 215.64 365.672 217.589 370.29 220.07 C 393.93 232.83 408.29 259.76 405.29 286.5 C 404.441 294.136 402.308 301.575 398.98 308.5 C 395.657 304.362 391.689 300.787 387.23 297.91 C 390.012 290.47 391.118 282.507 390.47 274.59 C 388.52 251.28 370.42 232.65 348 227.82 Z" fill="#ababab" stroke="#ababab"></path>
    <path id="path_9" d="M 266.86 276.29 C 265.22 275.79 263.57 275.37 261.92 275.01 C 269.408 265.694 279.258 258.553 290.44 254.333 C 301.622 250.112 313.734 248.965 325.51 251.01 C 348.16 254.88 366.72 271.29 375.07 292.29 C 373.85 291.91 372.62 291.59 371.36 291.29 C 369.824 290.922 368.21 291.048 366.75 291.65 C 360.973 278.935 350.826 268.703 338.16 262.821 C 325.494 256.938 311.13 255.786 297.689 259.575 C 284.247 263.364 272.599 271.848 264.87 283.48 C 262.628 282.75 260.335 282.189 258.01 281.8 L 258.39 279.69 Z" fill="#ffffff" stroke="#ffffff"></path>
    <path id="path_10" d="M 266.86 276.29 L 258.39 279.74 Q 260.07 277.28 261.92 275.01 C 263.57 275.37 265.22 275.79 266.86 276.29 Z" fill="#ffffff" stroke="#ffffff"></path>
    <path id="path_11" d="M 203.27 347.3 L 195.39 347.3 C 194.58 344.711 193.971 342.063 193.57 339.38 C 193.219 337.035 193.012 334.67 192.95 332.3 L 200.37 332.3 C 200.546 337.421 201.525 342.482 203.27 347.3 Z" fill="#ffffff" stroke="#ffffff"></path>
    <path id="path_12" d="M 198.59 191.28 L 190.12 194.72 Q 191.79 192.26 193.59 189.9 C 195.27 190.3 196.93 190.76 198.59 191.28 Z" fill="#ababab" stroke="#ababab"></path>
    <path id="path_13" d="M 342.65 222.37 C 338.296 208.905 330.411 196.849 319.82 187.464 C 309.228 178.079 296.311 171.702 282.42 169 C 251.99 163.1 220.36 176.78 203.07 202.28 C 201.23 204.99 197.93 206.77 194.6 205.73 C 187.579 203.483 180.241 202.389 172.87 202.49 C 155.821 202.91 139.607 210.033 127.764 222.304 C 115.921 234.575 109.379 251.032 109.564 268.085 C 109.749 285.138 116.647 301.449 128.754 313.46 C 140.861 325.471 157.226 332.24 174.28 332.29 C 180.5 332.35 186.72 332.29 192.95 332.29 C 193.012 334.66 193.219 337.025 193.57 339.37 C 193.971 342.053 194.58 344.701 195.39 347.29 L 182.09 347.29 C 167.77 347.29 154.09 345.93 140.79 339.91 C 117.11 329.19 99.48 306.16 95.48 280.45 C 91.37 254.06 100.29 226.76 120.14 208.62 C 129.919 199.732 141.729 193.376 154.533 190.111 C 167.338 186.846 180.749 186.77 193.59 189.89 Q 191.79 192.25 190.12 194.71 L 198.59 191.27 C 196.93 190.75 195.27 190.27 193.59 189.89 C 206.327 172.904 224.505 160.782 245.081 155.551 C 265.657 150.32 287.417 152.289 306.72 161.13 C 329.56 171.33 347.06 191.01 355.72 214.27 C 354.48 213.93 353.23 213.62 351.98 213.35 C 345.82 212 342 217.69 342.65 222.37 Z" fill="#ababab" stroke="#ababab"></path>
    <path id="path_14" d="M 193 332.3 C 192.729 324.101 194.234 315.939 197.411 308.376 C 200.589 300.813 205.364 294.025 211.41 288.48 C 218.17 282.411 226.271 278.026 235.049 275.683 C 243.826 273.341 253.035 273.107 261.92 275 Q 260.08 277.26 258.39 279.73 L 258.01 281.84 C 255.253 281.356 252.459 281.115 249.66 281.12 C 236.579 281.12 224.021 286.322 214.771 295.571 C 205.522 304.821 200.32 317.379 200.32 330.46 C 200.32 331.07 200.32 331.68 200.32 332.29 L 193 332.29 Z" fill="#ffffff" stroke="#ffffff"></path>
</g></svg>