<svg xmlns="http://www.w3.org/2000/svg" viewBox="0 0 500 500" id="vector"><g transform="translate(-60 -60) scale(1.25 1.25)">
    <path id="path" d="M 257.29 204.13 C 267.416 206.16 276.937 210.502 285.11 216.815 C 293.283 223.129 299.888 231.245 304.41 240.53 C 305.803 243.383 306.986 246.335 307.95 249.36 C 308.299 250.609 308.965 251.747 309.883 252.663 C 310.801 253.58 311.94 254.243 313.19 254.59 C 320.072 256.084 326.526 259.124 332.06 263.48 C 337.008 267.334 341.082 272.195 344.013 277.74 C 346.943 283.286 348.664 289.391 349.06 295.65 C 349.227 298.319 349.144 300.997 348.81 303.65 C 348.32 307.572 347.293 311.407 345.76 315.05 C 342.308 323.067 336.607 329.914 329.347 334.76 C 322.088 339.606 313.578 342.247 304.85 342.36 C 300.07 342.42 297.66 346.14 297.61 349.86 L 286.87 349.86 C 286.87 346.11 284.46 342.36 279.62 342.36 L 190.36 342.36 C 185.53 342.36 183.12 346.11 183.11 349.86 L 171.44 349.86 C 171.44 346.13 168.99 342.41 164.2 342.36 C 139.69 342.08 117.83 325.76 111.36 301.96 C 108.27 290.268 109.106 277.878 113.737 266.706 C 118.368 255.534 126.544 246.187 137 240.11 C 143.293 236.491 150.259 234.194 157.47 233.36 C 162.832 232.734 168.256 232.868 173.58 233.76 C 176.234 234.209 178.856 234.83 181.43 235.62 C 184.77 236.62 188.06 234.88 189.9 232.17 C 195.431 224.103 202.651 217.336 211.058 212.339 C 219.466 207.342 228.861 204.233 238.59 203.23 C 244.754 202.602 250.978 202.885 257.06 204.07 Z M 314.38 309.39 C 319.02 296.71 314.01 282.25 302.93 274.74 C 290.57 266.37 273.5 269.05 263.93 280.27 C 262.988 281.318 262.362 282.612 262.123 284 C 261.884 285.389 262.043 286.817 262.58 288.12 C 264.43 292.77 270.4 295.7 274.53 290.88 C 280.69 283.69 291.69 282.3 298.01 290.26 C 299.698 292.432 300.748 295.033 301.041 297.768 C 301.333 300.504 300.858 303.267 299.667 305.748 C 298.476 308.228 296.618 310.327 294.3 311.81 C 288.78 315.3 280.3 314.04 274.04 314.04 L 175.1 314.04 C 165.45 314.04 165.43 329.04 175.1 329.04 L 280.8 329.04 C 283.16 329.04 285.54 329.13 287.89 328.99 C 293.318 328.68 298.562 326.903 303.061 323.85 C 307.56 320.797 311.147 316.58 313.44 311.65 C 313.78 310.91 314.09 310.16 314.38 309.39 Z" fill="#ababab" stroke="#ababab"></path>
    <path id="path_1" d="M 404.51 251.38 C 395.575 271.887 381.563 289.785 363.8 303.38 C 364.377 297.208 363.948 290.984 362.53 284.95 C 370.278 277.774 377.049 269.611 382.67 260.67 C 388.577 259.134 394.368 257.182 400 254.83 Q 395.75 249.33 391.53 243.83 L 390.98 242.35 C 392.67 241.74 394.34 241.09 395.98 240.35 C 402.86 237.52 406.71 246.29 404.51 251.38 Z" fill="#f4ec90" stroke="#f4ec90"></path>
    <path id="path_2" d="M 391.56 243.81 Q 395.79 249.33 400.03 254.81 C 394.388 257.154 388.586 259.095 382.67 260.62 C 386.061 255.254 389.034 249.634 391.56 243.81 Z" fill="#f4ec90" stroke="#f4ec90"></path>
    <path id="path_3" d="M 391 242.33 L 391.55 243.81 C 389.025 249.641 386.052 255.267 382.66 260.64 C 373.131 263.089 363.355 264.451 353.52 264.7 C 349.281 258.542 343.941 253.22 337.77 249 C 355.789 250.85 373.995 248.569 391 242.33 Z" fill="#f4ec90" stroke="#f4ec90"></path>
    <path id="path_4" d="M 382.67 260.64 C 377.049 269.581 370.278 277.744 362.53 284.92 C 360.815 277.679 357.762 270.821 353.53 264.7 C 363.365 264.451 373.141 263.089 382.67 260.64 Z" fill="#f4ec90" stroke="#f4ec90"></path>
    <path id="path_5" d="M 363.64 305 C 361.813 319.35 354.848 332.564 344.043 342.183 C 333.237 351.801 319.305 357.188 304.84 357.34 C 299.97 357.4 297.56 353.62 297.6 349.84 L 304.84 349.84 C 316.606 349.838 328.026 345.825 337.206 338.466 C 346.386 331.107 352.788 320.833 355.35 309.35 Q 359.68 306.51 363.8 303.35 C 363.75 303.9 363.7 304.44 363.64 305 Z" fill="#ababab" stroke="#ababab"></path>
    <path id="path_6" d="M 362.53 284.92 C 363.948 290.954 364.377 297.178 363.8 303.35 Q 359.69 306.5 355.35 309.35 C 356.175 305.654 356.591 301.877 356.59 298.09 C 356.592 295.556 356.404 293.026 356.03 290.52 Q 359.39 287.84 362.53 284.92 Z" fill="#ababab" stroke="#ababab"></path>
    <path id="path_7" d="M 344.3 264.6 C 347.37 264.74 350.45 264.78 353.53 264.7 C 357.762 270.821 360.815 277.679 362.53 284.92 Q 359.38 287.83 356.03 290.51 C 354.631 280.944 350.565 271.963 344.3 264.6 Z" fill="#ababab" stroke="#ababab"></path>
    <path id="path_8" d="M 356.59 298.08 C 356.591 301.867 356.175 305.644 355.35 309.34 C 352.24 311.34 349.03 313.26 345.75 315.02 C 347.283 311.377 348.31 307.542 348.8 303.62 C 349.134 300.967 349.217 298.289 349.05 295.62 Q 352.65 293.18 356.05 290.48 C 356.419 292.996 356.6 295.537 356.59 298.08 Z" fill="#ababab" stroke="#ababab"></path>
    <path id="path_9" d="M 355.35 309.34 C 352.788 320.823 346.386 331.097 337.206 338.456 C 328.026 345.815 316.606 349.828 304.84 349.83 L 297.6 349.83 C 297.6 346.11 300.06 342.39 304.84 342.33 C 313.57 342.215 322.082 339.572 329.341 334.722 C 336.601 329.872 342.301 323.021 345.75 315 C 349 313.26 352.24 311.36 355.35 309.34 Z" fill="#ababab" stroke="#ababab"></path>
    <path id="path_10" d="M 356 290.51 Q 352.61 293.21 349 295.65 C 348.604 289.391 346.883 283.286 343.953 277.74 C 341.022 272.195 336.948 267.334 332 263.48 Q 338.09 264.32 344.24 264.6 C 350.516 271.96 354.592 280.941 356 290.51 Z" fill="#ababab" stroke="#ababab"></path>
    <path id="path_11" d="M 344.3 264.6 C 336.801 255.755 326.542 249.681 315.18 247.36 C 314.84 246.26 314.47 245.16 314.07 244.08 C 321.781 246.529 329.722 248.181 337.77 249.01 C 343.944 253.226 349.287 258.545 353.53 264.7 C 350.45 264.78 347.37 264.74 344.3 264.6 Z" fill="#ababab" stroke="#ababab"></path>
    <path id="path_12" d="M 336.5 168.62 C 333.782 163.36 330.156 158.62 325.79 154.62 C 322.425 151.563 318.685 148.945 314.66 146.83 C 316.488 145.904 318.249 144.852 319.93 143.68 C 325.751 139.627 330.716 134.465 334.54 128.49 C 335.28 127.33 335.93 126.12 336.54 124.9 C 341.481 134.23 349.126 141.855 358.47 146.77 C 349.487 151.497 342.055 158.717 337.07 167.56 Z" fill="#ffffff" stroke="#ffffff"></path>
    <path id="path_13" d="M 315.18 247.36 C 326.542 249.681 336.801 255.755 344.3 264.6 Q 338.15 264.33 332.06 263.48 C 326.526 259.124 320.072 256.084 313.19 254.59 C 311.94 254.243 310.801 253.58 309.883 252.663 C 308.965 251.747 308.299 250.609 307.95 249.36 C 306.986 246.335 305.803 243.383 304.41 240.53 C 307.58 241.86 310.81 243.04 314.07 244.08 C 314.47 245.16 314.84 246.26 315.18 247.36 Z" fill="#ababab" stroke="#ababab"></path>
    <path id="path_14" d="M 322.42 245.37 L 317.18 240.13 C 318.44 240.4 319.68 240.73 320.91 241.08 C 321.44 242.5 322 243.92 322.42 245.37 Z" fill="#ababab" stroke="#ababab"></path>
    <path id="path_15" d="M 302.93 274.74 C 314.01 282.25 319.02 296.74 314.38 309.39 C 314.09 310.16 313.78 310.91 313.44 311.65 Q 308.44 312.92 303.33 313.76 C 306.435 310.172 308.306 305.679 308.665 300.947 C 309.024 296.215 307.853 291.491 305.324 287.475 C 302.796 283.46 299.042 280.361 294.62 278.64 C 290.198 276.919 285.338 276.664 280.76 277.913 C 276.182 279.162 272.125 281.851 269.19 285.58 L 262.54 288.12 C 262.003 286.817 261.844 285.389 262.083 284 C 262.322 282.612 262.948 281.318 263.89 280.27 C 273.5 269 290.57 266.37 302.93 274.74 Z" fill="#ffffff" stroke="#ffffff"></path>
    <path id="path_16" d="M 303.33 313.76 Q 308.42 312.94 313.44 311.65 C 311.149 316.582 307.562 320.801 303.063 323.856 C 298.564 326.911 293.319 328.689 287.89 329 C 285.54 329.14 283.16 329.05 280.8 329.05 L 265.8 329.05 C 255.883 327.642 246.156 325.126 236.8 321.55 L 286.49 321.55 C 289.694 321.552 292.861 320.857 295.769 319.512 C 298.677 318.166 301.257 316.203 303.33 313.76 Z" fill="#ffffff" stroke="#ffffff"></path>
    <path id="path_17" d="M 251.53 195.78 C 265.462 197.065 278.745 202.291 289.818 210.843 C 300.891 219.395 309.305 230.925 314.07 244.08 C 310.81 243.08 307.58 241.86 304.41 240.53 C 299.888 231.245 293.283 223.129 285.11 216.815 C 276.937 210.502 267.416 206.16 257.29 204.13 C 255.24 201.42 253.31 198.63 251.53 195.78 Z" fill="#ababab" stroke="#ababab"></path>
    <path id="path_18" d="M 286.87 349.83 L 183.11 349.83 C 183.11 346.08 185.53 342.33 190.36 342.33 L 279.62 342.33 C 284.46 342.33 286.87 346.08 286.87 349.83 Z" fill="#ffffff" stroke="#ffffff"></path>
    <path id="path_19" d="M 183.11 349.83 L 286.87 349.83 C 286.87 353.58 284.45 357.33 279.62 357.33 L 190.36 357.33 C 185.52 357.33 183.11 353.58 183.11 349.83 Z" fill="#ffffff" stroke="#ffffff"></path>
    <path id="path_20" d="M 266.72 314 C 278.864 315.802 291.215 315.708 303.33 313.72 C 301.256 316.162 298.676 318.123 295.768 319.466 C 292.859 320.81 289.693 321.504 286.49 321.5 L 236.8 321.5 C 233.31 320.16 229.86 318.68 226.49 317.05 C 224.49 316.05 222.49 315.05 220.59 314 Z" fill="#ffffff" stroke="#ffffff"></path>
    <path id="path_21" d="M 286.49 277.25 C 292.158 277.251 297.614 279.428 301.726 283.329 C 305.837 287.23 308.298 292.565 308.596 298.225 C 308.895 303.884 307.009 309.448 303.33 313.76 C 291.215 315.748 278.864 315.842 266.72 314.04 L 274 314.04 C 280.25 314.04 288.74 315.3 294.26 311.81 C 296.581 310.331 298.443 308.233 299.638 305.754 C 300.832 303.275 301.312 300.511 301.023 297.774 C 300.733 295.037 299.686 292.435 298 290.26 C 291.68 282.26 280.68 283.69 274.52 290.88 C 270.39 295.7 264.42 292.77 262.57 288.12 L 269.22 285.58 C 271.288 282.983 273.914 280.886 276.904 279.444 C 279.894 278.001 283.171 277.252 286.49 277.25 Z" fill="#ffffff" stroke="#ffffff"></path>
    <path id="path_22" d="M 283.6 396.41 C 283.606 400.206 282.43 403.911 280.237 407.009 C 278.043 410.106 274.939 412.446 271.357 413.701 C 267.775 414.956 263.889 415.065 260.242 414.013 C 256.595 412.961 253.364 410.8 251 407.83 L 245.13 403.76 C 247.54 400.09 252.63 398.29 256.3 402.52 C 260.65 407.52 267.87 409.11 272.93 404.04 C 274.938 402.01 276.066 399.266 276.066 396.41 C 276.066 393.554 274.938 390.81 272.93 388.78 C 268.49 384.34 260.93 385.62 255.21 385.62 L 218.93 385.62 L 208.1 378.12 L 265.31 378.12 C 268.52 378.12 271.675 378.965 274.455 380.57 C 277.235 382.176 279.544 384.485 281.15 387.265 C 282.755 390.045 283.6 393.2 283.6 396.41 Z" fill="#ffffff" stroke="#ffffff"></path>
    <path id="path_23" d="M 265.31 414.71 C 270.086 414.598 274.634 412.62 277.973 409.203 C 281.311 405.785 283.182 401.193 283.182 396.415 C 283.182 391.637 281.311 387.045 277.973 383.627 C 274.634 380.21 270.086 378.232 265.31 378.12 L 208.1 378.12 L 218.93 385.62 L 208.1 385.62 C 198.43 385.62 198.45 370.62 208.1 370.62 L 256.74 370.62 C 264.07 370.62 271.25 370.21 277.95 373.93 C 291.43 381.4 295.08 399.8 285.81 411.93 C 282.663 415.978 278.388 419.007 273.525 420.633 C 268.663 422.258 263.426 422.41 258.477 421.068 C 253.528 419.726 249.085 416.95 245.71 413.09 C 244.57 411.823 243.892 410.206 243.789 408.505 C 243.685 406.803 244.162 405.116 245.14 403.72 L 251.01 407.79 C 252.719 409.945 254.893 411.687 257.368 412.886 C 259.844 414.084 262.559 414.707 265.31 414.71 Z" fill="#ffffff" stroke="#ffffff"></path>
    <path id="path_24" d="M 251.53 195.78 C 253.31 198.63 255.24 201.42 257.29 204.13 L 257.01 204.07 C 250.928 202.885 244.704 202.602 238.54 203.23 C 237.11 200.92 235.77 198.57 234.54 196.18 C 237.943 195.702 241.374 195.462 244.81 195.46 C 247.05 195.46 249.3 195.58 251.53 195.78 Z" fill="#ababab" stroke="#ababab"></path>
    <path id="path_25" d="M 247.12 188.12 C 251.309 188.209 255.484 188.621 259.61 189.35 C 287.74 194.29 310.86 214.75 320.91 241.08 C 319.68 240.73 318.44 240.4 317.18 240.13 L 322.42 245.37 C 321.95 243.92 321.42 242.5 320.91 241.08 C 326.913 242.813 332.604 245.486 337.77 249 C 329.722 248.171 321.781 246.519 314.07 244.07 C 309.305 230.915 300.891 219.385 289.818 210.833 C 278.745 202.281 265.462 197.055 251.53 195.77 Q 249.18 192 247.12 188.12 Z" fill="#ababab" stroke="#ababab"></path>
    <path id="path_26" d="M 247.12 188.12 Q 249.18 192.02 251.53 195.78 C 249.3 195.58 247.05 195.46 244.76 195.46 C 241.324 195.462 237.893 195.702 234.49 196.18 Q 232.68 192.81 231.07 189.34 C 236.366 188.401 241.743 187.992 247.12 188.12 Z" fill="#ababab" stroke="#ababab"></path>
    <path id="path_27" d="M 247.12 188.12 C 241.743 187.992 236.366 188.401 231.07 189.34 C 218.128 161.646 215.166 130.308 222.69 100.68 C 228.059 97.275 233.686 94.296 239.52 91.77 L 240.99 92.32 C 235.27 107.832 232.86 124.37 233.916 140.869 C 234.972 157.368 239.47 173.464 247.12 188.12 Z" fill="#f4ec90" stroke="#f4ec90"></path>
    <path id="path_28" d="M 232 78.82 C 237.13 76.6 245.87 80.45 243 87.29 C 242.3 88.96 241.65 90.63 241 92.29 L 239.53 91.74 L 228.53 83.27 L 227.39 80.89 Q 229.63 79.82 232 78.82 Z" fill="#f4ec90" stroke="#f4ec90"></path>
    <path id="path_29" d="M 228.5 83.3 L 239.5 91.77 C 233.666 94.296 228.039 97.275 222.67 100.68 C 224.192 94.754 226.141 88.945 228.5 83.3 Z" fill="#f4ec90" stroke="#f4ec90"></path>
    <path id="path_30" d="M 236.8 321.54 C 246.156 325.116 255.883 327.632 265.8 329.04 L 175.1 329.04 C 165.43 329.04 165.45 314.04 175.1 314.04 L 194.73 314.04 L 175.1 321.54 Z" fill="#ffffff" stroke="#ffffff"></path>
    <path id="path_31" d="M 236.8 321.54 L 175.1 321.54 L 194.73 314.04 L 220.59 314.04 C 222.53 315.1 224.49 316.12 226.49 317.09 C 229.86 318.72 233.31 320.2 236.8 321.54 Z" fill="#ffffff" stroke="#ffffff"></path>
    <path id="path_32" d="M 183.38 228.38 C 189.143 219.709 196.677 212.356 205.486 206.806 C 214.295 201.256 224.181 197.635 234.49 196.18 C 235.77 198.57 237.11 200.92 238.49 203.23 C 228.761 204.233 219.366 207.342 210.958 212.339 C 202.551 217.336 195.331 224.103 189.8 232.17 C 187.96 234.88 184.67 236.65 181.33 235.62 C 178.756 234.83 176.134 234.209 173.48 233.76 C 172.64 231.13 171.9 228.46 171.26 225.76 C 175.377 226.23 179.437 227.108 183.38 228.38 Z" fill="#ababab" stroke="#ababab"></path>
    <path id="path_33" d="M 227.36 80.92 L 228.5 83.3 C 226.148 88.946 224.206 94.754 222.69 100.68 C 197.872 116.191 179.762 140.47 171.97 168.68 C 167.622 184.833 166.864 201.743 169.75 218.22 C 164.621 217.853 159.468 218.044 154.38 218.79 C 150.186 191.025 155.016 162.634 168.155 137.818 C 181.294 113.002 202.06 93.049 227.38 80.91 Z" fill="#f4ec90" stroke="#f4ec90"></path>
    <path id="path_34" d="M 222.69 100.68 C 215.166 130.308 218.128 161.646 231.07 189.34 C 211 192.903 192.94 203.768 180.39 219.83 C 176.889 219.026 173.332 218.491 169.75 218.23 C 166.874 201.751 167.642 184.84 172 168.69 C 179.783 140.481 197.881 116.199 222.69 100.68 Z" fill="#f4ec90" stroke="#f4ec90"></path>
    <path id="path_35" d="M 185.37 221.15 L 176.9 224.6 Q 178.58 222.14 180.39 219.83 C 182.06 220.21 183.72 220.64 185.37 221.15 Z" fill="#ababab" stroke="#ababab"></path>
    <path id="path_36" d="M 169.75 218.23 C 173.332 218.491 176.889 219.026 180.39 219.83 Q 178.58 222.14 176.9 224.6 L 185.37 221.15 C 183.72 220.64 182.06 220.21 180.37 219.83 C 192.92 203.768 210.98 192.903 231.05 189.34 Q 232.65 192.81 234.47 196.18 C 224.161 197.635 214.275 201.256 205.466 206.806 C 196.657 212.356 189.123 219.709 183.36 228.38 C 179.433 227.114 175.39 226.24 171.29 225.77 C 170.71 223.28 170.19 220.76 169.75 218.23 Z" fill="#ababab" stroke="#ababab"></path>
    <path id="path_37" d="M 164.2 225.36 C 166.576 225.36 168.95 225.497 171.31 225.77 C 171.95 228.46 172.69 231.13 173.53 233.77 C 168.206 232.878 162.782 232.744 157.42 233.37 Q 156.42 229.7 155.66 225.97 C 158.489 225.569 161.343 225.365 164.2 225.36 Z" fill="#ababab" stroke="#ababab"></path>
    <path id="path_38" d="M 154.38 218.8 C 159.468 218.054 164.621 217.863 169.75 218.23 C 170.19 220.76 170.75 223.28 171.31 225.77 C 166.107 225.166 160.847 225.23 155.66 225.96 C 155.16 223.58 154.74 221.2 154.38 218.8 Z" fill="#ababab" stroke="#ababab"></path>
    <path id="path_39" d="M 164.2 342.33 C 168.99 342.33 171.4 346.1 171.44 349.83 L 164.2 349.83 C 148.492 349.757 133.379 343.739 121.92 332.994 C 110.462 322.249 103.486 307.554 102.405 291.882 C 101.325 276.211 106.217 260.697 116.092 248.481 C 125.967 236.264 140.11 228.228 155.66 226 Q 156.42 229.72 157.42 233.4 C 150.229 234.228 143.281 236.511 137 240.11 C 126.559 246.193 118.398 255.538 113.776 266.703 C 109.155 277.868 108.323 290.247 111.41 301.93 C 117.83 325.73 139.69 342 164.2 342.33 Z" fill="#ababab" stroke="#ababab"></path>
    <path id="path_40" d="M 171.44 349.83 C 171.44 353.6 169.06 357.38 164.2 357.33 C 146.638 357.211 129.731 350.572 116.78 338.71 C 93.49 317.29 88 281.58 103.12 253.93 C 108.364 244.509 115.724 236.432 124.618 230.336 C 133.513 224.241 143.701 220.291 154.38 218.8 C 154.74 221.2 155.16 223.58 155.66 225.96 C 140.052 228.125 125.835 236.138 115.902 248.37 C 105.969 260.601 101.042 276.161 102.126 291.88 C 103.21 307.6 110.225 322.336 121.743 333.088 C 133.26 343.841 148.443 349.828 164.2 349.83 Z" fill="#ababab" stroke="#ababab"></path>
</g></svg>