<svg xmlns="http://www.w3.org/2000/svg" viewBox="0 0 500 500" id="vector"><g transform="translate(-60 -60) scale(1.25 1.25)">
    <path id="path" d="M 414.21 317.72 C 415.33 338.25 403.21 357.87 383.86 365.29 C 375.12 368.64 366.36 368.47 357.25 368.47 L 232.91 368.47 C 227.01 368.47 221.1 368.52 215.2 368.47 C 202.04 368.473 189.251 364.068 178.885 355.96 C 168.519 347.852 161.162 336.501 157.996 323.727 C 154.829 310.954 156.032 297.481 161.41 285.47 C 163.153 281.513 165.333 277.763 167.91 274.29 C 168.75 273.16 169.62 272.07 170.54 271.02 C 186 253 211 246.53 233.7 253.55 C 237.3 254.66 240.84 252.75 242.82 249.83 C 258.59 226.64 287.42 214.15 315.13 219.57 C 320.24 220.574 325.226 222.13 330 224.21 C 330.94 224.62 331.86 225.04 332.77 225.48 C 333.83 226 334.86 226.48 335.88 227.08 C 352.019 235.911 364.188 250.585 369.88 268.08 C 370.077 269.542 370.74 270.902 371.77 271.957 C 372.8 273.013 374.143 273.708 375.6 273.94 C 396.52 278.51 413 295.94 414.21 317.72 Z" fill="#ababab" stroke="#ababab"></path>
    <path id="path_1" d="M 236.74 239.68 C 245.929 227.872 258.168 218.792 272.133 213.422 C 286.098 208.051 301.267 206.591 316 209.2 C 319.51 209.82 322.972 210.685 326.36 211.79 C 323.744 195.182 316.122 179.761 304.517 167.597 C 292.912 155.432 277.866 147.094 261.4 143.7 C 228.12 136.96 193.17 152.61 175.64 181.56 C 168.794 193.036 164.819 205.996 164.055 219.337 C 163.291 232.678 165.759 246.008 171.25 258.19 C 179.745 249.873 190.194 243.819 201.635 240.585 C 213.076 237.351 225.148 237.04 236.74 239.68 Z" fill="#f8b62d"></path>
    <path id="path_2" d="M 171.25 258.18 C 165.759 245.998 163.291 232.668 164.055 219.327 C 164.819 205.986 168.794 193.026 175.64 181.55 C 193.18 152.6 228.12 136.95 261.4 143.69 C 277.858 147.09 292.893 155.431 304.491 167.593 C 316.088 179.755 323.705 195.169 326.32 211.77 C 331.849 213.584 337.159 216.009 342.15 219 C 341.017 200.001 334.373 181.737 323.033 166.45 C 311.694 151.164 296.143 139.507 278.29 132.91 C 240.6 119.09 196.39 131.29 171.02 162.34 C 146.02 192.92 141.77 236.6 161.02 271.09 C 163.892 266.386 167.327 262.051 171.25 258.18 Z" fill="#f8b62d"></path>
    <path id="path_3" d="M 238.07 65.45 L 238.07 99.1 C 238.07 108.75 253.07 108.77 253.07 99.1 L 253.07 65.45 C 253.07 55.79 238.07 55.78 238.07 65.45 Z M 245.57 99.1 L 245.57 99.1 Z" fill="#f8b62d"></path>
    <path id="path_4" d="M 189.61 112 L 172.79 82.9 C 167.96 74.54 155 82.09 159.79 90.47 L 176.62 119.62 C 181.49 128 194.46 120.42 189.61 112 Z M 183.13 115.79 L 166.31 86.68 Z" fill="#f8b62d"></path>
    <path id="path_5" d="M 141.22 155.05 L 112.07 138.22 C 103.7 133.38 96.13 146.34 104.5 151.22 L 133.65 168 C 142 172.84 149.59 159.88 141.22 155.05 Z M 108.29 144.7 L 137.44 161.53 Z" fill="#f8b62d"></path>
    <path id="path_6" d="M 120.71 216.45 L 87.06 216.45 C 77.41 216.45 77.39 231.45 87.06 231.45 L 120.71 231.45 C 130.36 231.45 130.38 216.45 120.71 216.45 Z M 120.71 223.95 L 120.71 223.95 Z" fill="#f8b62d"></path>
    <path id="path_7" d="M 133.65 279.91 L 104.5 296.74 C 96.14 301.57 103.69 314.53 112.07 309.74 L 141.22 292.91 C 149.58 288 142 275.07 133.65 279.91 Z M 108.29 303.21 L 137.44 286.38 Z" fill="#f8b62d"></path>
    <path id="path_8" d="M 370.42 231.45 L 404.07 231.45 C 413.72 231.45 413.74 216.45 404.07 216.45 L 370.42 216.45 C 360.77 216.45 360.75 231.45 370.42 231.45 Z M 370.42 223.95 L 370.42 223.95 Z" fill="#f8b62d"></path>
    <path id="path_9" d="M 379.06 138.22 L 349.91 155.05 C 341.55 159.88 349.1 172.84 357.48 168.05 L 386.63 151.22 C 395 146.35 387.44 133.38 379.06 138.22 Z M 353.7 161.52 L 382.85 144.69 Z" fill="#f8b62d"></path>
    <path id="path_10" d="M 318.35 82.9 L 301.52 112 C 296.68 120.38 309.64 127.94 314.52 119.57 L 331.3 90.47 C 336.13 82.09 323.18 74.53 318.35 82.9 Z M 308 115.83 L 324.83 86.68 Z" fill="#f8b62d"></path>
    <path id="path_11" d="M 241.72 241 C 240.07 240.49 238.41 240.06 236.72 239.68 Q 234.9 241.99 233.23 244.45 Z" fill="#ababab" stroke="#ababab"></path>
    <path id="path_12" d="M 220.54 245.21 C 227.051 245.199 233.523 246.212 239.72 248.21 C 248.96 234.311 262.65 223.952 278.538 218.838 C 294.425 213.724 311.587 214.152 327.2 220.05 C 327.044 217.277 326.747 214.513 326.31 211.77 C 322.937 210.674 319.492 209.815 316 209.2 C 301.275 206.601 286.116 208.066 272.161 213.436 C 258.205 218.806 245.975 227.881 236.79 239.68 C 238.46 240.06 240.12 240.49 241.79 241 L 233.32 244.45 Q 234.99 241.99 236.81 239.68 C 225.218 237.04 213.146 237.351 201.705 240.585 C 190.264 243.819 179.815 249.873 171.32 258.19 C 172.406 260.582 173.61 262.918 174.93 265.19 C 180.74 258.891 187.793 253.863 195.643 250.424 C 203.493 246.986 211.97 245.21 220.54 245.21 Z" fill="#ababab" stroke="#ababab"></path>
    <path id="path_13" d="M 158.31 307.44 C 158.297 297.288 160.78 287.287 165.54 278.32 C 164.54 276.88 163.59 275.42 162.68 273.92 C 162.11 272.98 161.56 272.02 161.03 271.06 Q 160.22 272.39 159.46 273.77 C 144.3 301.42 149.84 337.14 173.12 358.56 C 186.072 370.419 202.979 377.055 220.54 377.17 C 225.4 377.22 227.81 373.45 227.78 369.67 L 220.54 369.67 C 204.042 369.67 188.203 363.109 176.537 351.443 C 164.871 339.777 158.31 323.938 158.31 307.44 Z" fill="#ababab" stroke="#ababab"></path>
    <path id="path_14" d="M 377.25 260.93 C 377.79 262.34 378.25 263.77 378.76 265.21 L 373.53 260 C 374.79 260.27 376.03 260.6 377.26 261 C 370.601 243.464 358.235 228.667 342.16 219 C 342.26 220.65 342.33 222.31 342.34 224 C 342.34 225.3 342.29 226.6 342.22 227.89 C 356.193 237.285 366.542 251.181 371.54 267.26 C 384.107 269.818 395.285 276.959 402.889 287.286 C 410.493 297.613 413.993 310.406 412.706 323.166 C 411.418 335.926 405.432 347.762 395.918 356.362 C 386.404 364.961 374.025 369.724 361.2 369.72 L 354 369.72 C 354 373.5 356.36 377.28 361.24 377.22 C 375.707 377.059 389.636 371.662 400.435 362.033 C 411.234 352.405 418.187 339.184 420 324.83 C 423.52 296.08 404.68 268.81 377.25 260.93 Z" fill="#ababab" stroke="#ababab"></path>
    <path id="path_15" d="M 378.77 265.22 C 378.31 263.77 377.77 262.35 377.26 260.94 C 376.03 260.59 374.79 260.26 373.53 259.94 Z" fill="#ababab" stroke="#ababab"></path>
    <path id="path_16" d="M 327.21 220.07 L 328.21 220.45 C 331.38 214.45 342.43 215.66 342.36 223.95 C 342.36 222.28 342.28 220.62 342.18 218.95 C 337.184 215.972 331.871 213.56 326.34 211.76 C 326.771 214.513 327.061 217.287 327.21 220.07 Z" fill="#ababab" stroke="#ababab"></path>
    <path id="path_17" d="M 328.18 220.45 C 332.872 222.317 337.359 224.663 341.57 227.45 C 342.102 226.376 342.366 225.188 342.34 223.99 C 342.4 215.66 331.35 214.49 328.18 220.45 Z" fill="#ababab" stroke="#ababab"></path>
    <path id="path_18" d="M 342.22 227.84 C 342.28 226.55 342.33 225.25 342.34 223.95 C 342.366 225.148 342.102 226.336 341.57 227.41 Z" fill="#ababab" stroke="#ababab"></path>
    <path id="path_19" d="M 165.54 278.33 C 168.066 273.569 171.199 269.155 174.86 265.2 C 173.54 262.928 172.336 260.592 171.25 258.2 C 167.323 262.057 163.88 266.379 161 271.07 C 161.54 272.07 162.08 272.98 162.65 273.93 C 163.59 275.43 164.56 276.89 165.54 278.33 Z" fill="#ababab" stroke="#ababab"></path>
    <path id="path_20" d="M 220.54 362.17 C 196.04 361.9 174.18 345.57 167.7 321.77 C 164.443 309.589 165.504 296.648 170.7 285.16 Q 167.99 281.87 165.56 278.32 C 158.837 291.017 156.714 305.658 159.554 319.741 C 162.394 333.824 170.025 346.498 181.143 355.597 C 192.26 364.697 206.193 369.671 220.56 369.67 L 227.8 369.67 C 227.75 366 225.34 362.23 220.54 362.17 Z" fill="#ababab" stroke="#ababab"></path>
    <path id="path_21" d="M 412.94 317.93 C 412.937 306.003 408.813 294.436 401.269 285.198 C 393.725 275.96 383.216 269.607 371.53 267.22 C 366.532 251.141 356.183 237.245 342.21 227.85 Q 342 232.27 341.39 236.62 C 352.158 244.899 360.152 256.266 364.3 269.2 C 364.648 270.451 365.314 271.59 366.232 272.508 C 367.15 273.426 368.289 274.092 369.54 274.44 C 392.07 279.33 408.04 300.19 405.15 323.44 C 402.41 345.53 383.15 361.85 361.15 362.14 C 356.37 362.2 353.95 365.92 353.91 369.64 L 361.15 369.64 C 370.233 369.647 379.16 367.262 387.03 362.727 C 394.9 358.191 401.439 351.663 405.987 343.8 C 410.535 335.937 412.933 327.013 412.94 317.93 Z" fill="#ababab" stroke="#ababab"></path>
    <path id="path_22" d="M 193.3 260 C 206.88 252.17 222.84 250.91 237.73 255.51 C 241.07 256.51 244.36 254.77 246.2 252.06 C 260.85 230.52 287.62 218.92 313.35 223.96 C 318.099 224.893 322.733 226.338 327.17 228.27 C 327.26 226.85 327.32 225.43 327.33 224 C 327.34 222.57 327.27 221.4 327.2 220.12 C 311.587 214.222 294.425 213.794 278.538 218.908 C 262.65 224.022 248.96 234.381 239.72 248.28 C 228.414 244.624 216.294 244.282 204.799 247.294 C 193.305 250.307 182.91 256.549 174.85 265.28 C 176.168 267.534 177.6 269.721 179.14 271.83 C 183.149 267.106 187.938 263.104 193.3 260 Z" fill="#ababab" stroke="#ababab"></path>
    <path id="path_23" d="M 328.18 220.45 L 327.18 220.07 C 327.25 221.36 327.3 222.65 327.31 223.95 C 327.31 222.73 327.609 221.528 328.18 220.45 Z" fill="#ababab" stroke="#ababab"></path>
    <path id="path_24" d="M 174.86 265.2 C 171.199 269.155 168.066 273.569 165.54 278.33 Q 167.97 281.88 170.68 285.17 C 172.848 280.315 175.7 275.796 179.15 271.75 C 177.61 269.641 176.178 267.454 174.86 265.2 Z" fill="#ababab" stroke="#ababab"></path>
    <path id="path_25" d="M 329.75 229.41 Q 331.21 230.12 332.63 230.89 C 335.97 231.8 339.93 230.64 341.56 227.41 C 337.349 224.623 332.862 222.277 328.17 220.41 C 327.606 221.49 327.314 222.692 327.32 223.91 C 327.287 224.95 327.488 225.985 327.908 226.937 C 328.329 227.889 328.958 228.734 329.75 229.41 Z" fill="#ababab" stroke="#ababab"></path>
    <path id="path_26" d="M 327.33 224 C 327.33 225.43 327.26 226.85 327.17 228.27 Q 328.47 228.84 329.74 229.45 C 328.959 228.778 328.337 227.94 327.92 226.997 C 327.503 226.054 327.302 225.03 327.33 224 Z" fill="#ababab" stroke="#ababab"></path>
    <path id="path_27" d="M 332.63 230.89 C 335.694 232.566 338.623 234.479 341.39 236.61 Q 342 232.27 342.21 227.84 L 341.56 227.41 C 339.93 230.65 336 231.8 332.63 230.89 Z" fill="#ababab" stroke="#ababab"></path>
    <path id="path_28" d="M 246.71 369.67 L 239.47 369.67 C 239.47 373.42 241.88 377.17 246.71 377.17 L 336 377.17 C 340.83 377.17 343.24 373.42 343.25 369.67 L 246.71 369.67 Z" fill="#ffffff" stroke="#ffffff"></path>
    <path id="path_29" d="M 336 362.17 L 246.71 362.17 C 241.88 362.17 239.47 365.92 239.47 369.67 L 343.22 369.67 C 343.22 365.92 340.81 362.17 336 362.17 Z" fill="#ffffff" stroke="#ffffff"></path>
    <path id="path_30" d="M 370.73 329.24 C 375.37 316.56 370.37 302.1 359.28 294.59 C 346.93 286.22 329.85 288.9 320.28 300.12 C 319.34 301.167 318.715 302.459 318.478 303.847 C 318.241 305.234 318.401 306.66 318.94 307.96 L 325.58 305.42 C 328.715 301.514 333.085 298.786 337.971 297.683 C 342.857 296.581 347.975 297.168 352.484 299.348 C 356.993 301.529 360.631 305.176 362.8 309.69 C 364.97 314.205 365.544 319.324 364.43 324.207 C 363.315 329.09 360.576 333.453 356.663 336.579 C 352.749 339.705 347.889 341.412 342.88 341.42 L 231.45 341.42 L 251.08 333.92 L 231.45 333.92 C 221.8 333.92 221.78 348.92 231.45 348.92 L 337.15 348.92 C 339.51 348.92 341.89 349.02 344.24 348.92 C 350.095 348.588 355.727 346.547 360.434 343.05 C 365.142 339.552 368.722 334.75 370.73 329.24 Z" fill="#ffffff" stroke="#ffffff"></path>
    <path id="path_31" d="M 342.84 341.38 C 347.849 341.372 352.709 339.665 356.623 336.539 C 360.536 333.413 363.275 329.05 364.39 324.167 C 365.504 319.284 364.93 314.165 362.76 309.65 C 360.591 305.136 356.953 301.489 352.444 299.308 C 347.935 297.128 342.817 296.541 337.931 297.643 C 333.045 298.746 328.675 301.474 325.54 305.38 L 318.89 308 C 320.74 312.65 326.71 315.59 330.84 310.76 C 337 303.57 347.99 302.18 354.32 310.14 C 356.008 312.312 357.058 314.913 357.351 317.648 C 357.643 320.384 357.168 323.147 355.977 325.628 C 354.786 328.108 352.928 330.207 350.61 331.69 C 345.09 335.18 336.61 333.91 330.35 333.91 L 251.07 333.91 L 231.45 341.41 Z" fill="#ffffff" stroke="#ffffff"></path>
    <path id="path_32" d="M 334.3 393.77 C 327.59 390.05 320.42 390.46 313.09 390.46 L 264.45 390.46 C 254.8 390.46 254.78 405.46 264.45 405.46 L 275.28 405.46 L 264.45 398 L 321.65 398 C 325.791 398.003 329.81 399.412 333.046 401.995 C 336.282 404.578 338.548 408.185 339.468 412.222 C 340.389 416.259 339.913 420.491 338.117 424.222 C 336.321 427.953 333.311 430.966 329.581 432.765 C 325.851 434.563 321.619 435.043 317.582 434.125 C 313.544 433.207 309.935 430.944 307.35 427.71 L 301.48 423.65 C 300.499 425.044 300.02 426.731 300.121 428.433 C 300.223 430.135 300.9 431.753 302.04 433.02 C 305.415 436.88 309.858 439.656 314.807 440.998 C 319.756 442.34 324.993 442.188 329.855 440.563 C 334.718 438.937 338.993 435.908 342.14 431.86 C 351.43 419.65 347.78 401.25 334.3 393.77 Z" fill="#ffffff" stroke="#ffffff"></path>
    <path id="path_33" d="M 321.66 434.55 C 325.531 434.562 329.307 433.346 332.443 431.076 C 335.579 428.807 337.915 425.6 339.114 421.919 C 340.312 418.239 340.312 414.271 339.114 410.591 C 337.915 406.91 335.579 403.703 332.443 401.434 C 329.307 399.164 325.531 397.948 321.66 397.96 L 264.46 397.96 L 275.29 405.46 L 311.58 405.46 C 317.3 405.46 324.86 404.19 329.3 408.62 C 331.311 410.651 332.441 413.397 332.441 416.255 C 332.441 419.113 331.311 421.859 329.3 423.89 C 324.24 428.95 317.02 427.39 312.67 422.37 C 309 418.13 303.91 419.94 301.5 423.61 L 307.37 427.67 C 309.081 429.817 311.255 431.551 313.729 432.742 C 316.203 433.934 318.914 434.551 321.66 434.55 Z" fill="#ffffff" stroke="#ffffff"></path>
</g></svg>