<svg xmlns="http://www.w3.org/2000/svg" viewBox="0 0 500 500" id="vector"><g transform="translate(-60 -60) scale(1.25 1.25)">
    <path id="path" d="M 304.41 257 C 305.801 259.854 306.984 262.805 307.95 265.83 C 308.3 267.08 308.966 268.218 309.884 269.136 C 310.802 270.054 311.94 270.72 313.19 271.07 C 320.078 272.571 326.532 275.625 332.06 280 C 337.008 283.854 341.082 288.715 344.013 294.26 C 346.943 299.806 348.664 305.911 349.06 312.17 C 349.47 318.795 348.34 325.425 345.76 331.54 C 342.308 339.557 336.607 346.404 329.347 351.25 C 322.088 356.096 313.578 358.737 304.85 358.85 C 300.07 358.91 297.66 362.63 297.61 366.35 L 171.44 366.35 C 171.44 362.62 168.99 358.9 164.2 358.85 C 139.69 358.58 117.83 342.25 111.36 318.45 C 108.265 306.755 109.098 294.36 113.73 283.184 C 118.361 272.008 126.54 262.658 137 256.58 C 143.295 252.965 150.26 250.669 157.47 249.83 C 162.832 249.202 168.257 249.34 173.58 250.24 C 176.235 250.681 178.858 251.299 181.43 252.09 C 184.77 253.09 188.06 251.35 189.9 248.64 C 195.431 240.573 202.651 233.806 211.058 228.809 C 219.466 223.812 228.861 220.703 238.59 219.7 C 244.755 219.077 250.977 219.36 257.06 220.54 L 257.34 220.6 C 267.456 222.639 276.967 226.984 285.13 233.297 C 293.294 239.61 299.892 247.722 304.41 257 Z M 270.16 362.57 C 273.78 361.57 276.86 357.15 275.4 353.35 Q 274.05 349.81 272.69 346.29 L 268 334.14 C 267.435 332.642 266.49 331.315 265.26 330.29 C 264.375 329.545 263.319 329.029 262.187 328.789 C 261.056 328.548 259.882 328.59 258.77 328.91 L 258.51 328.99 C 255.01 330.13 252.11 334.42 253.51 338.13 L 255.64 343.67 L 260.89 357.33 C 262.39 361.11 266 363.72 270.16 362.57 Z M 232.16 362.57 C 235.78 361.57 238.86 357.15 237.4 353.35 L 230.52 335.43 L 230.03 334.14 C 228.58 330.37 225.03 327.76 220.8 328.91 C 220.191 329.082 219.608 329.337 219.07 329.67 C 216.29 331.36 214.34 334.96 215.56 338.13 L 222.94 357.33 C 224.43 361.11 228 363.72 232.2 362.57 Z M 194.16 362.57 C 197.78 361.57 200.86 357.15 199.4 353.35 Q 195.71 343.75 192.03 334.14 C 190.57 330.37 186.98 327.76 182.8 328.91 C 179.18 329.91 176.1 334.33 177.56 338.13 Q 181.25 347.73 184.93 357.33 C 186.47 361.11 190.06 363.72 194.24 362.57 Z" fill="#ffffff" stroke="#ffffff"></path>
    <path id="path_1" d="M 400 271.3 Q 395.75 265.79 391.53 260.3 L 391 258.8 C 392.69 258.19 394.36 257.54 396 256.8 C 402.82 253.95 406.67 262.73 404.47 267.8 C 395.53 288.304 381.519 306.2 363.76 319.8 C 364.338 313.628 363.909 307.404 362.49 301.37 C 370.236 294.188 377.007 286.022 382.63 277.08 C 388.552 275.574 394.357 273.643 400 271.3 Z" fill="#f4ec90" stroke="#f4ec90"></path>
    <path id="path_2" d="M 391.56 260.28 Q 395.79 265.8 400.03 271.28 C 394.391 273.632 388.589 275.574 382.67 277.09 C 386.061 271.724 389.034 266.104 391.56 260.28 Z" fill="#f4ec90" stroke="#f4ec90"></path>
    <path id="path_3" d="M 391 258.8 L 391.55 260.28 C 389.025 266.111 386.052 271.737 382.66 277.11 C 373.132 279.564 363.356 280.926 353.52 281.17 C 349.277 275.015 343.934 269.696 337.76 265.48 C 355.783 267.328 373.992 265.044 391 258.8 Z" fill="#f4ec90" stroke="#f4ec90"></path>
    <path id="path_4" d="M 353.53 281.17 C 363.366 280.926 373.142 279.564 382.67 277.11 C 377.047 286.052 370.276 294.218 362.53 301.4 C 360.815 294.156 357.762 287.295 353.53 281.17 Z" fill="#f4ec90" stroke="#f4ec90"></path>
    <path id="path_5" d="M 363.64 321.46 C 361.813 335.81 354.848 349.024 344.043 358.643 C 333.237 368.261 319.305 373.648 304.84 373.8 C 299.97 373.86 297.56 370.08 297.6 366.3 L 304.84 366.3 C 316.606 366.298 328.026 362.285 337.206 354.926 C 346.386 347.567 352.788 337.293 355.35 325.81 Q 359.68 322.99 363.8 319.81 C 363.75 320.37 363.7 320.91 363.64 321.46 Z" fill="#ffffff" stroke="#ffffff"></path>
    <path id="path_6" d="M 356 307 C 358.24 305.22 360.4 303.35 362.5 301.42 C 363.919 307.454 364.348 313.678 363.77 319.85 Q 359.66 323 355.32 325.85 C 356.702 319.662 356.933 313.272 356 307 Z" fill="#ffffff" stroke="#ffffff"></path>
    <path id="path_7" d="M 356 307 C 354.601 297.434 350.535 288.453 344.27 281.09 C 347.34 281.23 350.42 281.27 353.5 281.19 C 357.732 287.315 360.785 294.176 362.5 301.42 C 360.43 303.33 358.27 305.2 356 307 Z" fill="#ffffff" stroke="#ffffff"></path>
    <path id="path_8" d="M 356.59 314.55 C 356.591 318.337 356.175 322.114 355.35 325.81 C 352.24 327.81 349.03 329.73 345.75 331.49 C 348.33 325.375 349.46 318.745 349.05 312.12 Q 352.65 309.68 356.05 306.98 C 356.417 309.486 356.598 312.017 356.59 314.55 Z" fill="#ffffff" stroke="#ffffff"></path>
    <path id="path_9" d="M 355.35 325.81 C 352.788 337.293 346.386 347.567 337.206 354.926 C 328.026 362.285 316.606 366.298 304.84 366.3 L 297.6 366.3 C 297.6 362.58 300.06 358.86 304.84 358.8 C 313.568 358.687 322.078 356.046 329.337 351.2 C 336.597 346.354 342.298 339.507 345.75 331.49 C 349 329.73 352.24 327.84 355.35 325.81 Z" fill="#ffffff" stroke="#ffffff"></path>
    <path id="path_10" d="M 356 307 Q 352.61 309.7 349 312.14 C 348.604 305.881 346.883 299.776 343.953 294.23 C 341.022 288.685 336.948 283.824 332 279.97 Q 338.09 280.81 344.24 281.09 C 350.516 288.45 354.592 297.431 356 307 Z" fill="#ffffff" stroke="#ffffff"></path>
    <path id="path_11" d="M 344.3 281.07 C 336.801 272.225 326.542 266.151 315.18 263.83 C 314.84 262.73 314.47 261.64 314.07 260.55 C 321.778 263.009 329.721 264.661 337.77 265.48 C 343.944 269.696 349.287 275.015 353.53 281.17 C 350.45 281.25 347.37 281.21 344.3 281.07 Z" fill="#ffffff" stroke="#ffffff"></path>
    <path id="path_12" d="M 350.48 168.41 C 345.01 172.649 340.455 177.953 337.09 184 L 336.5 185.07 C 333.779 179.811 330.154 175.072 325.79 171.07 C 322.425 168.013 318.685 165.395 314.66 163.28 C 316.488 162.354 318.249 161.302 319.93 160.13 C 325.751 156.077 330.716 150.915 334.54 144.94 C 335.28 143.78 335.93 142.58 336.54 141.35 C 341.483 150.681 349.128 158.308 358.47 163.23 C 355.653 164.707 352.978 166.441 350.48 168.41 Z" fill="#ffffff" stroke="#ffffff"></path>
    <path id="path_13" d="M 315.18 263.83 C 326.542 266.151 336.801 272.225 344.3 281.07 Q 338.15 280.8 332.06 279.95 C 326.528 275.593 320.073 272.556 313.19 271.07 C 311.94 270.72 310.802 270.054 309.884 269.136 C 308.966 268.218 308.3 267.08 307.95 265.83 C 306.984 262.805 305.801 259.854 304.41 257 C 307.58 258.33 310.81 259.51 314.07 260.55 C 314.47 261.64 314.84 262.73 315.18 263.83 Z" fill="#ffffff" stroke="#ffffff"></path>
    <path id="path_14" d="M 322.42 261.84 L 317.18 256.6 C 318.44 256.88 319.68 257.2 320.91 257.6 C 321.44 259 322 260.4 322.42 261.84 Z" fill="#ffffff" stroke="#ffffff"></path>
    <path id="path_15" d="M 291.87 396.23 C 293.33 400.03 290.25 404.46 286.63 405.45 C 282.45 406.6 278.86 403.99 277.41 400.22 L 270 381 C 268.54 377.2 271.62 372.77 275.24 371.78 C 279.42 370.63 283.01 373.24 284.46 377.02 Z" fill="#2ea7e0"></path>
    <path id="path_16" d="M 314.07 260.55 C 310.81 259.55 307.58 258.33 304.41 257 C 299.887 247.716 293.281 239.601 285.109 233.287 C 276.936 226.974 267.415 222.632 257.29 220.6 C 255.24 217.89 253.29 215.11 251.53 212.25 C 265.461 213.538 278.743 218.764 289.816 227.316 C 300.889 235.867 309.303 247.396 314.07 260.55 Z" fill="#ffffff" stroke="#ffffff"></path>
    <path id="path_17" d="M 265.29 330.29 C 266.52 331.315 267.465 332.642 268.03 334.14 L 272.69 346.29 C 269.89 346.04 267.09 345.7 264.31 345.29 C 261.53 344.88 258.54 344.29 255.69 343.68 L 253.56 338.14 C 252.14 334.43 255.04 330.14 258.56 329 C 260.78 329.49 263 329.93 265.29 330.29 Z" fill="#2ea7e0"></path>
    <path id="path_18" d="M 255.69 343.67 C 258.54 344.3 261.42 344.84 264.31 345.28 C 267.2 345.72 269.89 346.04 272.69 346.28 Q 274.06 349.8 275.4 353.34 C 276.86 357.14 273.78 361.57 270.16 362.56 C 265.98 363.71 262.39 361.1 260.94 357.32 Z" fill="#2ea7e0"></path>
    <path id="path_19" d="M 258.8 328.91 C 259.912 328.59 261.086 328.548 262.217 328.789 C 263.349 329.029 264.405 329.545 265.29 330.29 C 263.03 329.93 260.78 329.49 258.54 328.99 Z" fill="#2ea7e0"></path>
    <path id="path_20" d="M 253.91 396.23 C 255.37 400.03 252.28 404.46 248.67 405.45 C 244.49 406.6 240.89 403.99 239.44 400.22 Q 235.77 390.62 232.07 381.01 C 230.61 377.21 233.69 372.78 237.31 371.79 C 241.49 370.64 245.08 373.25 246.53 377.03 Z" fill="#2ea7e0"></path>
    <path id="path_21" d="M 251.53 212.25 C 253.31 215.11 255.24 217.89 257.29 220.6 L 257.01 220.54 C 250.927 219.36 244.705 219.077 238.54 219.7 C 237.11 217.39 235.77 215.04 234.54 212.7 C 237.943 212.222 241.374 211.982 244.81 211.98 C 247.05 211.94 249.3 212.05 251.53 212.25 Z" fill="#ffffff" stroke="#ffffff"></path>
    <path id="path_22" d="M 247.12 204.59 C 251.308 204.684 255.484 205.096 259.61 205.82 C 287.74 210.82 310.86 231.22 320.91 257.56 C 319.68 257.2 318.44 256.88 317.18 256.56 L 322.42 261.8 C 321.95 260.36 321.42 258.93 320.91 257.52 C 326.915 259.248 332.606 261.922 337.77 265.44 C 329.721 264.621 321.778 262.969 314.07 260.51 C 309.303 247.356 300.889 235.827 289.816 227.276 C 278.743 218.724 265.461 213.498 251.53 212.21 Q 249.18 208.5 247.12 204.59 Z" fill="#ffffff" stroke="#ffffff"></path>
    <path id="path_23" d="M 247.12 204.59 Q 249.18 208.49 251.53 212.25 C 249.3 212.05 247.05 211.94 244.76 211.94 C 241.324 211.942 237.893 212.182 234.49 212.66 Q 232.68 209.27 231.07 205.81 C 236.367 204.876 241.743 204.467 247.12 204.59 Z" fill="#ffffff" stroke="#ffffff"></path>
    <path id="path_24" d="M 247.12 204.59 C 241.743 204.467 236.367 204.876 231.07 205.81 C 218.128 178.116 215.166 146.778 222.69 117.15 C 228.059 113.748 233.686 110.772 239.52 108.25 L 240.99 108.8 C 235.27 124.31 232.86 140.847 233.915 157.344 C 234.971 173.841 239.469 189.936 247.12 204.59 Z" fill="#f4ec90" stroke="#f4ec90"></path>
    <path id="path_25" d="M 232 95.29 C 237.13 93.07 245.87 96.92 243 103.76 Q 241.95 106.26 241 108.76 L 239.53 108.21 L 228.53 99.74 L 227.39 97.36 Q 229.63 96.29 232 95.29 Z" fill="#f4ec90" stroke="#f4ec90"></path>
    <path id="path_26" d="M 228.5 99.78 L 239.5 108.25 C 233.666 110.772 228.039 113.748 222.67 117.15 C 224.192 111.227 226.141 105.422 228.5 99.78 Z" fill="#f4ec90" stroke="#f4ec90"></path>
    <path id="path_27" d="M 234.49 212.66 C 235.77 215.04 237.11 217.39 238.49 219.66 C 228.761 220.663 219.366 223.772 210.958 228.769 C 202.551 233.766 195.331 240.533 189.8 248.6 C 187.96 251.31 184.67 253.08 181.33 252.05 C 178.758 251.259 176.135 250.641 173.48 250.2 Q 172.22 246.2 171.26 242.2 C 175.361 242.669 179.404 243.546 183.33 244.82 C 189.1 236.148 196.643 228.797 205.461 223.254 C 214.28 217.711 224.174 214.1 234.49 212.66 Z" fill="#ffffff" stroke="#ffffff"></path>
    <path id="path_28" d="M 230.07 334.14 L 230.56 335.43 C 229.19 334.83 227.83 334.21 226.49 333.56 C 223.98 332.35 221.49 331.04 219.11 329.67 C 219.648 329.337 220.231 329.082 220.84 328.91 C 225 327.76 228.62 330.37 230.07 334.14 Z" fill="#2ea7e0"></path>
    <path id="path_29" d="M 219.11 329.67 C 221.52 331.04 223.98 332.35 226.49 333.56 C 227.83 334.21 229.19 334.83 230.56 335.43 L 237.44 353.35 C 238.9 357.15 235.82 361.58 232.2 362.57 C 228.02 363.72 224.43 361.11 222.98 357.33 L 215.6 338.13 C 214.38 335 216.33 331.36 219.11 329.67 Z" fill="#2ea7e0"></path>
    <path id="path_30" d="M 227.36 97.4 L 228.5 99.78 C 226.148 105.423 224.206 111.228 222.69 117.15 C 197.872 132.661 179.762 156.94 171.97 185.15 C 167.622 201.303 166.864 218.213 169.75 234.69 C 164.621 234.323 159.468 234.514 154.38 235.26 C 150.186 207.497 155.015 179.107 168.154 154.292 C 181.293 129.477 202.06 109.526 227.38 97.39 Z" fill="#f4ec90" stroke="#f4ec90"></path>
    <path id="path_31" d="M 222.69 117.15 C 215.166 146.778 218.128 178.116 231.07 205.81 C 211 209.373 192.94 220.238 180.39 236.3 C 176.889 235.496 173.332 234.961 169.75 234.7 C 166.874 218.221 167.642 201.31 172 185.16 C 179.783 156.951 197.881 132.669 222.69 117.15 Z" fill="#f4ec90" stroke="#f4ec90"></path>
    <path id="path_32" d="M 216 396.23 C 217.46 400.03 214.37 404.46 210.76 405.45 C 206.58 406.6 202.98 403.99 201.53 400.22 Q 197.84 390.62 194.16 381.01 C 192.7 377.21 195.78 372.78 199.4 371.79 C 203.58 370.64 207.17 373.25 208.62 377.03 Z" fill="#2ea7e0"></path>
    <path id="path_33" d="M 199.48 353.35 C 200.94 357.15 197.86 361.58 194.24 362.57 C 190.06 363.72 186.47 361.11 185.01 357.33 Q 181.34 347.73 177.64 338.13 C 176.18 334.33 179.26 329.9 182.88 328.91 C 187.06 327.76 190.65 330.37 192.11 334.14 Q 195.79 343.74 199.48 353.35 Z" fill="#2ea7e0"></path>
    <path id="path_34" d="M 185.37 237.62 L 176.9 241.07 Q 178.58 238.61 180.39 236.3 Q 182.9 236.87 185.37 237.62 Z" fill="#ffffff" stroke="#ffffff"></path>
    <path id="path_35" d="M 231.07 205.81 Q 232.67 209.28 234.49 212.66 C 224.18 214.111 214.293 217.731 205.483 223.281 C 196.674 228.831 189.14 236.186 183.38 244.86 C 179.454 243.586 175.411 242.709 171.31 242.24 Q 170.41 238.5 169.75 234.7 C 173.332 234.961 176.889 235.496 180.39 236.3 Q 178.58 238.61 176.9 241.07 L 185.37 237.62 Q 182.89 236.87 180.37 236.3 C 192.925 220.234 210.993 209.368 231.07 205.81 Z" fill="#ffffff" stroke="#ffffff"></path>
    <path id="path_36" d="M 164.2 241.83 C 166.576 241.83 168.95 241.967 171.31 242.24 Q 172.31 246.24 173.53 250.24 C 168.207 249.34 162.782 249.202 157.42 249.83 Q 156.42 246.16 155.66 242.43 C 158.489 242.032 161.343 241.832 164.2 241.83 Z" fill="#ffffff" stroke="#ffffff"></path>
    <path id="path_37" d="M 154.38 235.27 C 159.468 234.524 164.621 234.333 169.75 234.7 Q 170.41 238.51 171.31 242.24 C 166.107 241.636 160.847 241.7 155.66 242.43 C 155.16 240.06 154.74 237.67 154.38 235.27 Z" fill="#ffffff" stroke="#ffffff"></path>
    <path id="path_38" d="M 164.2 358.8 C 168.99 358.85 171.4 362.57 171.44 366.3 L 164.2 366.3 C 148.443 366.298 133.26 360.311 121.743 349.558 C 110.225 338.806 103.21 324.07 102.126 308.35 C 101.042 292.631 105.969 277.071 115.902 264.84 C 125.835 252.608 140.052 244.595 155.66 242.43 Q 156.42 246.15 157.42 249.83 C 150.227 250.675 143.28 252.972 137 256.58 C 126.559 262.663 118.398 272.008 113.776 283.173 C 109.155 294.338 108.323 306.717 111.41 318.4 C 117.83 342.2 139.69 358.53 164.2 358.8 Z" fill="#ffffff" stroke="#ffffff"></path>
    <path id="path_39" d="M 171.44 366.3 C 171.44 370.08 169.06 373.85 164.2 373.8 C 146.638 373.681 129.731 367.042 116.78 355.18 C 93.49 333.77 88 298.05 103.12 270.4 C 108.364 260.979 115.724 252.902 124.618 246.806 C 133.513 240.711 143.701 236.761 154.38 235.27 C 154.74 237.67 155.16 240.06 155.66 242.43 C 140.052 244.595 125.835 252.608 115.902 264.84 C 105.969 277.071 101.042 292.631 102.126 308.35 C 103.21 324.07 110.225 338.806 121.743 349.558 C 133.26 360.311 148.443 366.298 164.2 366.3 Z" fill="#ffffff" stroke="#ffffff"></path>
</g></svg>