<svg xmlns="http://www.w3.org/2000/svg" viewBox="0 0 500 500" id="vector"><g transform="translate(-60 -60) scale(1.25 1.25)">
    <path id="path" d="M 306.62 148.53 C 306.23 140.71 295.62 139.72 292.48 145.53 L 291.48 145.15 C 291.33 142.35 291.02 139.59 290.6 136.86 C 296.128 138.66 301.437 141.072 306.43 144.05 C 306.54 145.56 306.61 147 306.62 148.53 Z" fill="#ababab" stroke="#ababab"></path>
    <path id="path_1" d="M 291.63 149 C 291.63 148.72 291.63 148.44 291.63 148.16 C 291.656 148.151 291.684 148.151 291.71 148.16 C 291.665 148.438 291.638 148.719 291.63 149 Z" fill="#ababab" stroke="#ababab"></path>
    <path id="path_2" d="M 329.28 244.34 C 329.28 250.21 326.946 255.845 322.795 259.995 C 318.645 264.146 313.01 266.48 307.14 266.48 L 195.75 266.48 L 215.38 258.98 L 294.65 258.98 C 300.91 258.98 309.39 260.24 314.91 256.75 C 317.23 255.27 319.092 253.171 320.285 250.691 C 321.477 248.211 321.955 245.447 321.662 242.71 C 321.37 239.974 320.32 237.372 318.63 235.2 C 312.31 227.2 301.31 228.62 295.15 235.82 C 291.01 240.63 285.05 237.7 283.15 233.05 L 289.79 230.51 C 292.653 226.92 296.562 224.308 300.974 223.038 C 305.387 221.768 310.087 221.901 314.42 223.419 C 318.753 224.937 322.509 227.766 325.164 231.512 C 327.818 235.258 329.243 239.739 329.24 244.33 Z" fill="#ffffff"></path>
    <path id="path_3" d="M 204 173.33 C 201.737 172.594 199.433 171.99 197.1 171.52 L 197.52 169.52 Q 201.77 167.81 206 166.07 L 208 167.91 C 206.59 169.67 205.27 171.47 204 173.33 Z" fill="#ababab" stroke="#ababab"></path>
    <path id="path_4" d="M 292.48 145.55 C 297.172 147.417 301.659 149.762 305.87 152.55 C 305.464 153.324 304.902 154.005 304.22 154.55 C 302.91 153.71 301.56 152.92 300.22 152.17 C 299.22 151.61 298.16 151.08 297.11 150.58 C 296.06 150.08 295.28 149.71 294.34 149.3 C 293.4 148.89 292.6 148.57 291.71 148.23 C 291.784 147.294 292.046 146.383 292.48 145.55 Z" fill="#ababab" stroke="#ababab"></path>
    <path id="path_5" d="M 129.64 203.11 C 130.44 201.83 131.29 200.57 132.2 199.34 L 132.32 199.19 C 131.43 200.57 130.61 201.98 129.84 203.42 Z" fill="#ababab" stroke="#ababab"></path>
    <path id="path_6" d="M 286 323.06 C 290.145 323.058 294.171 324.465 297.412 327.049 C 300.654 329.632 302.924 333.242 303.847 337.283 C 304.771 341.324 304.295 345.562 302.497 349.297 C 300.699 353.032 297.684 356.048 293.95 357.847 C 290.215 359.646 285.978 360.124 281.937 359.201 C 277.895 358.279 274.285 356.011 271.7 352.77 L 265.83 348.71 C 268.24 345.04 273.34 343.23 277.01 347.47 C 281.36 352.47 288.56 354.05 293.64 348.99 C 295.647 346.957 296.773 344.212 296.773 341.355 C 296.773 338.498 295.647 335.753 293.64 333.72 C 289.2 329.28 281.64 330.56 275.91 330.56 L 239.59 330.56 L 228.76 323.05 Z" fill="#ffffff"></path>
    <path id="path_7" d="M 264.27 274 L 301.45 274 C 303.8 274 306.19 274.1 308.54 274 C 314.388 273.664 320.011 271.623 324.712 268.13 C 329.414 264.637 332.991 259.842 335 254.34 C 339.64 241.67 334.63 227.2 323.54 219.7 C 311.19 211.33 294.11 214 284.54 225.24 C 283.6 226.287 282.975 227.579 282.736 228.966 C 282.498 230.352 282.655 231.779 283.19 233.08 C 285.04 237.73 291.01 240.66 295.19 235.85 C 301.35 228.65 312.34 227.26 318.67 235.23 C 320.36 237.402 321.41 240.004 321.702 242.74 C 321.995 245.477 321.517 248.241 320.325 250.721 C 319.132 253.201 317.27 255.3 314.95 256.78 C 309.44 260.27 300.95 259.01 294.69 259.01 L 195.79 259.01 C 186.14 259.01 186.12 274.01 195.79 274.01 Z M 307.43 293.58 C 307.249 291.824 306.41 290.199 305.083 289.035 C 303.755 287.87 302.035 287.25 300.27 287.3 L 211 287.3 C 209.237 287.253 207.519 287.874 206.194 289.038 C 204.868 290.202 204.031 291.825 203.85 293.58 L 192 293.58 C 191.822 291.825 190.987 290.201 189.663 289.035 C 188.34 287.869 186.623 287.246 184.86 287.29 C 160.35 287.01 138.49 270.68 132.02 246.89 C 128.767 234.712 129.828 221.776 135.02 210.29 C 137.191 205.432 140.047 200.909 143.5 196.86 C 147.507 192.152 152.294 188.168 157.65 185.08 C 170.004 178.062 184.607 176.09 198.38 179.58 C 199.62 179.87 200.86 180.22 202.08 180.58 C 205.42 181.58 208.7 179.84 210.54 177.12 C 225.19 155.59 251.96 143.98 277.69 149.02 C 282.439 149.951 287.073 151.396 291.51 153.33 C 292.38 153.71 293.24 154.11 294.08 154.51 C 294.92 154.91 296.02 155.51 296.97 156 C 300.037 157.677 302.969 159.59 305.74 161.72 C 316.489 170.007 324.464 181.373 328.6 194.3 C 328.949 195.55 329.615 196.689 330.533 197.607 C 331.451 198.525 332.59 199.191 333.84 199.54 C 335.456 199.888 337.052 200.325 338.62 200.85 C 358.62 207.45 372.13 226.96 369.44 248.57 C 366.69 270.66 347.44 286.98 325.44 287.27 C 323.683 287.24 321.977 287.867 320.658 289.028 C 319.34 290.19 318.502 291.803 318.31 293.55 Z" fill="#ababab" stroke="#ababab"></path>
    <path id="path_8" d="M 201 164.78 Q 199.17 167.09 197.5 169.54 L 197.08 171.54 C 186.615 169.436 175.782 170.057 165.626 173.343 C 155.47 176.63 146.328 182.473 139.08 190.31 C 137.76 188.03 136.56 185.69 135.47 183.31 C 143.968 174.983 154.422 168.921 165.871 165.684 C 177.319 162.446 189.4 162.136 201 164.78 Z" fill="#ababab" stroke="#ababab"></path>
    <path id="path_9" d="M 291.69 148.24 C 292.57 148.57 293.45 148.93 294.32 149.31 C 295.19 149.69 296.17 150.14 297.09 150.59 C 298.01 151.04 299.18 151.59 300.2 152.18 C 301.57 152.93 302.91 153.72 304.2 154.56 C 303.183 155.355 301.993 155.899 300.726 156.148 C 299.46 156.396 298.152 156.342 296.91 155.99 C 295.96 155.47 295 154.99 294.02 154.5 C 293.241 153.824 292.621 152.984 292.204 152.04 C 291.787 151.096 291.584 150.071 291.61 149.04 C 291.62 148.772 291.647 148.505 291.69 148.24 Z" fill="#ababab" stroke="#ababab"></path>
    <path id="path_10" d="M 211 294.77 L 203.75 294.77 C 203.751 294.361 203.784 293.953 203.85 293.55 L 307.43 293.55 C 307.487 293.954 307.517 294.362 307.52 294.77 L 211 294.77 Z" fill="#ffffff"></path>
    <path id="path_11" d="M 343.07 190.32 L 337.84 185.09 C 339.1 185.36 340.34 185.69 341.57 186.04 C 342.1 187.45 342.6 188.87 343.07 190.32 Z" fill="#ababab" stroke="#ababab"></path>
    <path id="path_12" d="M 334.22 193.22 C 329.731 179.378 321.153 167.215 309.62 158.34 C 308.54 157.51 307.44 156.71 306.31 155.95 Q 306.44 154.45 306.5 152.95 C 320.471 162.343 330.819 176.235 335.82 192.31 C 344.748 194.136 353.039 198.286 359.85 204.339 C 366.662 210.393 371.758 218.138 374.62 226.79 C 371.397 219.784 366.578 213.629 360.552 208.818 C 354.525 204.007 347.456 200.672 339.91 199.08 Q 339.59 199.02 339.26 198.92 C 337.945 198.586 336.761 197.863 335.862 196.846 C 334.963 195.83 334.391 194.566 334.22 193.22 Z" fill="#ababab" stroke="#ababab"></path>
    <path id="path_13" d="M 306.32 156 Q 305.32 155.29 304.22 154.61 C 304.902 154.065 305.464 153.384 305.87 152.61 L 306.52 153.04 Q 306.45 154.45 306.32 156 Z" fill="#ababab" stroke="#ababab"></path>
    <path id="path_14" d="M 296.93 156 C 298.172 156.352 299.48 156.406 300.746 156.158 C 302.013 155.909 303.203 155.365 304.22 154.57 Q 305.29 155.25 306.32 155.96 C 306.17 157.89 305.96 159.82 305.7 161.72 C 302.929 159.59 299.997 157.677 296.93 156 Z" fill="#ababab" stroke="#ababab"></path>
    <path id="path_15" d="M 291.5 145.17 L 292.5 145.55 C 292.054 146.383 291.782 147.299 291.7 148.24 C 291.674 148.231 291.646 148.231 291.62 148.24 C 291.6 147.2 291.56 146.17 291.5 145.17 Z" fill="#ababab" stroke="#ababab"></path>
    <path id="path_16" d="M 179.5 293.56 C 183.66 293.56 187.82 293.56 191.99 293.56 C 192.056 293.96 192.089 294.365 192.09 294.77 L 184.85 294.77 C 178.616 294.774 172.416 293.84 166.46 292 C 170.737 292.991 175.11 293.514 179.5 293.56 Z" fill="#ababab" stroke="#ababab"></path>
    <path id="path_17" d="M 125.33 196.16 C 128.203 191.469 131.634 187.144 135.55 183.28 C 136.64 185.67 137.83 188.01 139.16 190.28 C 136.614 193.029 134.325 196.005 132.32 199.17 L 132.2 199.32 C 131.28 200.55 130.43 201.81 129.64 203.09 Q 128.25 201.09 126.99 199.01 C 126.42 198.08 125.87 197.12 125.33 196.16 Z" fill="#ababab" stroke="#ababab"></path>
    <path id="path_18" d="M 306.63 149 L 306.63 149.08 C 306.63 149.22 306.63 149.35 306.63 149.49 L 306.63 149.59 C 306.578 150.594 306.322 151.577 305.88 152.48 C 301.669 149.692 297.182 147.347 292.49 145.48 C 295.59 139.65 306.24 140.64 306.63 148.48 C 306.63 148.7 306.63 148.88 306.63 149 Z" fill="#ababab" stroke="#ababab"></path>
    <path id="path_19" d="M 125.71 210.53 C 121.863 219.245 120.162 228.757 120.748 238.265 C 121.334 247.773 124.192 257.004 129.08 265.18 C 133.197 271.926 138.627 277.777 145.048 282.384 C 151.469 286.991 158.751 290.261 166.46 292 C 172.416 293.84 178.616 294.774 184.85 294.77 L 192.09 294.77 C 192.09 298.55 189.71 302.33 184.85 302.28 C 167.286 302.156 150.378 295.518 137.42 283.66 C 114.14 262.24 108.6 226.52 123.77 198.88 C 124.27 197.95 124.77 197.06 125.33 196.17 C 125.87 197.17 126.42 198.09 126.99 199.03 Q 128.25 201.11 129.64 203.11 C 128.151 205.484 126.838 207.964 125.71 210.53 Z" fill="#ababab" stroke="#ababab"></path>
    <path id="path_20" d="M 143.46 196.84 C 140.014 200.89 137.165 205.413 135 210.27 C 133.2 208.07 131.48 205.79 129.86 203.42 C 130.62 201.98 131.44 200.57 132.34 199.19 C 133.14 198.11 133.99 197.08 134.85 196.08 C 136.353 194.316 137.963 192.647 139.67 191.08 C 140.83 193.08 142.1 195 143.46 196.84 Z" fill="#ababab" stroke="#ababab"></path>
    <path id="path_21" d="M 143.46 196.84 C 142.1 194.98 140.83 193.08 139.66 191.12 C 155.2 177 177.52 172.33 198 178.64 L 198.53 178.78 L 198.34 179.56 C 184.567 176.07 169.964 178.042 157.61 185.06 C 152.254 188.148 147.467 192.132 143.46 196.84 Z" fill="#ababab" stroke="#ababab"></path>
    <path id="path_22" d="M 122.61 232.54 C 122.603 222.388 125.089 212.387 129.85 203.42 C 131.47 205.79 133.19 208.07 134.99 210.27 C 129.798 221.756 128.737 234.692 131.99 246.87 C 138.46 270.67 160.32 286.99 184.83 287.27 C 186.593 287.226 188.31 287.849 189.633 289.015 C 190.957 290.181 191.792 291.805 191.97 293.56 C 187.8 293.56 183.63 293.56 179.48 293.56 C 175.103 293.515 170.745 292.995 166.48 292.01 C 153.776 288.084 142.659 280.189 134.765 269.489 C 126.872 258.789 122.611 245.836 122.61 232.54 Z" fill="#ababab" stroke="#ababab"></path>
    <path id="path_23" d="M 341.05 292.39 C 334.65 293.65 328.19 293.55 321.55 293.55 L 318.36 293.55 C 318.552 291.803 319.39 290.19 320.708 289.028 C 322.027 287.867 323.733 287.24 325.49 287.27 C 347.49 286.98 366.7 270.65 369.49 248.57 C 372.18 226.97 358.62 207.45 338.67 200.85 L 339.33 198.91 Q 339.65 199.01 339.98 199.07 C 347.526 200.662 354.595 203.997 360.622 208.808 C 366.648 213.619 371.467 219.774 374.69 226.78 C 377.559 235.483 378.067 244.794 376.163 253.757 C 374.258 262.721 370.009 271.021 363.849 277.805 C 357.69 284.59 349.838 289.62 341.1 292.38 Z" fill="#ababab" stroke="#ababab"></path>
    <path id="path_24" d="M 211 294.77 L 307.51 294.77 C 307.51 298.52 305.1 302.28 300.26 302.28 L 211 302.28 C 206.16 302.28 203.75 298.52 203.75 294.77 Z" fill="#ffffff"></path>
    <path id="path_25" d="M 198.53 178.78 C 201.93 179.56 205.23 177.71 207.12 174.94 C 222.89 151.74 251.72 139.25 279.43 144.68 C 283.586 145.494 287.662 146.675 291.61 148.21 C 291.61 148.49 291.61 148.77 291.61 149.05 C 291.61 150.48 291.53 151.9 291.45 153.33 C 287.024 151.391 282.4 149.939 277.66 149 C 251.92 144 225.15 155.57 210.51 177.1 C 208.67 179.81 205.38 181.58 202.05 180.56 C 200.82 180.18 199.58 179.84 198.35 179.56 Z" fill="#ababab" stroke="#ababab"></path>
    <path id="path_26" d="M 305.87 152.52 C 306.312 151.617 306.568 150.634 306.62 149.63 C 306.62 150.74 306.57 151.85 306.51 152.95 Z" fill="#ababab" stroke="#ababab"></path>
    <path id="path_27" d="M 341.05 292.39 C 336.016 293.975 330.768 294.778 325.49 294.77 L 318.25 294.77 C 318.254 294.361 318.291 293.953 318.36 293.55 L 321.55 293.55 C 328.19 293.56 334.66 293.65 341.05 292.39 Z" fill="#ababab" stroke="#ababab"></path>
    <path id="path_28" d="M 325.49 294.77 C 330.768 294.778 336.016 293.975 341.05 292.39 C 343.478 291.935 345.861 291.266 348.17 290.39 C 367.53 282.98 379.64 263.39 378.52 242.82 C 378.215 237.295 376.9 231.871 374.64 226.82 C 371.778 218.168 366.682 210.423 359.87 204.369 C 353.059 198.316 344.768 194.166 335.84 192.34 C 330.839 176.265 320.491 162.373 306.52 152.98 C 306.57 151.88 306.62 150.77 306.63 149.66 L 306.63 149.56 C 306.63 149.43 306.63 149.29 306.63 149.15 L 306.63 149 C 306.63 148.83 306.63 148.66 306.63 148.48 C 306.63 146.99 306.54 145.48 306.46 144.02 C 322.537 153.687 334.906 168.484 341.57 186.02 C 340.34 185.68 339.1 185.34 337.84 185.07 L 343.07 190.3 C 342.61 188.86 342.07 187.44 341.56 186.01 C 368.99 193.89 387.83 221.16 384.29 249.91 C 382.465 264.262 375.502 277.479 364.696 287.099 C 353.89 296.72 339.957 302.107 325.49 302.26 C 320.62 302.32 318.21 298.53 318.25 294.75 Z" fill="#ababab" stroke="#ababab"></path>
    <path id="path_29" d="M 122.61 232.54 C 122.612 245.832 126.871 258.781 134.76 269.479 C 142.65 280.176 153.762 288.071 166.46 292 C 158.751 290.261 151.469 286.991 145.048 282.384 C 138.627 277.777 133.197 271.926 129.08 265.18 C 124.192 257.004 121.334 247.773 120.748 238.265 C 120.162 228.757 121.863 219.245 125.71 210.53 C 126.838 207.964 128.151 205.484 129.64 203.11 L 129.84 203.42 C 125.082 212.388 122.6 222.388 122.61 232.54 Z" fill="#ababab" stroke="#ababab"></path>
    <path id="path_30" d="M 307.14 266.48 C 312.148 266.47 317.007 264.761 320.919 261.634 C 324.831 258.507 327.568 254.143 328.681 249.261 C 329.794 244.378 329.218 239.259 327.048 234.746 C 324.878 230.233 321.239 226.586 316.731 224.407 C 312.222 222.227 307.104 221.641 302.219 222.744 C 297.334 223.846 292.965 226.575 289.83 230.48 L 283.19 233.02 C 282.655 231.719 282.498 230.292 282.736 228.906 C 282.975 227.519 283.6 226.227 284.54 225.18 C 294.15 213.95 311.22 211.28 323.54 219.64 C 334.63 227.15 339.64 241.64 335 254.28 C 332.979 259.775 329.394 264.56 324.687 268.043 C 319.98 271.525 314.356 273.555 308.51 273.88 C 306.16 274.02 303.77 273.88 301.42 273.88 L 195.75 273.88 C 186.08 273.88 186.1 258.88 195.75 258.88 L 215.38 258.88 L 195.75 266.38 Z" fill="#ffffff"></path>
    <path id="path_31" d="M 341.05 292.39 C 349.788 289.63 357.64 284.6 363.799 277.815 C 369.959 271.031 374.208 262.731 376.113 253.767 C 378.017 244.804 377.509 235.493 374.64 226.79 C 376.9 231.841 378.215 237.265 378.52 242.79 C 379.64 263.32 367.52 282.95 348.17 290.36 C 345.862 291.246 343.479 291.926 341.05 292.39 Z" fill="#ababab" stroke="#ababab"></path>
    <path id="path_32" d="M 291.47 153.32 C 291.56 151.9 291.62 150.48 291.63 149.04 C 291.604 150.071 291.807 151.096 292.224 152.04 C 292.641 152.984 293.261 153.824 294.04 154.5 C 293.21 154.1 292.34 153.7 291.47 153.32 Z" fill="#ababab" stroke="#ababab"></path>
    <path id="path_33" d="M 139.65 191.12 C 137.943 192.687 136.333 194.356 134.83 196.12 C 133.97 197.12 133.12 198.12 132.32 199.23 C 134.325 196.065 136.614 193.089 139.16 190.34 Z" fill="#ababab" stroke="#ababab"></path>
    <path id="path_34" d="M 300.27 287.28 C 302.035 287.23 303.755 287.85 305.083 289.015 C 306.41 290.179 307.249 291.804 307.43 293.56 L 203.86 293.56 C 204.041 291.805 204.878 290.182 206.204 289.018 C 207.529 287.854 209.247 287.233 211.01 287.28 L 300.27 287.28 Z" fill="#ffffff"></path>
    <path id="path_35" d="M 304.25 341.36 C 304.25 338.148 303.404 334.992 301.798 332.21 C 300.192 329.428 297.882 327.118 295.1 325.512 C 292.318 323.906 289.162 323.06 285.95 323.06 L 228.75 323.06 L 239.58 330.57 L 228.76 330.57 C 219.09 330.57 219.11 315.57 228.76 315.57 L 277.39 315.57 C 284.72 315.57 291.91 315.16 298.6 318.88 C 312.08 326.35 315.73 344.76 306.46 356.88 C 303.313 360.928 299.038 363.957 294.175 365.583 C 289.313 367.208 284.076 367.36 279.127 366.018 C 274.178 364.676 269.735 361.9 266.36 358.04 C 265.22 356.773 264.542 355.156 264.439 353.455 C 264.335 351.753 264.812 350.066 265.79 348.67 L 271.66 352.73 C 274.026 355.693 277.256 357.849 280.9 358.897 C 284.545 359.946 288.426 359.836 292.005 358.583 C 295.585 357.331 298.687 354.996 300.882 351.904 C 303.078 348.811 304.258 345.112 304.26 341.32 Z" fill="#ffffff"></path>
    <path id="path_36" d="M 201 164.78 C 202.66 165.16 204.33 165.59 206 166.09 Q 201.77 167.82 197.52 169.54 Q 199.23 167.09 201 164.78 Z" fill="#ababab" stroke="#ababab"></path>
    <path id="path_37" d="M 290.62 136.88 C 291.04 139.62 291.35 142.37 291.5 145.17 C 276.96 139.682 261.051 138.928 246.058 143.016 C 231.065 147.105 217.741 155.831 208 167.94 L 206 166.1 C 204.35 165.59 202.68 165.16 201 164.79 C 210.182 152.987 222.412 143.909 236.368 138.537 C 250.324 133.165 265.484 131.7 280.21 134.3 C 283.735 134.92 287.213 135.782 290.62 136.88 Z" fill="#ababab" stroke="#ababab"></path>
    <path id="path_38" d="M 197.13 171.52 C 199.463 171.99 201.767 172.594 204.03 173.33 C 205.27 171.47 206.59 169.67 208.03 167.93 C 217.772 155.816 231.099 147.088 246.097 142.999 C 261.095 138.91 277.008 139.667 291.55 145.16 C 291.6 146.16 291.65 147.16 291.66 148.16 C 287.712 146.625 283.636 145.444 279.48 144.63 C 251.77 139.2 222.93 151.69 207.17 174.89 C 205.27 177.67 201.98 179.51 198.58 178.73 L 198.05 178.59 C 177.57 172.28 155.25 176.91 139.7 191.07 L 139.2 190.24 C 146.448 182.403 155.59 176.56 165.746 173.273 C 175.902 169.987 186.735 169.366 197.2 171.47 Z" fill="#ababab" stroke="#ababab"></path>
    <path id="path_39" d="M 306.62 149.53 C 306.62 149.39 306.62 149.26 306.62 149.12 C 306.63 149.26 306.63 149.4 306.62 149.53 Z" fill="#ababab" stroke="#ababab"></path>
    <path id="path_40" d="M 339.29 198.92 L 338.63 200.86 C 337.062 200.335 335.466 199.898 333.85 199.55 C 332.6 199.201 331.461 198.535 330.543 197.617 C 329.625 196.699 328.959 195.56 328.61 194.31 C 324.462 181.373 316.469 170.002 305.7 161.72 C 305.97 159.81 306.17 157.89 306.32 155.96 C 307.45 156.72 308.55 157.52 309.63 158.35 C 321.163 167.225 329.741 179.388 334.23 193.23 C 334.404 194.577 334.98 195.84 335.883 196.855 C 336.785 197.87 337.973 198.59 339.29 198.92 Z" fill="#ababab" stroke="#ababab"></path>
</g></svg>