<svg xmlns="http://www.w3.org/2000/svg" viewBox="0 0 500 500" id="vector"><g transform="translate(-60 -60) scale(1.25 1.25)">
    <path id="path" d="M 233.5 115.74 C 231.151 121.384 229.209 127.189 227.69 133.11 C 233.06 129.71 238.687 126.735 244.52 124.21 Z" fill="#f4ec90" stroke="#f4ec90"></path>
    <path id="path_1" d="M 295.5 266 C 298.627 270.852 301.111 276.089 302.89 281.58 C 303.071 282.936 303.684 284.198 304.639 285.178 C 305.593 286.158 306.839 286.804 308.19 287.02 C 313.611 288.194 318.782 290.32 323.46 293.3 C 329.375 296.972 334.327 302.006 337.9 307.982 C 341.473 313.957 343.565 320.701 344 327.65 C 344.119 329.854 344.072 332.063 343.86 334.26 C 343.218 341.128 341.019 347.76 337.43 353.65 C 332.441 361.933 324.836 368.327 315.82 371.82 C 307.7 374.93 299.56 374.77 291.1 374.77 L 175.66 374.77 C 170.17 374.77 164.66 374.82 159.2 374.77 C 145.596 374.767 132.468 369.695 122.396 360.55 C 112.324 351.406 106.011 338.828 104.698 325.287 C 103.385 311.746 107.163 298.19 115.29 287.28 C 126.48 272.21 144.29 264.63 162.36 265.57 C 167.111 265.824 171.813 266.66 176.36 268.06 C 177.276 268.338 178.241 268.416 179.19 268.29 C 180.335 268.105 181.429 267.682 182.4 267.048 C 183.371 266.414 184.199 265.583 184.83 264.61 C 191.294 255.16 200.069 247.519 210.318 242.415 C 220.567 237.312 231.953 234.914 243.39 235.45 C 246.278 235.605 249.151 235.959 251.99 236.51 C 260.851 238.25 269.272 241.759 276.747 246.825 C 284.223 251.892 290.601 258.414 295.5 266 Z" fill="#ffffff" stroke="#ffffff"></path>
    <path id="path_2" d="M 409.51 283.83 Q 408.51 286.16 407.41 288.43 L 405 287.27 L 396.53 276.27 L 395.97 274.79 C 397.66 274.17 399.34 273.52 400.97 272.79 C 407.86 270 411.71 278.74 409.51 283.83 Z" fill="#f4ec90" stroke="#f4ec90"></path>
    <path id="path_3" d="M 405 287.27 L 407.38 288.43 C 396.374 311.152 379.099 330.263 357.6 343.5 C 358.69 338.774 359.173 333.928 359.04 329.08 C 359.04 327.61 358.9 326.15 358.75 324.7 C 370.202 315.983 379.989 305.271 387.64 293.08 C 393.559 291.564 399.361 289.622 405 287.27 Z" fill="#f4ec90" stroke="#f4ec90"></path>
    <path id="path_4" d="M 396.56 276.26 L 405.03 287.26 C 399.391 289.612 393.589 291.554 387.67 293.07 C 391.06 287.703 394.032 282.083 396.56 276.26 Z" fill="#f4ec90" stroke="#f4ec90"></path>
    <path id="path_5" d="M 359.07 329.08 C 359.203 333.928 358.72 338.774 357.63 343.5 Q 353.07 346.31 348.28 348.74 C 350.475 342.917 351.597 336.743 351.59 330.52 C 351.59 330.26 351.59 330 351.59 329.73 C 354.05 328.15 356.46 326.47 358.79 324.73 C 358.93 326.15 359 327.61 359.07 329.08 Z" fill="#ffffff" stroke="#ffffff"></path>
    <path id="path_6" d="M 358.78 324.7 C 356.45 326.47 354.04 328.15 351.58 329.7 C 351.404 317.296 346.762 305.362 338.51 296.1 Q 343.51 296.73 348.51 296.99 C 354.22 305.21 357.753 314.745 358.78 324.7 Z" fill="#ffffff" stroke="#ffffff"></path>
    <path id="path_7" d="M 387.67 293.08 C 380.019 305.271 370.232 315.983 358.78 324.7 C 357.746 314.746 354.205 305.215 348.49 297 C 361.673 297.685 374.884 296.363 387.67 293.08 Z" fill="#f4ec90" stroke="#f4ec90"></path>
    <path id="path_8" d="M 351.59 330.52 C 351.597 336.743 350.475 342.917 348.28 348.74 Q 342.99 351.44 337.45 353.65 C 341.039 347.76 343.238 341.128 343.88 334.26 Q 347.82 332.14 351.58 329.73 C 351.58 330 351.59 330.26 351.59 330.52 Z" fill="#ffffff" stroke="#ffffff"></path>
    <path id="path_9" d="M 338.51 296.13 C 346.762 305.392 351.404 317.326 351.58 329.73 Q 347.83 332.15 343.88 334.26 C 344.092 332.063 344.139 329.854 344.02 327.65 C 343.579 320.703 341.483 313.961 337.907 307.99 C 334.33 302.018 329.376 296.987 323.46 293.32 C 328.418 294.546 333.443 295.484 338.51 296.13 Z" fill="#ffffff" stroke="#ffffff"></path>
    <path id="path_10" d="M 341.56 157.33 C 346.506 166.656 354.15 174.279 363.49 179.2 C 354.498 183.92 347.064 191.146 342.09 200 L 341.5 201.07 C 338.779 195.811 335.154 191.072 330.79 187.07 C 327.425 184.013 323.685 181.395 319.66 179.28 C 321.488 178.354 323.249 177.302 324.93 176.13 C 330.754 172.08 335.719 166.917 339.54 160.94 C 340.28 159.75 340.94 158.55 341.56 157.33 Z" fill="#ffffff" stroke="#ffffff"></path>
    <path id="path_11" d="M 316.72 275.76 C 320.881 277.177 325.118 278.362 329.41 279.31 C 336.981 283.748 343.493 289.786 348.49 297 Q 343.49 296.74 338.49 296.11 C 332.792 289.716 325.602 284.827 317.56 281.88 C 317.908 280.53 317.852 279.108 317.4 277.79 C 317.2 277.12 317 276.44 316.72 275.76 Z" fill="#ffffff" stroke="#ffffff"></path>
    <path id="path_12" d="M 329.41 279.31 C 351.582 284.178 374.691 282.606 396 274.78 L 396.56 276.26 C 394.032 282.086 391.06 287.71 387.67 293.08 C 374.884 296.363 361.673 297.685 348.49 297 C 343.493 289.786 336.981 283.748 329.41 279.31 Z" fill="#f4ec90" stroke="#f4ec90"></path>
    <path id="path_13" d="M 329.41 279.31 C 325.118 278.362 320.881 277.177 316.72 275.76 C 316.46 275.01 316.19 274.27 315.9 273.52 C 320.627 274.879 325.166 276.824 329.41 279.31 Z" fill="#ffffff" stroke="#ffffff"></path>
    <path id="path_14" d="M 252.62 221.48 C 253.28 221.58 253.94 221.67 254.62 221.79 C 282.75 226.74 305.87 247.19 315.91 273.52 C 314.69 273.17 313.45 272.85 312.19 272.57 C 310.993 272.299 309.749 272.316 308.56 272.62 C 308.13 272.44 307.72 272.24 307.3 272.06 C 302.782 261.758 295.97 252.624 287.385 245.356 C 278.799 238.087 268.666 232.876 257.76 230.12 Q 255 225.89 252.62 221.48 Z" fill="#ffffff" stroke="#ffffff"></path>
    <path id="path_15" d="M 308.55 272.62 C 309.739 272.316 310.983 272.299 312.18 272.57 C 313.44 272.85 314.68 273.17 315.9 273.52 C 316.19 274.27 316.46 275.01 316.72 275.76 Q 312.58 274.35 308.55 272.62 Z" fill="#ffffff" stroke="#ffffff"></path>
    <path id="path_16" d="M 307.65 272.92 C 307.943 272.799 308.243 272.699 308.55 272.62 Q 312.55 274.34 316.72 275.76 C 316.96 276.44 317.2 277.12 317.42 277.81 C 317.872 279.128 317.928 280.55 317.58 281.9 C 315.169 281.018 312.696 280.319 310.18 279.81 C 309.458 277.471 308.614 275.171 307.65 272.92 Z" fill="#ffffff" stroke="#ffffff"></path>
    <path id="path_17" d="M 307.29 272.06 C 307.71 272.24 308.12 272.44 308.55 272.62 C 308.243 272.699 307.943 272.799 307.65 272.92 C 307.53 272.63 307.42 272.34 307.29 272.06 Z" fill="#ffffff" stroke="#ffffff"></path>
    <path id="path_18" d="M 302.89 281.6 C 302.646 279.834 302.977 278.036 303.834 276.473 C 304.691 274.91 306.03 273.664 307.65 272.92 C 308.614 275.171 309.458 277.471 310.18 279.81 C 312.696 280.319 315.169 281.018 317.58 281.9 C 315.9 287.97 305.4 289.45 302.95 281.8 Z" fill="#ffffff" stroke="#ffffff"></path>
    <path id="path_19" d="M 303 281.8 C 305.45 289.45 315.95 287.97 317.63 281.9 C 325.672 284.847 332.862 289.736 338.56 296.13 C 333.493 295.484 328.468 294.546 323.51 293.32 C 318.819 290.321 313.631 288.18 308.19 287 C 306.839 286.784 305.593 286.138 304.639 285.158 C 303.684 284.178 303.071 282.916 302.89 281.56 Z" fill="#ffffff" stroke="#ffffff"></path>
    <path id="path_20" d="M 307.29 272.06 C 307.42 272.34 307.53 272.63 307.65 272.92 C 306.03 273.664 304.691 274.91 303.834 276.473 C 302.977 278.036 302.646 279.834 302.89 281.6 C 301.112 276.102 298.628 270.858 295.5 266 C 299.311 268.243 303.248 270.267 307.29 272.06 Z" fill="#ffffff" stroke="#ffffff"></path>
    <path id="path_21" d="M 257.75 230.12 C 268.656 232.876 278.789 238.087 287.375 245.356 C 295.96 252.624 302.772 261.758 307.29 272.06 C 303.249 270.286 299.313 268.283 295.5 266.06 C 288.258 254.831 277.828 246.013 265.55 240.74 C 262.751 237.351 260.147 233.805 257.75 230.12 Z" fill="#ffffff" stroke="#ffffff"></path>
    <path id="path_22" d="M 237 111.26 C 242.13 109.05 250.87 112.89 248 119.73 C 247.3 121.4 246.65 123.08 246 124.73 L 244.53 124.18 L 233.53 115.71 L 232.39 113.33 Q 234.63 112.26 237 111.26 Z" fill="#f4ec90" stroke="#f4ec90"></path>
    <path id="path_23" d="M 244.52 124.22 L 245.99 124.77 C 240.209 140.445 237.811 157.167 238.954 173.835 C 240.097 190.502 244.754 206.741 252.62 221.48 C 246.976 220.623 241.259 220.355 235.56 220.68 C 223.042 193.248 220.265 162.345 227.69 133.12 C 233.06 129.72 238.687 126.744 244.52 124.22 Z" fill="#f4ec90" stroke="#f4ec90"></path>
    <path id="path_24" d="M 239.76 227.91 C 245.828 227.902 251.874 228.644 257.76 230.12 C 260.158 233.791 262.762 237.324 265.56 240.7 C 261.201 238.826 256.656 237.422 252 236.51 C 249.161 235.959 246.288 235.605 243.4 235.45 Q 241.12 231.75 239.09 227.92 Z" fill="#ffffff" stroke="#ffffff"></path>
    <path id="path_25" d="M 178.38 260.83 C 185.036 250.796 194.053 242.547 204.639 236.809 C 215.225 231.072 227.06 228.019 239.1 227.92 Q 241.1 231.75 243.41 235.45 C 231.973 234.914 220.587 237.312 210.338 242.415 C 200.089 247.519 191.314 255.16 184.85 264.61 C 184.219 265.583 183.391 266.414 182.42 267.048 C 181.449 267.682 180.355 268.105 179.21 268.29 C 178.33 265.68 177.54 263.03 176.85 260.36 C 177.36 260.51 177.87 260.66 178.38 260.83 Z" fill="#ffffff" stroke="#ffffff"></path>
    <path id="path_26" d="M 235.56 220.68 C 241.259 220.355 246.976 220.623 252.62 221.48 Q 254.99 225.89 257.75 230.12 C 251.864 228.644 245.818 227.902 239.75 227.91 L 239.09 227.91 C 237.84 225.54 236.67 223.12 235.56 220.68 Z" fill="#ffffff" stroke="#ffffff"></path>
    <path id="path_27" d="M 235.56 220.68 C 236.67 223.12 237.84 225.54 239.1 227.92 C 227.06 228.019 215.225 231.072 204.639 236.809 C 194.053 242.547 185.036 250.796 178.38 260.83 C 177.87 260.66 177.38 260.51 176.85 260.36 Q 176.22 257.94 175.69 255.5 L 180.37 253.59 C 178.72 253.09 177.07 252.65 175.37 252.26 C 182.583 243.022 191.682 235.427 202.061 229.981 C 212.439 224.536 223.86 221.365 235.56 220.68 Z" fill="#ffffff" stroke="#ffffff"></path>
    <path id="path_28" d="M 232.36 113.37 L 233.5 115.75 C 231.148 121.393 229.206 127.198 227.69 133.12 C 202.872 148.631 184.762 172.91 176.97 201.12 C 172.497 217.757 171.831 235.19 175.02 252.12 C 169.848 250.952 164.562 250.368 159.26 250.38 C 155.255 222.73 160.188 194.511 173.335 169.859 C 186.482 145.207 207.168 125.389 232.36 113.31 Z" fill="#f4ec90" stroke="#f4ec90"></path>
    <path id="path_29" d="M 235.56 220.68 C 223.865 221.369 212.45 224.542 202.077 229.987 C 191.704 235.433 182.609 243.026 175.4 252.26 L 175.02 252.18 C 171.831 235.25 172.497 217.817 176.97 201.18 C 184.762 172.97 202.872 148.691 227.69 133.18 C 220.279 162.386 223.056 193.265 235.56 220.68 Z" fill="#f4ec90" stroke="#f4ec90"></path>
    <path id="path_30" d="M 176.85 260.36 C 177.54 263.03 178.33 265.68 179.21 268.29 C 178.261 268.416 177.296 268.338 176.38 268.06 C 171.833 266.66 167.131 265.824 162.38 265.57 Q 161.38 261.73 160.56 257.83 C 166.078 257.947 171.556 258.798 176.85 260.36 Z" fill="#ffffff" stroke="#ffffff"></path>
    <path id="path_31" d="M 175.4 252.26 C 177.07 252.65 178.72 253.09 180.4 253.59 L 175.72 255.5 C 175.51 254.5 175.32 253.6 175.14 252.65 Z" fill="#ffffff" stroke="#ffffff"></path>
    <path id="path_32" d="M 175.11 252.65 C 175.29 253.65 175.48 254.55 175.69 255.5 L 171.9 257 Q 173.45 254.77 175.11 252.65 Z" fill="#ffffff" stroke="#ffffff"></path>
    <path id="path_33" d="M 175.11 252.65 L 175.02 252.18 L 175.4 252.26 Z" fill="#ffffff" stroke="#ffffff"></path>
    <path id="path_34" d="M 175.11 252.65 Q 173.44 254.78 171.9 257.04 L 175.69 255.5 Q 176.21 257.94 176.85 260.36 C 171.55 258.796 166.065 257.945 160.54 257.83 C 160.05 255.38 159.62 252.91 159.26 250.44 C 164.555 250.43 169.835 251.013 175 252.18 Z" fill="#ffffff" stroke="#ffffff"></path>
    <path id="path_35" d="M 97 320 C 97.008 303.512 103.568 287.685 115.227 276.027 C 126.885 264.368 142.712 257.808 159.2 257.8 C 159.65 257.8 160.09 257.8 160.54 257.8 Q 161.33 261.7 162.36 265.54 C 144.36 264.6 126.48 272.18 115.29 287.25 C 107.163 298.16 103.385 311.716 104.698 325.257 C 106.011 338.798 112.324 351.376 122.396 360.52 C 132.468 369.665 145.596 374.737 159.2 374.74 C 164.69 374.79 170.2 374.74 175.66 374.74 L 291.12 374.74 C 299.58 374.74 307.72 374.9 315.84 371.79 C 324.856 368.297 332.461 361.903 337.45 353.62 Q 342.99 351.42 348.28 348.71 C 344.575 358.561 337.951 367.051 329.297 373.041 C 320.643 379.031 310.365 382.241 299.84 382.24 L 159.2 382.24 C 142.705 382.232 126.872 375.666 115.213 363.999 C 103.553 352.332 96.997 336.495 97 320 Z" fill="#ffffff" stroke="#ffffff"></path>
    <path id="path_36" d="M 97 320 C 97 330.924 99.876 341.658 105.339 351.118 C 110.801 360.578 118.66 368.435 128.121 373.896 C 137.582 379.357 148.316 382.232 159.24 382.23 L 299.84 382.23 C 310.365 382.231 320.643 379.021 329.297 373.031 C 337.951 367.041 344.575 358.551 348.28 348.7 Q 353.07 346.27 357.63 343.46 C 355.278 353.489 350.394 362.751 343.446 370.357 C 336.499 377.962 327.716 383.662 317.94 386.91 C 308.46 390.01 298.75 389.73 288.94 389.73 L 165.51 389.73 C 152.84 389.73 140.75 388.34 129.06 382.87 C 119.006 378.043 110.255 370.875 103.542 361.969 C 96.83 353.062 92.35 342.675 90.48 331.68 C 86.81 308.87 94.36 285.22 111.3 269.32 C 124.311 257.149 141.483 250.38 159.3 250.4 C 159.66 252.87 160.09 255.34 160.58 257.79 C 160.13 257.79 159.69 257.79 159.24 257.79 C 142.744 257.787 126.905 264.344 115.237 276.006 C 103.57 287.668 97.005 303.504 97 320 Z" fill="#ffffff" stroke="#ffffff"></path>
</g></svg>