<svg xmlns="http://www.w3.org/2000/svg" viewBox="0 0 500 500" id="vector"><g transform="translate(-60 -60) scale(1.25 1.25)">
    <path id="path" d="M 320.17 298.35 C 329.18 283.323 333.109 265.783 331.369 248.347 C 329.63 230.912 322.313 214.494 310.511 201.544 C 298.709 188.593 283.039 179.787 265.84 176.44 C 232.56 169.7 197.61 185.35 180.08 214.3 C 172.503 226.99 168.459 241.48 168.367 256.259 C 168.276 271.039 172.141 285.577 179.56 298.36 L 320.17 298.36 Z" fill="#f8b62d"></path>
    <path id="path_1" d="M 331.77 256.69 C 331.63 271.353 327.628 285.724 320.17 298.35 L 337 298.35 C 343.3 285.358 346.641 271.128 346.78 256.69 C 346.84 266.36 331.84 266.34 331.77 256.69 Z" fill="#f8b62d"></path>
    <path id="path_2" d="M 180.07 214.3 C 197.61 185.35 232.55 169.7 265.83 176.44 C 284.334 180.265 300.979 190.32 312.974 204.918 C 324.97 219.517 331.606 237.796 331.77 256.69 C 331.84 247.03 346.84 247.04 346.77 256.69 C 346.599 236.813 340.384 217.45 328.954 201.187 C 317.525 184.923 301.414 172.516 282.77 165.62 C 245 151.8 200.82 164 175.45 195.05 C 151.76 224.05 146.71 264.8 162.66 298.35 L 179.54 298.35 C 172.124 285.567 168.262 271.03 168.355 256.253 C 168.448 241.475 172.494 226.988 180.07 214.3 Z" fill="#f8b62d"></path>
    <path id="path_3" d="M 331.77 256.69 C 331.84 266.34 346.84 266.36 346.77 256.69 C 346.7 247.02 331.84 247 331.77 256.69 Z" fill="#f8b62d"></path>
    <path id="path_4" d="M 242.5 98.18 L 242.5 131.83 C 242.5 141.48 257.5 141.5 257.5 131.83 L 257.5 98.18 C 257.5 88.53 242.5 88.51 242.5 98.18 Z M 250 131.83 L 250 131.83 Z" fill="#f8b62d"></path>
    <path id="path_5" d="M 164.27 123.2 L 181.1 152.35 C 185.93 160.71 198.89 153.16 194.1 144.78 L 177.27 115.63 C 172.4 107.28 159.43 114.82 164.27 123.2 Z M 170.75 119.41 L 187.58 148.56 Z" fill="#f8b62d"></path>
    <path id="path_6" d="M 116.51 171 C 108.14 166.16 100.57 179.12 108.94 184 L 138.09 200.83 C 146.47 205.67 154.03 192.71 145.66 187.83 Z M 112.72 177.48 L 141.87 194.31 Z" fill="#f8b62d"></path>
    <path id="path_7" d="M 91.49 264.19 L 125.14 264.19 C 134.79 264.19 134.81 249.19 125.14 249.19 L 91.49 249.19 C 81.84 249.19 81.82 264.19 91.49 264.19 Z M 125.14 256.69 L 125.14 256.69 Z" fill="#f8b62d"></path>
    <path id="path_8" d="M 408.51 249.19 L 374.86 249.19 C 365.21 249.19 365.19 264.19 374.86 264.19 L 408.51 264.19 C 418.16 264.19 418.18 249.19 408.51 249.19 Z M 374.86 256.69 L 374.86 256.69 Z" fill="#f8b62d"></path>
    <path id="path_9" d="M 383.49 171 L 354.34 187.83 C 345.98 192.66 353.53 205.62 361.91 200.83 L 391.06 184 C 399.42 179.09 391.87 166.12 383.49 171 Z M 358.13 194.3 L 387.28 177.47 Z" fill="#f8b62d"></path>
    <path id="path_10" d="M 322.78 115.63 L 306 144.78 C 301.16 153.16 314.12 160.72 319 152.35 L 335.83 123.2 C 340.57 114.83 327.61 107.27 322.78 115.63 Z M 312.43 148.56 L 329.26 119.41 Z" fill="#f8b62d"></path>
    <path id="path_11" d="M 407.32 298.35 L 337 298.35 Q 335.15 302.19 333 305.85 L 372.7 305.85 L 372.7 313.35 L 407.32 313.35 C 417 313.35 417 298.35 407.32 298.35 Z" fill="#ffffff"></path>
    <path id="path_12" d="M 92.68 305.85 L 166.68 305.85 Q 164.5 302.17 162.68 298.35 L 92.68 298.35 C 83.03 298.35 83.01 313.35 92.68 313.35 L 127.3 313.35 L 127.3 305.85 Z" fill="#ffffff"></path>
    <path id="path_13" d="M 320.17 298.35 L 179.55 298.35 C 181.069 300.945 182.739 303.45 184.55 305.85 L 315.15 305.85 C 316.957 303.442 318.633 300.938 320.17 298.35 Z" fill="#ffffff"></path>
    <path id="path_14" d="M 184.59 305.85 C 182.779 303.45 181.109 300.945 179.59 298.35 L 162.66 298.35 Q 164.47 302.17 166.66 305.85 Z" fill="#ffffff"></path>
    <path id="path_15" d="M 315.18 305.85 L 333 305.85 Q 335.17 302.19 337 298.35 L 320.17 298.35 C 318.643 300.938 316.977 303.441 315.18 305.85 Z" fill="#ffffff"></path>
    <path id="path_16" d="M 167.12 306.66 C 166.96 306.39 166.81 306.12 166.65 305.85 L 127.3 305.85 L 127.3 313.35 L 171.58 313.35 C 170 311.2 168.52 309 167.12 306.66 Z" fill="#ffffff"></path>
    <path id="path_17" d="M 191.09 313.35 L 308.87 313.35 C 311.12 310.977 313.227 308.473 315.18 305.85 L 184.59 305.85 Q 185.51 307.06 186.48 308.23 Q 188.68 310.91 191.09 313.35 Z" fill="#ffffff"></path>
    <path id="path_18" d="M 333 305.85 Q 330.71 309.71 328.09 313.35 L 372.7 313.35 L 372.7 305.85 Z" fill="#ffffff"></path>
    <path id="path_19" d="M 308.87 313.35 L 328 313.35 Q 330.62 309.71 332.91 305.85 L 315.18 305.85 C 313.227 308.473 311.12 310.977 308.87 313.35 Z" fill="#ffffff"></path>
    <path id="path_20" d="M 186.47 308.23 Q 185.47 307.06 184.58 305.85 L 166.65 305.85 C 166.81 306.12 166.96 306.39 167.12 306.66 C 168.52 308.97 170.01 311.2 171.58 313.35 L 191.09 313.35 Q 188.69 310.9 186.47 308.23 Z" fill="#ffffff"></path>
    <path id="path_21" d="M 375.15 346 L 372.7 346 L 372.7 353.5 L 375.15 353.5 C 384.8 353.5 384.82 338.5 375.15 338.5 L 372.7 338.5 L 372.7 346 Z" fill="#ffffff"></path>
    <path id="path_22" d="M 124.85 346 L 127.3 346 L 127.3 338.5 L 124.85 338.5 C 115.2 338.5 115.18 353.5 124.85 353.5 L 127.3 353.5 L 127.3 346 Z" fill="#ffffff"></path>
    <path id="path_23" d="M 202.89 351.26 L 205.19 353.46 L 208.19 353.46 Z" fill="#ffffff"></path>
    <path id="path_24" d="M 301.91 338.27 C 297.306 341.267 292.447 343.853 287.39 346 L 372.7 346 L 372.7 338.5 L 313.41 338.5 C 309.61 338.46 305.76 338.32 301.91 338.27 Z" fill="#ffffff"></path>
    <path id="path_25" d="M 291.8 353.46 L 294.8 353.46 L 297.1 351.26 Z" fill="#ffffff"></path>
    <path id="path_26" d="M 291.8 346 L 250 386 L 208.2 346 L 127.3 346 L 127.3 353.5 L 205.19 353.5 L 202.89 351.3 L 208.19 353.5 L 205.19 353.5 L 244.7 391.31 C 246.125 392.681 248.027 393.448 250.005 393.448 C 251.983 393.448 253.885 392.681 255.31 391.31 L 294.82 353.5 L 291.82 353.5 L 297.12 351.3 L 294.82 353.5 L 372.7 353.5 L 372.7 346 Z" fill="#ffffff"></path>
    <path id="path_27" d="M 208.2 346 L 213.31 346 C 208.026 343.843 202.941 341.229 198.11 338.19 C 195.73 338.33 193.49 338.5 191.68 338.5 L 127.3 338.5 L 127.3 346 Z" fill="#ffffff"></path>
    <path id="path_28" d="M 291.8 338.46 C 287.47 338.76 284.57 342.46 281.63 345.32 L 281 346 L 287.43 346 C 292.485 343.866 297.344 341.293 301.95 338.31 C 298.53 338.22 295.14 338.23 291.8 338.46 Z" fill="#ffffff"></path>
    <path id="path_29" d="M 213.65 340.79 C 210.12 337.73 203.72 337.79 198.11 338.14 C 202.941 341.179 208.026 343.793 213.31 345.95 L 219.45 345.95 Q 216.57 343.34 213.65 340.79 Z" fill="#ffffff"></path>
    <path id="path_30" d="M 255.3 380.66 Q 252.65 378.13 250.03 375.56 L 244.7 380.66 Z" fill="#ffffff"></path>
    <path id="path_31" d="M 268.47 357.91 L 250 375.55 Q 252.63 378.12 255.27 380.65 L 244.7 380.65 L 250.03 375.55 C 241.11 366.84 232.3 357.91 223.18 349.4 C 219.832 348.428 216.537 347.28 213.31 345.96 L 208.2 345.96 L 250 386 L 291.8 346 L 287.39 346 C 284.051 347.417 280.632 348.636 277.15 349.65 Z" fill="#ffffff"></path>
    <path id="path_32" d="M 277.15 349.6 C 280.631 348.602 284.05 347.4 287.39 346 L 281 346 Z" fill="#ffffff"></path>
    <path id="path_33" d="M 219.45 346 L 213.31 346 C 216.537 347.32 219.832 348.468 223.18 349.44 Q 221.32 347.67 219.45 346 Z" fill="#ffffff"></path>
    <path id="path_34" d="M 291.8 378.57 C 282.15 378.57 282.13 393.57 291.8 393.57 L 346.5 393.57 C 356.15 393.57 356.17 378.57 346.5 378.57 Z M 291.8 386.07 L 291.8 386.07 Z" fill="#ffffff"></path>
    <path id="path_35" d="M 208.2 378.57 L 153.5 378.57 C 143.85 378.57 143.83 393.57 153.5 393.57 L 208.2 393.57 C 217.85 393.57 217.86 378.57 208.2 378.57 Z M 153.5 386.07 L 153.5 386.07 Z" fill="#ffffff"></path>
</g></svg>