<svg xmlns="http://www.w3.org/2000/svg" viewBox="0 0 500 500" id="vector"><g transform="translate(-60 -60) scale(1.25 1.25)">
    <path id="path" d="M 325.57 311.22 C 338.395 311.224 350.774 306.461 360.288 297.862 C 369.802 289.262 375.788 277.426 377.076 264.666 C 378.363 251.906 374.863 239.113 367.259 228.786 C 359.655 218.459 348.477 211.318 335.91 208.76 C 330.387 190.912 318.279 175.814 302.056 166.547 C 285.833 157.28 266.678 154.519 248.498 158.827 C 230.318 163.135 214.439 174.198 204.1 189.76 C 190.326 185.29 175.415 185.763 161.953 191.099 C 148.49 196.435 137.303 206.305 130.332 218.998 C 123.361 231.691 121.034 246.427 123.754 260.651 C 126.474 274.874 134.074 287.712 145.237 296.937 C 156.399 306.162 170.439 311.208 184.92 311.2" fill="#ffffff"></path>
    <path id="path_1" d="M 325.57 318.72 C 340.034 318.568 353.965 313.181 364.769 303.562 C 375.573 293.944 382.535 280.73 384.36 266.38 C 388.06 236.38 367.36 207.91 337.9 201.52 L 343.14 206.76 C 334.07 178.37 309.97 155.95 280.33 150.76 C 264.614 147.993 248.427 149.851 233.745 156.106 C 219.064 162.361 206.512 172.749 197.62 186 L 206.09 182.55 C 174.69 172.86 139.74 186.32 123.83 215.32 C 108.67 242.97 114.21 278.69 137.49 300.11 C 150.442 311.969 167.349 318.605 184.91 318.72 C 194.57 318.83 194.57 303.83 184.91 303.72 C 160.41 303.45 138.55 287.12 132.07 263.32 C 128.983 251.637 129.815 239.258 134.436 228.093 C 139.058 216.928 147.219 207.583 157.66 201.5 C 171.24 193.67 187.2 192.41 202.09 197.01 C 205.43 198.01 208.72 196.27 210.56 193.56 C 225.2 172.02 251.98 160.42 277.71 165.46 C 289.475 167.764 300.41 173.182 309.37 181.147 C 318.331 189.112 324.993 199.336 328.66 210.75 C 329.008 212.001 329.674 213.14 330.592 214.058 C 331.51 214.976 332.649 215.642 333.9 215.99 C 356.43 220.88 372.4 241.74 369.51 264.99 C 366.77 287.08 347.51 303.4 325.51 303.69 C 315.87 303.82 315.84 318.82 325.51 318.69 Z" fill="#ffffff"></path>
    <path id="path_2" d="M 212.97 300.26 L 205.6 281.06" fill="#2ea7e0"></path>
    <path id="path_3" d="M 220.2 298.27 L 212.83 279.07 C 211.38 275.29 207.83 272.68 203.6 273.83 C 199.99 274.83 196.9 279.25 198.36 283.06 L 205.73 302.26 C 207.18 306.04 210.73 308.65 214.96 307.5 C 218.57 306.5 221.66 302.08 220.2 298.27 Z" fill="#2ea7e0"></path>
    <path id="path_4" d="M 229.44 343.14 L 222.06 323.94" fill="#2ea7e0"></path>
    <path id="path_5" d="M 236.67 341.15 L 229.3 321.95 C 227.85 318.17 224.3 315.56 220.07 316.71 C 216.46 317.71 213.37 322.13 214.83 325.94 L 222.2 345.14 C 223.65 348.92 227.2 351.53 231.43 350.38 C 235.04 349.38 238.13 344.96 236.67 341.15 Z" fill="#2ea7e0"></path>
    <path id="path_6" d="M 250.93 300.26 L 243.56 281.06" fill="#2ea7e0"></path>
    <path id="path_7" d="M 258.16 298.27 L 250.79 279.07 C 249.34 275.29 245.79 272.68 241.56 273.83 C 237.95 274.83 234.86 279.25 236.32 283.06 L 243.69 302.26 C 245.14 306.04 248.69 308.65 252.92 307.5 C 256.53 306.5 259.62 302.08 258.16 298.27 Z" fill="#2ea7e0"></path>
    <path id="path_8" d="M 267.4 343.14 L 260.02 323.94" fill="#2ea7e0"></path>
    <path id="path_9" d="M 274.63 341.15 L 267.26 321.95 C 265.81 318.17 262.26 315.56 258.03 316.71 C 254.42 317.71 251.33 322.13 252.79 325.94 L 260.16 345.14 C 261.61 348.92 265.16 351.53 269.39 350.38 C 273 349.38 276.09 344.96 274.63 341.15 Z" fill="#2ea7e0"></path>
    <path id="path_10" d="M 288.89 300.26 L 281.52 281.06" fill="#2ea7e0"></path>
    <path id="path_11" d="M 296.12 298.27 L 288.75 279.07 C 287.3 275.29 283.75 272.68 279.52 273.83 C 275.91 274.83 272.82 279.25 274.28 283.06 L 281.65 302.26 C 283.1 306.04 286.65 308.65 290.88 307.5 C 294.49 306.5 297.58 302.08 296.12 298.27 Z" fill="#2ea7e0"></path>
    <path id="path_12" d="M 305.36 343.14 L 297.99 323.94" fill="#2ea7e0"></path>
    <path id="path_13" d="M 312.59 341.15 L 305.22 321.95 C 303.77 318.17 300.22 315.56 295.99 316.71 C 292.38 317.71 289.29 322.13 290.75 325.94 L 298.12 345.14 C 299.57 348.92 303.12 351.53 307.35 350.38 C 310.96 349.38 314.05 344.96 312.59 341.15 Z" fill="#2ea7e0"></path>
</g></svg>