<!-- Generator: Adobe Illustrator 19.1.0, SVG Export PlugIn . SVG Version: 6.00 Build 0)  --><svg version="1.1" id="Layer_2" xmlns="http://www.w3.org/2000/svg" xmlns:xlink="http://www.w3.org/1999/xlink" x="0px" y="0px" viewBox="0 0 64 64" style="enable-background:new 0 0 64 64;" xml:space="preserve">
<style type="text/css">
	.st0{fill:#fff;}
</style>
<g>
	<path class="st0" d="M3.8,17.5l-2.6-1.1l-0.2,3c0,0.2,0,0.4,0,0.6c0,5,2.7,9.6,7,12.1c-0.2,0.2-0.4,0.4-0.5,0.7
		c-0.7,0.9-0.5,2.1,0.4,2.8c0.9,0.7,2.1,0.5,2.8-0.4c1.5-2,3.8-3.2,6.3-3.2l2,0.1l0.2-1.8C20,23.3,26,18,33,18
		c5.7,0,10.8,3.5,13,8.8l0.6,1.4l1.5-0.1c0.3,0,0.6,0,1,0c4.2,0,8,2.7,9.4,6.7c0.3,0.8,1.1,1.3,1.9,1.3c0.2,0,0.4,0,0.7-0.1
		c1-0.4,1.6-1.5,1.2-2.6c-2-5.6-7.2-9.3-13.1-9.3c-3-6.1-9.2-10-16.1-10c-1.7,0-3.4,0.3-5,0.7C25.9,9.5,20.8,6,15,6
		c-0.2,0-0.5,0-0.7,0l-3,0.2l1.1,2.6c0.4,0.8,0.5,1.7,0.5,2.6c0,3.6-3,6.6-6.6,6.6C5.5,18,4.6,17.8,3.8,17.5z M17,11.4
		c0-0.4,0-0.8-0.1-1.3c3.3,0.6,6.1,2.9,7.4,6.1c-4.4,2.5-7.7,6.7-8.9,11.8c-1.4,0.2-2.8,0.6-4,1.3c-3.2-1.2-5.6-4.1-6.3-7.4
		C5.6,22,6,22,6.4,22C12.3,22,17,17.3,17,11.4z" style="fill: #fff;"></path>
	<path class="st0" d="M63,40c0-1.1-0.9-2-2-2H7c-1.1,0-2,0.9-2,2s0.9,2,2,2h54C62.1,42,63,41.1,63,40z" style="fill: #fff;"></path>
	<path class="st0" d="M57,48c0-1.1-0.9-2-2-2H11c-1.1,0-2,0.9-2,2s0.9,2,2,2h44C56.1,50,57,49.1,57,48z" style="fill: #fff;"></path>
	<path class="st0" d="M19,54c-1.1,0-2,0.9-2,2s0.9,2,2,2h32c1.1,0,2-0.9,2-2s-0.9-2-2-2H19z" style="fill: #fff;"></path>
	<path class="st0" d="M9.1,54c-1.1,0-2,0.9-2,2s0.9,2,2,2H13c1.1,0,2-0.9,2-2s-0.9-2-2-2H9.1z" style="fill: #fff;"></path>
</g>
</svg>