<?xml version="1.0" encoding="UTF-8" standalone="no"?>
<svg
   viewBox="0 0 64 64"
   id="vector"
   version="1.1"
   sodipodi:docname="thermostat-up.svg"
   inkscape:version="1.1 (c68e22c387, 2021-05-23)"
   xmlns:inkscape="http://www.inkscape.org/namespaces/inkscape"
   xmlns:sodipodi="http://sodipodi.sourceforge.net/DTD/sodipodi-0.dtd"
   xmlns="http://www.w3.org/2000/svg"
   xmlns:svg="http://www.w3.org/2000/svg">
  <defs
     id="defs1366" />
  <sodipodi:namedview
     id="namedview1364"
     pagecolor="#ffffff"
     bordercolor="#666666"
     borderopacity="1.0"
     inkscape:pageshadow="2"
     inkscape:pageopacity="0.0"
     inkscape:pagecheckerboard="0"
     showgrid="false"
     inkscape:zoom="6.4375"
     inkscape:cx="34.407767"
     inkscape:cy="26.951456"
     inkscape:window-width="1920"
     inkscape:window-height="1009"
     inkscape:window-x="-8"
     inkscape:window-y="-8"
     inkscape:window-maximized="1"
     inkscape:current-layer="vector" />
  <g
     id="group"
     transform="matrix(0.8,0,0,0.8,-6.2179611,6.4)">
    <path
       id="path"
       d="M 42,35.5 V 10 C 42,4.5 37.5,0 32,0 26.5,0 22,4.5 22,10 v 25.5 c -3.8,3 -6,7.6 -6,12.5 0,8.8 7.2,16 16,16 8.8,0 16,-7.2 16,-16 0,-4.9 -2.2,-9.5 -6,-12.5 z M 32,60 c -6.6,0 -12,-5.4 -12,-12 0,-3.9 1.9,-7.6 5.1,-9.8 L 26,37.6 V 10 c 0,-3.3 2.7,-6 6,-6 3.3,0 6,2.7 6,6 v 27.6 l 0.9,0.6 c 3.2,2.2 5.1,5.9 5.1,9.8 0,6.6 -5.4,12 -12,12 z"
       fill="#ffffff" />
    <path
       id="path_1"
       d="M 34,40.3 V 10 C 34,8.9 33.1,8 32,8 30.9,8 30,8.9 30,10 v 30.3 c -3.4,0.9 -6,4 -6,7.7 0,4.4 3.6,8 8,8 4.4,0 8,-3.6 8,-8 0,-3.7 -2.6,-6.8 -6,-7.7 z M 32,52 c -2.2,0 -4,-1.8 -4,-4 0,-2.2 1.8,-4 4,-4 2.2,0 4,1.8 4,4 0,2.2 -1.8,4 -4,4 z"
       fill="#ffffff" />
  </g>
  <path
     class="st0"
     d="m 55.41796,30.98932 c 0.5,0 1,-0.2 1.400001,-0.6 0.8,-0.8 0.8,-2 0,-2.8 l -9.400001,-9.4 -9.399999,9.4 c -0.8,0.8 -0.8,2 0,2.8 0.8,0.8 2,0.8 2.8,0 l 4.599999,-4.6 v 17.2 c 0,1.1 0.900001,2 2,2 1.100001,0 2,-0.9 2,-2 v -17.2 l 4.600001,4.6 c 0.399999,0.4 0.899999,0.6 1.399999,0.6 z"
     id="path10158"
     fill="#ffffff" />
</svg>
