<!-- Generator: Adobe Illustrator 19.1.0, SVG Export PlugIn . SVG Version: 6.00 Build 0)  --><svg version="1.1" id="Layer_2" xmlns="http://www.w3.org/2000/svg" xmlns:xlink="http://www.w3.org/1999/xlink" x="0px" y="0px" viewBox="0 0 64 64" style="enable-background:new 0 0 64 64;" xml:space="preserve">
<g>
	<path fill="#fff" d="M32,22c1.1,0,2-0.9,2-2v-8c0-1.1-0.9-2-2-2s-2,0.9-2,2v8C30,21.1,30.9,22,32,22z"></path>
	<path fill="#fff" d="M50,40c0,1.1,0.9,2,2,2h8c1.1,0,2-0.9,2-2s-0.9-2-2-2h-8C50.9,38,50,38.9,50,40z"></path>
	<path fill="#fff" d="M4,42h8c1.1,0,2-0.9,2-2s-0.9-2-2-2H4c-1.1,0-2,0.9-2,2S2.9,42,4,42z"></path>
	<path fill="#fff" d="M2,54h60c1.1,0,2-0.9,2-2s-0.9-2-2-2H34v-9.2l2.6,2.6C37,43.8,37.5,44,38,44s1-0.2,1.4-0.6
		c0.8-0.8,0.8-2,0-2.8L32,33.2l-1.4,1.4c0,0,0,0,0,0l-6,6c-0.8,0.8-0.8,2,0,2.8c0.8,0.8,2,0.8,2.8,0l2.6-2.6V50H2c-1.1,0-2,0.9-2,2
		S0.9,54,2,54z"></path>
	<path fill="#fff" d="M17,27.8c0.4,0.4,0.9,0.6,1.4,0.6s1-0.2,1.4-0.6c0.8-0.8,0.8-2,0-2.8l-5.7-5.7c-0.8-0.8-2-0.8-2.8,0
		c-0.8,0.8-0.8,2,0,2.8L17,27.8z"></path>
	<path fill="#fff" d="M45.6,28.4c0.5,0,1-0.2,1.4-0.6l5.7-5.7c0.8-0.8,0.8-2,0-2.8s-2-0.8-2.8,0L44.1,25c-0.8,0.8-0.8,2,0,2.8
		C44.5,28.2,45,28.4,45.6,28.4z"></path>
	<path fill="#fff" d="M18.8,44.7c0.4,1,1.5,1.6,2.6,1.2c1-0.4,1.6-1.5,1.2-2.6C22.2,42.3,22,41.1,22,40c0-5.5,4.5-10,10-10
		s10,4.5,10,10c0,1.2-0.2,2.3-0.6,3.4c-0.4,1,0.2,2.2,1.2,2.6c0.2,0.1,0.5,0.1,0.7,0.1c0.8,0,1.6-0.5,1.9-1.3
		c0.6-1.5,0.9-3.2,0.9-4.8c0-7.7-6.3-14-14-14s-14,6.3-14,14C18,41.6,18.3,43.2,18.8,44.7z"></path>
</g>
</svg>