<!-- Generator: Adobe Illustrator 19.1.0, SVG Export PlugIn . SVG Version: 6.00 Build 0)  --><svg version="1.1" id="Layer_2" xmlns="http://www.w3.org/2000/svg" xmlns:xlink="http://www.w3.org/1999/xlink" x="0px" y="0px" viewBox="0 0 64 64" style="enable-background:new 0 0 64 64;" xml:space="preserve">
<style type="text/css">
	.st0{fill:#fff;}
</style>
<path class="st0" d="M64,32c0-1.1-0.9-2-2-2h-5.2l5.2-5.2c0.8-0.8,0.8-2,0-2.8c-0.8-0.8-2-0.8-2.8,0l-8,8H36.8l10-10h11.3
	c1.1,0,2-0.9,2-2s-0.9-2-2-2h-7.3l3.8-3.8c0.8-0.8,0.8-2,0-2.8c-0.8-0.8-2-0.8-2.8,0L48,13.2V5.8c0-1.1-0.9-2-2-2s-2,0.9-2,2v11.3
	l-10,10V12.8l8-8c0.8-0.8,0.8-2,0-2.8c-0.8-0.8-2-0.8-2.8,0L34,7.2V2c0-1.1-0.9-2-2-2s-2,0.9-2,2v5.2L24.8,2c-0.8-0.8-2-0.8-2.8,0
	c-0.8,0.8-0.8,2,0,2.8l8,8v14.3L19.7,16.9v-11c0-1.1-0.9-2-2-2s-2,0.9-2,2v7l-3.5-3.5c-0.8-0.8-2-0.8-2.8,0c-0.8,0.8-0.8,2,0,2.8
	l3.8,3.8l-7.6,0c-1.1,0-2,0.9-2,2s0.9,2,2,2l11.6,0l10,10H12.8l-8-8c-0.8-0.8-2-0.8-2.8,0c-0.8,0.8-0.8,2,0,2.8L7.2,30H2
	c-1.1,0-2,0.9-2,2s0.9,2,2,2h5.2L2,39.2c-0.8,0.8-0.8,2,0,2.8c0.4,0.4,0.9,0.6,1.4,0.6s1-0.2,1.4-0.6l8-8h14.3L16.9,44.3H5.6
	c-1.1,0-2,0.9-2,2s0.9,2,2,2h7.3l-3.5,3.5c-0.8,0.8-0.8,2,0,2.8c0.4,0.4,0.9,0.6,1.4,0.6s1-0.2,1.4-0.6l3.5-3.5v7.3c0,1.1,0.9,2,2,2
	s2-0.9,2-2V47.1L30,36.8v14.3l-8,8c-0.8,0.8-0.8,2,0,2.8c0.8,0.8,2,0.8,2.8,0l5.2-5.2V62c0,1.1,0.9,2,2,2s2-0.9,2-2v-5.2l5.2,5.2
	c0.4,0.4,0.9,0.6,1.4,0.6s1-0.2,1.4-0.6c0.8-0.8,0.8-2,0-2.8l-8-8V36.8l10,10v11.6c0,1.1,0.9,2,2,2s2-0.9,2-2v-7.6l3.8,3.8
	c0.4,0.4,0.9,0.6,1.4,0.6s1-0.2,1.4-0.6c0.8-0.8,0.8-2,0-2.8l-3.5-3.5l7,0c1.1,0,2-0.9,2-2c0-1.1-0.9-2-2-2l-11,0L36.8,34h14.3l8,8
	c0.4,0.4,0.9,0.6,1.4,0.6s1-0.2,1.4-0.6c0.8-0.8,0.8-2,0-2.8L56.8,34H62C63.1,34,64,33.1,64,32z" style="fill: #fff;"></path>
</svg>