<!-- Generator: Adobe Illustrator 19.1.0, SVG Export PlugIn . SVG Version: 6.00 Build 0)  --><svg version="1.1" id="Layer_2" xmlns="http://www.w3.org/2000/svg" xmlns:xlink="http://www.w3.org/1999/xlink" x="0px" y="0px" viewBox="0 0 64 64" style="enable-background:new 0 0 64 64;" xml:space="preserve">
<g>
	<path fill="#fff" d="M2,44.6h28v9.2l-2.6-2.6c-0.8-0.8-2-0.8-2.8,0s-0.8,2,0,2.8l7.4,7.4l1.4-1.4c0,0,0,0,0,0l6-6
		c0.8-0.8,0.8-2,0-2.8c-0.8-0.8-2-0.8-2.8,0L34,53.8v-9.2h28c1.1,0,2-0.9,2-2s-0.9-2-2-2H2c-1.1,0-2,0.9-2,2S0.9,44.6,2,44.6z"></path>
	<path fill="#fff" d="M18.8,37.3c0.4,1,1.5,1.6,2.6,1.2c1-0.4,1.6-1.5,1.2-2.6c-0.4-1.1-0.6-2.2-0.6-3.4c0-5.5,4.5-10,10-10
		s10,4.5,10,10c0,1.2-0.2,2.3-0.6,3.4c-0.4,1,0.2,2.2,1.2,2.6c0.2,0.1,0.5,0.1,0.7,0.1c0.8,0,1.6-0.5,1.9-1.3
		c0.6-1.5,0.9-3.2,0.9-4.8c0-7.7-6.3-14-14-14s-14,6.3-14,14C18,34.2,18.3,35.8,18.8,37.3z"></path>
</g>
</svg>