<?xml version="1.0" encoding="UTF-8" standalone="no"?>
<!-- Generator: Adobe Illustrator 19.1.0, SVG Export PlugIn . SVG Version: 6.00 Build 0)  -->

<svg
   version="1.1"
   id="Layer_2"
   x="0px"
   y="0px"
   viewBox="0 0 96 96"
   xml:space="preserve"
   sodipodi:docname="pe-is-w-drizzle.svg"
   width="96"
   height="96"
   inkscape:version="1.1 (c68e22c387, 2021-05-23)"
   xmlns:inkscape="http://www.inkscape.org/namespaces/inkscape"
   xmlns:sodipodi="http://sodipodi.sourceforge.net/DTD/sodipodi-0.dtd"
   xmlns="http://www.w3.org/2000/svg"
   xmlns:svg="http://www.w3.org/2000/svg"><defs
   id="defs853" /><sodipodi:namedview
   id="namedview851"
   pagecolor="#ffffff"
   bordercolor="#666666"
   borderopacity="1.0"
   inkscape:pageshadow="2"
   inkscape:pageopacity="0.0"
   inkscape:pagecheckerboard="0"
   showgrid="false"
   inkscape:zoom="3.1289063"
   inkscape:cx="6.5518102"
   inkscape:cy="33.078652"
   inkscape:window-width="1920"
   inkscape:window-height="1009"
   inkscape:window-x="-8"
   inkscape:window-y="-8"
   inkscape:window-maximized="1"
   inkscape:current-layer="Layer_2" />
<style
   type="text/css"
   id="style824">
	.st0{fill:#ffffff;}
</style>
<g
   id="g848"
   style="fill:#fffffd;fill-opacity:1"
   transform="translate(16,16)">
	<path
   class="st0"
   d="M 49.7,10 C 46.5,3.9 40,0 33,0 24.4,0 16.8,5.9 14.7,14.1 14.1,14 13.6,14 13,14 5.8,14 0,19.8 0,27 0,34.2 5.8,40 13,40 H 49 C 57.3,40 64,33.3 64,25 64,17 57.7,10.4 49.7,10 Z M 49,36 H 13 c -5,0 -9,-4 -9,-9 0,-5 4,-9 9,-9 0.9,0 1.8,0.1 2.6,0.4 l 2.2,0.7 0.3,-2.3 C 19.3,9.5 25.6,4 33,4 c 5.9,0 11.3,3.5 13.7,8.9 l 0.6,1.2 1.6,-0.1 c 0.1,0 0.1,0 0.2,0 6.1,0 11,4.9 11,11 -0.1,6.1 -5,11 -11.1,11 z"
   style="fill:#fffffd;fill-opacity:1"
   id="path826" />
	<path
   class="st0"
   d="M 24.6,48.6 C 24.2,49 24,49.5 24,50 c 0,0.5 0.2,1 0.6,1.4 0.4,0.4 0.9,0.6 1.4,0.6 0.5,0 1,-0.2 1.4,-0.6 C 27.8,51 28,50.5 28,50 c 0,-0.5 -0.2,-1 -0.6,-1.4 -0.7,-0.8 -2.1,-0.8 -2.8,0 z"
   style="fill:#fffffd;fill-opacity:1"
   id="path828" />
	<path
   class="st0"
   d="m 18,48 c 0.5,0 1,-0.2 1.4,-0.6 C 19.8,47 20,46.5 20,46 c 0,-0.5 -0.2,-1 -0.6,-1.4 -0.8,-0.7 -2.1,-0.7 -2.8,0 -0.4,0.3 -0.6,0.9 -0.6,1.4 0,0.5 0.2,1 0.6,1.4 0.4,0.4 0.9,0.6 1.4,0.6 z"
   style="fill:#fffffd;fill-opacity:1"
   id="path830" />
	<path
   class="st0"
   d="M 15.4,55.4 C 15.8,55 16,54.5 16,54 c 0,-0.5 -0.2,-1 -0.6,-1.4 -0.8,-0.7 -2.1,-0.7 -2.8,0 -0.4,0.3 -0.6,0.9 -0.6,1.4 0,0.5 0.2,1 0.6,1.4 0.4,0.4 0.9,0.6 1.4,0.6 0.5,0 1,-0.2 1.4,-0.6 z"
   style="fill:#fffffd;fill-opacity:1"
   id="path832" />
	<path
   class="st0"
   d="M 16.6,63.4 C 17,63.8 17.5,64 18,64 18.5,64 19,63.8 19.4,63.4 19.8,63 20,62.5 20,62 c 0,-0.5 -0.2,-1 -0.6,-1.4 -0.8,-0.7 -2.1,-0.7 -2.8,0 -0.4,0.3 -0.6,0.9 -0.6,1.4 0,0.5 0.2,1 0.6,1.4 z"
   style="fill:#fffffd;fill-opacity:1"
   id="path834" />
	<path
   class="st0"
   d="m 26,58 c 0,0.5 0.2,1 0.6,1.4 0.4,0.4 0.9,0.6 1.4,0.6 0.5,0 1,-0.2 1.4,-0.6 C 29.8,59 30,58.5 30,58 30,57.5 29.8,57 29.4,56.6 28.6,55.9 27.3,55.9 26.6,56.6 26.2,56.9 26,57.5 26,58 Z"
   style="fill:#fffffd;fill-opacity:1"
   id="path836" />
	<path
   class="st0"
   d="M 34.6,52.6 C 34.2,52.9 34,53.5 34,54 c 0,0.5 0.2,1 0.6,1.4 0.4,0.4 0.9,0.6 1.4,0.6 0.5,0 1,-0.2 1.4,-0.6 C 37.8,55 38,54.5 38,54 c 0,-0.5 -0.2,-1 -0.6,-1.4 -0.7,-0.8 -2.1,-0.8 -2.8,0 z"
   style="fill:#fffffd;fill-opacity:1"
   id="path838" />
	<path
   class="st0"
   d="m 39.4,44.6 c -0.8,-0.7 -2.1,-0.7 -2.8,0 -0.4,0.3 -0.6,0.9 -0.6,1.4 0,0.5 0.2,1 0.6,1.4 0.4,0.4 0.9,0.6 1.4,0.6 0.5,0 1,-0.2 1.4,-0.6 C 39.8,47 40,46.5 40,46 40,45.5 39.8,44.9 39.4,44.6 Z"
   style="fill:#fffffd;fill-opacity:1"
   id="path840" />
	<path
   class="st0"
   d="M 49.4,49.4 C 49.8,49 50,48.5 50,48 c 0,-0.5 -0.2,-1 -0.6,-1.4 -0.8,-0.7 -2.1,-0.7 -2.8,0 -0.4,0.3 -0.6,0.8 -0.6,1.4 0,0.5 0.2,1 0.6,1.4 0.4,0.4 0.9,0.6 1.4,0.6 0.5,0 1,-0.2 1.4,-0.6 z"
   style="fill:#fffffd;fill-opacity:1"
   id="path842" />
	<path
   class="st0"
   d="M 44.6,56.6 C 44.2,56.9 44,57.5 44,58 c 0,0.5 0.2,1 0.6,1.4 0.4,0.4 0.9,0.6 1.4,0.6 0.5,0 1,-0.2 1.4,-0.6 C 47.8,59 48,58.5 48,58 c 0,-0.5 -0.2,-1 -0.6,-1.4 -0.7,-0.8 -2.1,-0.8 -2.8,0 z"
   style="fill:#fffffd;fill-opacity:1"
   id="path844" />
	<path
   class="st0"
   d="M 36.6,60.6 C 36.2,60.9 36,61.5 36,62 c 0,0.5 0.2,1 0.6,1.4 0.4,0.4 0.9,0.6 1.4,0.6 0.5,0 1,-0.2 1.4,-0.6 C 39.8,63 40,62.5 40,62 c 0,-0.5 -0.2,-1 -0.6,-1.4 -0.7,-0.8 -2.1,-0.8 -2.8,0 z"
   style="fill:#fffffd;fill-opacity:1"
   id="path846" />
</g>
</svg>
