<!-- Generator: Adobe Illustrator 19.1.0, SVG Export PlugIn . SVG Version: 6.00 Build 0)  --><svg version="1.1" id="Layer_2" xmlns="http://www.w3.org/2000/svg" xmlns:xlink="http://www.w3.org/1999/xlink" x="0px" y="0px" viewBox="0 0 64 64" style="enable-background:new 0 0 64 64;" xml:space="preserve">
<style type="text/css">
	.st0{fill:#fff;}
</style>
<g>
	<path class="st0" d="M55,12H27v50c0,1.1,0.9,2,2,2s2-0.9,2-2V38h16c1.1,0,2-0.9,2-2s-0.9-2-2-2H31V16h24c1.1,0,2-0.9,2-2
		S56.1,12,55,12z" style="fill: #fff;"></path>
	<path class="st0" d="M15,0c-4.4,0-8,3.6-8,8s3.6,8,8,8s8-3.6,8-8S19.4,0,15,0z M15,12c-2.2,0-4-1.8-4-4s1.8-4,4-4s4,1.8,4,4
		S17.2,12,15,12z" style="fill: #fff;"></path>
</g>
</svg>