<!-- Generator: Adobe Illustrator 19.1.0, SVG Export PlugIn . SVG Version: 6.00 Build 0)  --><svg version="1.1" id="Layer_2" xmlns="http://www.w3.org/2000/svg" xmlns:xlink="http://www.w3.org/1999/xlink" x="0px" y="0px" viewBox="0 0 64 64" style="enable-background:new 0 0 64 64;" xml:space="preserve">
<style type="text/css">
	.st0{fill:#fff;}
</style>
<g>
	<path class="st0" d="M17.5,40l27.3,0C51.6,40,57,34.6,57,28.1c0-6.5-5.3-11.7-12-11.9c-2.7-5-8-8.2-13.9-8.2
		c-1.6,0-3.2,0.3-4.6,0.7C25.1,3.7,20.5,0,15,0c-0.2,0-0.5,0-0.7,0.1c-0.1,0-0.1,0-0.2,0l-2.9,0.2l1.2,2.6c0.3,0.7,0.5,1.4,0.5,2.1
		c0,2.8-2.2,5-5,5c-0.7,0-1.4-0.1-2-0.4L3.3,8.4l-0.2,2.8l0,0.1C3,11.6,3,11.8,3,12c0,4.8,2.8,8.9,6.8,10.8C8.1,24.7,7,27.1,7,29.8
		C7,35.4,11.7,40,17.5,40z M31.2,12c4.8,0,9,2.8,10.8,7l0.6,1.4l1.5-0.1c0.3,0,0.5,0,0.8,0c4.5,0,8.2,3.5,8.2,7.9
		c0,4.3-3.7,7.9-8.2,7.9l-27.3,0c-3.6,0-6.5-2.8-6.5-6.2c0-3.4,2.9-6.2,6.4-6.2l2,0.1l0.2-1.8C20.4,16.2,25.3,12,31.2,12z M7.2,13.9
		c0.2,0,0.4,0,0.7,0c5,0,9-4,9-9c0-0.3,0-0.5,0-0.7c3,0.7,5.3,3.1,6,6.1c-3.4,2.1-5.9,5.4-6.9,9.3c-0.5,0.1-1,0.2-1.5,0.3
		C10.9,19.7,8.1,17.3,7.2,13.9z" style="fill: #fff;"></path>
	<path class="st0" d="M35,44c-1.1,0-2,0.9-2,2v6c0,1.1,0.9,2,2,2s2-0.9,2-2v-6C37,44.9,36.1,44,35,44z" style="fill: #fff;"></path>
	<path class="st0" d="M27,44c-1.1,0-2,0.9-2,2v10c0,1.1,0.9,2,2,2s2-0.9,2-2V46C29,44.9,28.1,44,27,44z" style="fill: #fff;"></path>
	<path class="st0" d="M19,44c-1.1,0-2,0.9-2,2v10.4c-2.3-1.7-5.2-2.6-8.1-2.3c-1.1,0.1-1.9,1.1-1.8,2.2c0.1,1.1,1.1,1.9,2.2,1.8
		c3.4-0.3,6.6,1.6,8,4.7c0,0,0,0,0,0c0.1,0.1,0.2,0.3,0.3,0.4c0,0,0.1,0.1,0.1,0.1c0.1,0.1,0.2,0.2,0.4,0.3c0,0,0,0,0.1,0
		c0.1,0.1,0.3,0.1,0.4,0.2c0,0,0.1,0,0.1,0c0.2,0,0.3,0.1,0.5,0.1c0,0,0,0,0,0c0.1,0,0.1,0,0.2,0c0.1,0,0.1,0,0.2,0c0,0,0,0,0,0
		c0.1,0,0.2-0.1,0.3-0.1c0,0,0,0,0,0c0,0,0.1,0,0.1-0.1c0.1,0,0.1-0.1,0.2-0.1c0.1,0,0.1-0.1,0.1-0.1c0,0,0.1-0.1,0.1-0.1
		c0,0,0.1-0.1,0.1-0.2c0,0,0.1-0.1,0.1-0.1c0-0.1,0.1-0.1,0.1-0.2c0-0.1,0.1-0.1,0.1-0.2c0-0.1,0-0.1,0.1-0.2c0-0.1,0-0.1,0.1-0.2
		c0-0.1,0-0.2,0-0.2c0,0,0-0.1,0-0.1V46C21,44.9,20.1,44,19,44z" style="fill: #fff;"></path>
	<path class="st0" d="M53.1,54.1c-3-0.3-5.8,0.6-8.1,2.3V46c0-1.1-0.9-2-2-2s-2,0.9-2,2v16c0,0,0,0.1,0,0.1c0,0.1,0,0.2,0,0.2
		c0,0.1,0,0.1,0.1,0.2c0,0.1,0,0.1,0.1,0.2c0,0.1,0.1,0.1,0.1,0.2c0,0.1,0.1,0.1,0.1,0.2c0,0.1,0.1,0.1,0.1,0.1
		c0,0.1,0.1,0.1,0.1,0.2c0,0,0.1,0.1,0.1,0.1c0,0,0.1,0.1,0.1,0.1c0.1,0,0.1,0.1,0.2,0.1c0,0,0.1,0,0.1,0.1c0,0,0,0,0,0
		c0.1,0,0.2,0.1,0.3,0.1c0,0,0,0,0.1,0c0,0,0.1,0,0.1,0c0.1,0,0.2,0,0.3,0c0,0,0,0,0,0c0.2,0,0.3,0,0.5-0.1c0,0,0.1,0,0.1,0
		c0.1,0,0.3-0.1,0.4-0.2c0,0,0,0,0.1,0c0.1-0.1,0.3-0.2,0.4-0.3c0,0,0.1-0.1,0.1-0.1c0.1-0.1,0.2-0.3,0.3-0.4c0,0,0,0,0,0
		c1.4-3.1,4.6-5,8-4.7c1.1,0.1,2.1-0.7,2.2-1.8S54.2,54.2,53.1,54.1z" style="fill: #fff;"></path>
	<path class="st0" d="M25.6,60.6C25.2,60.9,25,61.4,25,62c0,0.5,0.2,1,0.6,1.4c0.4,0.4,0.9,0.6,1.4,0.6c0.5,0,1-0.2,1.4-0.6
		C28.8,63,29,62.5,29,62c0-0.5-0.2-1-0.6-1.4C27.6,59.8,26.3,59.8,25.6,60.6z" style="fill: #fff;"></path>
	<path class="st0" d="M33.6,56.6C33.2,56.9,33,57.5,33,58c0,0.5,0.2,1,0.6,1.4c0.4,0.4,0.9,0.6,1.4,0.6c0.5,0,1-0.2,1.4-0.6
		C36.8,59,37,58.5,37,58c0-0.5-0.2-1-0.6-1.4C35.6,55.8,34.3,55.8,33.6,56.6z" style="fill: #fff;"></path>
	<path class="st0" d="M57.6,54.6C57.2,54.9,57,55.5,57,56c0,0.5,0.2,1,0.6,1.4c0.4,0.4,0.9,0.6,1.4,0.6c0.5,0,1-0.2,1.4-0.6
		C60.8,57,61,56.5,61,56c0-0.5-0.2-1-0.6-1.4C59.6,53.8,58.3,53.8,57.6,54.6z" style="fill: #fff;"></path>
</g>
</svg>