<!-- Generator: Adobe Illustrator 19.1.0, SVG Export PlugIn . SVG Version: 6.00 Build 0)  --><svg version="1.1" id="Layer_2" xmlns="http://www.w3.org/2000/svg" xmlns:xlink="http://www.w3.org/1999/xlink" x="0px" y="0px" viewBox="0 0 64 64" style="enable-background:new 0 0 64 64;" xml:space="preserve">
<style type="text/css">
	.st0{fill:#fff;}
</style>
<g>
	<path class="st0" d="M32,48c8.8,0,16-7.2,16-16s-7.2-16-16-16s-16,7.2-16,16S23.2,48,32,48z M32,20c6.6,0,12,5.4,12,12
		s-5.4,12-12,12s-12-5.4-12-12S25.4,20,32,20z" style="fill: #fff;"></path>
	<path class="st0" d="M32,12c1.1,0,2-0.9,2-2V2c0-1.1-0.9-2-2-2s-2,0.9-2,2v8C30,11.1,30.9,12,32,12z" style="fill: #fff;"></path>
	<path class="st0" d="M34,62v-8c0-1.1-0.9-2-2-2s-2,0.9-2,2v8c0,1.1,0.9,2,2,2S34,63.1,34,62z" style="fill: #fff;"></path>
	<path class="st0" d="M62,30h-8c-1.1,0-2,0.9-2,2s0.9,2,2,2h8c1.1,0,2-0.9,2-2S63.1,30,62,30z" style="fill: #fff;"></path>
	<path class="st0" d="M2,34h8c1.1,0,2-0.9,2-2s-0.9-2-2-2H2c-1.1,0-2,0.9-2,2S0.9,34,2,34z" style="fill: #fff;"></path>
	<path class="st0" d="M15,17.9c0.4,0.4,0.9,0.6,1.4,0.6c0.5,0,1-0.2,1.4-0.6c0.8-0.8,0.8-2,0-2.8l-5.7-5.7c-0.8-0.8-2-0.8-2.8,0
		c-0.8,0.8-0.8,2,0,2.8L15,17.9z" style="fill: #fff;"></path>
	<path class="st0" d="M49,46.1c-0.8-0.8-2-0.8-2.8,0c-0.8,0.8-0.8,2,0,2.8l5.7,5.7c0.4,0.4,0.9,0.6,1.4,0.6s1-0.2,1.4-0.6
		c0.8-0.8,0.8-2,0-2.8L49,46.1z" style="fill: #fff;"></path>
	<path class="st0" d="M47.6,18.4c0.5,0,1-0.2,1.4-0.6l5.7-5.7c0.8-0.8,0.8-2,0-2.8c-0.8-0.8-2-0.8-2.8,0L46.1,15
		c-0.8,0.8-0.8,2,0,2.8C46.5,18.2,47,18.4,47.6,18.4z" style="fill: #fff;"></path>
	<path class="st0" d="M15,46.1l-5.7,5.7c-0.8,0.8-0.8,2,0,2.8c0.4,0.4,0.9,0.6,1.4,0.6s1-0.2,1.4-0.6l5.7-5.7c0.8-0.8,0.8-2,0-2.8
		C17.1,45.4,15.8,45.4,15,46.1z" style="fill: #fff;"></path>
</g>
</svg>