<!-- Generator: Adobe Illustrator 19.1.0, SVG Export PlugIn . SVG Version: 6.00 Build 0)  --><svg version="1.1" id="Layer_2" xmlns="http://www.w3.org/2000/svg" xmlns:xlink="http://www.w3.org/1999/xlink" x="0px" y="0px" viewBox="0 0 64 64" style="enable-background:new 0 0 64 64;" xml:space="preserve">
<style type="text/css">
	.st0{fill:#fff;}
</style>
<g>
	<path class="st0" d="M60,4c0-1.1-0.9-2-2-2H2C0.9,2,0,2.9,0,4s0.9,2,2,2h56C59.1,6,60,5.1,60,4z" style="fill: #fff;"></path>
	<path class="st0" d="M62,10H12c-1.1,0-2,0.9-2,2s0.9,2,2,2h50c1.1,0,2-0.9,2-2S63.1,10,62,10z" style="fill: #fff;"></path>
	<path class="st0" d="M52,18H8c-1.1,0-2,0.9-2,2s0.9,2,2,2h44c1.1,0,2-0.9,2-2S53.1,18,52,18z" style="fill: #fff;"></path>
	<path class="st0" d="M44,28c0-1.1-0.9-2-2-2H12c-1.1,0-2,0.9-2,2s0.9,2,2,2h30C43.1,30,44,29.1,44,28z" style="fill: #fff;"></path>
	<path class="st0" d="M48,36c0-1.1-0.9-2-2-2H18c-1.1,0-2,0.9-2,2s0.9,2,2,2h28C47.1,38,48,37.1,48,36z" style="fill: #fff;"></path>
	<path class="st0" d="M46,42H26c-1.1,0-2,0.9-2,2s0.9,2,2,2h20c1.1,0,2-0.9,2-2S47.1,42,46,42z" style="fill: #fff;"></path>
	<path class="st0" d="M40,50H30c-1.1,0-2,0.9-2,2s0.9,2,2,2h10c1.1,0,2-0.9,2-2S41.1,50,40,50z" style="fill: #fff;"></path>
	<path class="st0" d="M32,58h-4c-1.1,0-2,0.9-2,2s0.9,2,2,2h4c1.1,0,2-0.9,2-2S33.1,58,32,58z" style="fill: #fff;"></path>
</g>
</svg>