<!-- Generator: Adobe Illustrator 19.1.0, SVG Export PlugIn . SVG Version: 6.00 Build 0)  --><svg version="1.1" id="Layer_2" xmlns="http://www.w3.org/2000/svg" xmlns:xlink="http://www.w3.org/1999/xlink" x="0px" y="0px" viewBox="0 0 64 64" style="enable-background:new 0 0 64 64;" xml:space="preserve">
<style type="text/css">
	.st0{fill:#fff;}
</style>
<g>
	<path class="st0" d="M18.8,3.8v3.8c0,1,0.8,1.9,1.9,1.9c1,0,1.9-0.8,1.9-1.9V3.8c0-1-0.8-1.9-1.9-1.9C19.7,1.9,18.8,2.7,18.8,3.8z" style="fill: #fff;"></path>
	<path class="st0" d="M7.5,22.6c0-1-0.8-1.9-1.9-1.9H1.9c-1,0-1.9,0.8-1.9,1.9s0.8,1.9,1.9,1.9h3.8C6.7,24.5,7.5,23.6,7.5,22.6z" style="fill: #fff;"></path>
	<path class="st0" d="M11.4,13.3c0.7-0.7,0.7-1.9,0-2.7L9.3,8.5c-0.7-0.7-1.9-0.7-2.7,0c-0.7,0.7-0.7,1.9,0,2.7l2.1,2.1
		c0.4,0.4,0.8,0.6,1.3,0.6C10.6,13.8,11,13.7,11.4,13.3z" style="fill: #fff;"></path>
	<path class="st0" d="M32.1,8.5L30,10.6c-0.7,0.7-0.7,1.9,0,2.7c0.4,0.4,0.8,0.6,1.3,0.6c0.5,0,1-0.2,1.3-0.6l2.1-2.1
		c0.7-0.7,0.7-1.9,0-2.7C34.1,7.8,32.9,7.8,32.1,8.5z" style="fill: #fff;"></path>
	<path class="st0" d="M6.6,36.7c0.4,0.4,0.8,0.6,1.3,0.6s1-0.2,1.3-0.6l2.1-2.1c0.7-0.7,0.7-1.9,0-2.7c-0.7-0.7-1.9-0.7-2.7,0
		L6.6,34C5.9,34.8,5.9,36,6.6,36.7z" style="fill: #fff;"></path>
	<path class="st0" d="M48.3,22.6c-2.4-4.6-7.2-7.6-12.5-7.6c-2,0-4,0.4-5.7,1.2c-2.1-3.1-5.6-5-9.4-5c-6.2,0-11.3,5.1-11.3,11.3
		c0,3.6,1.8,7,4.7,9.1c-0.6,1.2-0.9,2.6-0.9,4c0,5.2,4.2,9.4,9.4,9.4h24.5c6.2,0,11.3-5.1,11.3-11.3C58.4,28.1,54,23.3,48.3,22.6z
		 M13.2,22.6c0-4.2,3.4-7.5,7.5-7.5c2.5,0,4.7,1.2,6.1,3.2c-2.5,2-4.2,4.9-4.9,8.1c-2.1,0.1-4.1,1-5.6,2.4
		C14.4,27.3,13.2,25,13.2,22.6z M47.1,41.4H22.6c-3.1,0-5.6-2.5-5.6-5.6s2.5-5.6,5.6-5.6c0.2,0,0.4,0,0.5,0.1l2.2,0.3l0.1-2
		c0.4-5.4,4.9-9.6,10.3-9.6c4.2,0,7.9,2.5,9.6,6.4l0.5,1.2l1.3,0c4.1,0,7.5,3.4,7.5,7.5C54.6,38,51.2,41.4,47.1,41.4z" style="fill: #fff;"></path>
	<path class="st0" d="M39.5,52.7c1,0,1.9-0.8,1.9-1.9v-1.9c0-1-0.8-1.9-1.9-1.9c-1,0-1.9,0.8-1.9,1.9v1.9
		C37.7,51.9,38.5,52.7,39.5,52.7z" style="fill: #fff;"></path>
	<path class="st0" d="M32,56.5c1,0,1.9-0.8,1.9-1.9v-5.6c0-1-0.8-1.9-1.9-1.9c-1,0-1.9,0.8-1.9,1.9v5.6C30.1,55.6,31,56.5,32,56.5z" style="fill: #fff;"></path>
	<path class="st0" d="M22.8,61C22.8,61,22.8,61,22.8,61c0.1,0.2,0.2,0.3,0.3,0.4c0,0,0,0.1,0.1,0.1c0.1,0.1,0.2,0.2,0.4,0.3
		c0,0,0,0,0.1,0c0.1,0.1,0.2,0.1,0.4,0.2c0,0,0.1,0,0.1,0c0.1,0,0.3,0.1,0.5,0.1c0,0,0,0,0,0c0.1,0,0.1,0,0.2,0c0.1,0,0.1,0,0.2,0
		c0,0,0,0,0,0c0.1,0,0.2-0.1,0.3-0.1c0,0,0,0,0,0c0,0,0.1,0,0.1-0.1c0.1,0,0.1-0.1,0.2-0.1c0.1,0,0.1-0.1,0.1-0.1
		c0,0,0.1-0.1,0.1-0.1c0,0,0.1-0.1,0.1-0.2c0,0,0.1-0.1,0.1-0.1c0-0.1,0.1-0.1,0.1-0.2c0-0.1,0.1-0.1,0.1-0.2c0-0.1,0-0.1,0.1-0.2
		c0-0.1,0-0.1,0-0.2c0-0.1,0-0.2,0-0.2c0,0,0-0.1,0-0.1v0c0,0,0,0,0,0V48.9c0-1-0.8-1.9-1.9-1.9c-1,0-1.9,0.8-1.9,1.9v6
		c-2.2-1.6-4.9-2.4-7.7-2.2c-1,0.1-1.8,1-1.7,2c0.1,1,1,1.8,2,1.7C18.4,56.3,21.5,58.1,22.8,61z" style="fill: #fff;"></path>
	<path class="st0" d="M58.3,54.8c0.1-1-0.7-1.9-1.7-2c-2.8-0.2-5.5,0.6-7.7,2.2v-6c0-1-0.8-1.9-1.9-1.9c-1,0-1.9,0.8-1.9,1.9v11.3
		c0,0,0,0,0,0v0c0,0,0,0.1,0,0.1c0,0.1,0,0.2,0,0.2c0,0.1,0,0.1,0,0.2c0,0.1,0,0.1,0.1,0.2c0,0.1,0.1,0.1,0.1,0.2
		c0,0.1,0.1,0.1,0.1,0.2c0,0,0.1,0.1,0.1,0.1c0,0.1,0.1,0.1,0.1,0.2c0,0,0.1,0.1,0.1,0.1c0,0,0.1,0.1,0.1,0.1c0.1,0,0.1,0.1,0.2,0.1
		c0,0,0.1,0,0.1,0.1c0,0,0,0,0,0c0.1,0,0.2,0.1,0.3,0.1c0,0,0,0,0.1,0c0,0,0.1,0,0.1,0c0.1,0,0.2,0,0.2,0c0,0,0,0,0,0
		c0.2,0,0.3,0,0.5-0.1c0,0,0.1,0,0.1,0c0.1,0,0.3-0.1,0.4-0.2c0,0,0,0,0.1,0c0.1-0.1,0.2-0.2,0.4-0.3c0,0,0-0.1,0.1-0.1
		c0.1-0.1,0.2-0.2,0.2-0.4c0,0,0,0,0,0c1.3-2.9,4.3-4.7,7.5-4.4C57.3,56.6,58.2,55.9,58.3,54.8z" style="fill: #fff;"></path>
	<path class="st0" d="M30.7,61.5c0.3,0.3,0.8,0.6,1.3,0.6c0.5,0,1-0.2,1.3-0.6c0.4-0.3,0.6-0.8,0.6-1.3c0-0.5-0.2-1-0.6-1.3
		c-0.7-0.7-2-0.7-2.7,0c-0.3,0.3-0.5,0.8-0.5,1.3C30.1,60.7,30.3,61.2,30.7,61.5z" style="fill: #fff;"></path>
	<path class="st0" d="M38.2,57.8c0.3,0.3,0.8,0.6,1.3,0.6c0.5,0,1-0.2,1.3-0.6c0.4-0.3,0.6-0.8,0.6-1.3c0-0.5-0.2-1-0.6-1.3
		c-0.7-0.7-2-0.7-2.7,0c-0.3,0.3-0.5,0.8-0.5,1.3C37.6,56.9,37.8,57.4,38.2,57.8z" style="fill: #fff;"></path>
	<path class="st0" d="M60.8,53.3c-0.3,0.3-0.5,0.8-0.5,1.3c0,0.5,0.2,1,0.6,1.3c0.3,0.3,0.8,0.6,1.3,0.6c0.5,0,1-0.2,1.3-0.6
		c0.4-0.3,0.6-0.8,0.6-1.3c0-0.5-0.2-1-0.6-1.3C62.7,52.6,61.5,52.6,60.8,53.3z" style="fill: #fff;"></path>
</g>
</svg>