<!-- Generator: Adobe Illustrator 19.1.0, SVG Export PlugIn . SVG Version: 6.00 Build 0)  --><svg version="1.1" id="Layer_2" xmlns="http://www.w3.org/2000/svg" xmlns:xlink="http://www.w3.org/1999/xlink" x="0px" y="0px" viewBox="0 0 64 64" style="enable-background:new 0 0 64 64;" xml:space="preserve">
<style type="text/css">
	.st0{fill:#fff;}
</style>
<g>
	<path class="st0" d="M2,34h60c1.1,0,2-0.9,2-2s-0.9-2-2-2H2c-1.1,0-2,0.9-2,2S0.9,34,2,34z" style="fill: #fff;"></path>
	<path class="st0" d="M4,24c0,1.1,0.9,2,2,2h48c1.1,0,2-0.9,2-2s-0.9-2-2-2H6C4.9,22,4,22.9,4,24z" style="fill: #fff;"></path>
	<path class="st0" d="M8,48c0,1.1,0.9,2,2,2h48c1.1,0,2-0.9,2-2s-0.9-2-2-2H10C8.9,46,8,46.9,8,48z" style="fill: #fff;"></path>
	<path class="st0" d="M4,18h22c1.1,0,2-0.9,2-2s-0.9-2-2-2H4c-1.1,0-2,0.9-2,2S2.9,18,4,18z" style="fill: #fff;"></path>
	<path class="st0" d="M46,18c1.1,0,2-0.9,2-2s-0.9-2-2-2H34c-1.1,0-2,0.9-2,2s0.9,2,2,2H46z" style="fill: #fff;"></path>
	<path class="st0" d="M56,16c0,1.1,0.9,2,2,2h4c1.1,0,2-0.9,2-2s-0.9-2-2-2h-4C56.9,14,56,14.9,56,16z" style="fill: #fff;"></path>
	<path class="st0" d="M54,42c1.1,0,2-0.9,2-2s-0.9-2-2-2H32c-1.1,0-2,0.9-2,2s0.9,2,2,2H54z" style="fill: #fff;"></path>
	<path class="st0" d="M12,42h12c1.1,0,2-0.9,2-2s-0.9-2-2-2H12c-1.1,0-2,0.9-2,2S10.9,42,12,42z" style="fill: #fff;"></path>
</g>
</svg>