<!-- Generator: Adobe Illustrator 19.1.0, SVG Export PlugIn . SVG Version: 6.00 Build 0)  --><svg version="1.1" id="Layer_2" xmlns="http://www.w3.org/2000/svg" xmlns:xlink="http://www.w3.org/1999/xlink" x="0px" y="0px" viewBox="0 0 64 64" style="enable-background:new 0 0 64 64;" xml:space="preserve">
<style type="text/css">
	.st0{fill:#fff;}
</style>
<g>
	<path class="st0" d="M48.6,11.5C45.5,5.7,39.5,2,32.9,2c-8.1,0-15.1,5.6-17.2,13.3c-0.5-0.1-1-0.1-1.4-0.1C7.5,15.2,2,20.8,2,27.6
		C2,34.4,7.5,40,14.3,40l33.6,0C55.7,40,62,33.6,62,25.7C62,18.1,56.1,11.9,48.6,11.5z M48,36l-33.7,0C9.7,36,6,32.2,6,27.6
		c0-4.6,3.7-8.4,8.3-8.4c0.8,0,1.6,0.1,2.4,0.4l2.2,0.7l0.3-2.3c1-6.8,6.9-12,13.7-12c5.4,0,10.4,3.3,12.6,8.3l0.6,1.2l1.6-0.1
		c0,0,0.1,0,0.1,0c5.6,0,10.1,4.6,10.1,10.3C58,31.4,53.5,36,48,36z" style="fill: #fff;"></path>
	<path class="st0" d="M18,44c-1.1,0-2,0.9-2,2c-1.1,0-2,0.9-2,2s0.9,2,2,2c0,1.1,0.9,2,2,2s2-0.9,2-2v0c1.1,0,2-0.9,2-2s-0.9-2-2-2
		v0C20,44.9,19.1,44,18,44z" style="fill: #fff;"></path>
	<path class="st0" d="M32,44L32,44c-1.1,0-2,0.9-2,2h0c-1.1,0-2,0.9-2,2s0.9,2,2,2h0v0c0,1.1,0.9,2,2,2c0,0,0,0,0,0c1.1,0,2-0.9,2-2
		c1.1,0,2-0.9,2-2c0-1.1-0.9-2-2-2v0C34,44.9,33.1,44,32,44z" style="fill: #fff;"></path>
	<path class="st0" d="M25.4,54L25.4,54c-1.1,0-2,0.9-2,2v0c-1.1,0-2,0.9-2,2s0.9,2,2,2h0c0,1.1,0.9,2,2,2h0c1.1,0,2-0.9,2-2h0
		c1.1,0,2-0.9,2-2s-0.9-2-2-2h0v0C27.4,54.9,26.5,54,25.4,54z" style="fill: #fff;"></path>
	<path class="st0" d="M40.6,56L40.6,56c0-1.1-0.9-2-2-2c-1.1,0-2,0.9-2,2h0c-1.1,0-2,0.9-2,2s0.9,2,2,2h0c0,1.1,0.9,2,2,2
		c1.1,0,2-0.9,2-2h0c1.1,0,2-0.9,2-2S41.7,56,40.6,56z" style="fill: #fff;"></path>
	<path class="st0" d="M44,50c0,1.1,0.9,2,2,2s2-0.9,2-2v0c1.1,0,2-0.9,2-2c0-1.1-0.9-2-2-2c0-1.1-0.9-2-2-2c-1.1,0-2,0.9-2,2h0
		c-1.1,0-2,0.9-2,2S42.9,50,44,50z" style="fill: #fff;"></path>
</g>
</svg>