<svg xmlns="http://www.w3.org/2000/svg" viewBox="0 0 500 500" id="vector"><g transform="translate(-60 -60) scale(1.25 1.25)">
    <path id="path" d="M 325.57 296.69 C 338.395 296.694 350.774 291.931 360.288 283.332 C 369.802 274.732 375.788 262.896 377.076 250.136 C 378.363 237.376 374.863 224.583 367.259 214.256 C 359.655 203.929 348.477 196.788 335.91 194.23 C 330.387 176.382 318.279 161.284 302.056 152.017 C 285.833 142.75 266.678 139.989 248.498 144.297 C 230.318 148.605 214.439 159.668 204.1 175.23 C 190.326 170.76 175.415 171.233 161.953 176.569 C 148.49 181.905 137.303 191.775 130.332 204.468 C 123.361 217.161 121.034 231.897 123.754 246.121 C 126.474 260.344 134.074 273.182 145.237 282.407 C 156.399 291.632 170.439 296.678 184.92 296.67" fill="#ffffff"></path>
    <path id="path_1" d="M 325.57 304.19 C 340.034 304.038 353.965 298.651 364.769 289.032 C 375.573 279.414 382.535 266.2 384.36 251.85 C 388.06 221.85 367.36 193.38 337.9 186.99 L 343.14 192.23 C 334.07 163.84 309.97 141.42 280.33 136.23 C 264.613 133.464 248.425 135.323 233.744 141.58 C 219.062 147.837 206.51 158.227 197.62 171.48 L 206.09 168.03 C 174.69 158.34 139.74 171.8 123.83 200.8 C 108.67 228.45 114.21 264.17 137.49 285.59 C 150.442 297.449 167.349 304.085 184.91 304.2 C 194.57 304.31 194.57 289.31 184.91 289.2 C 160.41 288.93 138.55 272.6 132.07 248.8 C 128.989 237.119 129.824 224.743 134.447 213.583 C 139.071 202.422 147.231 193.08 157.67 187 C 171.25 179.17 187.21 177.91 202.1 182.51 C 205.44 183.51 208.73 181.77 210.57 179.06 C 225.21 157.52 251.99 145.92 277.72 150.96 C 289.485 153.264 300.42 158.682 309.38 166.647 C 318.341 174.612 325.003 184.836 328.67 196.25 C 329.018 197.501 329.684 198.64 330.602 199.558 C 331.52 200.476 332.659 201.142 333.91 201.49 C 356.44 206.38 372.41 227.24 369.52 250.49 C 366.78 272.58 347.52 288.9 325.52 289.19 C 315.88 289.32 315.85 304.32 325.52 304.19 Z" fill="#ffffff"></path>
    <path id="path_2" d="M 305.79 316.91 L 301.15 314.23 L 304.29 312.4 C 312.63 307.55 305.09 294.58 296.72 299.4 L 288.27 304.31 C 287.61 304.69 286.87 305.08 286.09 305.49 L 283.09 303.76 L 283.09 289.35 L 286.09 287.61 C 286.85 288.01 287.6 288.4 288.27 288.79 L 296.72 293.7 C 305.08 298.56 312.64 285.6 304.29 280.7 L 301.15 278.87 L 304.15 277.15 L 306.02 276.07 C 312.77 272.17 309.14 262.96 303.07 262.07 C 302.552 262.008 302.028 262.008 301.51 262.07 C 300.427 262.181 299.381 262.522 298.44 263.07 L 293.67 265.83 Q 293.67 264.03 293.67 262.23 C 293.67 262 293.67 261.77 293.67 261.55 C 293.04 253.65 281.88 252.88 279.26 259.27 C 278.874 260.222 278.684 261.243 278.7 262.27 L 278.7 272.04 C 278.7 272.78 278.7 273.61 278.63 274.46 L 278.63 274.56 L 274.79 276.78 L 268.6 273.21 C 267.6 272.6 266.36 271.8 265.09 270.97 C 264.45 270.55 263.78 270.12 263.09 269.71 L 263.09 265.61 C 263.85 265.13 264.59 264.66 265.27 264.27 L 273.74 259.41 C 274.26 259.114 274.746 258.762 275.19 258.36 C 281.1 252.97 274.01 241.96 266.19 246.46 L 263.1 248.23 L 263.1 243 C 263.1 233.35 248.1 233.33 248.1 243 L 248.1 248.32 L 245 246.51 C 237.78 242.37 231.17 251.4 234.83 257.06 C 235.489 258.061 236.382 258.888 237.43 259.47 L 245.9 264.33 C 246.58 264.72 247.32 265.19 248.08 265.67 L 248.08 269.92 C 246.31 271.02 244.63 272.2 243.21 273.02 L 236.5 276.9 L 232.56 274.62 C 232.56 273.74 232.49 272.89 232.49 272.1 L 232.49 262.33 C 232.49 252.68 217.49 252.66 217.49 262.33 Q 217.49 264.13 217.49 265.93 L 212.72 263.17 C 204.34 258.34 196.78 271.29 205.15 276.17 L 209.99 278.97 L 206.85 280.8 C 198.51 285.65 206.05 298.62 214.42 293.8 L 222.87 288.89 C 223.53 288.51 224.27 288.12 225.05 287.71 L 228.25 289.56 L 228.25 303.79 L 225.05 305.64 C 224.29 305.24 223.54 304.85 222.87 304.46 L 214.42 299.55 C 206.06 294.69 198.5 307.65 206.85 312.55 L 209.99 314.38 L 205.35 317.06 C 196.99 321.89 204.54 334.85 212.92 330.06 L 217.5 327.42 Q 217.5 329.22 217.5 331.02 C 217.5 340.67 232.5 340.69 232.5 331.02 L 232.5 321.25 C 232.5 320.48 232.5 319.62 232.57 318.73 L 234.93 317.37 L 242.8 321.91 C 244.33 322.79 246.16 324.1 248.1 325.29 L 248.1 327.68 C 247.34 328.16 246.6 328.63 245.92 329.02 L 237.45 333.88 C 229.08 338.68 236.63 351.65 245.02 346.88 L 248.11 345.11 L 248.11 350.66 C 248.11 360.31 263.11 360.33 263.11 350.66 L 263.11 345.11 L 266.2 346.88 C 274.59 351.69 282.2 338.74 273.77 333.88 L 265.3 329.02 C 264.62 328.63 263.88 328.16 263.12 327.68 L 263.12 325.37 C 264.97 324.23 266.72 322.99 268.19 322.14 L 276.38 317.41 L 278.65 318.72 C 278.65 319.6 278.72 320.45 278.72 321.24 L 278.72 331.01 C 278.72 340.66 293.72 340.68 293.72 331.01 Q 293.72 329.21 293.72 327.41 L 298.3 330.05 C 306.59 334.7 314.15 321.74 305.79 316.91 Z M 255.67 311.83 L 255.57 311.77 L 249.91 308.5 L 248.07 307.44 L 243.25 304.66 L 243.25 290.32 L 243.99 289.89 L 248.07 287.53 L 251.49 285.53 L 255.57 283.17 L 255.67 283.11 L 259.75 285.47 L 263.07 287.39 L 267.25 289.8 L 268.09 290.28 L 268.09 304.62 L 263.09 307.52 L 261.35 308.52 Z" fill="#2ea7e0"></path>
</g></svg>