<svg xmlns="http://www.w3.org/2000/svg" viewBox="0 0 500 500" id="vector"><g transform="translate(-60 -60) scale(1.25 1.25)">
    <path id="path" d="M 325.57 313 C 338.395 313.004 350.774 308.241 360.288 299.642 C 369.802 291.042 375.788 279.206 377.076 266.446 C 378.363 253.686 374.863 240.893 367.259 230.566 C 359.655 220.239 348.477 213.098 335.91 210.54 C 330.387 192.692 318.279 177.594 302.056 168.327 C 285.833 159.06 266.678 156.299 248.498 160.607 C 230.318 164.915 214.439 175.978 204.1 191.54 C 190.33 187.087 175.428 187.573 161.978 192.914 C 148.527 198.255 137.351 208.124 130.387 220.811 C 123.423 233.497 121.098 248.224 123.813 262.44 C 126.529 276.655 134.12 289.487 145.27 298.713 C 156.421 307.939 170.448 312.994 184.92 313" fill="#d8bf9e"></path>
    <path id="path_1" d="M 325.57 320.54 C 340.034 320.388 353.965 315.001 364.769 305.382 C 375.573 295.764 382.535 282.55 384.36 268.2 C 388.06 238.2 367.36 209.73 337.9 203.34 L 343.14 208.58 C 334.07 180.19 309.97 157.77 280.33 152.58 C 264.613 149.814 248.425 151.673 233.744 157.93 C 219.062 164.187 206.51 174.577 197.62 187.83 L 206.09 184.38 C 174.69 174.69 139.74 188.15 123.83 217.15 C 108.67 244.8 114.21 280.52 137.49 301.94 C 150.442 313.799 167.349 320.435 184.91 320.55 C 194.57 320.66 194.57 305.66 184.91 305.55 C 160.41 305.28 138.55 288.95 132.07 265.15 C 128.983 253.467 129.815 241.088 134.436 229.923 C 139.058 218.758 147.219 209.413 157.66 203.33 C 171.24 195.5 187.2 194.24 202.09 198.84 C 205.43 199.84 208.72 198.1 210.56 195.39 C 225.2 173.85 251.98 162.25 277.71 167.29 C 289.475 169.594 300.41 175.012 309.37 182.977 C 318.331 190.942 324.993 201.166 328.66 212.58 C 329.008 213.831 329.674 214.97 330.592 215.888 C 331.51 216.806 332.649 217.472 333.9 217.82 C 356.43 222.71 372.4 243.57 369.51 266.82 C 366.77 288.91 347.51 305.23 325.51 305.52 C 315.87 305.65 315.84 320.65 325.51 320.52 Z" fill="#d8bf9e"></path>
    <path id="path_2" d="M 195.82 292.24 C 205.47 292.24 205.49 277.24 195.82 277.24 C 186.15 277.24 186.15 292.24 195.82 292.24 Z" fill="#a58c6b"></path>
    <path id="path_3" d="M 223.67 292.24 C 233.32 292.24 233.34 277.24 223.67 277.24 C 214 277.24 214 292.24 223.67 292.24 Z" fill="#a58c6b"></path>
    <path id="path_4" d="M 251.52 292.24 C 261.17 292.24 261.19 277.24 251.52 277.24 C 241.85 277.24 241.85 292.24 251.52 292.24 Z" fill="#a58c6b"></path>
    <path id="path_5" d="M 279.37 292.24 C 289.02 292.24 289.04 277.24 279.37 277.24 C 269.7 277.24 269.7 292.24 279.37 292.24 Z" fill="#a58c6b"></path>
    <path id="path_6" d="M 307.21 292.24 C 316.86 292.24 316.88 277.24 307.21 277.24 C 297.54 277.24 297.54 292.24 307.21 292.24 Z" fill="#a58c6b"></path>
    <path id="path_7" d="M 228.82 348.83 C 238.47 348.83 238.49 333.83 228.82 333.83 C 219.15 333.83 219.15 348.83 228.82 348.83 Z" fill="#a58c6b"></path>
    <path id="path_8" d="M 256.67 348.83 C 266.32 348.83 266.34 333.83 256.67 333.83 C 247 333.83 247 348.83 256.67 348.83 Z" fill="#a58c6b"></path>
    <path id="path_9" d="M 284.52 348.83 C 294.17 348.83 294.19 333.83 284.52 333.83 C 274.85 333.83 274.85 348.83 284.52 348.83 Z" fill="#a58c6b"></path>
    <path id="path_10" d="M 312.37 348.83 C 322.02 348.83 322.04 333.83 312.37 333.83 C 302.7 333.83 302.7 348.83 312.37 348.83 Z" fill="#a58c6b"></path>
    <path id="path_11" d="M 340.22 348.83 C 349.87 348.83 349.89 333.83 340.22 333.83 C 330.55 333.83 330.55 348.83 340.22 348.83 Z" fill="#a58c6b"></path>
    <path id="path_12" d="M 211.08 320.54 C 220.73 320.54 220.75 305.54 211.08 305.54 C 201.41 305.54 201.41 320.54 211.08 320.54 Z" fill="#a58c6b"></path>
    <path id="path_13" d="M 240.84 320.54 C 250.49 320.54 250.51 305.54 240.84 305.54 C 231.17 305.54 231.17 320.54 240.84 320.54 Z" fill="#a58c6b"></path>
    <path id="path_14" d="M 270.59 320.54 C 280.24 320.54 280.26 305.54 270.59 305.54 C 260.92 305.54 260.92 320.54 270.59 320.54 Z" fill="#a58c6b"></path>
    <path id="path_15" d="M 300.35 320.54 C 310 320.54 310.02 305.54 300.35 305.54 C 290.68 305.54 290.68 320.54 300.35 320.54 Z" fill="#a58c6b"></path>
</g></svg>