<svg xmlns="http://www.w3.org/2000/svg" viewBox="0 0 500 500" id="vector"><g transform="translate(-60 -60) scale(1.25 1.25)">
    <path id="path" d="M 253.07 104.67 L 253.07 71 C 253.07 61.35 238.07 61.33 238.07 71 L 238.07 104.65 C 238.07 114.32 253.07 114.34 253.07 104.67 Z M 245.57 71 L 245.57 71 Z" fill="#f8b62d"></path>
    <path id="path_1" d="M 176.66 125.19 C 181.49 133.55 194.45 126 189.66 117.62 L 172.79 88.47 C 167.96 80.11 155 87.66 159.79 96.04 Z M 183.14 121.4 L 166.31 92.25 Z" fill="#f8b62d"></path>
    <path id="path_2" d="M 87.06 237 L 120.71 237 C 130.36 237 130.38 222 120.71 222 L 87.06 222 C 77.4 222 77.39 237 87.06 237 Z M 120.71 229.5 L 120.71 229.5 Z" fill="#f8b62d"></path>
    <path id="path_3" d="M 314.47 125.19 L 331.3 96 C 336.14 87.63 323.18 80.06 318.3 88.43 L 301.47 117.58 C 296.68 126 309.64 133.55 314.47 125.19 Z M 324.82 92.26 L 308 121.4 Z" fill="#f8b62d"></path>
    <path id="path_4" d="M 336.08 375.24 L 318.72 375.24 L 318.72 367.9 L 321.72 366.17 C 322.49 366.57 323.23 366.96 323.9 367.35 L 332.35 372.26 C 333.476 372.941 334.764 373.311 336.08 373.33 Z" fill="#ffffff" stroke="#ffffff"></path>
    <path id="path_5" d="M 250.05 372.26 L 258.49 367.35 C 259.15 366.97 259.9 366.58 260.68 366.17 L 263.87 368.02 L 263.87 375.24 L 246.31 375.24 L 246.31 373.33 C 247.63 373.314 248.922 372.945 250.05 372.26 Z" fill="#ffffff" stroke="#ffffff"></path>
    <path id="path_6" d="M 303.72 373.7 L 303.72 375.24 L 278.87 375.24 L 278.87 367.9 L 283.7 365.12 L 286.28 363.63 L 291.2 360.79 L 291.3 360.73 L 296.22 363.57 L 298.7 365 Q 301.2 366.45 303.7 367.9 Z" fill="#ffffff" stroke="#ffffff"></path>
    <path id="path_7" d="M 369.54 280 C 392.07 284.89 408.04 305.75 405.15 329 C 402.4 351.09 383.15 367.41 361.15 367.7 C 356.37 367.77 353.95 371.48 353.91 375.2 L 336.08 375.2 L 336.08 373.29 C 342.65 373.29 346.99 363.37 339.92 359.29 L 336.77 357.47 L 341.62 354.67 C 349.97 349.85 342.43 336.88 334.05 341.72 L 329.27 344.47 C 329.27 343.28 329.27 342.08 329.27 340.88 C 329.27 331.23 314.27 331.21 314.27 340.88 L 314.27 350.65 C 314.27 351.41 314.27 352.27 314.2 353.17 L 311.2 354.9 L 304.2 350.84 C 302.62 349.93 300.71 348.56 298.71 347.34 L 298.71 344.21 C 299.47 343.73 300.2 343.26 300.89 342.87 L 309.36 338 C 317.73 333.2 310.19 320.24 301.79 325.05 L 298.71 326.82 L 298.71 321.5 C 298.763 319.689 298.111 317.926 296.891 316.585 C 295.672 315.244 293.978 314.428 292.17 314.31 C 290.77 314.041 289.322 314.199 288.013 314.762 C 286.704 315.325 285.594 316.269 284.826 317.47 C 284.059 318.671 283.67 320.075 283.71 321.5 L 283.71 326.82 L 280.62 325.05 C 272.23 320.24 264.67 333.2 273.05 338 L 281.52 342.87 C 282.21 343.26 282.94 343.73 283.71 344.21 L 283.71 347.49 C 281.93 348.6 280.25 349.78 278.84 350.6 L 271.27 355 L 268.17 353.2 C 268.17 352.33 268.1 351.47 268.1 350.69 L 268.1 340.92 C 268.1 331.27 253.1 331.25 253.1 340.92 C 253.1 342.12 253.1 343.32 253.1 344.52 L 248.33 341.76 C 239.95 336.92 232.39 349.88 240.76 354.71 L 245.6 357.51 L 242.45 359.33 C 235.39 363.44 239.71 373.33 246.29 373.33 L 246.29 375.24 L 227.78 375.24 C 227.78 371.52 225.34 367.8 220.54 367.74 C 196.04 367.47 174.18 351.15 167.7 327.34 C 164.447 315.162 165.508 302.226 170.7 290.74 C 172.864 285.88 175.717 281.357 179.17 277.31 C 183.179 272.603 187.965 268.619 193.32 265.53 C 206.9 257.7 222.86 256.44 237.75 261.03 C 241.09 262.03 244.38 260.3 246.22 257.59 C 260.86 236.05 287.64 224.45 313.37 229.49 C 318.118 230.423 322.751 231.865 327.19 233.79 C 328.06 234.17 328.92 234.57 329.76 234.98 C 330.6 235.39 331.7 235.98 332.65 236.46 C 335.713 238.139 338.641 240.051 341.41 242.18 C 352.177 250.464 360.17 261.834 364.32 274.77 C 364.666 276.017 365.329 277.154 366.243 278.07 C 367.158 278.987 368.293 279.651 369.54 280 Z" fill="#ffffff" stroke="#ffffff"></path>
    <path id="path_8" d="M 404.07 222 C 413.74 222 413.72 237 404.07 237 L 370.42 237 C 360.75 237 360.77 222 370.42 222 Z" fill="#f8b62d"></path>
    <path id="path_9" d="M 342.21 233.41 C 356.184 242.804 366.533 256.701 371.53 272.78 C 384.097 275.338 395.275 282.479 402.879 292.806 C 410.483 303.133 413.983 315.926 412.696 328.686 C 411.408 341.446 405.422 353.282 395.908 361.882 C 386.394 370.481 374.015 375.244 361.19 375.24 L 354 375.24 C 354 371.52 356.46 367.81 361.24 367.74 C 383.24 367.45 402.45 351.13 405.24 329.04 C 408.13 305.76 392.16 284.9 369.63 280.04 C 368.379 279.693 367.238 279.028 366.32 278.11 C 365.402 277.192 364.737 276.051 364.39 274.8 C 360.24 261.864 352.247 250.494 341.48 242.21 C 341.8 239.29 342.07 236.36 342.21 233.41 Z" fill="#ffffff" stroke="#ffffff"></path>
    <path id="path_10" d="M 379.05 143.79 C 387.43 138.95 394.98 151.92 386.62 156.79 L 357.48 173.61 C 349.09 178.45 341.55 165.49 349.91 160.66 Z" fill="#f8b62d"></path>
    <path id="path_11" d="M 378.76 270.79 L 373.52 265.55 C 374.79 265.82 376.02 266.15 377.25 266.5 C 377.79 267.92 378.3 269.34 378.76 270.79 Z" fill="#ffffff" stroke="#ffffff"></path>
    <path id="path_12" d="M 342.32 230.1 C 342.32 229.91 342.32 229.72 342.32 229.52 C 342.32 229.32 342.32 229.18 342.32 229.01 C 342.32 227.52 342.23 226.01 342.15 224.55 C 358.217 234.204 370.582 248.982 377.25 266.5 C 376.02 266.15 374.79 265.82 373.52 265.55 L 378.76 270.79 C 378.3 269.34 377.76 267.92 377.25 266.5 C 404.68 274.38 423.52 301.65 419.98 330.4 C 418.157 344.75 411.195 357.966 400.391 367.585 C 389.587 377.203 375.655 382.59 361.19 382.74 C 356.31 382.81 353.9 379.03 353.95 375.24 L 361.19 375.24 C 374.015 375.244 386.394 370.481 395.908 361.882 C 405.422 353.282 411.408 341.446 412.696 328.686 C 413.983 315.926 410.483 303.133 402.879 292.806 C 395.275 282.479 384.097 275.338 371.53 272.78 C 366.533 256.701 356.184 242.804 342.21 233.41 C 342.27 232.31 342.31 231.21 342.32 230.1 Z" fill="#ffffff" stroke="#ffffff"></path>
    <path id="path_13" d="M 341.56 233 C 342.008 232.102 342.267 231.122 342.32 230.12 C 342.32 231.23 342.27 232.33 342.21 233.43 Z" fill="#ffffff" stroke="#ffffff"></path>
    <path id="path_14" d="M 334.05 341.73 C 342.43 336.89 349.97 349.86 341.62 354.68 L 336.77 357.48 L 339.92 359.3 C 346.99 363.41 342.65 373.3 336.08 373.3 C 334.764 373.281 333.476 372.911 332.35 372.23 L 323.9 367.32 C 323.23 366.93 322.49 366.54 321.72 366.14 L 318.72 367.87 L 318.72 375.21 L 303.72 375.21 L 303.72 367.9 Q 301.2 366.46 298.72 365 L 296.24 363.57 L 291.32 360.73 L 291.22 360.79 L 286.3 363.63 L 283.72 365.12 L 278.89 367.9 L 278.89 375.24 L 263.89 375.24 L 263.89 368 L 260.7 366.15 C 259.92 366.56 259.17 366.95 258.51 367.33 L 250.07 372.24 C 248.942 372.925 247.65 373.294 246.33 373.31 C 239.75 373.31 235.43 363.39 242.49 359.31 L 245.64 357.49 L 240.8 354.69 C 232.43 349.86 239.99 336.9 248.37 341.74 L 253.14 344.5 C 253.14 343.3 253.14 342.1 253.14 340.9 C 253.14 331.23 268.14 331.25 268.14 340.9 L 268.14 350.67 C 268.14 351.45 268.14 352.31 268.21 353.18 L 271.31 354.98 L 278.87 350.62 C 280.28 349.8 281.96 348.62 283.74 347.51 L 283.74 344.23 C 282.97 343.75 282.24 343.28 281.55 342.89 L 273 338 C 264.62 333.2 272.18 320.24 280.57 325.05 L 283.66 326.82 L 283.66 321.5 C 283.62 320.075 284.009 318.671 284.776 317.47 C 285.544 316.269 286.654 315.325 287.963 314.762 C 289.272 314.199 290.72 314.041 292.12 314.31 C 293.928 314.428 295.622 315.244 296.841 316.585 C 298.061 317.926 298.713 319.689 298.66 321.5 L 298.66 326.82 L 301.74 325.05 C 310.14 320.24 317.68 333.2 309.31 338 L 300.84 342.87 C 300.15 343.26 299.42 343.73 298.66 344.21 L 298.66 347.34 C 300.66 348.56 302.57 349.93 304.15 350.84 L 311.15 354.9 L 314.15 353.17 C 314.15 352.27 314.22 351.41 314.22 350.65 L 314.22 340.88 C 314.22 331.21 329.22 331.23 329.22 340.88 C 329.22 342.08 329.22 343.28 329.22 344.47 Z" fill="#2ea7e0"></path>
    <path id="path_15" d="M 341.42 395.46 C 349.79 400.29 342.22 413.25 333.85 408.46 L 329.27 405.81 C 329.27 407.01 329.27 408.21 329.27 409.41 C 329.27 419.08 314.27 419.06 314.27 409.41 L 314.27 399.64 C 314.27 398.86 314.27 398 314.2 397.13 L 311.1 395.33 L 303.74 399.58 C 302.27 400.43 300.52 401.67 298.68 402.81 L 298.68 406 C 299.44 406.48 300.18 406.95 300.86 407.34 L 309.33 412.21 C 317.71 417.01 310.15 429.97 301.76 425.16 L 298.68 423.39 L 298.68 429 C 298.68 438.67 283.68 438.65 283.68 429 L 283.68 423.45 L 280.59 425.22 C 272.2 430.03 264.65 417.07 273.02 412.27 L 281.49 407.4 C 282.18 407.01 282.91 406.54 283.68 406.06 L 283.68 402.7 C 281.74 401.5 279.91 400.2 278.38 399.31 L 271.38 395.26 L 268.19 397.1 C 268.19 398 268.11 398.85 268.11 399.62 L 268.11 409.39 C 268.11 419.06 253.11 419.04 253.11 409.39 C 253.11 408.19 253.11 406.99 253.11 405.79 L 248.54 408.44 C 240.15 413.28 232.61 400.31 240.96 395.44 L 245.61 392.76 L 242.47 391 C 235.4 386.89 239.74 377 246.31 377 C 247.629 377.019 248.92 377.388 250.05 378.07 L 258.49 382.98 C 259.16 383.37 259.91 383.76 260.67 384.16 L 263.87 382.31 L 263.87 375.31 L 278.87 375.31 L 278.87 382.31 L 283.7 385 L 286.38 386.54 L 291.2 389.33 L 291.3 389.39 L 296.12 386.6 L 298.7 385.11 L 303.62 382.27 L 303.72 382.21 L 303.72 375.21 L 318.72 375.21 L 318.72 382.33 L 321.72 384.06 C 322.5 383.65 323.25 383.26 323.9 382.88 L 332.35 377.97 C 333.478 377.284 334.77 376.914 336.09 376.9 C 342.66 376.9 346.98 386.82 339.92 390.9 L 336.77 392.72 Z" fill="#2ea7e0"></path>
    <path id="path_16" d="M 341.56 233 C 339.93 236.23 335.96 237.39 332.63 236.48 C 331.63 235.96 330.72 235.48 329.74 235 C 328.961 234.324 328.341 233.484 327.924 232.54 C 327.507 231.596 327.304 230.571 327.33 229.54 C 327.321 228.322 327.609 227.121 328.17 226.04 C 332.86 227.895 337.347 230.227 341.56 233 Z" fill="#ffffff" stroke="#ffffff"></path>
    <path id="path_17" d="M 328.17 226 C 331.27 220.16 341.93 221.16 342.32 229 C 342.32 229.17 342.32 229.34 342.32 229.51 C 342.32 229.68 342.32 229.9 342.32 230.09 C 342.267 231.092 342.008 232.072 341.56 232.97 C 337.347 230.194 332.861 227.858 328.17 226 Z" fill="#ffffff" stroke="#ffffff"></path>
    <path id="path_18" d="M 332.63 236.46 C 335.96 237.37 339.93 236.21 341.56 232.98 L 342.21 233.41 C 342.07 236.36 341.8 239.29 341.39 242.18 C 338.621 240.051 335.693 238.139 332.63 236.46 Z" fill="#ffffff" stroke="#ffffff"></path>
    <path id="path_19" d="M 327.2 225.64 C 327.046 222.863 326.749 220.096 326.31 217.35 C 331.841 219.155 337.153 221.57 342.15 224.55 C 342.23 226.03 342.3 227.55 342.32 229.01 C 341.93 221.18 331.27 220.18 328.17 226.01 Z" fill="#ffffff" stroke="#ffffff"></path>
    <path id="path_20" d="M 328.17 226 C 327.609 227.081 327.321 228.282 327.33 229.5 C 327.33 228.2 327.27 226.91 327.2 225.62 Z" fill="#ffffff" stroke="#ffffff"></path>
    <path id="path_21" d="M 327.33 229.52 C 327.304 230.551 327.507 231.576 327.924 232.52 C 328.341 233.464 328.961 234.304 329.74 234.98 C 328.9 234.57 328.04 234.17 327.17 233.79 C 327.26 232.38 327.32 231 327.33 229.52 Z" fill="#ffffff" stroke="#ffffff"></path>
    <path id="path_22" d="M 301.11 220.88 C 310.023 220.872 318.864 222.485 327.2 225.64 C 327.27 226.93 327.32 228.22 327.33 229.52 C 327.34 230.82 327.26 232.38 327.17 233.79 C 322.731 231.865 318.098 230.423 313.35 229.49 C 287.62 224.49 260.84 236.05 246.2 257.59 C 244.36 260.3 241.07 262.06 237.73 261.03 C 222.84 256.44 206.88 257.7 193.3 265.53 C 187.945 268.619 183.159 272.603 179.15 277.31 C 177.606 275.207 176.174 273.024 174.86 270.77 C 182.104 262.928 191.246 257.082 201.404 253.796 C 211.561 250.511 222.396 249.896 232.86 252.01 C 235.182 252.477 237.476 253.075 239.73 253.8 C 246.449 243.674 255.572 235.367 266.281 229.623 C 276.991 223.879 288.957 220.875 301.11 220.88 Z" fill="#ffffff" stroke="#ffffff"></path>
    <path id="path_23" d="M 236.74 245.25 C 245.929 233.442 258.168 224.361 272.132 218.989 C 286.097 213.617 301.266 212.155 316 214.76 C 319.509 215.385 322.97 216.25 326.36 217.35 C 326.799 220.096 327.096 222.863 327.25 225.64 C 311.637 219.742 294.475 219.314 278.588 224.428 C 262.7 229.542 249.01 239.901 239.77 253.8 C 237.516 253.075 235.222 252.477 232.9 252.01 L 233.3 250.01 L 241.77 246.56 C 240.07 246.06 238.41 245.63 236.74 245.25 Z" fill="#ffffff" stroke="#ffffff"></path>
    <path id="path_24" d="M 175.63 187.13 C 193.17 158.18 228.11 142.53 261.39 149.27 C 277.848 152.67 292.883 161.011 304.481 173.173 C 316.078 185.335 323.695 200.749 326.31 217.35 C 322.937 216.252 319.492 215.387 316 214.76 C 301.274 212.164 286.115 213.632 272.16 219.003 C 258.205 224.375 245.975 233.45 236.79 245.25 C 225.197 242.608 213.124 242.917 201.681 246.149 C 190.239 249.381 179.788 255.433 171.29 263.75 C 165.793 251.573 163.317 238.247 164.073 224.908 C 164.828 211.57 168.793 198.608 175.63 187.13 Z" fill="#f8b62d"></path>
    <path id="path_25" d="M 241.72 246.57 L 233.25 250 C 234.36 248.36 235.53 246.77 236.74 245.23 C 238.41 245.63 240.07 246.06 241.72 246.57 Z" fill="#ffffff" stroke="#ffffff"></path>
    <path id="path_26" d="M 171.24 263.75 C 179.738 255.433 190.189 249.381 201.631 246.149 C 213.074 242.917 225.147 242.608 236.74 245.25 C 235.53 246.79 234.36 248.38 233.25 250.02 L 232.85 252.02 C 222.386 249.906 211.551 250.521 201.394 253.806 C 191.236 257.092 182.094 262.938 174.85 270.78 C 173.53 268.498 172.325 266.152 171.24 263.75 Z" fill="#ffffff" stroke="#ffffff"></path>
    <path id="path_27" d="M 158.31 313 C 158.31 329.498 164.871 345.337 176.537 357.003 C 188.203 368.669 204.042 375.23 220.54 375.23 L 227.78 375.23 C 227.78 379.01 225.4 382.79 220.54 382.73 C 202.978 382.617 186.071 375.982 173.12 364.12 C 149.84 342.7 144.3 306.98 159.46 279.33 C 159.96 278.41 160.46 277.51 161.03 276.63 C 161.56 277.58 162.11 278.54 162.68 279.48 C 163.59 280.99 164.55 282.48 165.54 283.89 C 160.78 292.853 158.297 302.851 158.31 313 Z" fill="#ffffff" stroke="#ffffff"></path>
    <path id="path_28" d="M 174.86 270.77 C 176.174 273.024 177.606 275.207 179.15 277.31 C 175.697 281.357 172.844 285.88 170.68 290.74 C 168.87 288.55 167.16 286.26 165.54 283.9 C 168.058 279.134 171.191 274.719 174.86 270.77 Z" fill="#ffffff" stroke="#ffffff"></path>
    <path id="path_29" d="M 171.24 263.75 C 167.319 267.617 163.88 271.946 161 276.64 C 141.73 242.14 146 198.47 171 167.88 C 196.37 136.83 240.58 124.64 278.27 138.46 C 296.128 145.05 311.682 156.705 323.023 171.993 C 334.363 187.281 341.004 205.549 342.13 224.55 C 337.133 221.57 331.821 219.155 326.29 217.35 C 323.675 200.749 316.058 185.335 304.461 173.173 C 292.863 161.011 277.828 152.67 261.37 149.27 C 228.09 142.53 193.15 158.18 175.61 187.13 C 168.769 198.606 164.798 211.566 164.038 224.905 C 163.277 238.243 165.748 251.571 171.24 263.75 Z" fill="#f8b62d" stroke="#f8b62d"></path>
    <path id="path_30" d="M 161 276.64 C 163.871 271.947 167.299 267.619 171.21 263.75 C 172.299 266.142 173.507 268.478 174.83 270.75 C 171.161 274.699 168.028 279.114 165.51 283.88 C 164.51 282.44 163.56 280.98 162.65 279.47 C 162.11 278.55 161.56 277.59 161 276.64 Z" fill="#ffffff" stroke="#ffffff"></path>
    <path id="path_31" d="M 227.78 375.24 L 220.54 375.24 C 206.175 375.24 192.245 370.265 181.128 361.168 C 170.012 352.07 162.381 339.398 159.541 325.317 C 156.7 311.236 158.82 296.596 165.54 283.9 C 167.16 286.26 168.87 288.55 170.68 290.74 C 165.488 302.226 164.427 315.162 167.68 327.34 C 174.16 351.15 196.02 367.47 220.52 367.74 C 225.34 367.8 227.75 371.52 227.78 375.24 Z" fill="#ffffff" stroke="#ffffff"></path>
    <path id="path_32" d="M 141.22 160.62 C 149.59 165.45 142.02 178.41 133.65 173.57 L 104.5 156.75 C 96.14 151.91 103.7 138.96 112.07 143.75 Z" fill="#f8b62d"></path>
    <path id="path_33" d="M 133.65 285.48 C 142.03 280.64 149.58 293.6 141.22 298.43 L 112.07 315.25 C 103.69 320.1 96.15 307.13 104.5 302.3 Z" fill="#f8b62d"></path>
</g></svg>