<svg xmlns="http://www.w3.org/2000/svg" viewBox="0 0 500 500" id="vector"><g transform="translate(-60 -60) scale(1.25 1.25)">
    <path id="path" d="M 325.57 323.16 C 338.395 323.164 350.774 318.401 360.288 309.802 C 369.802 301.202 375.788 289.366 377.076 276.606 C 378.363 263.846 374.863 251.053 367.259 240.726 C 359.655 230.399 348.477 223.258 335.91 220.7 C 330.387 202.852 318.279 187.754 302.056 178.487 C 285.833 169.22 266.678 166.459 248.498 170.767 C 230.318 175.075 214.439 186.138 204.1 201.7 C 190.326 197.23 175.415 197.703 161.953 203.039 C 148.49 208.375 137.303 218.245 130.332 230.938 C 123.361 243.631 121.034 258.367 123.754 272.591 C 126.474 286.814 134.074 299.652 145.237 308.877 C 156.399 318.102 170.439 323.148 184.92 323.14" fill="#ffffff"></path>
    <path id="path_1" d="M 325.57 330.66 C 340.034 330.508 353.965 325.121 364.769 315.502 C 375.573 305.884 382.535 292.67 384.36 278.32 C 388.06 248.32 367.36 219.85 337.9 213.46 L 343.14 218.7 C 334.07 190.31 309.97 167.89 280.33 162.7 C 264.613 159.934 248.425 161.793 233.744 168.05 C 219.062 174.307 206.51 184.697 197.62 197.95 L 206.09 194.5 C 174.69 184.81 139.74 198.27 123.83 227.27 C 108.67 254.92 114.21 290.64 137.49 312.06 C 150.442 323.919 167.349 330.555 184.91 330.67 C 194.57 330.78 194.57 315.78 184.91 315.67 C 160.41 315.4 138.55 299.07 132.07 275.27 C 128.983 263.587 129.815 251.208 134.436 240.043 C 139.058 228.878 147.219 219.533 157.66 213.45 C 171.24 205.62 187.2 204.36 202.09 208.96 C 205.43 209.96 208.72 208.22 210.56 205.51 C 225.22 184 252 172.37 277.73 177.4 C 289.495 179.704 300.43 185.122 309.39 193.087 C 318.351 201.052 325.013 211.276 328.68 222.69 C 329.028 223.941 329.694 225.08 330.612 225.998 C 331.53 226.916 332.669 227.582 333.92 227.93 C 356.45 232.82 372.42 253.68 369.53 276.93 C 366.79 299.02 347.53 315.34 325.53 315.63 C 315.89 315.76 315.86 330.76 325.53 330.63 Z" fill="#ffffff"></path>
    <path id="path_2" d="M 219.97 331.2 L 212.6 312" fill="#2ea7e0"></path>
    <path id="path_3" d="M 227.2 329.21 L 219.83 310 C 218.38 306.22 214.83 303.61 210.6 304.76 C 206.99 305.76 203.9 310.18 205.36 313.99 L 212.73 333.19 C 214.18 336.97 217.73 339.58 221.96 338.43 C 225.57 337.43 228.66 333.01 227.2 329.2 Z" fill="#2ea7e0"></path>
    <path id="path_4" d="M 257.93 331.2 L 250.56 312" fill="#2ea7e0"></path>
    <path id="path_5" d="M 265.16 329.21 L 257.79 310 C 256.34 306.22 252.79 303.61 248.56 304.76 C 244.95 305.76 241.86 310.18 243.32 313.99 L 250.69 333.19 C 252.14 336.97 255.69 339.58 259.92 338.43 C 263.53 337.43 266.62 333.01 265.16 329.2 Z" fill="#2ea7e0"></path>
    <path id="path_6" d="M 295.89 331.2 L 288.52 312" fill="#2ea7e0"></path>
    <path id="path_7" d="M 303.12 329.21 L 295.75 310 C 294.3 306.22 290.75 303.61 286.52 304.76 C 282.91 305.76 279.82 310.18 281.28 313.99 L 288.65 333.19 C 290.1 336.97 293.65 339.58 297.88 338.43 C 301.49 337.43 304.58 333.01 303.12 329.2 Z" fill="#2ea7e0"></path>
</g></svg>