<svg xmlns="http://www.w3.org/2000/svg" viewBox="0 0 500 500" id="vector"><g transform="translate(-60 -60) scale(1.25 1.25)">
    <path id="path" d="M 236.75 272.11 C 245.939 260.306 258.177 251.229 272.14 245.86 C 286.103 240.492 301.27 239.032 316 241.64 C 319.51 242.26 322.971 243.125 326.36 244.23 C 323.745 227.629 316.128 212.215 304.531 200.053 C 292.933 187.891 277.898 179.55 261.44 176.15 C 228.11 169.4 193.17 185 175.64 214 C 168.799 225.468 164.825 238.419 164.058 251.75 C 163.29 265.081 165.751 278.403 171.23 290.58 C 171.7 290.12 172.17 289.66 172.65 289.21 C 181.111 281.321 191.386 275.634 202.564 272.652 C 213.741 269.67 225.483 269.484 236.75 272.11 Z" fill="#f8b62d" stroke="#f8b62d" stroke-width="1"></path>
    <path id="path_1" d="M 171.23 290.58 C 165.751 278.403 163.29 265.081 164.058 251.75 C 164.825 238.419 168.799 225.468 175.64 214 C 193.18 185.05 228.12 169.4 261.4 176.14 C 277.858 179.54 292.893 187.881 304.491 200.043 C 316.088 212.205 323.705 227.619 326.32 244.22 C 331.851 246.021 337.164 248.432 342.16 251.41 C 341.027 232.411 334.383 214.147 323.043 198.86 C 311.704 183.574 296.153 171.917 278.3 165.32 C 240.61 151.5 196.4 163.7 171.03 194.75 C 146.03 225.35 141.77 269.05 161.03 303.55 C 163.889 298.827 167.314 294.472 171.23 290.58 Z" fill="#f8b62d" stroke="#f8b62d" stroke-width="1"></path>
    <path id="path_2" d="M 253.07 131.54 L 253.07 97.89 C 253.07 88.24 238.07 88.22 238.07 97.89 L 238.07 131.54 C 238.07 141.19 253.07 141.21 253.07 131.54 Z M 245.57 97.89 L 245.57 97.89 Z" fill="#f8b62d" stroke="#f8b62d" stroke-width="1"></path>
    <path id="path_3" d="M 176.66 152.05 C 181.49 160.41 194.45 152.86 189.66 144.48 L 172.83 115.33 C 168 106.97 155.04 114.52 159.83 122.9 Z M 183.14 148.26 L 166.31 119.11 Z" fill="#f8b62d" stroke="#f8b62d" stroke-width="1"></path>
    <path id="path_4" d="M 141.22 187.49 L 112.07 170.66 C 103.7 165.82 96.13 178.78 104.5 183.66 L 133.65 200.49 C 142 205.28 149.59 192.32 141.22 187.49 Z M 108.29 177.14 L 137.44 194 Z" fill="#f8b62d" stroke="#f8b62d" stroke-width="1"></path>
    <path id="path_5" d="M 87.06 263.9 L 120.71 263.9 C 130.36 263.9 130.38 248.9 120.71 248.9 L 87.06 248.9 C 77.4 248.9 77.39 263.9 87.06 263.9 Z M 120.71 256.4 L 120.71 256.4 Z" fill="#f8b62d" stroke="#f8b62d" stroke-width="1"></path>
    <path id="path_6" d="M 112.08 342.13 L 141.23 325.3 C 149.59 320.47 142.04 307.51 133.66 312.3 L 104.51 329.13 C 96.15 334 103.69 347 112.08 342.13 Z M 137.44 318.83 L 108.29 335.66 Z" fill="#f8b62d" stroke="#f8b62d" stroke-width="1"></path>
    <path id="path_7" d="M 370.42 263.9 L 404.07 263.9 C 413.72 263.9 413.74 248.9 404.07 248.9 L 370.42 248.9 C 360.77 248.9 360.75 263.9 370.42 263.9 Z M 370.42 256.4 L 370.42 256.4 Z" fill="#f8b62d" stroke="#f8b62d" stroke-width="1"></path>
    <path id="path_8" d="M 357.48 200.44 L 386.63 183.61 C 394.99 178.78 387.44 165.82 379.06 170.61 L 349.91 187.44 C 341.55 192.32 349.1 205.28 357.48 200.44 Z M 382.84 177.14 L 353.7 194 Z" fill="#f8b62d" stroke="#f8b62d" stroke-width="1"></path>
    <path id="path_9" d="M 314.47 152.05 L 331.3 122.9 C 336.14 114.53 323.18 106.96 318.3 115.33 L 301.47 144.48 C 296.68 152.86 309.64 160.42 314.47 152.05 Z M 324.82 119.12 L 308 148.27 Z" fill="#f8b62d" stroke="#f8b62d" stroke-width="1"></path>
    <path id="path_10" d="M 377.25 293.37 C 377.79 294.78 378.3 296.21 378.76 297.66 C 379.215 298.978 379.27 300.401 378.92 301.75 C 390.346 305.915 399.946 313.978 406.023 324.513 C 412.1 335.048 414.272 347.396 412.157 359.372 C 410.041 371.349 403.77 382.204 394.452 390.02 C 385.133 397.835 373.352 402.121 361.19 402.12 L 220.54 402.12 C 206.173 402.121 192.24 397.147 181.123 388.047 C 170.005 378.948 162.374 366.274 159.534 352.191 C 156.694 338.108 158.817 323.467 165.54 310.77 C 164.54 309.33 163.59 307.87 162.68 306.37 C 162.12 305.44 161.58 304.5 161.06 303.56 C 152.422 317.968 149.151 334.976 151.83 351.56 C 153.699 362.555 158.179 372.943 164.891 381.849 C 171.604 390.756 180.356 397.924 190.41 402.75 C 202.09 408.22 214.19 409.61 226.86 409.61 L 350.31 409.61 C 360.11 409.61 369.81 409.89 379.31 406.79 C 403.94 398.73 421.16 374.96 420.44 348.92 C 420.017 336.291 415.612 324.114 407.856 314.139 C 400.1 304.164 389.385 296.892 377.25 293.37 Z" fill="#ffffff" stroke="#ffffff" stroke-width="1"></path>
    <path id="path_11" d="M 220.54 277.65 C 227.051 277.639 233.523 278.652 239.72 280.65 C 248.96 266.751 262.65 256.392 278.538 251.278 C 294.425 246.164 311.587 246.592 327.2 252.49 C 327.044 249.713 326.747 246.946 326.31 244.2 C 322.937 243.108 319.492 242.252 316 241.64 C 301.276 239.04 286.117 240.503 272.162 245.871 C 258.207 251.239 245.976 260.312 236.79 272.11 C 238.46 272.49 240.11 272.93 241.79 273.44 L 233.32 276.89 Q 235 274.43 236.82 272.11 C 225.552 269.482 213.808 269.667 202.628 272.649 C 191.448 275.631 181.173 281.319 172.71 289.21 C 172.23 289.66 171.71 290.12 171.29 290.59 C 172.38 293.003 173.592 295.359 174.92 297.65 C 180.73 291.346 187.783 286.313 195.635 282.871 C 203.487 279.429 211.967 277.651 220.54 277.65 Z" fill="#ffffff" stroke="#ffffff" stroke-width="1"></path>
    <path id="path_12" d="M 241.72 273.44 C 240.07 272.93 238.42 272.49 236.72 272.11 Q 234.9 274.43 233.22 276.89 Z" fill="#ffffff" stroke="#ffffff" stroke-width="1"></path>
    <path id="path_13" d="M 342.22 260.28 C 354.102 268.285 363.407 279.57 369 292.76 C 370.434 292.179 372.014 292.057 373.52 292.41 C 374.78 292.68 376.02 293.01 377.25 293.41 C 370.59 275.875 358.224 261.078 342.15 251.41 C 342.25 253.06 342.32 254.72 342.33 256.41 C 342.32 257.7 342.28 259 342.22 260.28 Z" fill="#ffffff" stroke="#ffffff" stroke-width="1"></path>
    <path id="path_14" d="M 369 292.76 C 369.958 295.013 370.803 297.312 371.53 299.65 C 374.042 300.164 376.513 300.866 378.92 301.75 C 379.27 300.401 379.215 298.978 378.76 297.66 C 378.3 296.21 377.76 294.79 377.25 293.37 C 376.02 293.02 374.78 292.69 373.52 292.37 C 372.009 292.03 370.43 292.166 369 292.76 Z" fill="#ffffff" stroke="#ffffff" stroke-width="1"></path>
    <path id="path_15" d="M 342.33 256.4 C 342.39 248.11 331.33 246.94 328.18 252.9 C 332.872 254.767 337.359 257.112 341.57 259.9 C 342.105 258.813 342.365 257.611 342.33 256.4 Z" fill="#ffffff" stroke="#ffffff" stroke-width="1"></path>
    <path id="path_16" d="M 342.22 260.28 C 342.28 258.99 342.33 257.69 342.34 256.39 C 342.366 257.588 342.102 258.776 341.57 259.85 Z" fill="#ffffff" stroke="#ffffff" stroke-width="1"></path>
    <path id="path_17" d="M 165.54 310.77 C 168.066 306.009 171.199 301.595 174.86 297.64 C 173.532 295.349 172.32 292.993 171.23 290.58 C 167.323 294.483 163.908 298.848 161.06 303.58 C 161.59 304.52 162.12 305.46 162.68 306.39 C 163.59 307.87 164.56 309.33 165.54 310.77 Z" fill="#ffffff" stroke="#ffffff" stroke-width="1"></path>
    <path id="path_18" d="M 327.21 252.51 L 328.21 252.89 C 331.38 246.89 342.43 248.1 342.36 256.39 C 342.36 254.72 342.28 253.06 342.18 251.39 C 337.184 248.412 331.871 246.001 326.34 244.2 C 326.771 246.953 327.061 249.727 327.21 252.51 Z" fill="#ffffff" stroke="#ffffff" stroke-width="1"></path>
    <path id="path_19" d="M 405.36 347.5 C 406.36 366.56 395.17 384.78 377.18 391.67 C 369.06 394.78 360.93 394.62 352.47 394.62 L 237 394.62 C 231.52 394.62 226 394.67 220.55 394.62 C 208.317 394.639 196.424 390.555 186.784 383.024 C 177.144 375.493 170.302 364.943 167.36 353.069 C 164.418 341.195 165.541 328.671 170.55 317.51 C 172.158 313.838 174.17 310.356 176.55 307.13 C 177.33 306.08 178.14 305.07 178.99 304.13 C 193.37 287.44 216.55 281.44 237.64 287.95 C 240.98 288.95 244.27 287.21 246.11 284.5 C 260.75 262.97 287.53 251.37 313.26 256.4 C 318.009 257.332 322.643 258.777 327.08 260.71 C 327.95 261.09 328.81 261.48 329.65 261.89 C 330.49 262.3 331.59 262.89 332.54 263.38 C 347.548 271.58 358.86 285.224 364.14 301.49 C 364.323 302.847 364.938 304.109 365.895 305.089 C 366.851 306.069 368.098 306.714 369.45 306.93 C 388.93 311.09 404.25 327.28 405.36 347.5 Z" fill="#ffffff" stroke="#ffffff"></path>
    <path id="path_20" d="M 378.92 301.75 C 390.346 305.915 399.946 313.978 406.023 324.513 C 412.1 335.048 414.272 347.396 412.157 359.372 C 410.041 371.349 403.77 382.204 394.452 390.02 C 385.133 397.835 373.352 402.121 361.19 402.12 L 220.54 402.12 C 206.059 402.128 192.019 397.082 180.857 387.857 C 169.694 378.632 162.094 365.794 159.374 351.571 C 156.654 337.347 158.981 322.611 165.952 309.918 C 172.923 297.225 184.11 287.355 197.573 282.019 C 211.035 276.683 225.946 276.21 239.72 280.68 C 248.96 266.781 262.65 256.422 278.538 251.308 C 294.425 246.194 311.587 246.622 327.2 252.52 L 328.2 252.9 C 332.895 254.76 337.383 257.106 341.59 259.9 C 341.81 260.04 342.03 260.18 342.24 260.33 C 354.111 268.324 363.409 279.596 369 292.77 C 369.95 295.01 370.8 297.31 371.53 299.66 C 374.043 300.169 376.513 300.868 378.92 301.75 Z M 377.18 391.67 C 395.18 384.78 406.4 366.56 405.36 347.5 C 404.25 327.28 388.93 311.09 369.54 306.89 C 368.188 306.674 366.941 306.029 365.985 305.049 C 365.028 304.069 364.413 302.807 364.23 301.45 C 358.95 285.184 347.638 271.54 332.63 263.34 C 331.63 262.82 330.72 262.34 329.74 261.85 C 328.76 261.36 328.04 261.05 327.17 260.67 C 322.733 258.737 318.099 257.292 313.35 256.36 C 287.62 251.36 260.84 262.93 246.2 284.46 C 244.36 287.17 241.07 288.94 237.73 287.91 C 216.64 281.4 193.46 287.4 179.08 304.09 C 178.23 305.09 177.42 306.09 176.64 307.09 C 174.26 310.316 172.248 313.798 170.64 317.47 C 165.631 328.631 164.508 341.155 167.45 353.029 C 170.392 364.903 177.234 375.453 186.874 382.984 C 196.514 390.515 208.407 394.599 220.64 394.58 C 226.12 394.63 231.64 394.58 237.09 394.58 L 352.47 394.58 C 360.93 394.62 369.06 394.78 377.18 391.67 Z" fill="#ffffff" stroke="#ffffff"></path>
</g></svg>