<svg xmlns="http://www.w3.org/2000/svg" viewBox="0 0 500 500" id="vector"><g transform="translate(-60 -60) scale(1.25 1.25)">
    <path id="path" d="M 325.57 301.28 C 338.395 301.284 350.774 296.521 360.288 287.922 C 369.802 279.322 375.788 267.486 377.076 254.726 C 378.363 241.966 374.863 229.173 367.259 218.846 C 359.655 208.519 348.477 201.378 335.91 198.82 C 330.387 180.972 318.279 165.874 302.056 156.607 C 285.833 147.34 266.678 144.579 248.498 148.887 C 230.318 153.195 214.439 164.258 204.1 179.82 C 190.326 175.35 175.415 175.823 161.953 181.159 C 148.49 186.495 137.303 196.365 130.332 209.058 C 123.361 221.751 121.034 236.487 123.754 250.711 C 126.474 264.934 134.074 277.772 145.237 286.997 C 156.399 296.222 170.439 301.268 184.92 301.26" fill="#ffffff"></path>
    <path id="path_1" d="M 325.57 308.78 C 340.034 308.628 353.965 303.241 364.769 293.622 C 375.573 284.004 382.535 270.79 384.36 256.44 C 388.06 226.44 367.36 197.97 337.9 191.58 L 343.14 196.82 C 334.07 168.43 309.97 146.01 280.33 140.82 C 264.613 138.054 248.425 139.913 233.744 146.17 C 219.062 152.427 206.51 162.817 197.62 176.07 L 206.09 172.62 C 174.69 162.93 139.74 176.39 123.83 205.39 C 108.67 233.04 114.21 268.76 137.49 290.18 C 150.442 302.039 167.349 308.675 184.91 308.79 C 194.57 308.9 194.57 293.9 184.91 293.79 C 160.41 293.52 138.55 277.19 132.07 253.39 C 128.983 241.707 129.815 229.328 134.436 218.163 C 139.058 206.998 147.219 197.653 157.66 191.57 C 171.24 183.74 187.2 182.48 202.09 187.08 C 205.43 188.08 208.72 186.34 210.56 183.63 C 225.2 162.09 251.98 150.49 277.71 155.53 C 289.475 157.834 300.41 163.252 309.37 171.217 C 318.331 179.182 324.993 189.406 328.66 200.82 C 329.008 202.071 329.674 203.21 330.592 204.128 C 331.51 205.046 332.649 205.712 333.9 206.06 C 356.43 210.95 372.4 231.81 369.51 255.06 C 366.77 277.15 347.51 293.47 325.51 293.76 C 315.87 293.89 315.84 308.89 325.51 308.76 Z" fill="#ffffff"></path>
    <path id="path_2" d="M 204.97 267.32 L 197.59 248.12" fill="#2ea7e0"></path>
    <path id="path_3" d="M 212.2 265.32 L 204.83 246.12 C 203.38 242.34 199.83 239.73 195.6 240.88 C 191.99 241.88 188.9 246.3 190.36 250.11 L 197.73 269.31 C 199.18 273.09 202.73 275.7 206.96 274.55 C 210.57 273.55 213.66 269.13 212.2 265.32 Z" fill="#2ea7e0"></path>
    <path id="path_4" d="M 242.93 267.32 L 235.56 248.12" fill="#2ea7e0"></path>
    <path id="path_5" d="M 250.16 265.33 L 242.79 246.13 C 241.34 242.35 237.79 239.74 233.56 240.89 C 229.95 241.89 226.86 246.31 228.32 250.12 L 235.69 269.32 C 237.14 273.1 240.69 275.71 244.92 274.56 C 248.53 273.56 251.62 269.14 250.16 265.33 Z" fill="#2ea7e0"></path>
    <path id="path_6" d="M 280.89 267.32 L 273.52 248.12" fill="#2ea7e0"></path>
    <path id="path_7" d="M 288.12 265.33 L 280.75 246.13 C 279.3 242.35 275.75 239.74 271.52 240.89 C 267.91 241.89 264.82 246.31 266.28 250.12 L 273.65 269.32 C 275.1 273.1 278.65 275.71 282.88 274.56 C 286.49 273.56 289.58 269.14 288.12 265.33 Z" fill="#2ea7e0"></path>
    <path id="path_8" d="M 221.44 310.2 L 214.06 291" fill="#2ea7e0"></path>
    <path id="path_9" d="M 228.67 308.21 L 221.29 289 C 219.84 285.22 216.29 282.61 212.06 283.76 C 208.45 284.76 205.36 289.18 206.82 292.99 L 214.19 312.19 C 215.64 315.97 219.19 318.58 223.42 317.43 C 227.03 316.43 230.12 312.01 228.66 308.2 Z" fill="#2ea7e0"></path>
    <path id="path_10" d="M 259.4 310.2 L 252.02 291" fill="#2ea7e0"></path>
    <path id="path_11" d="M 266.63 308.21 L 259.26 289 C 257.81 285.22 254.26 282.61 250.03 283.76 C 246.42 284.76 243.33 289.18 244.79 292.99 L 252.16 312.19 C 253.61 315.97 257.16 318.58 261.39 317.43 C 265 316.43 268.09 312.01 266.63 308.2 Z" fill="#2ea7e0"></path>
    <path id="path_12" d="M 297.36 310.2 L 289.98 291" fill="#2ea7e0"></path>
    <path id="path_13" d="M 304.59 308.21 L 297.22 289 C 295.77 285.22 292.22 282.61 287.99 283.76 C 284.38 284.76 281.29 289.18 282.75 292.99 L 290.12 312.19 C 291.57 315.97 295.12 318.58 299.35 317.43 C 302.96 316.43 306.05 312.01 304.59 308.2 Z" fill="#2ea7e0"></path>
    <path id="path_14" d="M 237.9 353.08 L 230.53 333.88" fill="#2ea7e0"></path>
    <path id="path_15" d="M 245.14 351.09 L 237.77 331.89 C 236.32 328.11 232.77 325.5 228.54 326.65 C 224.93 327.65 221.84 332.07 223.3 335.88 L 230.67 355.08 C 232.12 358.86 235.67 361.47 239.9 360.32 C 243.51 359.32 246.6 354.9 245.14 351.09 Z" fill="#2ea7e0"></path>
    <path id="path_16" d="M 275.86 353.08 L 268.49 333.88" fill="#2ea7e0"></path>
    <path id="path_17" d="M 283.1 351.09 L 275.73 331.89 C 274.28 328.11 270.73 325.5 266.5 326.65 C 262.89 327.65 259.8 332.07 261.26 335.88 L 268.63 355.08 C 270.08 358.86 273.63 361.47 277.86 360.32 C 281.47 359.32 284.56 354.9 283.1 351.09 Z" fill="#2ea7e0"></path>
    <path id="path_18" d="M 313.83 353.08 L 306.45 333.88" fill="#2ea7e0"></path>
    <path id="path_19" d="M 321.06 351.09 L 313.69 331.89 C 312.24 328.11 308.69 325.5 304.46 326.65 C 300.85 327.65 297.76 332.07 299.22 335.88 L 306.59 355.08 C 308.04 358.86 311.59 361.47 315.82 360.32 C 319.43 359.32 322.52 354.9 321.06 351.09 Z" fill="#2ea7e0"></path>
</g></svg>