<svg xmlns="http://www.w3.org/2000/svg" viewBox="0 0 500 500" id="vector"><g transform="translate(-60 -60) scale(1.25 1.25)">
    <path id="path" d="M 215.44 305.85 L 239.26 305.85 L 244.69 300.65 C 246.115 299.279 248.017 298.512 249.995 298.512 C 251.973 298.512 253.875 299.279 255.3 300.65 L 260.73 305.85 L 284.55 305.85 C 284.55 302.1 286.97 298.35 291.8 298.35 L 320.16 298.35 C 329.17 283.323 333.099 265.783 331.359 248.347 C 329.62 230.912 322.303 214.494 310.501 201.544 C 298.699 188.593 283.029 179.787 265.83 176.44 C 232.55 169.7 197.6 185.35 180.07 214.3 C 172.493 226.99 168.449 241.48 168.357 256.259 C 168.266 271.039 172.131 285.577 179.55 298.36 L 208.2 298.36 C 213 298.35 215.44 302.1 215.44 305.85 Z" fill="#f8b62d"></path>
    <path id="path_1" d="M 180.07 214.3 C 197.61 185.35 232.55 169.7 265.83 176.44 C 284.334 180.265 300.979 190.32 312.974 204.918 C 324.97 219.517 331.606 237.796 331.77 256.69 C 331.84 247.03 346.84 247.04 346.77 256.69 C 346.599 236.813 340.384 217.45 328.954 201.187 C 317.525 184.923 301.414 172.516 282.77 165.62 C 245 151.8 200.82 164 175.45 195.05 C 151.76 224.05 146.71 264.8 162.66 298.35 L 179.54 298.35 C 172.124 285.567 168.262 271.03 168.355 256.253 C 168.448 241.475 172.494 226.988 180.07 214.3 Z" fill="#f8b62d"></path>
    <path id="path_2" d="M 331.77 256.69 C 331.84 266.34 346.84 266.36 346.77 256.69 C 346.7 247.02 331.84 247 331.77 256.69 Z" fill="#f8b62d"></path>
    <path id="path_3" d="M 331.77 256.69 C 331.63 271.353 327.628 285.724 320.17 298.35 L 337 298.35 C 343.3 285.358 346.641 271.128 346.78 256.69 C 346.84 266.36 331.84 266.34 331.77 256.69 Z" fill="#f8b62d"></path>
    <path id="path_4" d="M 257.5 131.84 L 257.5 98.18 C 257.5 88.53 242.5 88.51 242.5 98.18 L 242.5 131.83 C 242.5 141.49 257.5 141.5 257.5 131.84 Z M 250 98.18 L 250 98.18 Z" fill="#f8b62d"></path>
    <path id="path_5" d="M 194 144.78 L 177.17 115.63 C 172.34 107.27 159.38 114.82 164.17 123.2 L 181 152.35 C 185.92 160.71 198.89 153.16 194 144.78 Z M 187.52 148.57 L 170.69 119.42 Z" fill="#f8b62d"></path>
    <path id="path_6" d="M 108.94 183.91 L 138.09 200.74 C 146.47 205.58 154.03 192.62 145.66 187.74 L 116.51 171 C 108.14 166.13 100.57 179.08 108.94 183.91 Z M 112.73 177.43 L 141.88 194.26 Z" fill="#f8b62d"></path>
    <path id="path_7" d="M 91.49 264.19 L 125.14 264.19 C 134.79 264.19 134.81 249.19 125.14 249.19 L 91.49 249.19 C 81.84 249.19 81.82 264.19 91.49 264.19 Z M 91.49 256.69 L 91.49 256.69 Z" fill="#f8b62d"></path>
    <path id="path_8" d="M 408.51 249.19 L 374.86 249.19 C 365.21 249.19 365.19 264.19 374.86 264.19 L 408.51 264.19 C 418.16 264.19 418.18 249.19 408.51 249.19 Z M 374.86 256.69 L 374.86 256.69 Z" fill="#f8b62d"></path>
    <path id="path_9" d="M 361.91 200.74 L 391.06 183.91 C 399.42 179.08 391.87 166.12 383.49 170.91 L 354.34 187.74 C 346 192.61 353.53 205.58 361.91 200.74 Z M 387.27 177.44 L 358.12 194.27 Z" fill="#f8b62d"></path>
    <path id="path_10" d="M 318.9 152.35 L 335.73 123.2 C 340.57 114.83 327.61 107.26 322.73 115.63 L 306 144.78 C 301.12 153.15 314.07 160.72 318.9 152.35 Z M 329.25 119.42 L 312.42 148.57 Z" fill="#f8b62d"></path>
    <path id="path_11" d="M 407.32 298.35 L 291.8 298.35 C 286.97 298.35 284.56 302.1 284.55 305.85 C 284.54 309.6 286.96 313.35 291.8 313.35 L 407.32 313.35 C 417 313.35 417 298.35 407.32 298.35 Z" fill="#ffffff"></path>
    <path id="path_12" d="M 171.58 313.35 L 208.2 313.35 C 213.03 313.35 215.44 309.6 215.44 305.85 C 215.44 302.1 213.03 298.35 208.2 298.35 L 92.68 298.35 C 83.03 298.35 83.01 313.35 92.68 313.35 L 171.57 313.35 Z" fill="#ffffff"></path>
    <path id="path_13" d="M 375.15 338.46 L 294.81 338.46 L 286.1 330.13 L 260.73 305.85 L 255.3 300.65 C 253.875 299.279 251.973 298.512 249.995 298.512 C 248.017 298.512 246.115 299.279 244.69 300.65 L 239.26 305.85 L 214.08 329.94 L 205.18 338.45 L 124.85 338.45 C 115.2 338.45 115.18 353.45 124.85 353.45 L 186.59 353.45 C 193.73 353.45 201.07 353.94 208.2 353.45 C 212.06 353.19 214.79 350.18 217.42 347.53 L 218.42 346.59 L 219 346 L 229.72 335.74 L 231.49 334.05 L 250 316.36 C 256.65 322.86 263.25 329.48 270 335.97 C 273.5 339.35 277 342.7 280.63 345.97 C 281.32 346.6 282.02 347.21 282.71 347.83 C 283.95 348.94 285.18 350.05 286.44 351.13 C 291.44 355.49 302.32 353.47 308.44 353.47 L 375.26 353.47 C 384.8 353.46 384.82 338.46 375.15 338.46 Z" fill="#ffffff"></path>
    <path id="path_14" d="M 346.5 378.57 L 153.5 378.57 C 143.85 378.57 143.83 393.57 153.5 393.57 L 346.5 393.57 C 356.15 393.57 356.17 378.57 346.5 378.57 Z" fill="#ffffff"></path>
</g></svg>