<svg xmlns="http://www.w3.org/2000/svg" viewBox="0 0 500 500" id="vector"><g transform="translate(-60 -60) scale(1.25 1.25)">
    <path id="path" d="M 335.89 296.85 C 342.568 290.27 348.461 282.938 353.45 275 C 331.31 280.598 308.097 280.398 286.057 274.419 C 264.017 268.44 243.885 256.88 227.61 240.86 C 211.594 224.587 200.037 204.458 194.058 182.422 C 188.079 160.386 187.876 137.177 193.47 115.04 C 168.655 130.554 150.546 154.832 142.75 183.04 C 131.62 224.1 144.75 267.94 173.92 296.81 L 335.92 296.81 Z" fill="#f4ec90" stroke="#f4ec90"></path>
    <path id="path_1" d="M 307.34 139.27 C 306.72 140.49 306.06 141.69 305.34 142.85 C 301.511 148.816 296.538 153.965 290.71 158 C 289.028 159.173 287.267 160.229 285.44 161.16 C 289.466 163.287 293.204 165.922 296.56 169 C 300.926 173 304.551 177.74 307.27 183 L 307.86 181.93 C 311.222 175.878 315.777 170.57 321.25 166.33 C 323.752 164.358 326.43 162.621 329.25 161.14 C 319.916 156.219 312.279 148.595 307.34 139.27 Z" fill="#ffffff" stroke="#ffffff"></path>
    <path id="path_2" d="M 227.61 240.89 C 243.888 256.905 264.021 268.459 286.061 274.433 C 308.101 280.407 331.313 280.602 353.45 275 C 356.838 269.63 359.807 264.007 362.33 258.18 L 370.8 269.18 C 365.163 271.532 359.365 273.477 353.45 275 C 348.459 282.927 342.567 290.249 335.89 296.82 L 356.23 296.82 C 364.012 287.407 370.428 276.944 375.29 265.74 C 377.49 260.65 373.64 251.88 366.82 254.74 C 322.82 273.1 272.23 263.86 238.22 230.27 C 245 237.16 234.4 247.77 227.61 240.89 Z" fill="#f4ec90" stroke="#f4ec90"></path>
    <path id="path_3" d="M 142.75 183.08 C 150.546 154.872 168.655 130.594 193.47 115.08 C 194.989 109.159 196.931 103.354 199.28 97.71 L 210.28 106.18 C 204.447 108.705 198.82 111.681 193.45 115.08 C 187.856 137.217 188.059 160.426 194.038 182.462 C 200.017 204.498 211.574 224.627 227.59 240.9 C 220.71 234.1 231.32 223.5 238.2 230.29 C 204.61 196.29 195.37 145.65 213.73 101.69 C 216.59 94.85 207.84 91 202.73 93.22 C 171.708 106.656 147.051 131.579 133.948 162.744 C 120.846 193.909 120.288 228.964 132.39 260.53 C 137.511 273.681 144.676 285.942 153.62 296.86 L 173.93 296.86 C 144.75 268 131.61 224.14 142.75 183.08 Z" fill="#f4ec90" stroke="#f4ec90"></path>
    <path id="path_4" d="M 227.61 240.89 C 234.4 247.77 245.01 237.16 238.22 230.28 C 231.43 223.4 220.72 234.09 227.61 240.89 Z" fill="#f4ec90" stroke="#f4ec90"></path>
    <path id="path_5" d="M 199.28 97.69 C 196.931 103.334 194.989 109.139 193.47 115.06 C 198.84 111.661 204.467 108.685 210.3 106.16 Z" fill="#f4ec90" stroke="#f4ec90"></path>
    <path id="path_6" d="M 362.33 258.2 C 359.806 264.02 356.837 269.637 353.45 275 C 359.365 273.48 365.163 271.539 370.8 269.19 Z" fill="#f4ec90" stroke="#f4ec90"></path>
    <path id="path_7" d="M 335.89 296.85 L 173.89 296.85 Q 177.89 300.79 182.25 304.35 L 327.45 304.35 Q 331.86 300.8 335.89 296.85 Z" fill="#ffffff" stroke="#ffffff"></path>
    <path id="path_8" d="M 92.68 304.35 L 160.23 304.35 Q 156.78 300.73 153.61 296.85 L 92.68 296.85 C 83.03 296.85 83.01 311.85 92.68 311.85 L 127.3 311.85 L 127.3 304.35 Z" fill="#ffffff" stroke="#ffffff"></path>
    <path id="path_9" d="M 407.32 296.85 L 356.23 296.85 Q 353.03 300.73 349.54 304.35 L 372.7 304.35 L 372.7 311.85 L 407.32 311.85 C 417 311.85 417 296.85 407.32 296.85 Z" fill="#ffffff" stroke="#ffffff"></path>
    <path id="path_10" d="M 327.48 304.35 L 349.54 304.35 Q 353.02 300.73 356.23 296.85 L 335.89 296.85 Q 331.87 300.8 327.48 304.35 Z" fill="#ffffff" stroke="#ffffff"></path>
    <path id="path_11" d="M 182.28 304.35 Q 177.91 300.8 173.92 296.85 L 153.61 296.85 Q 156.78 300.72 160.23 304.35 Z" fill="#ffffff" stroke="#ffffff"></path>
    <path id="path_12" d="M 198.85 311.85 L 317.09 311.85 C 320.691 309.546 324.159 307.042 327.48 304.35 L 182.28 304.35 C 185.601 307.046 189.073 309.55 192.68 311.85 Z" fill="#ffffff" stroke="#ffffff"></path>
    <path id="path_13" d="M 349.54 304.35 Q 345.78 308.26 341.72 311.85 L 372.72 311.85 L 372.72 304.35 Z" fill="#ffffff" stroke="#ffffff"></path>
    <path id="path_14" d="M 160.23 304.35 L 127.3 304.35 L 127.3 311.85 L 168 311.85 Q 164 308.26 160.23 304.35 Z" fill="#ffffff" stroke="#ffffff"></path>
    <path id="path_15" d="M 317.09 311.85 L 341.72 311.85 Q 345.78 308.26 349.54 304.35 L 327.48 304.35 C 324.159 307.042 320.691 309.546 317.09 311.85 Z" fill="#ffffff" stroke="#ffffff"></path>
    <path id="path_16" d="M 182.28 304.35 L 160.28 304.35 Q 164 308.26 168.05 311.85 L 192.73 311.85 C 189.106 309.552 185.617 307.048 182.28 304.35 Z" fill="#ffffff" stroke="#ffffff"></path>
    <path id="path_17" d="M 375.15 344.45 L 372.7 344.45 L 372.7 352 L 375.15 352 C 384.8 352 384.82 337 375.15 337 L 372.7 337 L 372.7 344.5 Z" fill="#ffffff" stroke="#ffffff"></path>
    <path id="path_18" d="M 124.85 344.45 L 127.3 344.45 L 127.3 337 L 124.85 337 C 115.2 337 115.18 352 124.85 352 L 127.3 352 L 127.3 344.5 Z" fill="#ffffff" stroke="#ffffff"></path>
    <path id="path_19" d="M 202.89 349.76 L 205.19 351.96 L 208.19 351.96 Z" fill="#ffffff" stroke="#ffffff"></path>
    <path id="path_20" d="M 208.2 344.45 L 219.45 344.45 Q 216.57 341.83 213.64 339.29 C 208.64 334.93 197.76 336.95 191.64 336.95 L 127.3 336.95 L 127.3 344.45 Z" fill="#ffffff" stroke="#ffffff"></path>
    <path id="path_21" d="M 300.23 336.74 Q 294.91 338.74 289.4 340.21 Q 286.64 340.96 283.86 341.58 C 283.1 342.34 282.37 343.1 281.63 343.81 L 280.96 344.45 L 372.7 344.45 L 372.7 337 L 313.41 337 C 309.06 337 304.64 336.78 300.23 336.74 Z" fill="#ffffff" stroke="#ffffff"></path>
    <path id="path_22" d="M 291.8 352 L 294.8 352 L 297.1 349.8 Z" fill="#ffffff" stroke="#ffffff"></path>
    <path id="path_23" d="M 291.8 344.45 L 250 384.45 L 208.2 344.45 L 127.3 344.45 L 127.3 352 L 205.19 352 L 202.89 349.8 L 208.19 352 L 205.19 352 L 244.7 389.81 C 246.125 391.181 248.027 391.948 250.005 391.948 C 251.983 391.948 253.885 391.181 255.31 389.81 L 294.81 352 L 291.81 352 L 297.11 349.8 L 294.81 352 L 372.7 352 L 372.7 344.5 Z" fill="#ffffff" stroke="#ffffff"></path>
    <path id="path_24" d="M 291.8 337 C 288.56 337.22 286.12 339.38 283.86 341.63 Q 286.64 341.01 289.4 340.26 Q 294.9 338.77 300.23 336.79 C 297.41 336.72 294.59 336.76 291.8 337 Z" fill="#ffffff" stroke="#ffffff"></path>
    <path id="path_25" d="M 250 374.05 Q 252.63 376.62 255.27 379.15 L 244.7 379.15 L 250.03 374.05 C 239.9 364.16 229.92 353.97 219.45 344.45 L 208.2 344.45 L 250 384.45 L 291.8 344.45 L 281 344.45 L 268.47 356.4 Z" fill="#ffffff" stroke="#ffffff"></path>
    <path id="path_26" d="M 255.3 379.15 Q 252.65 376.62 250.03 374.05 L 244.7 379.15 Z" fill="#ffffff" stroke="#ffffff"></path>
    <path id="path_27" d="M 291.8 377.06 C 282.15 377.06 282.13 392.06 291.8 392.06 L 346.5 392.06 C 356.15 392.06 356.17 377.06 346.5 377.06 Z M 291.8 384.56 L 291.8 384.56 Z" fill="#ffffff" stroke="#ffffff"></path>
    <path id="path_28" d="M 208.2 377.06 L 153.5 377.06 C 143.85 377.06 143.83 392.06 153.5 392.06 L 208.2 392.06 C 217.85 392.06 217.86 377.06 208.2 377.06 Z M 153.5 384.56 L 153.5 384.56 Z" fill="#ffffff" stroke="#ffffff"></path>
</g></svg>