<svg xmlns="http://www.w3.org/2000/svg" viewBox="0 0 500 500" id="vector"><g transform="translate(-60 -60) scale(1.25 1.25)">
    <path id="path" d="M 292.48 141 C 291.915 142.083 291.623 143.288 291.63 144.51 C 291.63 143.2 291.58 141.91 291.51 140.62 Z" fill="#ababab" stroke="#ababab"></path>
    <path id="path_1" d="M 135.55 178.76 C 136.636 181.152 137.841 183.488 139.16 185.76 C 135.502 189.718 132.37 194.131 129.84 198.89 C 128.84 197.45 127.9 195.99 126.98 194.48 C 126.41 193.54 125.87 192.59 125.33 191.63 C 128.202 186.942 131.634 182.62 135.55 178.76 Z" fill="#ababab" stroke="#ababab"></path>
    <path id="path_2" d="M 290.62 132.37 Q 291.26 136.45 291.51 140.65 C 276.97 135.16 261.06 134.404 246.065 138.49 C 231.07 142.577 217.744 151.301 208 163.41 L 206 161.58 C 204.35 161.07 202.69 160.64 201 160.26 C 210.186 148.459 222.418 139.383 236.375 134.013 C 250.332 128.643 265.493 127.179 280.22 129.78 C 283.744 130.394 287.219 131.26 290.62 132.37 Z" fill="#ababab" stroke="#ababab"></path>
    <path id="path_3" d="M 343.07 185.8 L 337.83 180.56 C 339.09 180.83 340.33 181.16 341.56 181.51 C 342.09 182.93 342.61 184.35 343.07 185.8 Z" fill="#ababab" stroke="#ababab"></path>
    <path id="path_4" d="M 127 194.5 C 127.92 196.01 128.88 197.5 129.86 198.91 C 123.14 211.606 121.02 226.246 123.861 240.327 C 126.701 254.408 134.332 267.08 145.448 276.178 C 156.565 285.275 170.495 290.25 184.86 290.25 L 192.1 290.25 C 192.1 294.03 189.72 297.81 184.86 297.75 C 167.298 297.639 150.39 291.003 137.44 279.14 C 114.15 257.72 108.61 222.01 123.78 194.35 C 124.28 193.44 124.78 192.53 125.34 191.65 C 125.87 192.61 126.41 193.56 127 194.5 Z" fill="#ababab" stroke="#ababab"></path>
    <path id="path_5" d="M 291.51 140.65 C 291.58 141.94 291.62 143.23 291.63 144.54 C 291.64 145.85 291.56 147.39 291.48 148.81 C 287.043 146.878 282.409 145.433 277.66 144.5 C 251.92 139.5 225.15 151.06 210.5 172.6 C 208.66 175.31 205.37 177.07 202.03 176.05 C 187.14 171.45 171.18 172.71 157.6 180.54 C 152.246 183.635 147.46 187.622 143.45 192.33 C 141.91 190.2 140.45 188.02 139.16 185.78 C 147.231 177.064 157.626 170.833 169.116 167.822 C 180.607 164.81 192.722 165.143 204.03 168.78 Q 205.89 165.99 208.03 163.38 C 217.775 151.267 231.105 142.54 246.104 138.454 C 261.103 134.367 277.017 135.125 291.56 140.62 Z" fill="#ababab" stroke="#ababab"></path>
    <path id="path_6" d="M 292.48 141 C 297.17 142.872 301.656 145.217 305.87 148 C 304.23 151.24 300.27 152.39 296.93 151.48 C 295.99 150.96 295.02 150.48 294.05 150 C 293.27 149.326 292.649 148.488 292.231 147.546 C 291.812 146.603 291.607 145.581 291.63 144.55 C 291.616 143.315 291.908 142.095 292.48 141 Z" fill="#ababab" stroke="#ababab"></path>
    <path id="path_7" d="M 290.62 132.37 C 296.149 134.167 301.459 136.579 306.45 139.56 C 306.54 141.04 306.61 142.56 306.62 144.02 C 306.23 136.19 295.62 135.2 292.48 141.02 L 291.48 140.64 Q 291.27 136.45 290.62 132.37 Z" fill="#ababab" stroke="#ababab"></path>
    <path id="path_8" d="M 207.64 290.25 L 253.07 290.25 C 253.053 291.496 252.759 292.722 252.21 293.84 L 236.36 326 Q 254.09 308.1 271.84 290.22 L 293 290.22 Q 254.24 329.32 215.47 368.41 C 214.795 369.57 213.759 370.478 212.522 370.998 C 211.284 371.517 209.911 371.62 208.61 371.29 C 203.81 370.49 199.93 364.67 203.03 359.89 L 233.74 297.52 L 215.1 297.52 C 213.164 297.491 211.31 296.721 209.923 295.369 C 208.537 294.018 207.719 292.185 207.64 290.25 Z" fill="#faee00" stroke="#faee00"></path>
    <path id="path_9" d="M 208.62 286.27 L 219.44 267.82 Q 226.88 255.1 234.33 242.4 C 235.33 240.72 236.19 238.99 237.16 237.4 C 239.16 234.11 241.61 231.46 246.24 231.29 Q 249.65 231.19 253.06 231.13 C 266.06 230.92 279.06 231.29 291.96 231.29 C 297.38 231.29 301.66 237.76 298.44 242.58 L 286.38 260.58 L 304.38 260.58 C 310.9 260.58 314.25 268.78 309.68 273.38 L 297.75 285.38 C 296.15 286.99 294.56 288.6 292.96 290.2 L 271.84 290.2 L 286.38 275.54 L 272.38 275.54 C 266.96 275.54 262.67 269.07 265.9 264.25 L 277.96 246.25 L 249.43 246.25 L 228.19 282.5 L 245.74 282.5 C 247.071 282.493 248.379 282.849 249.522 283.532 C 250.666 284.214 251.601 285.196 252.226 286.371 C 252.851 287.547 253.143 288.871 253.07 290.2 L 207.64 290.2 C 207.585 288.823 207.925 287.46 208.62 286.27 Z" fill="#faee00" stroke="#faee00"></path>
    <path id="path_10" d="M 296.93 151.47 C 300.27 152.38 304.23 151.23 305.87 147.99 C 306.08 148.14 306.3 148.28 306.52 148.42 C 306.38 151.37 306.1 154.3 305.7 157.2 C 302.932 155.062 300 153.146 296.93 151.47 Z" fill="#ababab" stroke="#ababab"></path>
    <path id="path_11" d="M 206 161.58 L 208 163.41 Q 205.91 166.02 204 168.81 C 201.742 168.083 199.445 167.486 197.12 167.02 L 197.52 165.02 Z" fill="#ababab" stroke="#ababab"></path>
    <path id="path_12" d="M 291.63 144.54 C 291.607 145.571 291.812 146.593 292.231 147.536 C 292.649 148.478 293.27 149.316 294.05 149.99 C 293.2 149.58 292.34 149.18 291.48 148.81 C 291.56 147.39 291.62 146 291.63 144.54 Z" fill="#ababab" stroke="#ababab"></path>
    <path id="path_13" d="M 122.61 228 C 122.598 217.851 125.081 207.854 129.84 198.89 C 131.46 201.26 133.18 203.54 134.98 205.73 C 129.782 217.218 128.722 230.159 131.98 242.34 C 138.45 266.14 160.31 282.46 184.82 282.73 C 189.61 282.79 192.02 286.51 192.06 290.23 L 184.82 290.23 C 168.325 290.225 152.491 283.662 140.83 271.996 C 129.168 260.331 122.61 244.495 122.61 228 Z" fill="#ababab" stroke="#ababab"></path>
    <path id="path_14" d="M 201 160.26 C 202.67 160.64 204.33 161.07 206 161.58 L 197.55 165 Q 199.23 162.57 201 160.26 Z" fill="#ababab" stroke="#ababab"></path>
    <path id="path_15" d="M 304.38 260.59 L 286.38 260.59 L 298.44 242.59 C 301.66 237.77 297.38 231.3 291.96 231.3 C 279.02 231.3 266.01 230.93 253.06 231.14 Q 249.64 231.2 246.24 231.3 C 241.61 231.47 239.18 234.12 237.16 237.41 C 236.16 238.99 235.31 240.72 234.33 242.41 Q 226.88 255.11 219.44 267.83 L 208.62 286.28 C 207.905 287.488 207.557 288.878 207.62 290.28 L 192.09 290.28 C 192.09 286.56 189.64 282.84 184.85 282.78 C 160.34 282.51 138.48 266.19 132.01 242.39 C 128.752 230.209 129.812 217.268 135.01 205.78 C 137.176 200.924 140.028 196.404 143.48 192.36 C 147.49 187.652 152.276 183.665 157.63 180.57 C 171.21 172.74 187.17 171.48 202.06 176.08 C 205.4 177.08 208.69 175.34 210.53 172.63 C 225.18 151.09 251.95 139.49 277.69 144.53 C 282.439 145.463 287.073 146.908 291.51 148.84 C 292.37 149.21 293.23 149.61 294.08 150.02 C 294.93 150.43 296.02 151.02 296.96 151.5 C 312.027 159.742 323.369 173.462 328.63 189.81 C 328.977 191.061 329.642 192.202 330.56 193.12 C 331.478 194.038 332.619 194.703 333.87 195.05 C 356.4 199.94 372.37 220.8 369.48 244.05 C 366.74 266.15 347.48 282.46 325.48 282.75 C 320.7 282.82 318.29 286.54 318.24 290.25 L 293 290.25 C 294.6 288.65 296.19 287.04 297.79 285.43 L 309.72 273.43 C 314.25 268.79 310.9 260.59 304.38 260.59 Z" fill="#ababab" stroke="#ababab"></path>
    <path id="path_16" d="M 277.92 246.3 L 265.86 264.3 C 262.63 269.12 266.92 275.59 272.34 275.59 L 286.34 275.59 L 271.8 290.25 L 253.07 290.25 C 253.143 288.921 252.851 287.597 252.226 286.421 C 251.601 285.246 250.666 284.264 249.522 283.582 C 248.379 282.899 247.071 282.543 245.74 282.55 L 228.19 282.55 L 249.43 246.3 Z" fill="#faee00" stroke="#faee00"></path>
    <path id="path_17" d="M 306.63 144.61 C 306.63 144.75 306.63 144.89 306.63 145.03 C 306.63 144.89 306.63 144.75 306.63 144.61 Z" fill="#ababab" stroke="#ababab"></path>
    <path id="path_18" d="M 139.16 185.78 C 140.47 188.02 141.91 190.2 143.45 192.33 C 140.005 196.376 137.159 200.895 135 205.75 C 133.2 203.56 131.48 201.28 129.86 198.91 C 132.384 194.152 135.509 189.739 139.16 185.78 Z" fill="#ababab" stroke="#ababab"></path>
    <path id="path_19" d="M 305.87 148 C 306.315 147.102 306.57 146.121 306.62 145.12 C 306.62 146.23 306.57 147.33 306.52 148.43 C 306.3 148.28 306.08 148.14 305.87 148 Z" fill="#ababab" stroke="#ababab"></path>
    <path id="path_20" d="M 325.49 290.25 C 338.315 290.257 350.696 285.495 360.212 276.897 C 369.728 268.298 375.716 256.462 377.005 243.701 C 378.294 230.941 374.795 218.146 367.19 207.818 C 359.586 197.49 348.408 190.348 335.84 187.79 C 330.832 171.716 320.485 157.823 306.52 148.42 C 306.57 147.32 306.61 146.22 306.62 145.11 L 306.62 145 C 306.62 144.86 306.62 144.72 306.62 144.58 L 306.62 144.51 C 306.62 144.33 306.62 144.16 306.62 143.99 C 306.62 142.49 306.54 140.99 306.45 139.53 C 322.519 149.183 334.888 163.962 341.56 181.48 C 340.33 181.13 339.09 180.8 337.83 180.53 L 343.07 185.77 C 342.61 184.32 342.07 182.9 341.56 181.48 C 368.98 189.36 387.83 216.63 384.29 245.38 C 382.465 259.731 375.501 272.947 364.695 282.565 C 353.889 292.184 339.956 297.57 325.49 297.72 C 320.62 297.79 318.21 294.01 318.25 290.22 Z" fill="#ababab" stroke="#ababab"></path>
    <path id="path_21" d="M 139.16 185.78 C 137.841 183.508 136.636 181.172 135.55 178.78 C 144.04 170.467 154.481 164.414 165.915 161.179 C 177.348 157.944 189.413 157.628 201 160.26 Q 199.18 162.57 197.51 165.03 L 197.11 167.03 C 186.646 164.916 175.811 165.531 165.654 168.816 C 155.496 172.102 146.354 177.948 139.11 185.79 Z" fill="#ababab" stroke="#ababab"></path>
    <path id="path_22" d="M 292.48 141 C 295.58 135.17 306.23 136.16 306.62 144 C 306.62 144.17 306.62 144.34 306.62 144.52 L 306.62 144.59 C 306.62 144.73 306.62 144.87 306.62 145.01 L 306.62 145.09 C 306.57 146.091 306.315 147.072 305.87 147.97 C 301.655 145.198 297.169 142.862 292.48 141 Z" fill="#ababab" stroke="#ababab"></path>
    <path id="path_23" d="M 377.24 238.51 C 377.24 247.593 374.848 256.517 370.306 264.383 C 365.765 272.248 359.231 278.781 351.364 283.321 C 343.498 287.862 334.573 290.252 325.49 290.25 L 318.25 290.25 C 318.25 286.54 320.71 282.82 325.49 282.75 C 347.49 282.46 366.71 266.15 369.49 244.05 C 372.38 220.77 356.41 199.91 333.88 195.05 C 332.629 194.703 331.488 194.038 330.57 193.12 C 329.652 192.202 328.987 191.061 328.64 189.81 C 324.5 176.875 316.509 165.506 305.74 157.23 C 306.14 154.33 306.42 151.4 306.56 148.45 C 320.525 157.853 330.872 171.746 335.88 187.82 C 347.553 190.216 358.048 196.571 365.582 205.804 C 373.115 215.037 377.235 226.594 377.24 238.51 Z" fill="#ababab" stroke="#ababab"></path>
    <path id="path_24" d="M 271.84 290.25 Q 254.1 308.14 236.36 326 L 252.21 293.81 C 252.759 292.692 253.053 291.466 253.07 290.22 Z" fill="#faee00" stroke="#faee00"></path>
</g></svg>