<svg xmlns="http://www.w3.org/2000/svg" viewBox="0 0 500 500" id="vector"><g transform="translate(-60 -60) scale(1.25 1.25)">
    <path id="path" d="M 325.57 290.74 C 338.395 290.744 350.774 285.981 360.288 277.382 C 369.802 268.782 375.788 256.946 377.076 244.186 C 378.363 231.426 374.863 218.633 367.259 208.306 C 359.655 197.979 348.477 190.838 335.91 188.28 C 330.387 170.432 318.279 155.334 302.056 146.067 C 285.833 136.8 266.678 134.039 248.498 138.347 C 230.318 142.655 214.439 153.718 204.1 169.28 C 190.326 164.81 175.415 165.283 161.953 170.619 C 148.49 175.955 137.303 185.825 130.332 198.518 C 123.361 211.211 121.034 225.947 123.754 240.171 C 126.474 254.394 134.074 267.232 145.237 276.457 C 156.399 285.682 170.439 290.728 184.92 290.72" fill="#ababab"></path>
    <path id="path_1" d="M 325.57 298.24 C 340.034 298.088 353.965 292.701 364.769 283.082 C 375.573 273.464 382.535 260.25 384.36 245.9 C 388.06 215.9 367.36 187.43 337.9 181.04 L 343.14 186.28 C 334.07 157.89 309.97 135.47 280.33 130.28 C 264.613 127.514 248.425 129.373 233.744 135.63 C 219.062 141.887 206.51 152.277 197.62 165.53 L 206.09 162.08 C 174.69 152.39 139.74 165.85 123.83 194.85 C 108.67 222.5 114.21 258.22 137.49 279.64 C 150.442 291.499 167.349 298.135 184.91 298.25 C 194.57 298.36 194.57 283.36 184.91 283.25 C 160.41 282.98 138.55 266.65 132.07 242.85 C 128.977 231.162 129.806 218.775 134.43 207.604 C 139.054 196.432 147.221 187.083 157.67 181 C 171.25 173.17 187.21 171.91 202.1 176.51 C 205.44 177.51 208.73 175.77 210.57 173.06 C 225.21 151.52 251.99 139.92 277.72 144.96 C 289.485 147.264 300.42 152.682 309.38 160.647 C 318.341 168.612 325.003 178.836 328.67 190.25 C 329.018 191.501 329.684 192.64 330.602 193.558 C 331.52 194.476 332.659 195.142 333.91 195.49 C 356.44 200.38 372.41 221.24 369.52 244.49 C 366.78 266.58 347.52 282.9 325.52 283.19 C 315.88 283.32 315.85 298.32 325.52 298.19 Z" fill="#ababab"></path>
    <path id="path_2" d="M 226.24 290.74 M 208.62 290.74 C 208.62 286.069 210.478 281.584 213.781 278.281 C 217.084 274.978 221.569 273.12 226.24 273.12 C 230.911 273.12 235.396 274.978 238.699 278.281 C 242.002 281.584 243.86 286.069 243.86 290.74 C 243.86 295.411 242.002 299.896 238.699 303.199 C 235.396 306.502 230.911 308.36 226.24 308.36 C 221.569 308.36 217.084 306.502 213.781 303.199 C 210.478 299.896 208.62 295.411 208.62 290.74" fill="#ffffff"></path>
    <path id="path_3" d="M 236.36 290.74 C 235.86 303.83 216.12 303.74 216.12 290.74 C 216.12 277.74 235.85 277.64 236.36 290.74 C 236.73 300.36 251.73 300.41 251.36 290.74 C 250.83 277.07 240.29 265.67 226.24 265.62 C 219.58 265.62 213.187 268.268 208.477 272.977 C 203.768 277.687 201.12 284.08 201.12 290.74 C 201.12 297.4 203.768 303.793 208.477 308.503 C 213.187 313.212 219.58 315.86 226.24 315.86 C 240.24 315.86 250.83 304.37 251.36 290.74 C 251.73 281.09 236.73 281.1 236.36 290.74 Z" fill="#23181500"></path>
    <path id="path_4" d="M 284.86 290.74 M 267.24 290.74 C 267.24 287.02 268.418 283.393 270.605 280.383 C 272.792 277.373 275.877 275.132 279.415 273.982 C 282.953 272.833 286.767 272.833 290.305 273.982 C 293.843 275.132 296.928 277.373 299.115 280.383 C 301.302 283.393 302.48 287.02 302.48 290.74 C 302.48 294.46 301.302 298.087 299.115 301.097 C 296.928 304.107 293.843 306.348 290.305 307.498 C 286.767 308.647 282.953 308.647 279.415 307.498 C 275.877 306.348 272.792 304.107 270.605 301.097 C 268.418 298.087 267.24 294.46 267.24 290.74" fill="#ffffff"></path>
    <path id="path_5" d="M 295 290.74 C 294.5 303.83 274.76 303.74 274.76 290.74 C 274.76 277.74 294.49 277.64 295 290.74 C 295.37 300.36 310.37 300.41 310 290.74 C 309.47 277.07 298.93 265.67 284.88 265.62 C 278.22 265.62 271.827 268.268 267.117 272.977 C 262.408 277.687 259.76 284.08 259.76 290.74 C 259.76 297.4 262.408 303.793 267.117 308.503 C 271.827 313.212 278.22 315.86 284.88 315.86 C 298.88 315.86 309.47 304.37 310 290.74 C 310.35 281.09 295.34 281.1 295 290.74 Z" fill="#23181500"></path>
    <path id="path_6" d="M 196.94 346.01 M 179.32 346.01 C 179.32 341.339 181.178 336.854 184.481 333.551 C 187.784 330.248 192.269 328.39 196.94 328.39 C 201.611 328.39 206.096 330.248 209.399 333.551 C 212.702 336.854 214.56 341.339 214.56 346.01 C 214.56 350.681 212.702 355.166 209.399 358.469 C 206.096 361.772 201.611 363.63 196.94 363.63 C 192.269 363.63 187.784 361.772 184.481 358.469 C 181.178 355.166 179.32 350.681 179.32 346.01" fill="#ffffff"></path>
    <path id="path_7" d="M 207.05 346 C 206.55 359.09 186.81 359 186.81 346 C 186.81 333 206.54 332.9 207.05 346 C 207.42 355.62 222.42 355.67 222.05 346 C 221.52 332.33 210.98 320.93 196.93 320.88 C 190.27 320.88 183.877 323.528 179.167 328.237 C 174.458 332.947 171.81 339.34 171.81 346 C 171.81 352.66 174.458 359.053 179.167 363.763 C 183.877 368.472 190.27 371.12 196.93 371.12 C 210.93 371.12 221.52 359.63 222.05 346 C 222.43 336.35 207.42 336.37 207.05 346 Z" fill="#23181500"></path>
    <path id="path_8" d="M 255.55 346.01 M 237.93 346.01 C 237.93 341.339 239.788 336.854 243.091 333.551 C 246.394 330.248 250.879 328.39 255.55 328.39 C 260.221 328.39 264.706 330.248 268.009 333.551 C 271.312 336.854 273.17 341.339 273.17 346.01 C 273.17 350.681 271.312 355.166 268.009 358.469 C 264.706 361.772 260.221 363.63 255.55 363.63 C 250.879 363.63 246.394 361.772 243.091 358.469 C 239.788 355.166 237.93 350.681 237.93 346.01" fill="#ffffff"></path>
    <path id="path_9" d="M 265.67 346 C 265.17 359.09 245.43 359 245.43 346 C 245.43 333 265.16 332.9 265.67 346 C 266.04 355.62 281.04 355.67 280.67 346 C 280.14 332.33 269.6 320.93 255.55 320.88 C 248.89 320.88 242.497 323.528 237.787 328.237 C 233.078 332.947 230.43 339.34 230.43 346 C 230.43 352.66 233.078 359.053 237.787 363.763 C 242.497 368.472 248.89 371.12 255.55 371.12 C 269.55 371.12 280.14 359.63 280.67 346 C 281 336.35 266 336.37 265.67 346 Z" fill="#23181500"></path>
    <path id="path_10" d="M 314.16 346.01 M 296.54 346.01 C 296.54 341.339 298.398 336.854 301.701 333.551 C 305.004 330.248 309.489 328.39 314.16 328.39 C 318.831 328.39 323.316 330.248 326.619 333.551 C 329.922 336.854 331.78 341.339 331.78 346.01 C 331.78 350.681 329.922 355.166 326.619 358.469 C 323.316 361.772 318.831 363.63 314.16 363.63 C 309.489 363.63 305.004 361.772 301.701 358.469 C 298.398 355.166 296.54 350.681 296.54 346.01" fill="#ffffff"></path>
    <path id="path_11" d="M 324.28 346 C 323.78 359.09 304.04 359 304.04 346 C 304.04 333 323.77 332.9 324.28 346 C 324.65 355.62 339.65 355.67 339.28 346 C 338.75 332.33 328.21 320.93 314.16 320.88 C 307.5 320.88 301.107 323.528 296.397 328.237 C 291.688 332.947 289.04 339.34 289.04 346 C 289.04 352.66 291.688 359.053 296.397 363.763 C 301.107 368.472 307.5 371.12 314.16 371.12 C 328.16 371.12 338.75 359.63 339.28 346 C 339.65 336.35 324.65 336.37 324.28 346 Z" fill="#23181500"></path>
</g></svg>