<svg xmlns="http://www.w3.org/2000/svg" viewBox="0 0 500 500" id="vector"><g transform="translate(-60 -60) scale(1.25 1.25)">
    <path id="path" d="M 228.5 79 C 226.15 84.644 224.209 90.448 222.69 96.37 C 228.06 92.97 233.687 89.995 239.52 87.47 Z" fill="#f4ec90" stroke="#f4ec90"></path>
    <path id="path_1" d="M 257.3 199.83 C 267.424 201.865 276.944 206.208 285.116 212.521 C 293.288 218.834 299.894 226.948 304.42 236.23 C 305.813 239.083 306.996 242.035 307.96 245.06 C 308.31 246.31 308.976 247.448 309.894 248.366 C 310.812 249.284 311.95 249.95 313.2 250.3 C 320.083 251.788 326.536 254.825 332.07 259.18 C 338.1 263.848 342.814 270.003 345.749 277.042 C 348.683 284.08 349.738 291.761 348.81 299.33 C 348.318 303.248 347.292 307.081 345.76 310.72 C 342.304 318.731 336.6 325.572 329.341 330.413 C 322.082 335.253 313.574 337.889 304.85 338 C 300.07 338.06 297.66 341.78 297.61 345.5 L 274.39 345.5 L 279.33 340.5 L 291.26 328.5 C 292.033 327.731 292.619 326.793 292.97 325.76 C 294.52 321.23 291.32 315.7 285.97 315.7 L 267.97 315.7 Q 269.77 313.03 271.56 310.34 Q 275.81 304.03 280.03 297.7 C 283.26 292.89 278.98 286.42 273.56 286.42 C 258.35 286.42 243.04 285.89 227.84 286.42 C 223.7 286.56 221.32 288.7 219.42 291.5 C 218.17 293.34 217.12 295.5 215.93 297.5 L 211.87 304.42 L 201 322.94 Q 195.6 332.16 190.19 341.39 C 189.448 342.638 189.099 344.081 189.19 345.53 L 171.44 345.53 C 171.44 341.8 169 338.08 164.2 338.03 C 139.7 337.76 117.84 321.43 111.36 297.63 C 108.279 285.942 109.119 273.559 113.75 262.394 C 118.381 251.229 126.551 241.887 137 235.81 C 143.292 232.19 150.258 229.892 157.47 229.06 C 162.829 228.432 168.25 228.57 173.57 229.47 C 176.228 229.91 178.854 230.528 181.43 231.32 C 184.77 232.32 188.06 230.58 189.9 227.87 C 195.431 219.803 202.651 213.036 211.058 208.039 C 219.466 203.042 228.861 199.933 238.59 198.93 C 244.751 198.307 250.971 198.59 257.05 199.77 Z" fill="#ababab" stroke="#ababab"></path>
    <path id="path_2" d="M 400 250.53 L 391.53 239.53 L 391 238 C 392.69 237.39 394.36 236.74 396 236 C 402.82 233.15 406.68 241.92 404.47 247 C 395.542 267.511 381.529 285.41 363.76 299 C 364.342 292.829 363.913 286.603 362.49 280.57 C 370.238 273.392 377.013 265.229 382.64 256.29 C 388.558 254.791 394.36 252.866 400 250.53 Z" fill="#f4ec90" stroke="#f4ec90"></path>
    <path id="path_3" d="M 391.56 239.51 L 400.03 250.51 C 394.394 252.862 388.596 254.804 382.68 256.32 C 386.068 250.954 389.037 245.334 391.56 239.51 Z" fill="#f4ec90" stroke="#f4ec90"></path>
    <path id="path_4" d="M 391 238 L 391.55 239.48 C 389.028 245.31 386.059 250.937 382.67 256.31 C 373.139 258.764 363.359 260.126 353.52 260.37 C 349.28 254.215 343.941 248.896 337.77 244.68 C 355.79 246.528 373.996 244.243 391 238 Z" fill="#f4ec90" stroke="#f4ec90"></path>
    <path id="path_5" d="M 382.68 256.34 C 377.053 265.279 370.278 273.442 362.53 280.62 C 360.823 273.376 357.77 266.517 353.53 260.4 C 363.369 260.156 373.149 258.794 382.68 256.34 Z" fill="#f4ec90" stroke="#f4ec90"></path>
    <path id="path_6" d="M 363.64 300.69 C 361.808 315.034 354.843 328.241 344.04 337.853 C 333.237 347.466 319.31 352.848 304.85 353 C 299.97 353.06 297.57 349.28 297.61 345.5 L 304.85 345.5 C 316.616 345.496 328.037 341.48 337.217 334.12 C 346.397 326.759 352.799 316.484 355.36 305 Q 359.7 302.18 363.8 299 C 363.75 299.6 363.71 300.14 363.64 300.69 Z" fill="#ababab" stroke="#ababab"></path>
    <path id="path_7" d="M 362.53 280.62 C 363.947 286.637 364.376 292.845 363.8 299 Q 359.71 302.16 355.36 305 C 356.74 298.818 356.97 292.435 356.04 286.17 Q 359.38 283.54 362.53 280.62 Z" fill="#ababab" stroke="#ababab"></path>
    <path id="path_8" d="M 353.53 260.4 C 357.77 266.517 360.823 273.376 362.53 280.62 Q 359.4 283.53 356.04 286.21 C 354.633 276.645 350.564 267.665 344.3 260.3 C 347.38 260.44 350.45 260.48 353.53 260.4 Z" fill="#ababab" stroke="#ababab"></path>
    <path id="path_9" d="M 356 286.21 C 356.93 292.475 356.7 298.858 355.32 305.04 Q 350.64 308.04 345.72 310.72 C 347.252 307.081 348.278 303.248 348.77 299.33 C 349.093 296.676 349.176 293.999 349.02 291.33 Q 352.64 288.9 356 286.21 Z" fill="#ababab" stroke="#ababab"></path>
    <path id="path_10" d="M 349.06 291.35 C 348.664 285.091 346.943 278.986 344.013 273.44 C 341.082 267.895 337.008 263.034 332.06 259.18 C 336.06 259.74 340.2 260.12 344.29 260.3 C 350.543 267.668 354.601 276.648 356 286.21 Q 352.65 288.91 349.06 291.35 Z" fill="#ababab" stroke="#ababab"></path>
    <path id="path_11" d="M 345.76 310.72 Q 350.68 308.08 355.36 305.04 C 352.797 316.522 346.394 326.795 337.214 334.154 C 328.035 341.512 316.615 345.526 304.85 345.53 L 297.61 345.53 C 297.66 341.81 300.07 338.09 304.85 338.03 C 313.578 337.917 322.088 335.276 329.347 330.43 C 336.607 325.584 342.308 318.737 345.76 310.72 Z" fill="#ababab" stroke="#ababab"></path>
    <path id="path_12" d="M 344.3 260.3 C 336.806 251.453 326.55 245.379 315.19 243.06 C 314.85 241.96 314.47 240.86 314.08 239.78 C 321.788 242.239 329.731 243.891 337.78 244.71 C 343.951 248.926 349.29 254.245 353.53 260.4 C 350.45 260.48 347.38 260.44 344.3 260.3 Z" fill="#ababab" stroke="#ababab"></path>
    <path id="path_13" d="M 336.51 164.32 C 333.789 159.059 330.16 154.319 325.79 150.32 C 322.428 147.258 318.688 144.64 314.66 142.53 C 316.491 141.604 318.256 140.552 319.94 139.38 C 325.761 135.329 330.723 130.167 334.54 124.19 C 335.28 123.03 335.94 121.82 336.54 120.6 C 341.477 129.933 349.118 137.561 358.46 142.48 C 355.64 143.958 352.962 145.692 350.46 147.66 C 344.991 151.905 340.439 157.216 337.08 163.27 Z" fill="#ffffff" stroke="#ffffff"></path>
    <path id="path_14" d="M 315.19 243.06 C 326.55 245.379 336.806 251.453 344.3 260.3 C 340.21 260.12 336.12 259.74 332.07 259.18 C 326.536 254.825 320.083 251.788 313.2 250.3 C 311.95 249.95 310.812 249.284 309.894 248.366 C 308.976 247.448 308.31 246.31 307.96 245.06 C 306.996 242.035 305.813 239.083 304.42 236.23 C 307.59 237.56 310.82 238.74 314.08 239.78 C 314.47 240.86 314.85 242 315.19 243.06 Z" fill="#ababab" stroke="#ababab"></path>
    <path id="path_15" d="M 322.42 241.07 L 317.19 235.83 C 318.45 236.11 319.68 236.43 320.91 236.83 C 321.45 238.2 322 239.62 322.42 241.07 Z" fill="#ababab" stroke="#ababab"></path>
    <path id="path_16" d="M 251.53 191.48 C 265.463 192.767 278.746 197.993 289.821 206.545 C 300.895 215.096 309.311 226.626 314.08 239.78 C 310.82 238.78 307.59 237.56 304.42 236.23 C 299.894 226.948 293.288 218.834 285.116 212.521 C 276.944 206.208 267.424 201.865 257.3 199.83 Q 254.22 195.76 251.53 191.48 Z" fill="#ababab" stroke="#ababab"></path>
    <path id="path_17" d="M 284 326 L 285.93 330.66 L 279.46 330.66 Z" fill="#faee00" stroke="#faee00"></path>
    <path id="path_18" d="M 286 330.71 L 284 326 C 287 326 290 325.91 292.94 325.72 C 292.589 326.753 292.003 327.691 291.23 328.46 L 279.3 340.46 L 274.36 345.46 L 265.04 345.46 L 279.46 330.64 Z" fill="#faee00" stroke="#faee00"></path>
    <path id="path_19" d="M 280.66 317.91 L 284 326 L 273.62 325 Z" fill="#faee00" stroke="#faee00"></path>
    <path id="path_20" d="M 273.07 325.55 C 276.72 325.87 280.37 326.03 284.07 326.05 L 279.53 330.71 L 268 330.71 Z" fill="#faee00" stroke="#faee00"></path>
    <path id="path_21" d="M 284 326 C 280.34 326 276.69 325.82 273 325.5 L 273.55 324.95 Z" fill="#faee00" stroke="#faee00"></path>
    <path id="path_22" d="M 267.95 315.71 L 285.95 315.71 C 291.31 315.71 294.51 321.24 292.95 325.77 C 289.95 325.96 286.95 326.06 284.01 326.05 L 280.64 317.91 L 273.64 325 L 262.5 323.88 Z" fill="#faee00" stroke="#faee00"></path>
    <path id="path_23" d="M 273.54 286.43 C 278.96 286.43 283.24 292.9 280.01 297.71 Q 275.78 304.04 271.54 310.35 C 268.94 310.07 266.34 309.71 263.76 309.25 L 266.76 301.43 L 273.57 301.43 L 269.47 294.29 L 267.09 290.14 L 264.41 294.14 L 227.11 293.07 L 225.74 295.46 Q 222.5 293.59 219.43 291.46 C 221.33 288.66 223.71 286.52 227.85 286.38 C 243 285.9 258.33 286.43 273.54 286.43 Z" fill="#faee00" stroke="#faee00"></path>
    <path id="path_24" d="M 279.49 330.71 L 265.07 345.53 L 253.26 345.53 L 268 330.71 Z" fill="#faee00" stroke="#faee00"></path>
    <path id="path_25" d="M 274.39 345.53 L 197 423.53 C 197.15 423.29 197.29 423.04 197.43 422.77 Q 201.3 414.9 205.18 407.03 L 265.07 345.5 Z" fill="#faee00" stroke="#faee00"></path>
    <path id="path_26" d="M 269.44 294.29 L 273.54 301.43 L 266.73 301.43 Z" fill="#faee00" stroke="#faee00"></path>
    <path id="path_27" d="M 262.48 323.88 L 273.62 325 L 273.07 325.55 Q 267.65 325.08 262.28 324.18 Z" fill="#faee00" stroke="#faee00"></path>
    <path id="path_28" d="M 271.54 310.35 Q 269.76 313.04 267.95 315.71 L 261.3 315.71 L 263.76 309.25 C 266.34 309.71 268.94 310.07 271.54 310.35 Z" fill="#faee00" stroke="#faee00"></path>
    <path id="path_29" d="M 267.06 290.14 L 269.44 294.29 L 264.38 294.15 Z" fill="#faee00" stroke="#faee00"></path>
    <path id="path_30" d="M 269.44 294.29 L 266.73 301.43 L 259.5 301.43 L 264.38 294.15 Z" fill="#faee00" stroke="#faee00"></path>
    <path id="path_31" d="M 268 330.71 L 253.3 345.53 L 234.64 345.53 C 234.742 344.184 234.468 342.836 233.851 341.635 C 233.233 340.435 232.295 339.429 231.14 338.729 C 229.986 338.029 228.66 337.662 227.31 337.67 L 209.77 337.67 L 224.83 312 L 231 301.43 L 259.5 301.43 L 255.43 307.49 L 247.43 319.43 C 247.182 319.804 246.975 320.203 246.81 320.62 C 244.91 325.24 248.92 330.71 253.9 330.71 Z" fill="#faee00" stroke="#faee00"></path>
    <path id="path_32" d="M 267.95 315.71 L 262.48 323.88 L 258.36 323.46 L 261.3 315.71 Z" fill="#faee00" stroke="#faee00"></path>
    <path id="path_33" d="M 266.73 301.43 L 263.73 309.25 Q 259.54 308.53 255.4 307.49 L 259.47 301.43 Z" fill="#faee00" stroke="#faee00"></path>
    <path id="path_34" d="M 265.07 345.53 L 205.18 407.06 Q 211.56 394.06 217.94 381.15 Q 235.6 363.33 253.26 345.53 Z" fill="#faee00" stroke="#faee00"></path>
    <path id="path_35" d="M 246.82 320.62 Q 252.54 322.3 258.36 323.46 L 260.36 327 L 262.25 324.18 Q 267.62 325.09 273.04 325.55 L 268 330.71 L 253.91 330.71 C 248.93 330.71 244.92 325.24 246.82 320.62 Z" fill="#faee00" stroke="#faee00"></path>
    <path id="path_36" d="M 264.38 294.15 L 259.5 301.43 L 237.5 301.43 Q 234.92 300.31 232.42 299.08 C 232.69 298.62 232.96 298.17 233.22 297.71 L 231.59 298.65 C 229.59 297.65 227.66 296.59 225.75 295.47 L 227.12 293.08 Z" fill="#faee00" stroke="#faee00"></path>
    <path id="path_37" d="M 258.36 323.46 L 262.48 323.88 L 262.28 324.18 C 261 324 259.66 323.72 258.36 323.46 Z" fill="#faee00" stroke="#faee00"></path>
    <path id="path_38" d="M 262.28 324.18 L 260.39 327 L 258.39 323.46 C 259.66 323.72 261 324 262.28 324.18 Z" fill="#faee00" stroke="#faee00"></path>
    <path id="path_39" d="M 261.3 315.71 L 258.36 323.46 Q 256.14 319.59 253.91 315.71 Z" fill="#faee00" stroke="#faee00"></path>
    <path id="path_40" d="M 258.36 323.46 Q 252.54 322.29 246.82 320.62 C 246.985 320.203 247.192 319.804 247.44 319.43 L 255.44 307.49 Q 259.58 308.49 263.77 309.25 L 261.31 315.71 L 253.92 315.71 Q 256.14 319.58 258.36 323.46 Z" fill="#faee00" stroke="#faee00"></path>
    <path id="path_41" d="M 253.26 345.53 Q 235.61 363.34 217.94 381.15 L 233.79 349 C 234.315 347.931 234.605 346.761 234.64 345.57 Z" fill="#faee00" stroke="#faee00"></path>
    <path id="path_42" d="M 257 199.77 C 250.921 198.59 244.701 198.307 238.54 198.93 Q 236.39 195.46 234.48 191.93 C 237.886 191.457 241.321 191.216 244.76 191.21 C 247.04 191.21 249.3 191.33 251.52 191.53 Q 254.21 195.81 257.29 199.88 Z" fill="#ababab" stroke="#ababab"></path>
    <path id="path_43" d="M 322.42 241.07 C 321.96 239.62 321.42 238.2 320.91 236.79 C 326.919 238.516 332.614 241.19 337.78 244.71 C 329.731 243.891 321.788 242.239 314.08 239.78 C 309.311 226.626 300.895 215.096 289.821 206.545 C 278.746 197.993 265.463 192.767 251.53 191.48 C 249.97 188.97 248.53 186.42 247.13 183.82 C 251.314 183.892 255.486 184.287 259.61 185 C 287.75 189.94 310.87 210.4 320.91 236.74 C 319.68 236.38 318.45 236.06 317.19 235.74 Z" fill="#ababab" stroke="#ababab"></path>
    <path id="path_44" d="M 234.49 191.88 Q 232.69 188.51 231.07 185.04 C 236.369 184.101 241.749 183.692 247.13 183.82 C 248.49 186.42 249.97 188.97 251.53 191.48 C 249.31 191.28 247.05 191.16 244.77 191.16 C 241.331 191.166 237.896 191.407 234.49 191.88 Z" fill="#ababab" stroke="#ababab"></path>
    <path id="path_45" d="M 247.13 183.82 C 241.751 183.679 236.371 184.074 231.07 185 C 218.133 157.305 215.171 125.968 222.69 96.34 C 228.058 92.936 233.685 89.96 239.52 87.44 L 241 88 C 235.274 103.514 232.861 120.056 233.917 136.559 C 234.973 153.062 239.474 169.162 247.13 183.82 Z" fill="#f4ec90" stroke="#f4ec90"></path>
    <path id="path_46" d="M 231.95 74.52 C 237.08 72.3 245.83 76.15 242.95 82.99 C 242.25 84.66 241.59 86.35 240.95 87.99 L 239.47 87.43 L 228.47 78.96 L 227.32 76.57 Q 229.62 75.52 231.95 74.52 Z" fill="#f4ec90" stroke="#f4ec90"></path>
    <path id="path_47" d="M 227.31 337.67 C 228.66 337.662 229.986 338.029 231.14 338.729 C 232.295 339.429 233.233 340.435 233.851 341.635 C 234.468 342.836 234.742 344.184 234.64 345.53 L 223.21 345.53 L 220.84 341.39 L 218.84 345.53 L 205.16 345.53 L 209.77 337.67 Z" fill="#faee00" stroke="#faee00"></path>
    <path id="path_48" d="M 223.21 345.53 L 234.64 345.53 C 234.605 346.721 234.315 347.891 233.79 348.96 L 217.94 381.15 L 210.59 388.56 L 221.12 352.67 L 227.31 352.67 Q 225.27 349.1 223.21 345.53 Z" fill="#faee00" stroke="#faee00"></path>
    <path id="path_49" d="M 183.38 224.09 C 189.141 215.416 196.675 208.061 205.484 202.509 C 214.293 196.957 224.179 193.335 234.49 191.88 Q 236.41 195.46 238.55 198.88 C 228.821 199.883 219.426 202.992 211.018 207.989 C 202.611 212.986 195.391 219.753 189.86 227.82 C 188.02 230.53 184.73 232.3 181.39 231.27 C 178.814 230.478 176.188 229.86 173.53 229.42 Q 172.29 225.42 171.31 221.42 C 175.412 221.905 179.456 222.799 183.38 224.09 Z" fill="#ababab" stroke="#ababab"></path>
    <path id="path_50" d="M 233.18 297.71 C 232.92 298.17 232.65 298.62 232.38 299.08 L 231.55 298.65 Z" fill="#faee00" stroke="#faee00"></path>
    <path id="path_51" d="M 232.38 299.08 Q 234.89 300.31 237.46 301.43 L 231 301.43 C 231.46 300.64 231.92 299.86 232.38 299.08 Z" fill="#faee00" stroke="#faee00"></path>
    <path id="path_52" d="M 231 301.43 L 226.7 301.43 L 231.54 298.65 L 232.37 299.08 C 231.92 299.86 231.46 300.64 231 301.43 Z" fill="#faee00" stroke="#faee00"></path>
    <path id="path_53" d="M 231.55 298.65 L 226.71 301.43 L 231 301.43 L 224.83 312 C 222.61 310.89 220.43 309.7 218.28 308.46 L 225.71 295.46 C 227.62 296.59 229.56 297.65 231.55 298.65 Z" fill="#faee00" stroke="#faee00"></path>
    <path id="path_54" d="M 227.36 76.62 L 228.51 79 C 226.157 84.643 224.212 90.448 222.69 96.37 C 197.877 111.884 179.772 136.163 171.98 164.37 C 167.632 180.523 166.874 197.433 169.76 213.91 C 164.631 213.543 159.478 213.734 154.39 214.48 C 150.192 186.715 155.019 158.322 168.159 133.505 C 181.298 108.688 202.067 88.735 227.39 76.6 Z" fill="#f4ec90" stroke="#f4ec90"></path>
    <path id="path_55" d="M 223.21 345.53 Q 225.27 349.1 227.31 352.67 L 221.12 352.67 Z" fill="#faee00" stroke="#faee00"></path>
    <path id="path_56" d="M 225.71 295.47 L 218.28 308.47 C 216.1 307.21 213.95 305.88 211.85 304.47 L 215.91 297.55 C 217.1 295.55 218.15 293.38 219.4 291.55 Q 222.47 293.59 225.71 295.47 Z" fill="#faee00" stroke="#faee00"></path>
    <path id="path_57" d="M 224.83 312 L 209.77 337.71 L 201.51 337.71 L 218.28 308.46 C 220.43 309.66 222.61 310.85 224.83 312 Z" fill="#faee00" stroke="#faee00"></path>
    <path id="path_58" d="M 220.84 341.39 L 223.21 345.53 L 218.8 345.53 Z" fill="#faee00" stroke="#faee00"></path>
    <path id="path_59" d="M 223.21 345.53 L 221.12 352.67 L 215.28 352.67 L 218.8 345.53 Z" fill="#faee00" stroke="#faee00"></path>
    <path id="path_60" d="M 172 164.39 C 179.792 136.183 197.897 111.904 222.71 96.39 C 215.197 126 218.152 157.317 231.07 185 C 211.003 188.565 192.948 199.43 180.4 215.49 C 176.899 214.687 173.342 214.152 169.76 213.89 C 166.886 197.425 167.651 180.528 172 164.39 Z" fill="#f4ec90" stroke="#f4ec90"></path>
    <path id="path_61" d="M 221.12 352.67 L 210.59 388.56 L 197.59 401.67 L 185.66 413.67 C 185.254 414.074 184.892 414.52 184.58 415 Q 199.93 383.82 215.29 352.63 Z" fill="#faee00" stroke="#faee00"></path>
    <path id="path_62" d="M 218.8 345.53 L 215.28 352.67 L 196.68 352.67 C 194.767 352.64 192.934 351.887 191.552 350.563 C 190.171 349.239 189.341 347.44 189.23 345.53 L 201.23 345.53 L 203.23 348.96 L 205.23 345.53 Z" fill="#faee00" stroke="#faee00"></path>
    <path id="path_63" d="M 218.28 308.42 L 201.51 337.67 L 196.68 337.67 L 199.09 341.88 L 197 345.53 L 189.23 345.53 C 189.139 344.081 189.488 342.638 190.23 341.39 Q 195.64 332.17 201.04 322.94 L 211.88 304.44 C 213.95 305.83 216.1 307.16 218.28 308.42 Z" fill="#faee00" stroke="#faee00"></path>
    <path id="path_64" d="M 217.94 381.15 Q 211.55 394.09 205.18 407.06 L 205.18 407.06 L 210.61 388.54 Z" fill="#faee00" stroke="#faee00"></path>
    <path id="path_65" d="M 209.77 337.67 L 205.16 345.53 L 201.16 345.53 L 199.06 341.88 L 201.48 337.67 Z" fill="#faee00" stroke="#faee00"></path>
    <path id="path_66" d="M 205.16 345.53 L 203.16 348.96 L 201.16 345.53 Z" fill="#faee00" stroke="#faee00"></path>
    <path id="path_67" d="M 201.51 337.67 L 199.09 341.88 L 196.68 337.67 Z" fill="#faee00" stroke="#faee00"></path>
    <path id="path_68" d="M 199.09 341.88 L 201.19 345.53 L 197 345.53 Z" fill="#faee00" stroke="#faee00"></path>
    <path id="path_69" d="M 190.15 426.44 C 185.76 425.44 181.86 420.54 184.47 415.23 C 184.497 415.164 184.531 415.1 184.57 415.04 C 184.882 414.56 185.244 414.114 185.65 413.71 L 197.58 401.71 L 210.58 388.6 L 205.15 407.12 L 205.15 407.12 Q 201.26 414.98 197.4 422.86 C 197.26 423.13 197.12 423.38 196.97 423.62 L 196.22 424.37 C 195.457 425.188 194.503 425.804 193.444 426.166 C 192.386 426.527 191.254 426.621 190.15 426.44 Z" fill="#faee00" stroke="#faee00"></path>
    <path id="path_70" d="M 190.15 426.44 C 191.264 426.619 192.404 426.518 193.469 426.146 C 194.534 425.774 195.49 425.143 196.25 424.31 L 197 423.56 C 196.329 424.721 195.296 425.632 194.059 426.152 C 192.823 426.671 191.449 426.773 190.15 426.44 Z" fill="#faee00" stroke="#faee00"></path>
    <path id="path_71" d="M 190.15 426.44 C 185.35 425.64 181.47 419.82 184.57 415.04 C 184.531 415.1 184.497 415.164 184.47 415.23 C 181.86 420.54 185.76 425.47 190.15 426.44 Z" fill="#faee00" stroke="#faee00"></path>
    <path id="path_72" d="M 185.38 216.85 L 176.91 220.3 C 178.02 218.66 179.19 217.07 180.4 215.53 C 182.07 215.91 183.73 216.34 185.38 216.85 Z" fill="#ababab" stroke="#ababab"></path>
    <path id="path_73" d="M 231.07 185 Q 232.69 188.47 234.49 191.84 C 224.179 193.295 214.293 196.917 205.484 202.469 C 196.675 208.021 189.141 215.376 183.38 224.05 C 179.454 222.776 175.411 221.899 171.31 221.43 C 170.71 218.94 170.19 216.43 169.76 213.89 C 173.342 214.152 176.899 214.687 180.4 215.49 C 179.19 217.03 178.02 218.62 176.91 220.26 L 185.38 216.81 C 183.73 216.3 182.07 215.87 180.38 215.49 C 192.933 199.426 210.996 188.561 231.07 185 Z" fill="#ababab" stroke="#ababab"></path>
    <path id="path_74" d="M 171.31 221.47 Q 172.31 225.47 173.53 229.47 C 168.21 228.57 162.789 228.432 157.43 229.06 Q 156.43 225.38 155.66 221.66 C 160.847 220.93 166.107 220.866 171.31 221.47 Z" fill="#ababab" stroke="#ababab"></path>
    <path id="path_75" d="M 169.76 213.93 C 170.19 216.46 170.76 218.98 171.31 221.47 C 166.107 220.866 160.847 220.93 155.66 221.66 C 155.17 219.28 154.75 216.9 154.39 214.5 C 159.478 213.754 164.631 213.563 169.76 213.93 Z" fill="#ababab" stroke="#ababab"></path>
    <path id="path_76" d="M 164.2 338 C 169 338.05 171.41 341.77 171.44 345.5 L 164.2 345.5 C 148.443 345.498 133.26 339.511 121.743 328.758 C 110.225 318.006 103.21 303.27 102.126 287.55 C 101.042 271.831 105.969 256.271 115.902 244.04 C 125.835 231.808 140.052 223.795 155.66 221.63 Q 156.44 225.35 157.43 229.03 C 150.23 229.877 143.278 232.184 137 235.81 C 126.558 241.893 118.396 251.237 113.773 262.402 C 109.149 273.567 108.316 285.946 111.4 297.63 C 117.84 321.43 139.7 337.76 164.2 338 Z" fill="#ababab" stroke="#ababab"></path>
    <path id="path_77" d="M 102 283.29 C 102 299.789 108.561 315.629 120.226 327.297 C 131.892 338.964 147.731 345.527 164.23 345.53 L 171.47 345.53 C 171.47 349.3 169.09 353.08 164.23 353.03 C 146.669 352.903 129.765 346.266 116.81 334.41 C 93.5 313 88 277.28 103.12 249.63 C 108.367 240.209 115.729 232.132 124.625 226.037 C 133.52 219.942 143.71 215.992 154.39 214.5 C 154.75 216.9 155.17 219.28 155.66 221.66 C 140.788 223.726 127.154 231.107 117.294 242.431 C 107.435 253.755 102 268.275 102 283.29 Z" fill="#ababab" stroke="#ababab"></path>
</g></svg>