<svg xmlns:dc="http://purl.org/dc/elements/1.1/" xmlns:cc="http://creativecommons.org/ns#" xmlns:rdf="http://www.w3.org/1999/02/22-rdf-syntax-ns#" xmlns:svg="http://www.w3.org/2000/svg" xmlns="http://www.w3.org/2000/svg" xml:space="preserve" style="enable-background:new 0 0 30 30;fill: white;" viewBox="0 0 30 30" y="0px" x="0px" id="Layer_1" version="1.1"><metadata id="metadata9"><rdf:RDF><cc:Work rdf:about=""><dc:format>image/svg+xml</dc:format><dc:type rdf:resource="http://purl.org/dc/dcmitype/StillImage"></dc:type><dc:title></dc:title></cc:Work></rdf:RDF></metadata><defs id="defs7"></defs>
<path id="path2" d="m 11.77,12.81 c 0,-0.22 0.08,-0.4 0.25,-0.55 l 2.4,-2.45 C 14.58,9.65 14.77,9.58 15,9.58 c 0.24,0 0.43,0.08 0.59,0.23 l 2.4,2.45 c 0.16,0.14 0.24,0.33 0.24,0.55 0,0.22 -0.08,0.41 -0.23,0.57 -0.15,0.16 -0.34,0.23 -0.56,0.23 -0.22,0 -0.42,-0.08 -0.57,-0.23 l -1.06,-1.05 v 6.59 c 0,0.22 -0.08,0.41 -0.24,0.56 -0.15,0.14 -0.34,0.22 -0.57,0.22 -0.23,0 -0.42,-0.07 -0.58,-0.22 -0.16,-0.15 -0.24,-0.34 -0.24,-0.56 v -6.59 l -1.06,1.05 c -0.16,0.16 -0.34,0.23 -0.55,0.23 -0.22,0 -0.42,-0.08 -0.57,-0.23 -0.15,-0.15 -0.23,-0.35 -0.23,-0.57 z"></path>
</svg>