<?xml version="1.0" encoding="UTF-8" standalone="no"?>
<svg width="192" height="192" viewBox="0 0 192 192" version="1.1" id="svg8" xmlns:xlink="http://www.w3.org/1999/xlink" xmlns="http://www.w3.org/2000/svg" xmlns:svg="http://www.w3.org/2000/svg">
  <defs id="defs4">
    <style id="style1">.be4827d8-d9ad-47cf-8515-9c8fcddbe8be,.ecd771b1-ec08-4986-bab5-ce85511d0dee{fill:none;}.be4827d8-d9ad-47cf-8515-9c8fcddbe8be{clip-path:url(#a69b846b-36e9-4483-b571-2876ad6cf33c);}.a44f3ed2-3bd0-40db-b417-f4faba3b7416{fill:#009688;}.b8976f46-4219-4cda-bf2a-8d08e3de132c{opacity:0.2;}.bd8a1f96-b367-446e-8140-9ff2f20d7d59{fill:#263238;}.ee818757-34f4-4c56-99fb-e73a6eeb6518{fill:#fff;}.fb1f133d-c9be-42cd-aa7a-0234b8fd9f31{clip-path:url(#e786598d-346e-47bd-90b6-765ca3fc8cd2);}.a379caad-7f09-4de3-ac8e-7d99d92b922a{fill:url(#ea9e783b-82f2-4b6f-9575-71d8b07f4eda);}.bbad7fbd-62bf-40ee-a979-dd08afc3972a{clip-path:url(#a5c3b090-bd2a-4116-baeb-58732bc38141);}.f5435905-d8d9-4939-b10f-a6a3a3538100{fill:url(#e6b5b103-3240-4346-a708-942ce8016da4);}</style>
    <clipPath id="e786598d-346e-47bd-90b6-765ca3fc8cd2">
      <circle class="ecd771b1-ec08-4986-bab5-ce85511d0dee" cx="96" cy="96" r="80" id="circle1" />
    </clipPath>
    <radialGradient id="ea9e783b-82f2-4b6f-9575-71d8b07f4eda" cx="0" cy="0" r="192" gradientUnits="userSpaceOnUse">
      <stop offset="0" stop-color="#fff" stop-opacity="0.1" id="stop1" />
      <stop offset="0.143" stop-color="#c3c3c3" stop-opacity="0.077" id="stop2" />
      <stop offset="0.609" stop-color="#323232" stop-opacity="0.02" id="stop3" />
      <stop offset="1" stop-opacity="0" id="stop4" />
    </radialGradient>
    <radialGradient xlink:href="#ea9e783b-82f2-4b6f-9575-71d8b07f4eda" id="radialGradient8" gradientUnits="userSpaceOnUse" cx="0" cy="0" r="192" />
  </defs>
  <g id="a3fbecb6-19da-4cb9-842b-e7625e7054a2" data-name="unknown" transform="matrix(0.75,0,0,0.75,24,24)">
    <rect class="ecd771b1-ec08-4986-bab5-ce85511d0dee" width="192" height="192" id="rect4" x="0" y="0" />
    <circle class="a44f3ed2-3bd0-40db-b417-f4faba3b7416" cx="96" cy="96" r="80" id="circle4" />
    <g class="b8976f46-4219-4cda-bf2a-8d08e3de132c" id="g5">
      <path class="bd8a1f96-b367-446e-8140-9ff2f20d7d59" d="M 96,175 A 79.993,79.993 0 0 1 16.013,95.5 C 16.013,95.667 16,95.832 16,96 a 80,80 0 0 0 160,0 c 0,-0.168 -0.012,-0.333 -0.013,-0.5 A 79.993,79.993 0 0 1 96,175 Z" id="path5" />
    </g>
    <g class="b8976f46-4219-4cda-bf2a-8d08e3de132c" id="g6">
      <path class="ee818757-34f4-4c56-99fb-e73a6eeb6518" d="m 96,17 a 79.993,79.993 0 0 1 79.987,79.5 C 175.987,96.333 176,96.168 176,96 A 80,80 0 0 0 16,96 c 0,0.168 0.012,0.333 0.013,0.5 A 79.993,79.993 0 0 1 96,17 Z" id="path6" />
    </g>
    <path class="ee818757-34f4-4c56-99fb-e73a6eeb6518" d="m 88,144 h 16 V 128 H 88 Z M 96,48 A 32.152,32.152 0 0 0 64,80 h 16 a 16,16 0 0 1 32,0 c 0,16 -24,16 -24,40 h 16 c 0,-16 24,-16 24,-40 A 32.152,32.152 0 0 0 96,48 Z" id="path7" />
    <g class="fb1f133d-c9be-42cd-aa7a-0234b8fd9f31" clip-path="url(#e786598d-346e-47bd-90b6-765ca3fc8cd2)" id="g7">
      <circle class="a379caad-7f09-4de3-ac8e-7d99d92b922a" r="192" id="circle7" style="fill:url(#radialGradient8)" cx="0" cy="0" />
    </g>
  </g>
</svg>
