<?xml version="1.0" encoding="UTF-8" standalone="no"?>
<svg width="192" height="192" viewBox="0 0 192 192" version="1.1" id="svg4" xmlns="http://www.w3.org/2000/svg" xmlns:svg="http://www.w3.org/2000/svg">
  <defs id="defs1">
    <style id="style1">.f3bbc1d5-68e7-42fe-9983-cdf2653d5c54{fill:none;}</style>
  </defs>
  <g id="b446aac7-2ad6-4a53-ae38-3d816cedbfbe" data-name="precipitation" transform="matrix(6,0,0,6,24,24)">
    <path class="f3bbc1d5-68e7-42fe-9983-cdf2653d5c54" d="M 0,0 H 24 V 24 H 0 Z" id="path1" />
    <path d="m 19.355,8.036 a 7.5,7.5 0 0 0 -14,-2 A 6,6 0 0 0 6,18 H 19 A 4.988,4.988 0 0 0 19.355,8.036 Z M 19,16 H 6 A 4,4 0 0 1 6,8 H 6.712 A 5.5,5.5 0 0 1 17.5,9.5 c 0,0.169 -0.01,0.335 -0.025,0.5 H 19 a 3,3 0 0 1 0,6 z" id="path2" style="fill:#000000" />
    <rect x="8" y="19" width="2" height="3" rx="1" id="rect2" style="fill:#000000" />
    <rect x="11" y="19" width="2" height="3" rx="1" id="rect3" style="fill:#000000" />
    <rect x="14" y="19" width="2" height="3" rx="1" id="rect4" style="fill:#000000" />
  </g>
</svg>
