<?xml version="1.0" encoding="UTF-8" standalone="no"?>
<svg width="192" height="192" viewBox="0 0 192 192" version="1.1" id="svg5" xmlns="http://www.w3.org/2000/svg" xmlns:svg="http://www.w3.org/2000/svg">
  <defs id="defs1">
    <style id="style1">.f345a263-f171-4297-a595-05b24c8f213d{fill:none;}</style>
  </defs>
  <g id="b96dcb27-64c8-49aa-995a-6a8bf7e803d8" data-name="pressure" transform="matrix(6,0,0,6,24,24)">
    <rect class="f345a263-f171-4297-a595-05b24c8f213d" width="24" height="24" id="rect1" x="0" y="0" />
    <path d="M 12,2 A 10,10 0 1 0 22,12 10,10 0 0 0 12,2 Z m 0,18 a 8,8 0 1 1 8,-8 8,8 0 0 1 -8,8 z" id="path1" style="fill:#000000" />
    <path d="m 12,16 a 11.934,11.934 0 0 0 -7.477,2.624 9.968,9.968 0 0 0 14.954,0 A 11.934,11.934 0 0 0 12,16 Z" id="path2" style="fill:#000000" />
    <path d="M 15.5,5.938 A 1,1 0 0 0 14.134,6.304 L 12,10.008 a 2,2 0 1 0 1.732,1 l 2.139,-3.7 A 1,1 0 0 0 15.5,5.938 Z" id="path3" style="fill:#000000" />
    <circle cx="18" cy="12" r="1" id="circle3" style="fill:#000000" />
    <circle cx="6" cy="12" r="1" id="circle4" style="fill:#000000" />
    <circle cx="9" cy="6.8039999" r="1" id="circle5" style="fill:#000000" />
  </g>
</svg>
