<?xml version="1.0" encoding="UTF-8" standalone="no"?>
<svg width="192" height="192" viewBox="0 0 192 192" version="1.1" id="svg1" xmlns="http://www.w3.org/2000/svg" xmlns:svg="http://www.w3.org/2000/svg">
  <defs id="defs1">
    <style id="style1">.e73b603b-bb53-4743-aa4a-6fba3d4d72a0{fill:none;}</style>
  </defs>
  <g id="b7628a85-00ff-455a-bced-74bf981b9da6" data-name="precipitation-alt" transform="matrix(6,0,0,6,24,24)">
    <rect class="e73b603b-bb53-4743-aa4a-6fba3d4d72a0" width="24" height="24" id="rect1" x="0" y="0" />
    <path d="m 14,6.994 -1,-1 V 3.5 a 0.5,0.5 0 0 1 1,0 h 2 a 2.5,2.5 0 0 0 -5,0 v 2.494 l -1,1 -4,-1 L 11,21 c 0.175,0.524 0.448,1 1,1 0.552,0 0.825,-0.476 1,-1 L 18,5.994 Z M 13.387,9.209 14.487,8.935 14.953,8.818 13,14.673 V 8.823 Z M 9.049,8.818 9.515,8.935 10.615,9.209 11,8.823 v 5.85 z" id="path1" style="fill:#000000" />
  </g>
</svg>
