<?xml version="1.0" encoding="UTF-8" standalone="no"?>
<svg
   width="192"
   height="192"
   viewBox="0 0 192 192"
   version="1.1"
   id="svg1"
   xmlns="http://www.w3.org/2000/svg"
   xmlns:svg="http://www.w3.org/2000/svg">
  <defs
     id="defs1">
    <style
       id="style1">.eb9f2eb9-fb7d-4d05-9694-2cd023061ab0{fill:none;}</style>
  </defs>
  <g
     id="a1e7965d-1422-4d1d-9270-0216dc93cde8"
     data-name="sunrise"
     transform="matrix(6,0,0,6,24,24)">
    <rect
       class="eb9f2eb9-fb7d-4d05-9694-2cd023061ab0"
       width="24"
       height="24"
       id="rect1"
       x="0"
       y="0" />
    <path
       d="M 20.485,4.929 19.071,3.515 16.95,5.636 18.364,7.05 Z M 7.05,5.636 4.929,3.515 3.515,4.929 5.636,7.05 Z M 13,1 h -2 v 3 h 2 z m 7,10 v 2 h 3 v -2 z m -2,1 A 6,6 0 1 0 6.812,15 H 2 v 2 H 22 V 15 H 17.188 A 5.95,5.95 0 0 0 18,12 Z m -3.38,3 H 9.38 a 4,4 0 1 1 5.24,0 z M 4,11 H 1 v 2 h 3 z"
       id="path1"
       style="fill:#000000" />
    <polygon
       points="9.172,20.828 10.586,22.243 12,20.828 13.414,22.243 14.828,20.828 12,18 "
       id="polygon1"
       style="fill:#000000" />
  </g>
</svg>
