<?xml version="1.0" encoding="UTF-8" standalone="no"?>
<svg
   height="192"
   viewBox="0 -960 7680 7680"
   width="192"
   version="1.1"
   id="svg1"
   xmlns="http://www.w3.org/2000/svg"
   xmlns:svg="http://www.w3.org/2000/svg">
  <defs
     id="defs1" />
  <path
     d="m 4516.2,4467.7 q 133.032,0 226.88,-93.128 93.848,-93.12 93.848,-226.152 0,-133.032 -93.128,-226.88 -93.12,-93.848 -226.152,-93.848 -133.032,0 -226.88,93.128 -93.848,93.12 -93.848,226.152 0,133.032 93.128,226.88 93.12,93.848 226.152,93.848 z M 3024,4507.084 4876.312,2654.772 4656,2428.308 2797.536,4286.772 Z m 138.352,-1393.232 q 133.032,0 226.88,-93.128 93.848,-93.12 93.848,-226.152 0,-133.032 -93.128,-226.88 -93.12,-93.848 -226.152,-93.848 -133.032,0 -226.88,93.128 -93.848,93.12 -93.848,226.152 0,133.032 93.128,226.88 93.12,93.848 226.152,93.848 z m 676.52,2596.92 q -959.488,0 -1599.184,-660.288 Q 1600,4390.188 1600,3406.772 q 0,-689.232 556,-1524.616 556,-835.384 1684,-1832.928 1128,997.544 1684,1832.928 556,835.384 556,1524.616 0,983.416 -640.824,1643.712 -640.824,660.288 -1600.304,660.288 z"
     id="path1"
     style="fill:#000000;stroke-width:8" />
</svg>
