<?xml version="1.0" encoding="UTF-8" standalone="no"?>
<svg
   height="192"
   viewBox="0 -960 7680 7680"
   width="192"
   version="1.1"
   id="svg1"
   xmlns="http://www.w3.org/2000/svg"
   xmlns:svg="http://www.w3.org/2000/svg">
  <defs
     id="defs1" />
  <path
     d="m 1600,3306.156 q 0,-575.384 224.616,-1052.928 Q 2049.232,1775.692 2360,1401.54 2670.768,1027.38 2996.928,763.692 3323.08,499.996 3520,358.46 v 483.696 q 0,443.688 298.464,701.848 298.456,258.152 669.536,258.152 154.464,0 293.848,-49.848 139.384,-49.848 268,-147.08 l 137.84,-108.304 q 409.848,311.384 651.08,784.304 Q 6080,2754.156 6080,3306.156 q 0,734.768 -417.84,1302.464 -417.848,567.688 -1070.16,792.92 172.928,-148.92 270.464,-355.384 97.536,-206.464 97.536,-444 0,-215.384 -83.072,-416.312 -83.08,-200.92 -239.384,-357.232 L 3840,3048.924 3050.456,3828.612 q -158.152,158.16 -244.304,355.08 Q 2720,4380.62 2720,4602.156 q 0,237.536 97.536,444 Q 2915.072,5252.62 3088,5401.54 2435.688,5176.308 2017.84,4608.62 1600,4040.924 1600,3306.156 Z m 2240,189.536 569.232,559.384 q 111.384,111.384 171.08,248.616 59.688,137.232 59.688,298.464 0,324.312 -233.848,554.152 -233.84,229.848 -566.152,229.848 -332.312,0 -566.152,-229.848 Q 3040,4926.468 3040,4602.156 q 0,-153.232 56.616,-291.384 56.616,-138.152 174.152,-255.696 z"
     id="path1"
     style="fill:#000000;stroke-width:8" />
</svg>
