<?xml version="1.0" encoding="UTF-8" standalone="no"?>
<svg
   height="192"
   viewBox="0 -960 7680 7680"
   width="192"
   version="1.1"
   id="svg1"
   xmlns="http://www.w3.org/2000/svg"
   xmlns:svg="http://www.w3.org/2000/svg">
  <defs
     id="defs1" />
  <path
     d="m 3909.536,4972.308 q 71.384,-8 111.696,-48.304 40.304,-40.312 40.304,-99.384 0,-68.928 -47.384,-106.16 -47.384,-37.224 -116.304,-29.224 -328,24 -732.928,-204.616 Q 2760,4256.004 2664,3720.004 q -16,-75.696 -53.232,-113.232 -37.232,-37.536 -94.464,-37.536 -62.768,0 -107.072,47.072 -44.312,47.08 -26.464,140.616 123.696,666.464 615.384,953.848 491.696,287.384 911.384,261.536 z M 3840,5710.772 q -960.616,0 -1600.312,-659.688 Q 1600,4391.388 1600,3406.772 q 0,-689.232 556,-1524.616 556,-835.384 1684,-1832.928 1128,997.544 1684,1832.928 556,835.384 556,1524.616 0,984.616 -639.688,1644.312 Q 4800.616,5710.772 3840,5710.772 Z"
     id="path1"
     style="fill:#000000;stroke-width:8" />
</svg>
