<!-- Generator: Adobe Illustrator 19.1.0, SVG Export PlugIn . SVG Version: 6.00 Build 0)  --><svg version="1.1" id="Layer_2" xmlns="http://www.w3.org/2000/svg" xmlns:xlink="http://www.w3.org/1999/xlink" x="0px" y="0px" viewBox="0 0 64 64" style="enable-background:new 0 0 64 64;" xml:space="preserve">
<style type="text/css">
	.st0{fill:#000;}
</style>
<g>
	<path class="st0" d="M23,0c-1.1,0-2,0.9-2,2v4c0,1.1,0.9,2,2,2s2-0.9,2-2V2C25,0.9,24.1,0,23,0z" style="fill: #000;"></path>
	<path class="st0" d="M3,24h4c1.1,0,2-0.9,2-2s-0.9-2-2-2H3c-1.1,0-2,0.9-2,2S1.9,24,3,24z" style="fill: #000;"></path>
	<path class="st0" d="M13.1,12.1c0.8-0.8,0.8-2,0-2.8L10.9,7c-0.8-0.8-2-0.8-2.8,0c-0.8,0.8-0.8,2,0,2.8l2.3,2.3
		c0.4,0.4,0.9,0.6,1.4,0.6C12.2,12.7,12.7,12.5,13.1,12.1z" style="fill: #000;"></path>
	<path class="st0" d="M32.9,12.1c0.4,0.4,0.9,0.6,1.4,0.6c0.5,0,1-0.2,1.4-0.6L38,9.9c0.8-0.8,0.8-2,0-2.8c-0.8-0.8-2-0.8-2.8,0
		l-2.3,2.3C32.1,10.1,32.1,11.3,32.9,12.1z" style="fill: #000;"></path>
	<path class="st0" d="M10.3,31.9L8,34.2c-0.8,0.8-0.8,2,0,2.8c0.4,0.4,0.9,0.6,1.4,0.6s1-0.2,1.4-0.6l2.3-2.3c0.8-0.8,0.8-2,0-2.8
		C12.3,31.1,11.1,31.1,10.3,31.9z" style="fill: #000;"></path>
	<path class="st0" d="M52.3,22.1C49.8,17.1,44.7,14,39,14c-2.2,0-4.2,0.5-6.1,1.3C30.7,12,27,10,23,10c-6.6,0-12,5.4-12,12
		c0,3.9,1.9,7.5,5,9.7c-0.6,1.3-1,2.7-1,4.3c0,5.5,4.5,10,10,10h26c6.6,0,12-5.4,12-12C63,27.8,58.3,22.7,52.3,22.1z M15,22
		c0-4.4,3.6-8,8-8c2.6,0,5,1.3,6.5,3.4c-2.6,2.1-4.5,5.2-5.2,8.6c-2.3,0.2-4.3,1.1-6,2.5C16.3,27,15,24.6,15,22z M51,42H25
		c-3.3,0-6-2.7-6-6s2.7-6,6-6c0.2,0,0.4,0,0.6,0.1l2.3,0.3l0.1-2.1C28.5,22.5,33.3,18,39,18c4.5,0,8.4,2.7,10.2,6.8l0.5,1.2l1.3,0
		c4.4,0,8,3.6,8,8C59,38.4,55.4,42,51,42z" style="fill: #000;"></path>
	<path class="st0" d="M53,62V50c0-1.1-0.9-2-2-2s-2,0.9-2,2v12c0,1.1,0.9,2,2,2S53,63.1,53,62z" style="fill: #000;"></path>
	<path class="st0" d="M45,56v-6c0-1.1-0.9-2-2-2s-2,0.9-2,2v6c0,1.1,0.9,2,2,2S45,57.1,45,56z" style="fill: #000;"></path>
	<path class="st0" d="M35,64c1.1,0,2-0.9,2-2V50c0-1.1-0.9-2-2-2s-2,0.9-2,2v12C33,63.1,33.9,64,35,64z" style="fill: #000;"></path>
	<path class="st0" d="M29,56v-6c0-1.1-0.9-2-2-2s-2,0.9-2,2v6c0,1.1,0.9,2,2,2S29,57.1,29,56z" style="fill: #000;"></path>
</g>
</svg>