<!-- Generator: Adobe Illustrator 19.1.0, SVG Export PlugIn . SVG Version: 6.00 Build 0)  --><svg version="1.1" id="Layer_2" xmlns="http://www.w3.org/2000/svg" xmlns:xlink="http://www.w3.org/1999/xlink" x="0px" y="0px" viewBox="0 0 64 64" style="enable-background:new 0 0 64 64;" xml:space="preserve">
<style type="text/css">
	.st0{fill:#000;}
</style>
<g>
	<path class="st0" d="M0.1,32.8C0,33.9,0.8,34.9,1.9,35C1.9,35,2,35,2,35c1,0,1.9-0.8,2-1.8c0.4-4.7,4.3-8.2,9-8.2
		c0.9,0,1.8,0.1,2.6,0.4l2.2,0.7l0.3-2.3C19.3,16.5,25.6,11,33,11c5.9,0,11.3,3.5,13.7,8.9l0.6,1.2l1.6-0.1c0.1,0,0.1,0,0.2,0
		c6.1,0,11,4.9,11,11c0,1.1,0.9,2,2,2s2-0.9,2-2c0-8-6.3-14.6-14.3-15C46.5,10.9,40,7,33,7c-8.6,0-16.2,5.9-18.3,14.1
		C14.1,21,13.6,21,13,21C6.2,21,0.7,26.1,0.1,32.8z" style="fill: #000;"></path>
	<path class="st0" d="M2,41h60c1.1,0,2-0.9,2-2s-0.9-2-2-2H2c-1.1,0-2,0.9-2,2S0.9,41,2,41z" style="fill: #000;"></path>
	<path class="st0" d="M60,47c0-1.1-0.9-2-2-2H8c-1.1,0-2,0.9-2,2s0.9,2,2,2h50C59.1,49,60,48.1,60,47z" style="fill: #000;"></path>
	<path class="st0" d="M12,53c-1.1,0-2,0.9-2,2s0.9,2,2,2h16c1.1,0,2-0.9,2-2s-0.9-2-2-2H12z" style="fill: #000;"></path>
	<path class="st0" d="M36,53c-1.1,0-2,0.9-2,2s0.9,2,2,2h20c1.1,0,2-0.9,2-2s-0.9-2-2-2H36z" style="fill: #000;"></path>
</g>
</svg>