<!-- Generator: Adobe Illustrator 19.1.0, SVG Export PlugIn . SVG Version: 6.00 Build 0)  --><svg version="1.1" id="Layer_2" xmlns="http://www.w3.org/2000/svg" xmlns:xlink="http://www.w3.org/1999/xlink" x="0px" y="0px" viewBox="0 0 64 64" style="enable-background:new 0 0 64 64;" xml:space="preserve">
<style type="text/css">
	.st0{fill:#000;}
</style>
<g>
	<path class="st0" d="M42,35.5V10c0-5.5-4.5-10-10-10S22,4.5,22,10v25.5c-3.8,3-6,7.6-6,12.5c0,8.8,7.2,16,16,16s16-7.2,16-16
		C48,43.1,45.8,38.5,42,35.5z M32,60c-6.6,0-12-5.4-12-12c0-3.9,1.9-7.6,5.1-9.8l0.9-0.6V10c0-3.3,2.7-6,6-6s6,2.7,6,6v27.6l0.9,0.6
		c3.2,2.2,5.1,5.9,5.1,9.8C44,54.6,38.6,60,32,60z" style="fill: #000;"></path>
	<path class="st0" d="M34,40.3V18c0-1.1-0.9-2-2-2s-2,0.9-2,2v22.3c-3.4,0.9-6,4-6,7.7c0,4.4,3.6,8,8,8s8-3.6,8-8
		C40,44.3,37.4,41.2,34,40.3z M32,52c-2.2,0-4-1.8-4-4s1.8-4,4-4s4,1.8,4,4S34.2,52,32,52z" style="fill: #000;"></path>
</g>
</svg>