<!-- Generator: Adobe Illustrator 19.1.0, SVG Export PlugIn . SVG Version: 6.00 Build 0)  --><svg version="1.1" id="Layer_2" xmlns="http://www.w3.org/2000/svg" xmlns:xlink="http://www.w3.org/1999/xlink" x="0px" y="0px" viewBox="0 0 64 64" style="enable-background:new 0 0 64 64;" xml:space="preserve">
<style type="text/css">
	.st0{fill:#000;}
</style>
<g>
	<path class="st0" d="M9.5,55.6c0.4,0.3,0.8,0.4,1.2,0.4c0.6,0,1.2-0.3,1.6-0.8l6.4-8c0.7-0.9,0.6-2.1-0.3-2.8
		c-0.9-0.7-2.1-0.6-2.8,0.3l-6.4,8C8.5,53.6,8.7,54.9,9.5,55.6z" style="fill: #000;"></path>
	<path class="st0" d="M13.1,63.6c0.4,0.3,0.8,0.4,1.2,0.4c0.6,0,1.2-0.3,1.6-0.8l12.8-16c0.7-0.9,0.6-2.1-0.3-2.8
		c-0.9-0.7-2.1-0.6-2.8,0.3l-12.8,16C12.1,61.6,12.3,62.9,13.1,63.6z" style="fill: #000;"></path>
	<path class="st0" d="M29.5,55.6c0.4,0.3,0.8,0.4,1.2,0.4c0.6,0,1.2-0.3,1.6-0.8l6.4-8c0.7-0.9,0.6-2.1-0.3-2.8
		c-0.9-0.7-2.1-0.6-2.8,0.3l-6.4,8C28.5,53.6,28.7,54.9,29.5,55.6z" style="fill: #000;"></path>
	<path class="st0" d="M33.1,63.6c0.4,0.3,0.8,0.4,1.2,0.4c0.6,0,1.2-0.3,1.6-0.8l12.8-16c0.7-0.9,0.6-2.1-0.3-2.8
		c-0.9-0.7-2.1-0.6-2.8,0.3l-12.8,16C32.1,61.6,32.3,62.9,33.1,63.6z" style="fill: #000;"></path>
	<path class="st0" d="M11.8,22.8C10.1,24.7,9,27.1,9,29.8C9,35.4,13.7,40,19.5,40l27.3,0C53.5,40,59,34.6,59,28.1
		c0-6.5-5.3-11.7-12-11.9c-2.7-5-8-8.2-13.9-8.2c-1.6,0-3.2,0.2-4.6,0.7C27.1,3.7,22.5,0,17,0c-0.2,0-0.5,0-0.7,0.1
		c-0.1,0-0.1,0-0.2,0l-2.9,0.2l1.2,2.6c0.3,0.7,0.5,1.4,0.5,2.1c0,2.8-2.2,5-5,5c-0.7,0-1.4-0.1-2-0.4L5.3,8.4l-0.2,2.8l0,0.1
		C5,11.6,5,11.8,5,12C5,16.8,7.8,20.9,11.8,22.8z M33.1,12c4.8,0,9,2.8,10.8,7l0.6,1.4l1.5-0.1c0.3,0,0.5,0,0.8,0
		c4.5,0,8.2,3.5,8.2,7.9c0,4.3-3.7,7.9-8.2,7.9l-27.3,0c-3.6,0-6.5-2.8-6.5-6.2c0-3.4,2.9-6.2,6.4-6.2l2,0.1l0.2-1.8
		C22.3,16.2,27.3,12,33.1,12z M9.9,14c5,0,9-4,9-9c0-0.3,0-0.5,0-0.7c3,0.7,5.3,3.1,6,6.1c-3.4,2.1-5.9,5.4-6.9,9.3
		c-0.5,0.1-1,0.2-1.5,0.3c-3.6-0.2-6.4-2.7-7.2-6C9.4,14,9.7,14,9.9,14z" style="fill: #000;"></path>
</g>
</svg>