<!-- Generator: Adobe Illustrator 19.1.0, SVG Export PlugIn . SVG Version: 6.00 Build 0)  --><svg version="1.1" id="Layer_2" xmlns="http://www.w3.org/2000/svg" xmlns:xlink="http://www.w3.org/1999/xlink" x="0px" y="0px" viewBox="0 0 64 64" style="enable-background:new 0 0 64 64;" xml:space="preserve">
<style type="text/css">
	.st0{fill:#000;}
</style>
<g>
	<path class="st0" d="M22,8v6c0,1.1,0.9,2,2,2s2-0.9,2-2V8c0-1.1-0.9-2-2-2S22,6.9,22,8z" style="fill: #000;"></path>
	<path class="st0" d="M2,32h6c1.1,0,2-0.9,2-2s-0.9-2-2-2H2c-1.1,0-2,0.9-2,2S0.9,32,2,32z" style="fill: #000;"></path>
	<path class="st0" d="M14.1,20.1c0.8-0.8,0.8-2,0-2.8L9.9,13c-0.8-0.8-2-0.8-2.8,0c-0.8,0.8-0.8,2,0,2.8l4.3,4.3
		c0.4,0.4,0.9,0.6,1.4,0.6C13.2,20.7,13.7,20.5,14.1,20.1z" style="fill: #000;"></path>
	<path class="st0" d="M38.2,13l-4.3,4.3c-0.8,0.8-0.8,2,0,2.8c0.4,0.4,0.9,0.6,1.4,0.6c0.5,0,1-0.2,1.4-0.6l4.3-4.3
		c0.8-0.8,0.8-2,0-2.8C40.2,12.3,38.9,12.3,38.2,13z" style="fill: #000;"></path>
	<path class="st0" d="M7,47c0.4,0.4,0.9,0.6,1.4,0.6c0.5,0,1-0.2,1.4-0.6l4.3-4.3c0.8-0.8,0.8-2,0-2.8c-0.8-0.8-2-0.8-2.8,0L7,44.2
		C6.2,44.9,6.2,46.2,7,47z" style="fill: #000;"></path>
	<path class="st0" d="M53.3,34.1C50.8,29.1,45.7,26,40,26c-1.6,0-3.1,0.3-4.5,0.7c-1.4-5-6.1-8.7-11.5-8.7c-6.6,0-12,5.4-12,12
		c0,4.8,2.9,9,7,10.9c-1.8,1.8-3,4.3-3,7.1c0,5.5,4.5,10,10,10h26c6.6,0,12-5.4,12-12C64,39.8,59.3,34.7,53.3,34.1z M16,30
		c0-4.4,3.6-8,8-8c3.9,0,7.1,2.8,7.8,6.4c-3.3,2.1-5.6,5.5-6.5,9.4C24.9,38,24.5,38,24,38C19.6,38,16,34.4,16,30z M52,54H26
		c-3.3,0-6-2.7-6-6s2.7-6,6-6c0.2,0,0.4,0,0.6,0.1l2.3,0.3l0.1-2.1C29.5,34.5,34.3,30,40,30c4.5,0,8.4,2.7,10.2,6.8l0.5,1.2l1.3,0
		c4.4,0,8,3.6,8,8C60,50.4,56.4,54,52,54z" style="fill: #000;"></path>
</g>
</svg>