<!-- Generator: Adobe Illustrator 19.1.0, SVG Export PlugIn . SVG Version: 6.00 Build 0)  --><svg version="1.1" id="Layer_2" xmlns="http://www.w3.org/2000/svg" xmlns:xlink="http://www.w3.org/1999/xlink" x="0px" y="0px" viewBox="0 0 64 64" style="enable-background:new 0 0 64 64;" xml:space="preserve">
<style type="text/css">
	.st0{fill:#000;}
</style>
<g>
	<path class="st0" d="M32,64c-11.9,0-21.6-9.9-21.6-22c0-0.5,0-1.1,0.1-1.7c0.1-1.8,0.5-3.6,1-5.2c4-14.3,18.3-32.4,18.9-33.1L32,0
		l1.5,1.9c0.6,0.8,14.9,18.9,19,33.2c0.5,1.6,0.9,3.4,1,5.2c0.1,0.6,0.1,1.2,0.1,1.7C53.6,54.1,43.9,64,32,64z M32,6.4
		c-3.8,5.1-13.6,18.9-16.7,29.8c-0.5,1.5-0.8,2.9-0.9,4.4c0,0.5-0.1,1-0.1,1.4c0,10,7.9,18.1,17.7,18.1S49.7,52,49.7,42
		c0-0.4,0-0.8-0.1-1.3l0,0c-0.1-1.5-0.4-3-0.8-4.3C45.6,25.3,35.8,11.5,32,6.4z" style="fill: #000;"></path>
	<path class="st0" d="M26.1,52.2c-0.3,0-0.7-0.1-1-0.3c-0.9-0.6-1.2-1.8-0.7-2.7l11.8-19.6c0.6-0.9,1.8-1.2,2.7-0.7
		c0.9,0.6,1.2,1.8,0.7,2.7L27.8,51.3C27.4,51.9,26.8,52.2,26.1,52.2z" style="fill: #000;"></path>
	<path class="st0" d="M26.1,38.5c-3.2,0-5.9-2.6-5.9-5.9s2.6-5.9,5.9-5.9s5.9,2.6,5.9,5.9S29.4,38.5,26.1,38.5z M26.1,30.6
		c-1.1,0-2,0.9-2,2c0,1.1,0.9,2,2,2c1.1,0,2-0.9,2-2C28.1,31.5,27.2,30.6,26.1,30.6z" style="fill: #000;"></path>
	<path class="st0" d="M37.9,54.2c-3.2,0-5.9-2.6-5.9-5.9c0-3.2,2.6-5.9,5.9-5.9c3.2,0,5.9,2.6,5.9,5.9
		C43.8,51.6,41.1,54.2,37.9,54.2z M37.9,46.4c-1.1,0-2,0.9-2,2s0.9,2,2,2s2-0.9,2-2S39,46.4,37.9,46.4z" style="fill: #000;"></path>
</g>
</svg>