<!-- Generator: Adobe Illustrator 19.1.0, SVG Export PlugIn . SVG Version: 6.00 Build 0)  --><svg version="1.1" id="Layer_2" xmlns="http://www.w3.org/2000/svg" xmlns:xlink="http://www.w3.org/1999/xlink" x="0px" y="0px" viewBox="0 0 64 64" style="enable-background:new 0 0 64 64;" xml:space="preserve">
<g>
	<path fill="#000" d="M2,54h60c1.1,0,2-0.9,2-2s-0.9-2-2-2H34v-9.2l2.6,2.6C37,43.8,37.5,44,38,44s1-0.2,1.4-0.6
		c0.8-0.8,0.8-2,0-2.8L32,33.2l-1.4,1.4c0,0,0,0,0,0l-6,6c-0.8,0.8-0.8,2,0,2.8c0.8,0.8,2,0.8,2.8,0l2.6-2.6V50H2c-1.1,0-2,0.9-2,2
		S0.9,54,2,54z"></path>
	<path fill="#000" d="M18.8,44.7c0.4,1,1.5,1.6,2.6,1.2c1-0.4,1.6-1.5,1.2-2.6C22.2,42.3,22,41.1,22,40c0-5.5,4.5-10,10-10
		s10,4.5,10,10c0,1.2-0.2,2.3-0.6,3.4c-0.4,1,0.2,2.2,1.2,2.6c0.2,0.1,0.5,0.1,0.7,0.1c0.8,0,1.6-0.5,1.9-1.3
		c0.6-1.5,0.9-3.2,0.9-4.8c0-7.7-6.3-14-14-14s-14,6.3-14,14C18,41.6,18.3,43.2,18.8,44.7z"></path>
</g>
</svg>