<!-- Generator: Adobe Illustrator 19.1.0, SVG Export PlugIn . SVG Version: 6.00 Build 0)  --><svg version="1.1" id="Layer_2" xmlns="http://www.w3.org/2000/svg" xmlns:xlink="http://www.w3.org/1999/xlink" x="0px" y="0px" viewBox="0 0 64 64" style="enable-background:new 0 0 64 64;" xml:space="preserve">
<style type="text/css">
	.st0{fill:#000;}
</style>
<g>
	<path class="st0" d="M13,42h9c1.1,0,2-0.9,2-2s-0.9-2-2-2h-9c-5,0-9-4-9-9s4-9,9-9c0.9,0,1.8,0.1,2.6,0.4l2.2,0.7l0.3-2.3
		C19.3,11.5,25.6,6,33,6c5.9,0,11.3,3.5,13.7,8.9l0.6,1.2l1.6-0.1c0.1,0,0.1,0,0.2,0c6.1,0,11,4.9,11,11s-4.9,11-10.9,11L42,38
		c-1.1,0-2,0.9-2,2s0.9,2,2,2l7,0c8.3,0,15-6.7,15-15c0-8-6.3-14.6-14.3-15C46.5,5.9,40,2,33,2C24.4,2,16.8,8,14.7,16.1
		C14.1,16.1,13.6,16,13,16C5.8,16,0,21.9,0,29S5.8,42,13,42z" style="fill: #000;"></path>
	<path class="st0" d="M37.2,34c-0.9-0.7-2.1-0.6-2.8,0.3L21.8,50l8,0l-7,8.7c-0.7,0.9-0.6,2.1,0.3,2.8c0.4,0.3,0.8,0.4,1.2,0.4
		c0.6,0,1.2-0.3,1.6-0.8L38.2,46l-8,0l7.4-9.2C38.3,35.9,38.1,34.7,37.2,34z" style="fill: #000;"></path>
</g>
</svg>