<!-- Generator: Adobe Illustrator 19.1.0, SVG Export PlugIn . SVG Version: 6.00 Build 0)  --><svg version="1.1" id="Layer_2" xmlns="http://www.w3.org/2000/svg" xmlns:xlink="http://www.w3.org/1999/xlink" x="0px" y="0px" viewBox="0 0 64 64" style="enable-background:new 0 0 64 64;" xml:space="preserve">
<style type="text/css">
	.st0{fill:#000;}
</style>
<g>
	<path class="st0" d="M21,2v4c0,1.1,0.9,2,2,2s2-0.9,2-2V2c0-1.1-0.9-2-2-2S21,0.9,21,2z" style="fill: #000;"></path>
	<path class="st0" d="M3,24h4c1.1,0,2-0.9,2-2s-0.9-2-2-2H3c-1.1,0-2,0.9-2,2S1.9,24,3,24z" style="fill: #000;"></path>
	<path class="st0" d="M8,9.9l2.3,2.3c0.4,0.4,0.9,0.6,1.4,0.6s1-0.2,1.4-0.6c0.8-0.8,0.8-2,0-2.8L10.9,7c-0.8-0.8-2-0.8-2.8,0
		C7.2,7.8,7.2,9.1,8,9.9z" style="fill: #000;"></path>
	<path class="st0" d="M35.2,7l-2.3,2.3c-0.8,0.8-0.8,2,0,2.8c0.4,0.4,0.9,0.6,1.4,0.6s1-0.2,1.4-0.6L38,9.9c0.8-0.8,0.8-2,0-2.8
		C37.2,6.3,35.9,6.3,35.2,7z" style="fill: #000;"></path>
	<path class="st0" d="M10.3,31.9L8,34.2c-0.8,0.8-0.8,2,0,2.8c0.4,0.4,0.9,0.6,1.4,0.6s1-0.2,1.4-0.6l2.3-2.3c0.8-0.8,0.8-2,0-2.8
		C12.3,31.1,11.1,31.1,10.3,31.9z" style="fill: #000;"></path>
	<path class="st0" d="M52.3,22.1C49.8,17.1,44.7,14,39,14c-2.2,0-4.2,0.5-6.1,1.3C30.7,12,27,10,23,10c-6.6,0-12,5.4-12,12
		c0,3.9,1.9,7.5,5,9.7c-0.6,1.3-1,2.7-1,4.3c0,5.5,4.5,10,10,10h26c6.6,0,12-5.4,12-12C63,27.8,58.3,22.7,52.3,22.1z M15,22
		c0-4.4,3.6-8,8-8c2.6,0,5,1.3,6.5,3.4c-2.6,2.1-4.5,5.2-5.2,8.6c-2.3,0.2-4.3,1.1-6,2.5C16.3,27,15,24.6,15,22z M51,42H25
		c-3.3,0-6-2.7-6-6s2.7-6,6-6c0.2,0,0.4,0,0.6,0.1l2.3,0.3l0.1-2.1C28.5,22.5,33.3,18,39,18c4.5,0,8.4,2.7,10.2,6.8l0.5,1.2l1.3,0
		c4.4,0,8,3.6,8,8C59,38.4,55.4,42,51,42z" style="fill: #000;"></path>
	<path class="st0" d="M22.3,48.4c-0.9-0.7-2.1-0.6-2.8,0.3l-4.5,5.7c-0.7,0.9-0.6,2.1,0.3,2.8c0.4,0.3,0.8,0.4,1.2,0.4
		c0.6,0,1.2-0.3,1.6-0.8l4.5-5.7C23.3,50.4,23.1,49.1,22.3,48.4z" style="fill: #000;"></path>
	<path class="st0" d="M20.1,63.6c0.4,0.3,0.8,0.4,1.2,0.4c0.6,0,1.2-0.3,1.6-0.8l9.6-12c0.7-0.9,0.6-2.1-0.3-2.8
		c-0.9-0.7-2.1-0.6-2.8,0.3l-9.6,12C19.1,61.6,19.3,62.9,20.1,63.6z" style="fill: #000;"></path>
	<path class="st0" d="M42.3,48.4c-0.9-0.7-2.1-0.6-2.8,0.3l-4.5,5.7c-0.7,0.9-0.6,2.1,0.3,2.8c0.4,0.3,0.8,0.4,1.2,0.4
		c0.6,0,1.2-0.3,1.6-0.8l4.5-5.7C43.3,50.4,43.1,49.1,42.3,48.4z" style="fill: #000;"></path>
	<path class="st0" d="M40.1,63.6c0.4,0.3,0.8,0.4,1.2,0.4c0.6,0,1.2-0.3,1.6-0.8l9.6-12c0.7-0.9,0.6-2.1-0.3-2.8
		c-0.9-0.7-2.1-0.6-2.8,0.3l-9.6,12C39.1,61.6,39.3,62.9,40.1,63.6z" style="fill: #000;"></path>
</g>
</svg>