<!-- Generator: Adobe Illustrator 19.1.0, SVG Export PlugIn . SVG Version: 6.00 Build 0)  --><svg version="1.1" id="Layer_2" xmlns="http://www.w3.org/2000/svg" xmlns:xlink="http://www.w3.org/1999/xlink" x="0px" y="0px" viewBox="0 0 64 64" style="enable-background:new 0 0 64 64;" xml:space="preserve">
<style type="text/css">
	.st0{fill:#000;}
</style>
<g>
	<path class="st0" d="M27,50c0-1.1-0.9-2-2-2c-1.1,0-2,0.9-2,2h0c-1.1,0-2,0.9-2,2s0.9,2,2,2c0,1.1,0.9,2,2,2s2-0.9,2-2v0
		c1.1,0,2-0.9,2-2C29,50.9,28.1,50,27,50z" style="fill: #000;"></path>
	<path class="st0" d="M39,48L39,48c-1.1,0-2,0.9-2,2h0c-1.1,0-2,0.9-2,2s0.9,2,2,2h0v0c0,1.1,0.9,2,2,2h0c1.1,0,2-0.9,2-2
		c1.1,0,2-0.9,2-2c0-1.1-0.9-2-2-2v0C41,48.9,40.1,48,39,48z" style="fill: #000;"></path>
	<path class="st0" d="M32.4,56L32.4,56c-1.1,0-2,0.9-2,2c-1.1,0-2,0.9-2,2s0.9,2,2,2h0c0,1.1,0.9,2,2,2h0c1.1,0,2-0.9,2-2
		c1.1,0,2-0.9,2-2c0-1.1-0.9-2-2-2h0v0C34.4,56.9,33.5,56,32.4,56z" style="fill: #000;"></path>
	<path class="st0" d="M47.6,58L47.6,58c0-1.1-0.9-2-2-2c-1.1,0-2,0.9-2,2h0c-1.1,0-2,0.9-2,2c0,1.1,0.9,2,2,2h0c0,1.1,0.9,2,2,2
		c1.1,0,2-0.9,2-2h0c1.1,0,2-0.9,2-2S48.7,58,47.6,58z" style="fill: #000;"></path>
	<path class="st0" d="M51,54c0,1.1,0.9,2,2,2s2-0.9,2-2v0c1.1,0,2-0.9,2-2c0-1.1-0.9-2-2-2c0-1.1-0.9-2-2-2c-1.1,0-2,0.9-2,2h0
		c-1.1,0-2,0.9-2,2S49.9,54,51,54z" style="fill: #000;"></path>
	<path class="st0" d="M21,2v4c0,1.1,0.9,2,2,2s2-0.9,2-2V2c0-1.1-0.9-2-2-2S21,0.9,21,2z" style="fill: #000;"></path>
	<path class="st0" d="M9,22c0-1.1-0.9-2-2-2H3c-1.1,0-2,0.9-2,2s0.9,2,2,2h4C8.1,24,9,23.1,9,22z" style="fill: #000;"></path>
	<path class="st0" d="M13.1,12.1c0.8-0.8,0.8-2,0-2.8L10.9,7c-0.8-0.8-2-0.8-2.8,0c-0.8,0.8-0.8,2,0,2.8l2.3,2.3
		c0.4,0.4,0.9,0.6,1.4,0.6C12.2,12.7,12.7,12.5,13.1,12.1z" style="fill: #000;"></path>
	<path class="st0" d="M35.2,7l-2.3,2.3c-0.8,0.8-0.8,2,0,2.8c0.4,0.4,0.9,0.6,1.4,0.6s1-0.2,1.4-0.6L38,9.9c0.8-0.8,0.8-2,0-2.8
		C37.2,6.3,35.9,6.3,35.2,7z" style="fill: #000;"></path>
	<path class="st0" d="M8,37c0.4,0.4,0.9,0.6,1.4,0.6s1-0.2,1.4-0.6l2.3-2.3c0.8-0.8,0.8-2,0-2.8c-0.8-0.8-2-0.8-2.8,0L8,34.2
		C7.2,34.9,7.2,36.2,8,37z" style="fill: #000;"></path>
	<path class="st0" d="M52.3,22.1C49.8,17.1,44.7,14,39,14c-2.2,0-4.2,0.5-6.1,1.3C30.7,12,27,10,23,10c-6.6,0-12,5.4-12,12
		c0,3.9,1.9,7.5,5,9.7c-0.6,1.3-1,2.7-1,4.3c0,5.5,4.5,10,10,10h26c6.6,0,12-5.4,12-12C63,27.8,58.3,22.7,52.3,22.1z M15,22
		c0-4.4,3.6-8,8-8c2.6,0,5,1.3,6.5,3.4c-2.6,2.1-4.5,5.2-5.2,8.6c-2.3,0.2-4.3,1.1-6,2.5C16.3,27,15,24.6,15,22z M51,42H25
		c-3.3,0-6-2.7-6-6s2.7-6,6-6c0.2,0,0.4,0,0.6,0.1l2.3,0.3l0.1-2.1C28.5,22.5,33.3,18,39,18c4.5,0,8.4,2.7,10.2,6.8l0.5,1.2l1.3,0
		c4.4,0,8,3.6,8,8C59,38.4,55.4,42,51,42z" style="fill: #000;"></path>
</g>
</svg>