<!-- Generator: Adobe Illustrator 19.1.0, SVG Export PlugIn . SVG Version: 6.00 Build 0)  --><svg version="1.1" id="Layer_2" xmlns="http://www.w3.org/2000/svg" xmlns:xlink="http://www.w3.org/1999/xlink" x="0px" y="0px" viewBox="0 0 64 64" style="enable-background:new 0 0 64 64;" xml:space="preserve">
<style type="text/css">
	.st0{fill:#000;}
</style>
<g>
	<path class="st0" d="M16.3,44.4c-0.9-0.7-2.1-0.5-2.8,0.3l-6.4,8c-0.7,0.9-0.6,2.1,0.3,2.8C7.7,55.9,8.2,56,8.6,56
		c0.6,0,1.2-0.3,1.6-0.8l6.4-8C17.3,46.4,17.1,45.1,16.3,44.4z" style="fill: #000;"></path>
	<path class="st0" d="M28.3,44.4c-0.9-0.7-2.1-0.6-2.8,0.3l-12.8,16c-0.7,0.9-0.6,2.1,0.3,2.8c0.4,0.3,0.8,0.4,1.2,0.4
		c0.6,0,1.2-0.3,1.6-0.8l12.8-16C29.3,46.4,29.1,45.1,28.3,44.4z" style="fill: #000;"></path>
	<path class="st0" d="M37,44.1L37,44.1c-1.1,0-2,0.9-2,2h0c-1.1,0-2,0.9-2,2s0.9,2,2,2h0v0c0,1.1,0.9,2,2,2c0,0,0,0,0,0
		c1.1,0,2-0.9,2-2c1.1,0,2-0.9,2-2c0-1.1-0.9-2-2-2v0C39,45,38.1,44.1,37,44.1z" style="fill: #000;"></path>
	<path class="st0" d="M30.4,54.1L30.4,54.1c-1.1,0-2,0.9-2,2c-1.1,0-2,0.9-2,2s0.9,2,2,2h0c0,1.1,0.9,2,2,2h0c1.1,0,2-0.9,2-2h0
		c1.1,0,2-0.9,2-2s-0.9-2-2-2h0v0C32.4,55,31.5,54.1,30.4,54.1z" style="fill: #000;"></path>
	<path class="st0" d="M45.6,56.1L45.6,56.1c0-1.1-0.9-2-2-2c-1.1,0-2,0.9-2,2h0c-1.1,0-2,0.9-2,2s0.9,2,2,2h0c0,1.1,0.9,2,2,2
		c1.1,0,2-0.9,2-2h0c1.1,0,2-0.9,2-2C47.6,57,46.7,56.1,45.6,56.1z" style="fill: #000;"></path>
	<path class="st0" d="M49,50.1c0,1.1,0.9,2,2,2s2-0.9,2-2v0c1.1,0,2-0.9,2-2c0-1.1-0.9-2-2-2c0-1.1-0.9-2-2-2c-1.1,0-2,0.9-2,2h0
		c-1.1,0-2,0.9-2,2S47.9,50.1,49,50.1z" style="fill: #000;"></path>
	<path class="st0" d="M49.7,10C46.5,3.9,40,0,33,0c-8.6,0-16.2,5.9-18.3,14.1C14.1,14,13.6,14,13,14C5.8,14,0,19.8,0,27
		s5.8,13,13,13l36,0c8.3,0,15-6.7,15-15C64,17,57.7,10.4,49.7,10z M49,36l-36,0c-5,0-9-4-9-9s4-9,9-9c0.9,0,1.8,0.1,2.6,0.4l2.2,0.7
		l0.3-2.3C19.3,9.5,25.6,4,33,4c5.9,0,11.3,3.5,13.7,8.9l0.6,1.2l1.6-0.1c0.1,0,0.1,0,0.2,0c6.1,0,11,4.9,11,11
		C60,31.1,55.1,36,49,36z" style="fill: #000;"></path>
</g>
</svg>