<?xml version="1.0" encoding="UTF-8" standalone="no"?>
<!-- Generator: Adobe Illustrator 19.1.0, SVG Export PlugIn . SVG Version: 6.00 Build 0)  -->

<svg
   version="1.1"
   id="Layer_2"
   x="0px"
   y="0px"
   viewBox="0 0 96 96"
   xml:space="preserve"
   width="96"
   height="96"
   xmlns="http://www.w3.org/2000/svg"
   xmlns:svg="http://www.w3.org/2000/svg"><defs
   id="defs1371" />
<style
   type="text/css"
   id="style1350">
	.st0{fill:#ffffff;}
</style>
<g
   id="g1366"
   style="fill:#000000;fill-opacity:1"
   transform="translate(16,16.05)">
	<path
   class="st0"
   d="m 16.3,44.4 c -0.9,-0.7 -2.1,-0.5 -2.8,0.3 l -6.4,8 c -0.7,0.9 -0.6,2.1 0.3,2.8 0.3,0.4 0.8,0.5 1.2,0.5 0.6,0 1.2,-0.3 1.6,-0.8 l 6.4,-8 c 0.7,-0.8 0.5,-2.1 -0.3,-2.8 z"
   style="fill:#000000;fill-opacity:1"
   id="path1352" />
	<path
   class="st0"
   d="m 28.3,44.4 c -0.9,-0.7 -2.1,-0.6 -2.8,0.3 l -12.8,16 c -0.7,0.9 -0.6,2.1 0.3,2.8 0.4,0.3 0.8,0.4 1.2,0.4 0.6,0 1.2,-0.3 1.6,-0.8 l 12.8,-16 c 0.7,-0.7 0.5,-2 -0.3,-2.7 z"
   style="fill:#000000;fill-opacity:1"
   id="path1354" />
	<path
   class="st0"
   d="m 37,44.1 v 0 c -1.1,0 -2,0.9 -2,2 v 0 c -1.1,0 -2,0.9 -2,2 0,1.1 0.9,2 2,2 v 0 0 c 0,1.1 0.9,2 2,2 0,0 0,0 0,0 1.1,0 2,-0.9 2,-2 1.1,0 2,-0.9 2,-2 0,-1.1 -0.9,-2 -2,-2 v 0 c 0,-1.1 -0.9,-2 -2,-2 z"
   style="fill:#000000;fill-opacity:1"
   id="path1356" />
	<path
   class="st0"
   d="m 30.4,54.1 v 0 c -1.1,0 -2,0.9 -2,2 -1.1,0 -2,0.9 -2,2 0,1.1 0.9,2 2,2 v 0 c 0,1.1 0.9,2 2,2 v 0 c 1.1,0 2,-0.9 2,-2 v 0 c 1.1,0 2,-0.9 2,-2 0,-1.1 -0.9,-2 -2,-2 v 0 0 c 0,-1.1 -0.9,-2 -2,-2 z"
   style="fill:#000000;fill-opacity:1"
   id="path1358" />
	<path
   class="st0"
   d="m 45.6,56.1 v 0 c 0,-1.1 -0.9,-2 -2,-2 -1.1,0 -2,0.9 -2,2 v 0 c -1.1,0 -2,0.9 -2,2 0,1.1 0.9,2 2,2 v 0 c 0,1.1 0.9,2 2,2 1.1,0 2,-0.9 2,-2 v 0 c 1.1,0 2,-0.9 2,-2 0,-1.1 -0.9,-2 -2,-2 z"
   style="fill:#000000;fill-opacity:1"
   id="path1360" />
	<path
   class="st0"
   d="m 49,50.1 c 0,1.1 0.9,2 2,2 1.1,0 2,-0.9 2,-2 v 0 c 1.1,0 2,-0.9 2,-2 0,-1.1 -0.9,-2 -2,-2 0,-1.1 -0.9,-2 -2,-2 -1.1,0 -2,0.9 -2,2 v 0 c -1.1,0 -2,0.9 -2,2 0,1.1 0.9,2 2,2 z"
   style="fill:#000000;fill-opacity:1"
   id="path1362" />
	<path
   class="st0"
   d="M 49.7,10 C 46.5,3.9 40,0 33,0 24.4,0 16.8,5.9 14.7,14.1 14.1,14 13.6,14 13,14 5.8,14 0,19.8 0,27 0,34.2 5.8,40 13,40 H 49 C 57.3,40 64,33.3 64,25 64,17 57.7,10.4 49.7,10 Z M 49,36 H 13 c -5,0 -9,-4 -9,-9 0,-5 4,-9 9,-9 0.9,0 1.8,0.1 2.6,0.4 l 2.2,0.7 0.3,-2.3 C 19.3,9.5 25.6,4 33,4 c 5.9,0 11.3,3.5 13.7,8.9 l 0.6,1.2 1.6,-0.1 c 0.1,0 0.1,0 0.2,0 6.1,0 11,4.9 11,11 -0.1,6.1 -5,11 -11.1,11 z"
   style="fill:#000000;fill-opacity:1"
   id="path1364" />
</g>
</svg>
